<svg xmlns="http://www.w3.org/2000/svg" xmlns:xlink="http://www.w3.org/1999/xlink" width="102.609" height="87.8" viewBox="0 0 102.609 87.8"><defs><style>.a{fill:url(#a);}.b{fill:url(#b);}.c{fill:url(#c);}.d{fill:url(#d);}.e{fill:url(#e);}.f{fill:url(#f);}.g{fill:url(#g);}.h,.u{fill:#c3a7ed;}.i{fill:url(#h);}.j,.k,.w{opacity:0.5;}.j{fill:url(#i);}.k{fill:url(#j);}.l,.u{opacity:0.7;}.m{fill:url(#k);}.n{fill:url(#l);}.o{fill:url(#m);}.p{fill:url(#n);}.q{fill:url(#o);}.r{fill:url(#p);}.s{fill:url(#q);}.t{fill:url(#r);}.v{fill:url(#s);}.w{fill:url(#t);}.x{fill:url(#ab);}</style><linearGradient id="a" y1="0.5" x2="1.002" y2="0.5" gradientUnits="objectBoundingBox"><stop offset="0" stop-color="#dad3f9"/><stop offset="1" stop-color="#be9dea"/></linearGradient><linearGradient id="b" x1="0.004" y1="0.497" x2="1.003" y2="0.497" gradientUnits="objectBoundingBox"><stop offset="0" stop-color="#cbc1f7"/><stop offset="1" stop-color="#e8dcf7"/></linearGradient><linearGradient id="c" x1="-0.001" y1="0.5" x2="1" y2="0.5" xlink:href="#b"/><linearGradient id="d" x1="-0.001" y1="0.501" x2="1.001" y2="0.501" xlink:href="#a"/><linearGradient id="e" x1="0.494" y1="-0.142" x2="0.501" y2="0.826" gradientUnits="objectBoundingBox"><stop offset="0" stop-color="#0665bd"/><stop offset="1" stop-color="#1a1f77"/></linearGradient><linearGradient id="f" x1="0.498" y1="-0.142" x2="0.498" y2="1.031" xlink:href="#e"/><linearGradient id="g" x1="0.498" y1="0.051" x2="0.502" y2="0.937" xlink:href="#e"/><linearGradient id="h" x1="0.001" y1="0.499" x2="1.003" y2="0.499" xlink:href="#e"/><radialGradient id="i" cx="0.499" cy="0.498" r="0.503" gradientTransform="matrix(1, 0, 0, -0.989, 0, 0.99)" gradientUnits="objectBoundingBox"><stop offset="0" stop-color="#559dea"/><stop offset="0.388" stop-color="#5ea9f5"/><stop offset="1" stop-color="#fff"/></radialGradient><radialGradient id="j" cx="0.499" cy="0.509" r="0.499" gradientTransform="matrix(1, 0, 0, -1, 0, 1.018)" xlink:href="#i"/><linearGradient id="k" x1="0.005" y1="0.496" x2="1.008" y2="0.496" xlink:href="#a"/><linearGradient id="l" x1="0.002" y1="0.492" x2="1" y2="0.492" xlink:href="#b"/><linearGradient id="m" x1="-0.004" y1="0.501" x2="1" y2="0.501" xlink:href="#b"/><linearGradient id="n" x1="0.001" y1="0.501" x2="1" y2="0.501" xlink:href="#a"/><linearGradient id="o" x1="0.496" y1="-0.135" x2="0.503" y2="0.801" xlink:href="#e"/><linearGradient id="p" x1="0.5" y1="-0.13" x2="0.5" y2="1.005" xlink:href="#e"/><linearGradient id="q" x1="0.499" y1="0.015" x2="0.503" y2="0.873" xlink:href="#e"/><linearGradient id="r" x1="0.002" y1="0.507" x2="1" y2="0.507" xlink:href="#b"/><linearGradient id="s" x1="-0.007" y1="0.498" x2="0.998" y2="0.498" xlink:href="#e"/><radialGradient id="t" cx="0.499" cy="0.509" r="2.23" gradientTransform="matrix(0.224, 0, 0, -0.222, 0.387, -186.971)" xlink:href="#i"/><linearGradient id="ab" x1="-0.001" y1="0.502" x2="1.001" y2="0.502" xlink:href="#b"/></defs><g transform="translate(-1255.504 -3179.699)"><g transform="translate(1091.5 3179.699)"><g transform="translate(-719.396 -542)"><path class="a" d="M925.8,562.2c2,.3,3.9.9,5.9,1.2a15.062,15.062,0,0,0,3,.1c-2.3-2-3.8-3.9-3.8-5.9,0-7.5,7.7-5.5,7.7-12.3h-1a8.746,8.746,0,0,1-4.5,5.8,16.13,16.13,0,0,1-8.1,1.3,17.862,17.862,0,0,1-4.6-.9c-.4-.2-.9-.4-1.3-.6,2.1,1.4,4.3,2.7,4.3,6.8,0,1.5-1.1,3-2.8,4.6A11.423,11.423,0,0,1,925.8,562.2Z"/><path class="b" d="M925,552.4a14.962,14.962,0,0,0,8.1-1.3,8.469,8.469,0,0,0,4.5-5.8H915.7c0,3.1,1.6,4.4,3.3,5.5.4.2.9.4,1.3.6A19.746,19.746,0,0,0,925,552.4Z"/><path class="c" d="M933.3,607.4c14.6-5.8,21-22.9,12.6-34.5-4-3.9-8.2-6.8-11.2-9.4a15.066,15.066,0,0,1-3-.1c-2-.3-3.9-.9-5.9-1.2a11.423,11.423,0,0,0-5.2.1c-6.1,5.7-20.3,13.3-23.4,31.8a22.371,22.371,0,0,0,1.1,12.5C903.1,610.4,918.4,613.3,933.3,607.4Z"/><path class="d" d="M956.7,594a35.82,35.82,0,0,0-10.8-21.1c8.4,11.6,2,28.6-12.6,34.5-14.9,5.9-30.2,3.1-35-.9,2.6,6.3,8.7,10.7,18.4,12.7a55.367,55.367,0,0,0,10.3,1C948.6,620.1,958.8,609.9,956.7,594Z"/></g><g transform="translate(-719.396 -542)"><path class="e" d="M933.3,552.9l-11.3.4c-.9,0-1.7.6-1.6,1.3a1.7,1.7,0,0,0,1.8,1.2l11.4-.4a1.457,1.457,0,0,0,.7-1.3A1.675,1.675,0,0,0,933.3,552.9Z"/><path class="f" d="M933.6,557.2a1.47,1.47,0,0,0-.8-1.7l-10.9.4c-.9,0-1.7.6-1.6,1.3a1.7,1.7,0,0,0,1.8,1.2l10.7-.4A2.047,2.047,0,0,0,933.6,557.2Z"/><path class="g" d="M933.8,559.6a1.015,1.015,0,0,0-.3-1,1.933,1.933,0,0,0-.9-.5l-11.2.4c-.9,0-1.7.6-1.6,1.3a1.7,1.7,0,0,0,1.8,1.2l10.8-.4c.1,0,.1,0,.2-.1A1.646,1.646,0,0,0,933.8,559.6Z"/></g><path class="h" d="M937.8,545.3c0,1.7-4.8,3.1-10.6,3.1s-10.6-1.4-10.6-3.1,4.8-3.1,10.6-3.1C933.1,542.2,937.8,543.6,937.8,545.3Z" transform="translate(-719.396 -542)"/><g transform="translate(-719.396 -542)"><path class="i" d="M933.1,597.4a8.357,8.357,0,0,1-4,1,7.219,7.219,0,0,1-5.9-2.7,7.688,7.688,0,0,1-1.6-3.9H920v-1.6h1.5v-.4a2.77,2.77,0,0,1,.1-.9H920v-1.6h1.7a7.954,7.954,0,0,1,1.9-3.9,7.118,7.118,0,0,1,5.6-2.4,8.476,8.476,0,0,1,3.7.8l-.6,2.4a5.9,5.9,0,0,0-2.9-.7,4.534,4.534,0,0,0-3.3,1.4,5.346,5.346,0,0,0-1.1,2.4h6.8v1.6h-7.1a2.769,2.769,0,0,0-.1.9v.4h7.2v1.6h-6.9a5.271,5.271,0,0,0,1.1,2.5,4.459,4.459,0,0,0,3.5,1.4,6.075,6.075,0,0,0,3.1-.8Z"/></g><ellipse class="j" cx="20" cy="4.5" rx="20" ry="4.5" transform="translate(190.504 78.8)"/></g><g transform="translate(372.104 2637.699)"><ellipse class="k" cx="14.7" cy="3.3" rx="14.7" ry="3.3" transform="translate(951.4 603.1)"/><g class="l"><path class="m" d="M963.1,560.1c1.5.2,2.9.7,4.3.9a8.129,8.129,0,0,0,2.2.1c-1.7-1.5-2.8-2.8-2.8-4.3,0-5.5,5.6-4.1,5.6-9h-.7a6.264,6.264,0,0,1-3.3,4.2,11.046,11.046,0,0,1-6,.9,12.129,12.129,0,0,1-3.3-.7c-.3-.1-.7-.3-1-.4,1.5,1,3.2,2,3.2,5,0,1.1-.8,2.2-2.1,3.4A8.571,8.571,0,0,1,963.1,560.1Z"/><path class="n" d="M962.5,552.9a11.333,11.333,0,0,0,6-.9,6.214,6.214,0,0,0,3.3-4.2H955.7c0,2.3,1.2,3.2,2.4,4.1a3,3,0,0,0,1,.4A18.579,18.579,0,0,0,962.5,552.9Z"/><path class="o" d="M968.6,593.3c10.7-4.3,15.4-16.8,9.3-25.3-2.9-2.9-6-5-8.2-6.9a16.206,16.206,0,0,1-2.2-.1c-1.5-.2-2.9-.6-4.3-.9a9.717,9.717,0,0,0-3.8,0c-4.5,4.2-14.9,9.8-17.2,23.3a16.5,16.5,0,0,0,.8,9.2C946.4,595.6,957.7,597.7,968.6,593.3Z"/><path class="p" d="M985.8,583.5a25.4,25.4,0,0,0-8-15.5c6.2,8.5,1.4,21-9.3,25.3-10.9,4.4-22.2,2.2-25.7-.6,1.9,4.6,6.4,7.9,13.5,9.3a35.74,35.74,0,0,0,7.6.7C979.8,602.7,987.4,595.1,985.8,583.5Z"/></g><g class="l"><path class="q" d="M968.6,553.3l-8.3.3a1.126,1.126,0,0,0-1.2,1c0,.5.6.9,1.3.9l8.4-.3a1.231,1.231,0,0,0,.5-1A1.068,1.068,0,0,0,968.6,553.3Z"/><path class="r" d="M968.8,556.4a.969.969,0,0,0-.6-1.2l-8,.3a1.126,1.126,0,0,0-1.2,1c0,.5.6.9,1.3.9l7.8-.3A1.2,1.2,0,0,0,968.8,556.4Z"/><path class="s" d="M968.9,558.2a.663.663,0,0,0-.2-.7.864.864,0,0,0-.6-.3l-8.2.3a1.126,1.126,0,0,0-1.2,1c0,.5.6.9,1.3.9l7.9-.3h.1A1.913,1.913,0,0,0,968.9,558.2Z"/></g><path class="t" d="M972.5,547.7c0,1.3-3.8,2.4-8.4,2.4s-8.4-1.1-8.4-2.4,3.8-2.4,8.4-2.4S972.5,546.4,972.5,547.7Z"/><path class="u" d="M971.9,547.7c0,1.2-3.5,2.3-7.8,2.3s-7.8-1-7.8-2.3,3.5-2.3,7.8-2.3S971.9,546.5,971.9,547.7Z"/><g class="l"><path class="v" d="M968.5,586a5.562,5.562,0,0,1-2.9.8,5.362,5.362,0,0,1-4.3-2,5.973,5.973,0,0,1-1.2-2.8h-1.2v-1.2H960v-1h-1.1v-1.2h1.3a5.288,5.288,0,0,1,1.4-2.9,5.423,5.423,0,0,1,4.1-1.8,6.348,6.348,0,0,1,2.7.6l-.5,1.8a4.342,4.342,0,0,0-2.1-.5,2.965,2.965,0,0,0-2.4,1,3.02,3.02,0,0,0-.8,1.8h5v1.2h-5.2v1h5.3V582h-5.1a3.668,3.668,0,0,0,.8,1.9,3.392,3.392,0,0,0,2.6,1,4.127,4.127,0,0,0,2.2-.6Z"/></g><ellipse class="w" cx="14.7" cy="3.3" rx="14.7" ry="3.3" transform="translate(883.4 594.1)"/><path class="a" d="M925.8,562.2c2,.3,3.9.9,5.9,1.2a15.062,15.062,0,0,0,3,.1c-2.3-2-3.8-3.9-3.8-5.9,0-7.5,7.7-5.5,7.7-12.3h-1a8.746,8.746,0,0,1-4.5,5.8,16.13,16.13,0,0,1-8.1,1.3,17.862,17.862,0,0,1-4.6-.9c-.4-.2-.9-.4-1.3-.6,2.1,1.4,4.3,2.7,4.3,6.8,0,1.5-1.1,3-2.8,4.6A11.423,11.423,0,0,1,925.8,562.2Z"/><path class="b" d="M925,552.4a14.962,14.962,0,0,0,8.1-1.3,8.469,8.469,0,0,0,4.5-5.8H915.7c0,3.1,1.6,4.4,3.3,5.5.4.2.9.4,1.3.6A19.746,19.746,0,0,0,925,552.4Z"/><path class="c" d="M933.3,607.4c14.6-5.8,21-22.9,12.6-34.5-4-3.9-8.2-6.8-11.2-9.4a15.066,15.066,0,0,1-3-.1c-2-.3-3.9-.9-5.9-1.2a11.423,11.423,0,0,0-5.2.1c-6.1,5.7-20.3,13.3-23.4,31.8a22.371,22.371,0,0,0,1.1,12.5C903.1,610.4,918.4,613.3,933.3,607.4Z"/><path class="d" d="M956.7,594a35.82,35.82,0,0,0-10.8-21.1c8.4,11.6,2,28.6-12.6,34.5-14.9,5.9-30.2,3.1-35-.9,2.6,6.3,8.7,10.7,18.4,12.7a55.367,55.367,0,0,0,10.3,1C948.6,620.1,958.8,609.9,956.7,594Z"/><path class="e" d="M933.3,552.9l-11.3.4c-.9,0-1.7.6-1.6,1.3a1.7,1.7,0,0,0,1.8,1.2l11.4-.4a1.457,1.457,0,0,0,.7-1.3A1.675,1.675,0,0,0,933.3,552.9Z"/><path class="f" d="M933.6,557.2a1.47,1.47,0,0,0-.8-1.7l-10.9.4c-.9,0-1.7.6-1.6,1.3a1.7,1.7,0,0,0,1.8,1.2l10.7-.4A2.047,2.047,0,0,0,933.6,557.2Z"/><path class="g" d="M933.8,559.6a1.015,1.015,0,0,0-.3-1,1.933,1.933,0,0,0-.9-.5l-11.2.4c-.9,0-1.7.6-1.6,1.3a1.7,1.7,0,0,0,1.8,1.2l10.8-.4c.1,0,.1,0,.2-.1A1.646,1.646,0,0,0,933.8,559.6Z"/><path class="x" d="M938.6,545.3c0,1.8-5.1,3.3-11.4,3.3s-11.4-1.5-11.4-3.3,5.1-3.3,11.4-3.3S938.6,543.5,938.6,545.3Z"/><path class="h" d="M937.8,545.3c0,1.7-4.8,3.1-10.6,3.1s-10.6-1.4-10.6-3.1,4.8-3.1,10.6-3.1C933.1,542.2,937.8,543.6,937.8,545.3Z"/><path class="i" d="M933.1,597.4a8.357,8.357,0,0,1-4,1,7.219,7.219,0,0,1-5.9-2.7,7.688,7.688,0,0,1-1.6-3.9H920v-1.6h1.5v-.4a2.77,2.77,0,0,1,.1-.9H920v-1.6h1.7a7.954,7.954,0,0,1,1.9-3.9,7.118,7.118,0,0,1,5.6-2.4,8.476,8.476,0,0,1,3.7.8l-.6,2.4a5.9,5.9,0,0,0-2.9-.7,4.534,4.534,0,0,0-3.3,1.4,5.346,5.346,0,0,0-1.1,2.4h6.8v1.6h-7.1a2.769,2.769,0,0,0-.1.9v.4h7.2v1.6h-6.9a5.271,5.271,0,0,0,1.1,2.5,4.459,4.459,0,0,0,3.5,1.4,6.075,6.075,0,0,0,3.1-.8Z"/></g></g></svg>