<svg xmlns="http://www.w3.org/2000/svg" xmlns:xlink="http://www.w3.org/1999/xlink" width="60.173" height="87.6" viewBox="0 0 60.173 87.6"><defs><style>.a{fill:url(#a);}.b{fill:url(#b);}.c{fill:url(#c);}.d{fill:url(#d);}.e{fill:url(#e);}.f{fill:url(#f);}.g{fill:url(#g);}.h{fill:#c3a7ed;}.i{fill:url(#h);}.j{opacity:0.5;fill:url(#i);}</style><linearGradient id="a" y1="0.5" x2="1.002" y2="0.5" gradientUnits="objectBoundingBox"><stop offset="0" stop-color="#dad3f9"/><stop offset="1" stop-color="#be9dea"/></linearGradient><linearGradient id="b" x1="0.004" y1="0.497" x2="1.003" y2="0.497" gradientUnits="objectBoundingBox"><stop offset="0" stop-color="#cbc1f7"/><stop offset="1" stop-color="#e8dcf7"/></linearGradient><linearGradient id="c" x1="-0.001" y1="0.5" x2="1" y2="0.5" xlink:href="#b"/><linearGradient id="d" x1="-0.001" y1="0.501" x2="1.001" y2="0.501" xlink:href="#a"/><linearGradient id="e" x1="0.494" y1="-0.142" x2="0.501" y2="0.826" gradientUnits="objectBoundingBox"><stop offset="0" stop-color="#0665bd"/><stop offset="1" stop-color="#1a1f77"/></linearGradient><linearGradient id="f" x1="0.498" y1="-0.142" x2="0.498" y2="1.031" xlink:href="#e"/><linearGradient id="g" x1="0.498" y1="0.051" x2="0.502" y2="0.937" xlink:href="#e"/><linearGradient id="h" x1="0.001" y1="0.499" x2="1.003" y2="0.499" xlink:href="#e"/><radialGradient id="i" cx="0.499" cy="0.498" r="0.503" gradientTransform="matrix(1, 0, 0, -0.989, 0, 0.99)" gradientUnits="objectBoundingBox"><stop offset="0" stop-color="#559dea"/><stop offset="0.388" stop-color="#5ea9f5"/><stop offset="1" stop-color="#fff"/></radialGradient></defs><g transform="translate(-177.4 -0.2)"><g transform="translate(-719.396 -542)"><path class="a" d="M925.8,562.2c2,.3,3.9.9,5.9,1.2a15.062,15.062,0,0,0,3,.1c-2.3-2-3.8-3.9-3.8-5.9,0-7.5,7.7-5.5,7.7-12.3h-1a8.746,8.746,0,0,1-4.5,5.8,16.13,16.13,0,0,1-8.1,1.3,17.862,17.862,0,0,1-4.6-.9c-.4-.2-.9-.4-1.3-.6,2.1,1.4,4.3,2.7,4.3,6.8,0,1.5-1.1,3-2.8,4.6A11.423,11.423,0,0,1,925.8,562.2Z"/><path class="b" d="M925,552.4a14.962,14.962,0,0,0,8.1-1.3,8.469,8.469,0,0,0,4.5-5.8H915.7c0,3.1,1.6,4.4,3.3,5.5.4.2.9.4,1.3.6A19.746,19.746,0,0,0,925,552.4Z"/><path class="c" d="M933.3,607.4c14.6-5.8,21-22.9,12.6-34.5-4-3.9-8.2-6.8-11.2-9.4a15.066,15.066,0,0,1-3-.1c-2-.3-3.9-.9-5.9-1.2a11.423,11.423,0,0,0-5.2.1c-6.1,5.7-20.3,13.3-23.4,31.8a22.371,22.371,0,0,0,1.1,12.5C903.1,610.4,918.4,613.3,933.3,607.4Z"/><path class="d" d="M956.7,594a35.82,35.82,0,0,0-10.8-21.1c8.4,11.6,2,28.6-12.6,34.5-14.9,5.9-30.2,3.1-35-.9,2.6,6.3,8.7,10.7,18.4,12.7a55.367,55.367,0,0,0,10.3,1C948.6,620.1,958.8,609.9,956.7,594Z"/></g><g transform="translate(-719.396 -542)"><path class="e" d="M933.3,552.9l-11.3.4c-.9,0-1.7.6-1.6,1.3a1.7,1.7,0,0,0,1.8,1.2l11.4-.4a1.457,1.457,0,0,0,.7-1.3A1.675,1.675,0,0,0,933.3,552.9Z"/><path class="f" d="M933.6,557.2a1.47,1.47,0,0,0-.8-1.7l-10.9.4c-.9,0-1.7.6-1.6,1.3a1.7,1.7,0,0,0,1.8,1.2l10.7-.4A2.047,2.047,0,0,0,933.6,557.2Z"/><path class="g" d="M933.8,559.6a1.015,1.015,0,0,0-.3-1,1.933,1.933,0,0,0-.9-.5l-11.2.4c-.9,0-1.7.6-1.6,1.3a1.7,1.7,0,0,0,1.8,1.2l10.8-.4c.1,0,.1,0,.2-.1A1.646,1.646,0,0,0,933.8,559.6Z"/></g><path class="h" d="M937.8,545.3c0,1.7-4.8,3.1-10.6,3.1s-10.6-1.4-10.6-3.1,4.8-3.1,10.6-3.1C933.1,542.2,937.8,543.6,937.8,545.3Z" transform="translate(-719.396 -542)"/><g transform="translate(-719.396 -542)"><path class="i" d="M933.1,597.4a8.357,8.357,0,0,1-4,1,7.219,7.219,0,0,1-5.9-2.7,7.688,7.688,0,0,1-1.6-3.9H920v-1.6h1.5v-.4a2.77,2.77,0,0,1,.1-.9H920v-1.6h1.7a7.954,7.954,0,0,1,1.9-3.9,7.118,7.118,0,0,1,5.6-2.4,8.476,8.476,0,0,1,3.7.8l-.6,2.4a5.9,5.9,0,0,0-2.9-.7,4.534,4.534,0,0,0-3.3,1.4,5.346,5.346,0,0,0-1.1,2.4h6.8v1.6h-7.1a2.769,2.769,0,0,0-.1.9v.4h7.2v1.6h-6.9a5.271,5.271,0,0,0,1.1,2.5,4.459,4.459,0,0,0,3.5,1.4,6.075,6.075,0,0,0,3.1-.8Z"/></g><ellipse class="j" cx="20" cy="4.5" rx="20" ry="4.5" transform="translate(190.504 78.8)"/></g></svg>