<svg xmlns="http://www.w3.org/2000/svg" xmlns:xlink="http://www.w3.org/1999/xlink" width="110" height="60" viewBox="0 0 110 60"><defs><style>.a{fill:url(#a);}.b{fill:url(#b);}.c{fill:url(#c);}.d{fill:url(#f);}.e{fill:url(#k);}.f{fill:url(#l);}.g{fill:url(#n);}.h{fill:url(#p);}</style><linearGradient id="a" y1="0.496" x2="1" y2="0.496" gradientUnits="objectBoundingBox"><stop offset="0" stop-color="#cbc1f7"/><stop offset="1" stop-color="#e8dcf7"/></linearGradient><linearGradient id="b" x1="0" y1="0.505" x2="1" y2="0.505" xlink:href="#a"/><linearGradient id="c" x1="192.045" y1="7.796" x2="213.78" y2="7.796" xlink:href="#a"/><linearGradient id="f" x1="170.32" y1="6.795" x2="192.055" y2="6.795" xlink:href="#a"/><linearGradient id="k" x1="-0.004" y1="0.498" x2="0.993" y2="0.498" gradientUnits="objectBoundingBox"><stop offset="0" stop-color="#0665bd"/><stop offset="1" stop-color="#1a1f77"/></linearGradient><linearGradient id="l" x1="-0.004" y1="0.503" x2="0.993" y2="0.503" xlink:href="#k"/><linearGradient id="n" x1="0.001" y1="0.503" x2="0.998" y2="0.503" xlink:href="#k"/><linearGradient id="p" x1="0.001" y1="0.498" x2="0.998" y2="0.498" xlink:href="#k"/></defs><g transform="translate(-854.4 -538.1)"><rect class="a" width="52.4" height="2" transform="translate(883.2 540.9)"/><rect class="b" width="52.4" height="2" transform="translate(883.2 593.3)"/><rect class="c" width="2" height="52.4" transform="translate(882.2 541.9)"/><rect class="c" width="2" height="36.4" transform="translate(858.28 569.595) rotate(-45)"/><rect class="c" width="2" height="34.4" transform="translate(882.019 541.867) rotate(45)"/><rect class="d" width="2" height="52.4" transform="translate(934.6 541.9)"/><rect class="d" width="2" height="38.4" transform="translate(933.367 541.281) rotate(-45)"/><rect class="d" width="2" height="71.4" transform="translate(882.367 543.281) rotate(-45)"/><rect class="d" width="2" height="71.4" transform="translate(932.854 542.867) rotate(45)"/><rect class="d" width="2" height="38.4" transform="translate(961.52 565.867) rotate(45)"/><circle class="e" cx="3.8" cy="3.8" r="3.8" transform="translate(879.4 538.1)"/><circle class="f" cx="3.8" cy="3.8" r="3.8" transform="translate(879.4 590.5)"/><circle class="f" cx="3.8" cy="3.8" r="3.8" transform="translate(854.4 563.5)"/><circle class="g" cx="3.8" cy="3.8" r="3.8" transform="translate(931.8 590.5)"/><circle class="g" cx="3.8" cy="3.8" r="3.8" transform="translate(956.8 563.5)"/><circle class="h" cx="3.8" cy="3.8" r="3.8" transform="translate(931.8 538.1)"/></g></svg>