<svg xmlns="http://www.w3.org/2000/svg" xmlns:xlink="http://www.w3.org/1999/xlink" width="60" height="60" viewBox="0 0 60 60"><defs><style>.a{fill:url(#a);}.b{fill:url(#b);}.c{fill:url(#c);}.d{fill:url(#d);}.e{fill:url(#e);}.f{fill:url(#f);}.g{fill:url(#g);}.h{fill:url(#h);}</style><linearGradient id="a" y1="0.496" x2="1" y2="0.496" gradientUnits="objectBoundingBox"><stop offset="0" stop-color="#cbc1f7"/><stop offset="1" stop-color="#e8dcf7"/></linearGradient><linearGradient id="b" x1="0" y1="0.505" x2="1" y2="0.505" xlink:href="#a"/><linearGradient id="c" x1="192.045" y1="7.796" x2="213.78" y2="7.796" xlink:href="#a"/><linearGradient id="d" x1="170.32" y1="6.795" x2="192.055" y2="6.795" xlink:href="#a"/><linearGradient id="e" x1="-0.004" y1="0.498" x2="0.993" y2="0.498" gradientUnits="objectBoundingBox"><stop offset="0" stop-color="#0665bd"/><stop offset="1" stop-color="#1a1f77"/></linearGradient><linearGradient id="f" x1="-0.004" y1="0.503" x2="0.993" y2="0.503" xlink:href="#e"/><linearGradient id="g" x1="0.001" y1="0.503" x2="0.998" y2="0.503" xlink:href="#e"/><linearGradient id="h" x1="0.001" y1="0.498" x2="0.998" y2="0.498" xlink:href="#e"/></defs><g transform="translate(-879.4 -538.1)"><rect class="a" width="52.4" height="2" transform="translate(883.2 540.9)"/><rect class="b" width="52.4" height="2" transform="translate(883.2 593.3)"/><rect class="c" width="2" height="52.4" transform="translate(882.2 541.9)"/><rect class="d" width="2" height="52.4" transform="translate(934.6 541.9)"/><circle class="e" cx="3.8" cy="3.8" r="3.8" transform="translate(879.4 538.1)"/><circle class="f" cx="3.8" cy="3.8" r="3.8" transform="translate(879.4 590.5)"/><circle class="g" cx="3.8" cy="3.8" r="3.8" transform="translate(931.8 590.5)"/><circle class="h" cx="3.8" cy="3.8" r="3.8" transform="translate(931.8 538.1)"/></g></svg>