<svg xmlns="http://www.w3.org/2000/svg" xmlns:xlink="http://www.w3.org/1999/xlink" width="178.485" height="250.207" viewBox="0 0 178.485 250.207"><defs><style>.a{fill:#1a75fa;}.b,.h,.i,.l,.p,.z{opacity:0.3;}.b{fill:url(#a);}.c{opacity:0.67;mix-blend-mode:multiply;fill:url(#b);}.ag,.ah,.ai,.aj,.ak,.ap,.c{isolation:isolate;}.d{fill:url(#c);}.e{fill:url(#d);}.f{fill:url(#e);}.g{fill:url(#f);}.h{fill:url(#g);}.i{fill:url(#h);}.j{fill:url(#i);}.k{fill:url(#j);}.l{fill:url(#k);}.m{fill:#fff;}.n{fill:url(#l);}.o{fill:url(#m);}.p{fill:url(#n);}.q{fill:url(#o);}.r{fill:url(#p);}.s{fill:url(#q);}.t{fill:url(#r);}.u{fill:url(#s);}.v{fill:url(#t);}.w{fill:url(#u);}.x{fill:#dfe3fb;}.y{fill:url(#v);}.z{fill:url(#w);}.aa{fill:url(#x);}.ab,.ag,.ah,.ao{opacity:0.5;}.ab{fill:url(#y);}.ac{fill:url(#z);}.ad{fill:url(#aa);}.ae{fill:url(#ab);}.af{fill:#2f95cd;}.ag,.ah,.ai,.aj,.ak,.ap{mix-blend-mode:lighten;}.ag{fill:url(#ac);}.ah{fill:url(#ad);}.ai{opacity:0.2;fill:url(#ae);}.aj,.ak,.ap{opacity:0.72;}.aj{fill:url(#af);}.ak{fill:url(#ag);}.al{fill:url(#ah);}.am{fill:url(#ai);}.an{fill:url(#aj);}.ao{fill:url(#ak);}.ap{fill:url(#al);}.aq{opacity:0.8;}.ar{fill:url(#am);}</style><linearGradient id="a" x1="0.934" y1="1.575" x2="0.934" y2="0.562" gradientUnits="objectBoundingBox"><stop offset="0" stop-color="#9d68c2"/><stop offset="1" stop-color="#ccedff"/></linearGradient><radialGradient id="b" cx="0.5" cy="0.502" r="0.443" gradientTransform="translate(0 -0.062) scale(1 1.124)" gradientUnits="objectBoundingBox"><stop offset="0" stop-color="#5b88ff"/><stop offset="0.388" stop-color="#bfdef5"/><stop offset="1" stop-color="#fff"/></radialGradient><linearGradient id="c" x1="0.44" y1="0.974" x2="0.766" y2="-0.001" gradientUnits="objectBoundingBox"><stop offset="0" stop-color="#cbc1f7"/><stop offset="1" stop-color="#e8dcf7"/></linearGradient><linearGradient id="d" x1="0.919" y1="0.512" x2="0.085" y2="0.491" gradientUnits="objectBoundingBox"><stop offset="0" stop-color="#8879ea"/><stop offset="1" stop-color="#9e8cef"/></linearGradient><linearGradient id="e" x1="0.333" y1="1.015" x2="0.666" y2="0.023" xlink:href="#c"/><linearGradient id="f" x1="190.424" y1="0.511" x2="189.577" y2="0.491" xlink:href="#d"/><linearGradient id="g" x1="0.502" y1="0.999" x2="0.502" y2="0" xlink:href="#a"/><linearGradient id="h" x1="0.499" y1="1.001" x2="0.499" y2="0.002" xlink:href="#a"/><linearGradient id="i" x1="-1.405" y1="4.169" x2="-1.157" y2="3.168" xlink:href="#c"/><linearGradient id="j" x1="-1.223" y1="8.887" x2="-1.223" y2="7.961" gradientUnits="objectBoundingBox"><stop offset="0" stop-color="#be9dea"/><stop offset="1" stop-color="#9e8cef"/></linearGradient><linearGradient id="k" x1="-1.209" y1="4.296" x2="-1.209" y2="3.312" xlink:href="#a"/><linearGradient id="l" x1="53.194" y1="5.86" x2="53.442" y2="4.859" xlink:href="#c"/><linearGradient id="m" x1="53.602" y1="13.099" x2="53.602" y2="12.173" xlink:href="#j"/><linearGradient id="n" x1="53.184" y1="6.05" x2="53.184" y2="5.065" xlink:href="#a"/><linearGradient id="o" x1="-37.549" y1="0.997" x2="-37.549" y2="-0.002" gradientUnits="objectBoundingBox"><stop offset="0" stop-color="#b9acf4"/><stop offset="1" stop-color="#e1d1f5"/></linearGradient><linearGradient id="p" x1="0.506" y1="1" x2="0.506" y2="0.001" xlink:href="#j"/><linearGradient id="q" x1="0.498" y1="0.997" x2="0.498" y2="-0.002" xlink:href="#o"/><linearGradient id="r" x1="0.498" y1="1.004" x2="0.498" y2="0.002" xlink:href="#j"/><radialGradient id="s" cx="0.496" cy="0.502" r="0.385" gradientTransform="translate(-0.649) scale(2.299 1)" gradientUnits="objectBoundingBox"><stop offset="0" stop-color="#94fdff"/><stop offset="1" stop-color="#22e0ff"/></radialGradient><radialGradient id="t" cx="0.504" cy="0.502" r="0.385" gradientTransform="matrix(-2.299, 0, 0, 1, -162.694, 0)" xlink:href="#s"/><linearGradient id="u" x1="0.46" y1="1.009" x2="0.574" y2="0.008" xlink:href="#c"/><linearGradient id="v" x1="0.5" y1="1" x2="0.5" gradientUnits="objectBoundingBox"><stop offset="0" stop-color="#0665bd"/><stop offset="1" stop-color="#1a1f77"/></linearGradient><linearGradient id="w" x1="0.5" y1="0.999" x2="0.5" y2="-0.001" xlink:href="#a"/><linearGradient id="x" x1="0" y1="0.504" x2="1.001" y2="0.504" xlink:href="#d"/><linearGradient id="y" x1="0.501" y1="1.012" x2="0.501" y2="0.005" gradientUnits="objectBoundingBox"><stop offset="0" stop-color="#8da4e5"/><stop offset="1" stop-color="#755cbb"/></linearGradient><linearGradient id="z" x1="0.485" y1="1.108" x2="0.508" y2="-0.226" gradientUnits="objectBoundingBox"><stop offset="0" stop-color="#5e36cc"/><stop offset="1" stop-color="#6c4a96"/></linearGradient><radialGradient id="aa" cx="0.498" cy="0.5" r="0.503" gradientTransform="translate(0.006) scale(0.988 1)" xlink:href="#s"/><radialGradient id="ab" cx="0.499" cy="0.499" r="0.497" gradientTransform="matrix(-1.01, 0, 0, 1, -75.814, 0)" xlink:href="#s"/><linearGradient id="ac" y1="0.5" x2="0.999" y2="0.5" gradientUnits="objectBoundingBox"><stop offset="0"/><stop offset="1" stop-color="#6a9bff"/></linearGradient><linearGradient id="ad" x1="0" y1="0.496" x2="1.001" y2="0.496" xlink:href="#ac"/><linearGradient id="ae" x1="-0.961" y1="-0.013" x2="-0.961" y2="-1.011" gradientUnits="objectBoundingBox"><stop offset="0"/><stop offset="1" stop-color="#00e3ff"/></linearGradient><linearGradient id="af" x1="0.001" y1="0.497" x2="1.002" y2="0.497" gradientUnits="objectBoundingBox"><stop offset="0"/><stop offset="1" stop-color="#d4e2ff"/></linearGradient><linearGradient id="ag" x1="0.002" y1="0.498" x2="1.003" y2="0.498" gradientUnits="objectBoundingBox"><stop offset="0" stop-color="#d4e2ff"/><stop offset="1"/></linearGradient><linearGradient id="ah" x1="0.429" y1="0.999" x2="0.603" y2="0.008" xlink:href="#c"/><linearGradient id="ai" x1="0.5" y1="0.998" x2="0.5" y2="-0.002" xlink:href="#j"/><radialGradient id="aj" cx="0.516" cy="0.844" r="0.763" gradientTransform="translate(0.017) scale(0.966 1)" xlink:href="#s"/><linearGradient id="ak" x1="0.499" y1="1" x2="0.499" y2="0.001" xlink:href="#y"/><linearGradient id="al" x1="0" y1="0.5" x2="1" y2="0.5" xlink:href="#af"/><radialGradient id="am" cx="0.517" cy="0.845" r="0.973" gradientTransform="translate(0.128) scale(0.744 1)" xlink:href="#s"/></defs><g transform="translate(-877.415 -284.237)"><path class="a" d="M890.9,483.4c10.6,22.3,112.9,19,138.7,1.7S998.1,322.5,928.8,325.6C878.3,327.8,863.7,426.3,890.9,483.4Z"/><path class="a" d="M1042,473.1c-4.4-.7-7.1-24-1.9-28.5s15.8,5.8,15.8,13.6S1049.6,474.4,1042,473.1Z"/><path class="a" d="M917.9,319.3c1.1,3.3-9.5,10.3-13.3,7.6-3.7-2.7-1.5-11,1.8-12.7C909.8,312.5,916.3,314.5,917.9,319.3Z"/><path class="b" d="M1036.4,534.4c.1,0,.1.1,0,0Z"/><ellipse class="c" cx="34.8" cy="7.6" rx="34.8" ry="7.6" transform="translate(924 516.7)"/><g transform="translate(0 -15)"><path class="d" d="M942.5,479a12.366,12.366,0,0,1-1.8-.2c-10.4-1.7-25.4-11.7-21.6-30.9a19.485,19.485,0,0,1,.6-2.3c.1-.4.2-.7.2-.8v-.1c4.4-14.8,18.2-29.5,18.2-29.5,2.6,2.9,2.2,8.2,1,13h0a54.457,54.457,0,0,1-2,6.4c-.9,2.3-1.6,3.9-1.6,3.9-3.1,7.5-2.4,16.9-2.4,16.9l9.1,23Z"/><path class="e" d="M938.1,415.3s-7.2,12.2-5,25.9a57.82,57.82,0,0,0,5.5-12.6C940.6,422,940.4,417,938.1,415.3Z"/><path class="f" d="M977.3,477.1l7.4-22.7a38.573,38.573,0,0,0,.8-12.6,18.9,18.9,0,0,0-1.3-5.2,57.613,57.613,0,0,1-3.6-10.3h0c-1.2-4.8-1.6-10.1,1-13,0,0,13.6,14.5,18.1,29.1a23.689,23.689,0,0,1,.9,3.6C1004.7,466.2,987.7,476.3,977.3,477.1Z"/><path class="g" d="M981.7,413.3s7.6,12.9,4.4,26.9a118.212,118.212,0,0,1-5-13.5C979.3,420,979.5,415.1,981.7,413.3Z"/><path class="h" d="M977.3,477.1l7.4-22.7a38.573,38.573,0,0,0,.8-12.6l1.1-2.6s.5,15.6,5.3,19.7c6,5.1,9.5-6.8,7.8-16.5a23.689,23.689,0,0,1,.9,3.6C1004.7,466.2,987.7,476.3,977.3,477.1Z"/><path class="i" d="M942.3,478.4l-1.5.4c-10.4-1.7-25.4-11.7-21.6-30.9a19.485,19.485,0,0,1,.6-2.3c-.4,2-1,12,2.6,15.8,4.6,4.9,9.7-12.2,10.8-24.4.4-3.8,2-4,4-2.4-.9,2.3-1.6,3.9-1.6,3.9-3.1,7.5-2.4,16.9-2.4,16.9Z"/><path class="j" d="M989.4,473.9c0,.6-.1,1.3-.1,2-.8,10.6-2.7,26.2-5.5,32.1-.7,1.4-1.4,2.2-2.1,2.3a1.268,1.268,0,0,1-.6-.1,5.626,5.626,0,0,1-2.3-1.5h0c-5.1-5-11.5-21-12-25.8a2.01,2.01,0,0,1,.1-1.2c2.5-3.9,21.4-17.7,22.6-16.2A80.436,80.436,0,0,1,989.4,473.9Z"/><path class="k" d="M966.7,482.9c-.5,1.5,20.1-3.2,22.7-17.5a4.381,4.381,0,0,0-3.1,0C980.9,467.1,970.2,472.4,966.7,482.9Z"/><path class="l" d="M989.4,473.9s-11.2,4.1-13.5,9.7-.5,18.3,2.8,25.2c-5.1-5-11.5-21-12-25.8a2.01,2.01,0,0,1,.1-1.2c2.5-3.9,21.4-17.7,22.6-16.2C989.6,465.8,989.6,469.2,989.4,473.9Z"/><path class="m" d="M977.6,500.2c.9.2,1.7,3.5.3,3.9C976.5,504.6,975.6,499.7,977.6,500.2Z"/><path class="n" d="M930.5,473.9c0,.6.1,1.3.1,2,.8,10.6,2.7,26.2,5.5,32.1.7,1.4,1.4,2.2,2.1,2.3a1.268,1.268,0,0,0,.6-.1,5.626,5.626,0,0,0,2.3-1.5h0c5.1-5,11.5-21,12-25.8a2.01,2.01,0,0,0-.1-1.2c-2.5-3.9-21.4-17.7-22.6-16.2A80.4,80.4,0,0,0,930.5,473.9Z"/><path class="o" d="M953.2,482.9c.5,1.5-20.1-3.2-22.7-17.5,0,0,.8-.6,2.7,0C938.7,467.1,949.7,472.4,953.2,482.9Z"/><path class="p" d="M930.5,473.9s11.2,4.1,13.5,9.7.5,18.3-2.8,25.2c5.1-5,11.5-21,12-25.8a2.01,2.01,0,0,0-.1-1.2c-2.5-3.9-21.4-17.7-22.6-16.2C930.3,465.8,930.3,469.2,930.5,473.9Z"/><path class="m" d="M943.3,493.9c-.9.2-2.8,9.8-1.4,10.2C943.4,504.6,945.3,493.4,943.3,493.9Z"/><path class="q" d="M935.3,340.1s-6.3-5.4-13.9-6.3c0,0-2.3,1.1-5.1,9.6-2.7,8.4,2.3,25.1,2.3,25.1Z"/><path class="r" d="M918.4,337.9a11.512,11.512,0,0,1,3-4.2s6.3,5.8,6,19.7l-1.8,1.9Z"/><path class="s" d="M987.1,340.1s6.3-5.4,13.9-6.3c0,0,2.3,1.1,5.1,9.6,2.7,8.4-2.3,25.1-2.3,25.1Z"/><path class="t" d="M1001,333.7a26.86,26.86,0,0,0-6.2,17.3l2.4,1.5,7-14.4S1001.9,333.6,1001,333.7Z"/><path class="u" d="M997,351.8s-1.6-9.1,4.4-15.9c0,0,6.8,3.2,9.6,15.1s-4.5,19-4.5,19Z"/><path class="v" d="M925.4,351.8s1.6-9.1-4.4-15.9c0,0-6.8,3.2-9.6,15.1s4.5,19,4.5,19Z"/><path class="w" d="M1005.3,402.4c-14,19.6-79.6,18.1-88.1,2.3-5.6-10.3-5-25.9.4-40.2,7-18.8,22.3-35.4,42.5-35.4,23.8,0,42.1,23.7,47.6,45.3C1010.5,385.3,1010,395.8,1005.3,402.4Z"/><path class="x" d="M922.1,384.2c3.1,13.3,60.8,14.8,74.9,2.7,14.2-12.1-6.2-55-37.5-53.1C931,335.5,917,362.4,922.1,384.2Z"/><path class="y" d="M921.8,382.6c3.1,13.3,60.8,14.8,74.9,2.7,14.2-12.1-6.2-55-37.5-53.1C930.7,333.9,916.7,360.8,921.8,382.6Z"/><path class="z" d="M1005.3,402.4c-14,19.6-79.6,18.1-88.1,2.3-5.6-10.3-5-25.9.4-40.2h0c-.2.8-5.7,20.9-.1,29.7,5.7,9,28.4,7.8,52.8,6.7,24.4-1,32.4-4.6,36.5-11.5,3.2-5.4,0-17.3-1.5-22.2l2.4,7.1C1010.5,385.3,1010,395.8,1005.3,402.4Z"/><path class="aa" d="M987.1,412.8a107.279,107.279,0,0,1-26.9,3.9c-13.6,0-23.5-1.6-29-3.8h0c-3.6-1.4-5.4-3.2-5.1-4.9.2-1.1,2.8-2,7-2.8,12.4-2.2,38-2.9,51.8-.8q1.8.3,3.3.6c.2,0,.4.1.6.1h.1c2.4.6,4.1,1.3,4.8,2.2a1.612,1.612,0,0,1,.4.7C994.7,409.8,991.7,411.4,987.1,412.8Z"/><path class="ab" d="M987.1,412.8c-3-1.3-22.2-9.3-37.7-5.9-16.9,3.8-18.2,6-18.2,6h0c-3.6-1.4-5.4-3.2-5.1-4.9.2-1.1,2.8-2,7-2.8,12.4-2.2,38-2.9,51.8-.8,1.4.3,2.8.5,3.9.8h.1c2.4.6,4.1,1.3,4.8,2.2a1.612,1.612,0,0,1,.4.7C994.7,409.8,991.7,411.4,987.1,412.8Z"/><path class="ac" d="M988.3,405.1c-3.2,3.1-18.7,5.7-27.5,5.7-15.8,0-25.4-2.5-27.6-5.5C946.6,402.8,975.7,402.2,988.3,405.1Z"/><path class="ad" d="M972.5,362.8c2.1,3.7,14.7,4.5,17.3,0,1.6-2.7-4.2-15.7-11.5-14.8C971,348.8,971.5,361,972.5,362.8Z"/><path class="ae" d="M949.9,362.7c-2.1,3.7-16.7,4.7-17.3.8-.9-6.3,3.7-16.3,11-15.5C950.8,348.8,950.9,360.9,949.9,362.7Z"/><path class="af" d="M951.4,369.9s2.7.7,10.3.7a46.867,46.867,0,0,0,11.5-1.1s-3.3,4.5-11.5,4.5S951.4,369.9,951.4,369.9Z"/><path class="ag" d="M931.3,348.9c-.7,4.3,8.9,4.1,22,3.7,15.7-.5,31.5,13,40.7,3.3,1.5-1.6-13.5-22.6-31.7-22.2C944.1,334.2,931.9,345.1,931.3,348.9Z"/><path class="ah" d="M940.2,386.5c-.8,3.1,5.7,6.3,21.8,5.5,19.5-1,23.6-5,22.6-6.2-.6-.7-6.4,3-22.4-.5C951.7,383,941.1,383.2,940.2,386.5Z"/><path class="m" d="M971.3,331.8c-1.4.3,10.2,6.5,10.7,5.7S975.1,330.9,971.3,331.8Z"/><path class="m" d="M993.5,336.4c-1.2.6-1.1,1.9,1.3,1.6s3.7-2.2,3.4-2.6C998,335,994.8,335.7,993.5,336.4Z"/><path class="ai" d="M922.5,378.2a41.235,41.235,0,0,1,.1-10.6c.8-6.1,2.4-10,3.4-9.5,1,.6.8,6.5,1.4,12.4a85.5,85.5,0,0,0,1.3,8.9S924.6,383.4,922.5,378.2Z"/><path class="aj" d="M1006.5,341.4s-2.2-2.7-5.2-2-3.2,10.2-1.4,10.4,2.6-5.2,3.9-6.1,3.8-.5,3.8-.5Z"/><path class="ak" d="M913.7,344.7a4.3,4.3,0,0,1,3.8-.9c2.6.4,4.1,5.8,5.4,5.2,1.3-.5.4-9.2-3.2-11.7C919.8,337.3,915.2,341.1,913.7,344.7Z"/><path class="al" d="M986.6,463c-1.9,11.2-12,18.7-26.4,18.7-12.6,0-23.2-4.7-26-15s-1.7-29.4,2-41.2a38.63,38.63,0,0,1,2-5.1h0a28.632,28.632,0,0,1,2.4-4.2h0c4.6-6.9,11.3-11.4,18.9-11.4a22.973,22.973,0,0,1,18.1,8.1,27.21,27.21,0,0,1,4.5,7.5,76.178,76.178,0,0,1,3.1,9.9v.1A84.034,84.034,0,0,1,986.6,463Z"/><path class="am" d="M934.7,456.4c2.1-15.1,14.3-25.3,27.7-24,14.5,1.4,22.3,15.2,22.1,27.1s-8.9,21.1-24.4,21.1C944.5,480.5,932.7,470.5,934.7,456.4Z"/><path class="an" d="M934.9,457.6c2.1-15.1,14.3-25.3,27.7-24,14.5,1.4,22.3,15.2,22.1,27.1s-8.9,21.1-24.4,21.1C944.6,481.8,932.9,471.7,934.9,457.6Z"/><path class="ao" d="M977.6,412.9c-3.1,4.8-20,7.6-29.8,6.7-8.5-.8-7.2-3.1-7.2-3.4h0c4.6-6.9,11.3-11.4,18.9-11.4A23.29,23.29,0,0,1,977.6,412.9Z"/><path class="m" d="M971.5,421.2c-.8.3-.8,6.6,0,7.6s2.1.7,2.6-.8C974.6,426.6,972.7,420.8,971.5,421.2Z"/><path class="m" d="M973,430.5c-.7.2-.7,1.7-.4,2.3s1.4.4,1.6-.2C974.4,431.9,973.7,430.4,973,430.5Z"/><path class="ap" d="M940,448c2.6,4.1,13.1,1.9,24.9,3.1s13.9,5,16.4,4.2-1.4-18.6-19.2-19.8C944.4,434.3,939.4,447,940,448Z"/><path class="m" d="M925.4,437.9c-1.3-.4-3.4,5.6-3.3,6.3.1.8,2.6-1.6,3.1-2.6C926,440.4,926.7,438.3,925.4,437.9Z"/><path class="m" d="M988.6,434.5c-.7,0-.8,3.3-.6,4.7a3.9,3.9,0,0,0,1.7,2.7C990.1,441.9,990.1,434.5,988.6,434.5Z"/></g></g><g transform="translate(-1053 -237)"><g class="aq" transform="translate(17.585 -0.237)"><path class="af" d="M1054.3,242c-2.3,2.1-1.6,90.1,2.4,92.4s121,2.3,124.7-2.1.7-87.2-1.7-90.8C1177.4,237.9,1058.3,238.4,1054.3,242Z"/><path class="ar" d="M1054.3,240.2c-2.3,2.1-1.6,90.1,2.4,92.4s121,2.3,124.7-2.1.7-87.2-1.7-90.8C1177.4,236.1,1058.3,236.6,1054.3,240.2Z"/></g><g transform="translate(17.585 -0.237)"><rect class="m" width="127.2" height="0.5" transform="translate(1054.432 247.203) rotate(-0.447)"/><rect class="m" width="127.2" height="0.5" transform="translate(1054.432 256.504) rotate(-0.447)"/><rect class="m" width="127.2" height="0.5" transform="translate(1054.432 265.804) rotate(-0.447)"/><rect class="m" width="127.2" height="0.5" transform="translate(1054.432 275.104) rotate(-0.447)"/><rect class="m" width="127.2" height="0.5" transform="translate(1054.432 284.404) rotate(-0.447)"/><rect class="m" width="127.2" height="0.5" transform="translate(1054.432 293.805) rotate(-0.447)"/><rect class="m" width="127.2" height="0.5" transform="translate(1054.432 303.105) rotate(-0.447)"/><rect class="m" width="127.2" height="0.5" transform="translate(1054.432 312.405) rotate(-0.447)"/><rect class="m" width="127.2" height="0.5" transform="translate(1054.432 321.706) rotate(-0.447)"/></g></g></svg>