<svg id="robotukai-hello" xmlns="http://www.w3.org/2000/svg" xmlns:xlink="http://www.w3.org/1999/xlink" width="186.84" height="206.144" viewBox="0 0 186.84 206.144">
  <defs>
    <radialGradient id="radial-gradient" cx="0.5" cy="0.502" r="0.5" gradientTransform="translate(0 0.143) scale(1 0.715)" gradientUnits="objectBoundingBox">
      <stop offset="0" stop-color="#559dea"/>
      <stop offset="0.076" stop-color="#5ea9f5"/>
      <stop offset="1" stop-color="#fff"/>
    </radialGradient>
    <linearGradient id="linear-gradient" x1="0.348" y1="0.984" x2="0.534" y2="0.038" gradientUnits="objectBoundingBox">
      <stop offset="0" stop-color="#cbc1f7"/>
      <stop offset="1" stop-color="#e8dcf7"/>
    </linearGradient>
    <linearGradient id="linear-gradient-2" x1="0.322" y1="0.983" x2="0.559" y2="-0.032" xlink:href="#linear-gradient"/>
    <linearGradient id="linear-gradient-3" x1="0.499" y1="1.003" x2="0.499" y2="0.002" gradientUnits="objectBoundingBox">
      <stop offset="0" stop-color="#be9dea"/>
      <stop offset="1" stop-color="#9e8cef"/>
    </linearGradient>
    <linearGradient id="linear-gradient-4" x1="0.502" y1="1" x2="0.502" y2="-0.002" xlink:href="#linear-gradient-3"/>
    <linearGradient id="linear-gradient-5" x1="0.504" y1="0.999" x2="0.504" y2="0.001" gradientUnits="objectBoundingBox">
      <stop offset="0" stop-color="#9d68c2"/>
      <stop offset="1" stop-color="#ccedff"/>
    </linearGradient>
    <linearGradient id="linear-gradient-6" x1="0.501" y1="1" x2="0.501" y2="-0.001" xlink:href="#linear-gradient-5"/>
    <linearGradient id="linear-gradient-7" x1="0.4" y1="1.015" x2="0.646" y2="-0.021" xlink:href="#linear-gradient"/>
    <linearGradient id="linear-gradient-8" x1="0.498" y1="0.999" x2="0.498" y2="0.002" xlink:href="#linear-gradient-3"/>
    <linearGradient id="linear-gradient-9" x1="0.5" y1="1" x2="0.5" y2="0" xlink:href="#linear-gradient-5"/>
    <linearGradient id="linear-gradient-10" x1="0.345" y1="1.002" x2="0.594" y2="0.003" xlink:href="#linear-gradient"/>
    <linearGradient id="linear-gradient-11" x1="0.501" y1="1.001" x2="0.501" y2="0.001" xlink:href="#linear-gradient-3"/>
    <linearGradient id="linear-gradient-12" x1="0.508" y1="0.999" x2="0.508" y2="-0.006" gradientUnits="objectBoundingBox">
      <stop offset="0" stop-color="#8da4e5"/>
      <stop offset="1" stop-color="#755cbb"/>
    </linearGradient>
    <linearGradient id="linear-gradient-13" x1="0.401" y1="0.989" x2="0.688" y2="0.005" xlink:href="#linear-gradient"/>
    <linearGradient id="linear-gradient-14" x1="-37.377" y1="0.999" x2="-37.377" gradientUnits="objectBoundingBox">
      <stop offset="0" stop-color="#b9acf4"/>
      <stop offset="1" stop-color="#e1d1f5"/>
    </linearGradient>
    <linearGradient id="linear-gradient-15" x1="0.505" y1="0.999" x2="0.505" y2="0" xlink:href="#linear-gradient-3"/>
    <linearGradient id="linear-gradient-16" x1="0.498" y1="0.999" x2="0.498" y2="0" xlink:href="#linear-gradient-14"/>
    <linearGradient id="linear-gradient-17" x1="0.497" y1="1.003" x2="0.497" y2="0" xlink:href="#linear-gradient-3"/>
    <radialGradient id="radial-gradient-2" cx="0.496" cy="0.502" r="0.385" gradientTransform="translate(-0.649) scale(2.299 1)" gradientUnits="objectBoundingBox">
      <stop offset="0" stop-color="#94fdff"/>
      <stop offset="1" stop-color="#22e0ff"/>
    </radialGradient>
    <radialGradient id="radial-gradient-3" cx="0.503" cy="0.502" r="0.385" gradientTransform="matrix(-2.299, 0, 0, 1, -161.935, 0)" xlink:href="#radial-gradient-2"/>
    <linearGradient id="linear-gradient-18" x1="0.46" y1="1.01" x2="0.574" y2="0.009" xlink:href="#linear-gradient"/>
    <linearGradient id="linear-gradient-19" x1="0.5" y1="0.999" x2="0.5" y2="-0.001" gradientUnits="objectBoundingBox">
      <stop offset="0" stop-color="#0665bd"/>
      <stop offset="1" stop-color="#1a1f77"/>
    </linearGradient>
    <linearGradient id="linear-gradient-20" x1="0.5" y1="1" x2="0.5" y2="0.001" xlink:href="#linear-gradient-5"/>
    <linearGradient id="linear-gradient-21" y1="0.502" x2="1.002" y2="0.502" gradientUnits="objectBoundingBox">
      <stop offset="0" stop-color="#8879ea"/>
      <stop offset="1" stop-color="#9e8cef"/>
    </linearGradient>
    <linearGradient id="linear-gradient-22" x1="0.5" y1="0.999" x2="0.5" y2="-0.008" xlink:href="#linear-gradient-12"/>
    <linearGradient id="linear-gradient-23" x1="0.485" y1="1.119" x2="0.508" y2="-0.229" gradientUnits="objectBoundingBox">
      <stop offset="0" stop-color="#5e36cc"/>
      <stop offset="1" stop-color="#6c4a96"/>
    </linearGradient>
    <linearGradient id="linear-gradient-24" x1="0.429" y1="0.999" x2="0.603" y2="0.007" xlink:href="#linear-gradient"/>
    <linearGradient id="linear-gradient-25" x1="0.003" y1="0.501" x2="0.999" y2="0.501" xlink:href="#linear-gradient-21"/>
    <linearGradient id="linear-gradient-26" x1="0.424" y1="1.025" x2="0.561" y2="-0.03" xlink:href="#linear-gradient"/>
    <linearGradient id="linear-gradient-27" x1="0.505" y1="0.998" x2="0.505" y2="0.001" xlink:href="#linear-gradient-3"/>
    <radialGradient id="radial-gradient-4" cx="0.497" cy="0.498" r="0.545" gradientTransform="translate(0.074) scale(0.852 1)" xlink:href="#radial-gradient-2"/>
    <radialGradient id="radial-gradient-5" cx="0.501" cy="0.498" r="0.545" gradientTransform="matrix(-0.853, 0, 0, 1, -72.045, 0)" xlink:href="#radial-gradient-2"/>
    <linearGradient id="linear-gradient-28" x1="-0.001" y1="0.499" x2="0.999" y2="0.499" gradientUnits="objectBoundingBox">
      <stop offset="0"/>
      <stop offset="1" stop-color="#6a9bff"/>
    </linearGradient>
    <linearGradient id="linear-gradient-29" x1="-0.001" y1="0.495" x2="1" y2="0.495" xlink:href="#linear-gradient-28"/>
    <linearGradient id="linear-gradient-30" x1="0.46" y1="1.017" x2="0.46" y2="0.004" xlink:href="#linear-gradient-5"/>
    <linearGradient id="linear-gradient-31" x1="0.499" y1="1" x2="0.499" y2="0" xlink:href="#linear-gradient-5"/>
    <linearGradient id="linear-gradient-32" x1="0.5" y1="1.002" x2="0.5" y2="0.001" xlink:href="#linear-gradient-3"/>
    <radialGradient id="radial-gradient-6" cx="0.517" cy="0.843" r="0.763" gradientTransform="translate(0.017) scale(0.966 1)" xlink:href="#radial-gradient-2"/>
    <linearGradient id="linear-gradient-33" x1="0.501" y1="1.004" x2="0.501" y2="0.005" xlink:href="#linear-gradient-12"/>
    <linearGradient id="linear-gradient-34" x1="0.501" y1="1.004" x2="0.501" gradientUnits="objectBoundingBox">
      <stop offset="0" stop-color="#d4e2ff"/>
      <stop offset="1"/>
    </linearGradient>
    <linearGradient id="linear-gradient-35" x1="0.5" y1="1" x2="0.5" y2="-0.001" xlink:href="#linear-gradient-5"/>
    <linearGradient id="linear-gradient-36" x1="0.388" y1="1.01" x2="0.615" y2="-0.008" xlink:href="#linear-gradient"/>
    <linearGradient id="linear-gradient-37" x1="0.499" y1="0.998" x2="0.499" y2="0" xlink:href="#linear-gradient-3"/>
    <linearGradient id="linear-gradient-38" x1="0.488" y1="0.997" x2="0.488" y2="0.002" xlink:href="#linear-gradient-12"/>
    <linearGradient id="linear-gradient-39" x1="0.296" y1="1.005" x2="0.626" y2="0.006" xlink:href="#linear-gradient"/>
    <linearGradient id="linear-gradient-40" x1="0.499" y1="1" x2="0.499" y2="0.003" xlink:href="#linear-gradient-3"/>
    <linearGradient id="linear-gradient-41" x1="0.181" y1="-0.02" x2="0.181" y2="-1.019" gradientUnits="objectBoundingBox">
      <stop offset="0"/>
      <stop offset="1" stop-color="#00e3ff"/>
    </linearGradient>
    <linearGradient id="linear-gradient-42" y1="0.498" x2="0.999" y2="0.498" gradientUnits="objectBoundingBox">
      <stop offset="0"/>
      <stop offset="1" stop-color="#d4e2ff"/>
    </linearGradient>
    <linearGradient id="linear-gradient-43" x1="-0.001" y1="0.504" x2="1.001" y2="0.504" xlink:href="#linear-gradient-42"/>
    <linearGradient id="linear-gradient-44" x1="0.001" y1="0.504" x2="1.001" y2="0.504" xlink:href="#linear-gradient-34"/>
  </defs>
  <path id="Path_851" data-name="Path 851" d="M1042.5,643.5Z" transform="translate(-869.478 -437.4)" fill="#fff" opacity="0.3"/>
  <g id="Group_682" data-name="Group 682" transform="translate(-869.478 -437.4)">
    <g id="Group_680" data-name="Group 680">
      <path id="Path_852" data-name="Path 852" d="M1046.1,579.1a42.046,42.046,0,0,1-9.2,12.7,32.407,32.407,0,0,1-3.1,2.4,23.782,23.782,0,0,1-3.1,1.7c-15.7,6.5-31.8-8.3-49.7-6.5-15,1.5-25.9,9.8-35.5,16.8a89.566,89.566,0,0,1-9.9,6.6c-.9.5-1.8,1-2.7,1.4-1,.4-2,.8-3.1,1.2h0c-13.9,4.8-37.4,4.6-47.8-5.7-10.9-10.7-24.1-45.6,5.8-90.4,33.3-49.9,124.3-56.8,148.6-40.3C1061.6,496.1,1060.6,550.4,1046.1,579.1Z" fill="#1a75fa"/>
      <g id="Group_679" data-name="Group 679">
        <path id="Path_853" data-name="Path 853" d="M983.3,580.1a15.674,15.674,0,0,0-6.5-3.1,4.87,4.87,0,0,0-1.2-.1,2.212,2.212,0,0,0-1.5,1.6,4.8,4.8,0,0,0,1.5,5,5.43,5.43,0,0,0,5.2.9,3.992,3.992,0,0,0,2.4-1.8,2.111,2.111,0,0,0-.5-2.7.54.54,0,0,0-.2.8Z" fill="#fff"/>
        <path id="Path_854" data-name="Path 854" d="M975.9,581.3a2.838,2.838,0,0,0-2-2.1,3,3,0,0,0-1,2.6c.2.9,1.2,1.8,2.1,1.5a1.361,1.361,0,0,0,.5-2.3Z" fill="#fff"/>
        <path id="Path_855" data-name="Path 855" d="M968,577.4a1.5,1.5,0,0,0-.1-1.3,1,1,0,0,0-.5.4.661.661,0,0,0-.1.6c.1.2.5.3.8.3l-.2.2Z" fill="#fff"/>
        <path id="Path_856" data-name="Path 856" d="M969.8,577.8c.1,0,.3.1.3.2-.3.2-.7,0-1-.1-.2-.1-.4-.2-.4-.4,0-.1.1-.2.2-.4s.1-.6.3-.7c.1-.1.3.1.4.2a.749.749,0,0,1,.1.5v1Z" fill="#fff"/>
        <path id="Path_857" data-name="Path 857" d="M948,569.7c-.1-.3-.6-.1-.6.2a.829.829,0,0,0,.3.8,1.231,1.231,0,0,0,.5-1Z" fill="#fff" opacity="0.5"/>
        <path id="Path_858" data-name="Path 858" d="M943.3,578.9c0,.1-.1.3-.2.3a.6.6,0,0,1-.4-.1c-.1,0-.1-.1-.2-.2a.381.381,0,1,1,.5.2Z" fill="#fff"/>
        <path id="Path_859" data-name="Path 859" d="M964.2,579.4c.3,0,.5-.4.3-.6-.2,0-.3,0-.4.1s-.2.3-.1.4.3.2.4.1Z" fill="#fff"/>
        <path id="Path_860" data-name="Path 860" d="M970.7,578.9a1.163,1.163,0,0,0,.2-1c-.3.1-.5.2-.8.3-.1,0-.3.1-.3.2a.494.494,0,0,0,.1.7.882.882,0,0,0,.8-.2Z" fill="#fff"/>
        <path id="Path_861" data-name="Path 861" d="M947.2,578.1a.367.367,0,0,0-.3.1c0,.2,0,.3.2.4.1.1.3,0,.4-.2,0-.2-.2-.4-.3-.3Z" fill="#fff" opacity="0.5"/>
        <path id="Path_862" data-name="Path 862" d="M966.2,578.9c-.1.2.2.3.3.3a.764.764,0,0,0,.5-.2.749.749,0,0,1,.5.1c.1.1.2.2.1.3,0,.1-.1.1-.1.2a1.456,1.456,0,0,1-.9.6.905.905,0,0,1-1-.3.616.616,0,0,1-.1-.7c.3-.2.5-.4.7-.3Z" fill="#fff"/>
        <path id="Path_863" data-name="Path 863" d="M969,574.7c.1-.2.1-.5-.1-.6a.854.854,0,0,0-.7,0c-.1.1-.2.1-.1.2,0,.1.1.1.2.1a1.08,1.08,0,0,0,.7.3Z" fill="#fff"/>
        <path id="Path_864" data-name="Path 864" d="M958.4,572c0,.5-.7.8-1.1.6a1.905,1.905,0,0,1,.5-1c.3-.2.8-.3,1,0,0,.2-.1.4-.1.6Z" fill="#fff"/>
        <path id="Path_865" data-name="Path 865" d="M962.7,577.2a.367.367,0,0,0-.1-.3c-.2,0-.3,0-.4.2-.1.1-.1.4.1.4.1,0,.1,0,.2-.1.2-.1.3-.2.5-.3Z" fill="#fff"/>
        <path id="Path_866" data-name="Path 866" d="M957.4,576.3a2.09,2.09,0,0,0-.4-.6.616.616,0,0,0-.7-.1c-.1.1-.2.2-.2.3a.683.683,0,1,0,1.3.4Z" fill="#fff"/>
        <path id="Path_867" data-name="Path 867" d="M956.1,574a.758.758,0,0,0-.4-.2c-.1.1-.2.2-.2.3a.483.483,0,0,0,.7,0Z" fill="#fff"/>
        <path id="Path_868" data-name="Path 868" d="M970.2,566.5a7.078,7.078,0,0,0-2.9,0,.52.52,0,0,0-.4.2,1.135,1.135,0,0,0-.3.8,2.076,2.076,0,0,0,1.4,1.6,2.673,2.673,0,0,0,2.1-.5,2.075,2.075,0,0,0,.6-1,.875.875,0,0,0-.6-.9c-.1.1-.1.3.1.3Z" fill="#fff"/>
        <path id="Path_869" data-name="Path 869" d="M970.7,586.5a1.756,1.756,0,0,0-.9-1,1.422,1.422,0,0,0-.2.6.55.55,0,0,0,.3.5c.3.1.5-.1.8-.2v.1Z" fill="#fff"/>
        <path id="Path_870" data-name="Path 870" d="M967.4,586.6c-.1-.1-.2-.2-.3-.2a.756.756,0,0,0-.4.1,2.935,2.935,0,0,1-1,.3c.5.2,1,.5,1.5.7a.1.1,0,0,1,.1.1c.1.1,0,.3,0,.5s.3.3.5.3C969.6,588.5,967.8,587.1,967.4,586.6Z" fill="#fff"/>
        <path id="Path_871" data-name="Path 871" d="M973.7,586.2a1.086,1.086,0,0,0-.4-.9c-.2.2-.3.5-.5.7a.52.52,0,0,0-.2.4c0,.3.3.5.5.4q.6-.15.6-.6Z" fill="#fff"/>
        <path id="Path_872" data-name="Path 872" d="M990,591a.367.367,0,0,0-.3.1c0,.2,0,.3.2.4.1.1.3,0,.4-.2a.319.319,0,0,0-.3-.3Z" fill="#fff"/>
        <path id="Path_873" data-name="Path 873" d="M969.9,583.8a.458.458,0,0,0-.5-.4.664.664,0,0,0-.5.4c0,.1-.1.2,0,.3h.2a6.88,6.88,0,0,0,.8-.3Z" fill="#fff"/>
        <path id="Path_874" data-name="Path 874" d="M972.5,580.6a2.09,2.09,0,0,0-.4-.6.616.616,0,0,0-.7-.1c-.1.1-.2.2-.2.3a.807.807,0,0,0,.4.9.716.716,0,0,0,.9-.5Z" fill="#fff"/>
        <path id="Path_875" data-name="Path 875" d="M963.2,572.4c-.2,0-.4.3-.4.5-.1.2-.2.5-.4.6h-.2c-.1-.1,0-.3,0-.5v-.4a.891.891,0,0,1,.5-.8c.2,0,.3.2.4.3a.44.44,0,0,1-.1.5Z" fill="#fff"/>
        <path id="Path_876" data-name="Path 876" d="M957.4,574.5c-.2,0-.4.3-.4.5-.1.2-.2.5-.4.6h-.2c-.1-.1,0-.3,0-.5v-.4a.891.891,0,0,1,.5-.8c.2,0,.3.2.4.3s0,.4-.1.5Z" fill="#fff"/>
        <path id="Path_877" data-name="Path 877" d="M953.3,572.2a1.422,1.422,0,0,0-.6-.2h-.1a.1.1,0,0,0-.1.1.4.4,0,0,0,.5.5.215.215,0,0,0,.2-.2c.2,0,.2-.1.1-.2Z" fill="#fff"/>
        <path id="Path_878" data-name="Path 878" d="M980.4,583.7a1.756,1.756,0,0,0-.9-1,1.422,1.422,0,0,0-.2.6.55.55,0,0,0,.3.5c.3.1.5-.1.8-.2v.1Z" fill="#fff"/>
        <path id="Path_879" data-name="Path 879" d="M978.5,587.6a.423.423,0,0,0-.1-.7l-.3.3c-.1.1,0,.3.1.4s.3,0,.3-.2Z" fill="#fff"/>
        <path id="Path_880" data-name="Path 880" d="M973.3,582a.423.423,0,0,0-.1-.7l-.3.3a.6.6,0,0,0,.1.4c.1.1.3,0,.3-.2Z" fill="#fff"/>
        <path id="Path_881" data-name="Path 881" d="M979.8,586c.1.2.3.2.5,0a2.185,2.185,0,0,0,.3-.5.764.764,0,0,1,.5-.2.367.367,0,0,1,.3.1v.2a1.689,1.689,0,0,1-.3,1,.951.951,0,0,1-1,.4c-.2-.1-.5-.3-.5-.5a1.056,1.056,0,0,1,.2-.5Z" fill="#fff"/>
        <path id="Path_882" data-name="Path 882" d="M961.4,574.2c.1.2.3.2.5,0a2.185,2.185,0,0,0,.3-.5.764.764,0,0,1,.5-.2.367.367,0,0,1,.3.1v.2a1.689,1.689,0,0,1-.3,1,.951.951,0,0,1-1,.4c-.2-.1-.5-.3-.5-.5,0-.1,0-.4.2-.5Z" fill="#fff"/>
        <path id="Path_883" data-name="Path 883" d="M962.4,572c.1.2.3.2.5,0a2.185,2.185,0,0,0,.3-.5.764.764,0,0,1,.5-.2.367.367,0,0,1,.3.1v.2a1.689,1.689,0,0,1-.3,1,.951.951,0,0,1-1,.4c-.2-.1-.5-.3-.5-.5-.1-.1,0-.4.2-.5Z" fill="#fff"/>
        <path id="Path_884" data-name="Path 884" d="M965.4,574.2c.1.2.3.2.5,0a2.185,2.185,0,0,0,.3-.5.764.764,0,0,1,.5-.2.367.367,0,0,1,.3.1v.2a1.689,1.689,0,0,1-.3,1,.951.951,0,0,1-1,.4c-.2-.1-.5-.3-.5-.5a1.055,1.055,0,0,1,.2-.5Z" fill="#fff"/>
        <path id="Path_885" data-name="Path 885" d="M946.1,592c.1.2.3.2.5,0a2.185,2.185,0,0,0,.3-.5.764.764,0,0,1,.5-.2.367.367,0,0,1,.3.1v.2a1.689,1.689,0,0,1-.3,1,.951.951,0,0,1-1,.4c-.2-.1-.5-.3-.5-.5s0-.4.2-.5Z" fill="#fff"/>
        <path id="Path_886" data-name="Path 886" d="M976,586.8c-.1-.1-.2-.1-.2-.2a.52.52,0,0,0-.2.4c0,.2.2.3.3.2l.1-.1c.1-.2.1-.3.2-.5Z" fill="#fff"/>
        <path id="Path_887" data-name="Path 887" d="M956.3,585.3a2.09,2.09,0,0,0-.4-.6.616.616,0,0,0-.7-.1c-.1.1-.2.2-.2.3a.807.807,0,0,0,.4.9.716.716,0,0,0,.9-.5Z" fill="#fff"/>
        <path id="Path_888" data-name="Path 888" d="M976,579.2c.3.1.4.7.1.8a1.42,1.42,0,0,1-.6-.2,1,1,0,0,1,.4-.5Z" fill="#fff"/>
        <path id="Path_889" data-name="Path 889" d="M954.5,582.8l-.3-.3a.3.3,0,0,0-.4,0c-.2.2-.1.4-.1.7-.1.2-.3.4-.3.6a.382.382,0,0,0,.5.3,1,1,0,0,0,.5-.4,1.422,1.422,0,0,0,.2-.6.55.55,0,0,0-.3-.5Z" fill="#fff" opacity="0.5"/>
        <path id="Path_890" data-name="Path 890" d="M965.9,577.1a2.819,2.819,0,0,0-.3-2.8,2.865,2.865,0,0,0-2.4,1.5,1.912,1.912,0,0,0,.8,2.5c.9.4,2.1-.6,1.8-1.5Z" fill="#fff"/>
        <path id="Path_891" data-name="Path 891" d="M977,577.1a.192.192,0,0,1-.3.1c-.1,0-.2-.2-.3-.3v-.2c0-.2.2-.3.4-.3.2.1.3.3.2.4-.1.2-.2.3-.4.3Z" fill="#fff"/>
        <path id="Path_892" data-name="Path 892" d="M971.6,577.2a.574.574,0,0,0-.2.7.952.952,0,0,1-.2.7c-.1,0-.1.1-.2,0-.2-.1-.1-.3-.1-.5a.758.758,0,0,0-.2-.4.959.959,0,0,1,.2-.9c.2,0,.4,0,.5.2a.454.454,0,0,1,0,.5Z" fill="#fff"/>
        <path id="Path_893" data-name="Path 893" d="M964.3,580.2c-.1,0-.2-.1-.3-.1-.1.1-.2.3-.1.4s.3.2.4.1c.2-.1.1-.3,0-.4Z" fill="#fff"/>
        <path id="Path_894" data-name="Path 894" d="M969.7,580c.1.1,0,.2,0,.3a.5.5,0,0,1-.6,0c-.2-.1-.2-.3-.2-.5.1-.2.2-.3.4-.3h.2c.1.1.1.2,0,.2Z" fill="#fff"/>
        <path id="Path_895" data-name="Path 895" d="M968.4,588.1a2.953,2.953,0,0,0,1.6-2.3,3.116,3.116,0,0,0-2.8-.4,1.931,1.931,0,0,0-1.1,2.4c.5.9,2,.9,2.3,0Z" fill="#fff"/>
        <path id="Path_896" data-name="Path 896" d="M975.6,585.3c-.1-.3-.6-.1-.6.2a.829.829,0,0,0,.3.8,1.231,1.231,0,0,0,.5-1Z" fill="#fff"/>
        <path id="Path_897" data-name="Path 897" d="M974.7,574.9c-.1,0-.2-.1-.3-.1-.1.1-.2.3-.1.4s.3.2.4.1c.2-.1.2-.4,0-.4Z" fill="#fff"/>
        <path id="Path_898" data-name="Path 898" d="M972,579.3a6.187,6.187,0,0,0-2.8-1.4c-.2,0-.3-.1-.5,0a.988.988,0,0,0-.7.7,2.1,2.1,0,0,0,.6,2.2,2.677,2.677,0,0,0,2.3.5,1.9,1.9,0,0,0,1.1-.7.925.925,0,0,0-.2-1.2.192.192,0,0,0-.1.3Z" fill="#fff"/>
        <path id="Path_899" data-name="Path 899" d="M960.1,591.8a2.838,2.838,0,0,0-2-2.1,3,3,0,0,0-1,2.6,1.787,1.787,0,0,0,2.1,1.5,1.361,1.361,0,0,0,.5-2.3Z" fill="#fff"/>
        <path id="Path_900" data-name="Path 900" d="M954.1,574.2a1.756,1.756,0,0,0-.9-1,1.422,1.422,0,0,0-.2.6.55.55,0,0,0,.3.5c.3.1.5-.1.8-.2v.1Z" fill="#fff"/>
        <path id="Path_901" data-name="Path 901" d="M950.8,574.3c-.1-.1-.2-.2-.3-.2a.756.756,0,0,0-.4.1,2.935,2.935,0,0,1-1,.3c.5.2,1,.5,1.5.7a.1.1,0,0,1,.1.1c.1.1,0,.3,0,.5s.3.3.5.3C953,576.2,951.2,574.8,950.8,574.3Z" fill="#fff"/>
        <path id="Path_902" data-name="Path 902" d="M970.7,576.5a.758.758,0,0,0-.4-.2.94.94,0,0,0,.1.9.54.54,0,0,0,.8-.2c0-.2,0-.5.2-.5Z" fill="#fff"/>
        <path id="Path_903" data-name="Path 903" d="M956.7,579.1c.1,0,.3.1.3.2-.3.2-.7,0-1-.1-.2-.1-.4-.2-.4-.4,0-.1.1-.2.2-.4s.1-.6.3-.7c.1-.1.3.1.4.2a.749.749,0,0,1,.1.5v1Z" fill="#fff"/>
        <path id="Path_904" data-name="Path 904" d="M954.8,584.2c-.1-.3-.6-.1-.6.2a.829.829,0,0,0,.3.8,1.231,1.231,0,0,0,.5-1Z" fill="#fff"/>
        <path id="Path_905" data-name="Path 905" d="M951,579.4c0,.1-.1.3-.2.3a.6.6,0,0,1-.4-.1c-.1,0-.1-.1-.2-.2a.381.381,0,1,1,.5.2Z" fill="#fff" opacity="0.5"/>
        <path id="Path_906" data-name="Path 906" d="M952.2,578.1a.423.423,0,0,0-.1-.7l-.3.3a.6.6,0,0,0,.1.4c.1.1.3,0,.3-.2Z" fill="#fff"/>
        <path id="Path_907" data-name="Path 907" d="M957.1,573.8a1.086,1.086,0,0,0-.4-.9c-.2.2-.3.5-.5.7a.52.52,0,0,0-.2.4c0,.3.3.5.5.4a.576.576,0,0,0,.6-.6Z" fill="#fff"/>
        <path id="Path_908" data-name="Path 908" d="M951.3,583.4a.365.365,0,0,1-.2.5,1.269,1.269,0,0,1-.6.1c-.1-.1-.2-.2-.1-.3l.1-.1a4.5,4.5,0,0,1,.8-.2Z" fill="#fff" opacity="0.5"/>
        <path id="Path_909" data-name="Path 909" d="M948.4,586c-.2,0-.4.3-.4.5-.1.2-.2.5-.4.6h-.2c-.1-.1,0-.3,0-.5v-.4a.891.891,0,0,1,.5-.8c.2,0,.3.2.4.3s0,.4-.1.5Z" fill="#fff" opacity="0.5"/>
        <path id="Path_910" data-name="Path 910" d="M964.8,570.4c-.2,0-.4.3-.4.5-.1.2-.2.5-.4.6h-.2c-.1-.1,0-.3,0-.5v-.4a.891.891,0,0,1,.5-.8c.2,0,.3.2.4.3s0,.4-.1.5Z" fill="#fff" opacity="0.5"/>
        <path id="Path_911" data-name="Path 911" d="M946.8,584.1l-.2-.2a.52.52,0,0,0-.2.4c0,.2.2.3.4.2.1,0,.1-.2,0-.4Z" fill="#fff" opacity="0.5"/>
        <path id="Path_912" data-name="Path 912" d="M953.5,576.4c.1.2.3.2.5,0a2.185,2.185,0,0,0,.3-.5.764.764,0,0,1,.5-.2.367.367,0,0,1,.3.1v.2a1.689,1.689,0,0,1-.3,1,.951.951,0,0,1-1,.4c-.2-.1-.5-.3-.5-.5a1.056,1.056,0,0,1,.2-.5Z" fill="#fff"/>
        <path id="Path_913" data-name="Path 913" d="M953.3,571.4a.458.458,0,0,0-.5-.4.664.664,0,0,0-.5.4c0,.1-.1.2,0,.3h.2c.3-.1.6-.1.8-.3Z" fill="#fff"/>
        <path id="Path_914" data-name="Path 914" d="M958.8,583.2c0,.5-.7.8-1.1.6a1.905,1.905,0,0,1,.5-1,.666.666,0,0,1,1,0c0,.2-.1.4-.1.6Z" fill="#fff"/>
        <path id="Path_915" data-name="Path 915" d="M949.7,577.2c-.1-.1-.2-.1-.2-.2a.52.52,0,0,0-.2.4c0,.2.2.3.3.2l.1-.1c.1-.2.1-.3.2-.5Z" fill="#fff" opacity="0.5"/>
        <path id="Path_916" data-name="Path 916" d="M975.8,581.5a2.09,2.09,0,0,0-.4-.6.616.616,0,0,0-.7-.1c-.1.1-.2.2-.2.3a.683.683,0,1,0,1.3.4Z" fill="#fff"/>
        <path id="Path_917" data-name="Path 917" d="M963,588.5a.758.758,0,0,0-.4-.2c-.1.1-.2.2-.2.3a.483.483,0,0,0,.7,0Z" fill="#fff"/>
        <path id="Path_918" data-name="Path 918" d="M961.3,584.7a.758.758,0,0,0-.4-.2c-.1.1-.2.2-.2.3a.483.483,0,0,0,.7,0Z" fill="#fff"/>
        <path id="Path_919" data-name="Path 919" d="M967.4,572.4a.271.271,0,0,0-.4-.2,1.381,1.381,0,0,0-.4.3,1.269,1.269,0,0,1-.6.1.215.215,0,0,1-.2-.2v-.2a1.8,1.8,0,0,1,.6-.9.92.92,0,0,1,1-.1.779.779,0,0,1,.3.7.382.382,0,0,1-.3.5Z" fill="#fff"/>
        <path id="Path_920" data-name="Path 920" d="M971.1,581.7c.1.1.1.3.2.4s.3.2.4.1c.2-.1.2-.4.3-.6s.4-.2.5-.5c.1-.2-.2-.4-.4-.5a.864.864,0,0,0-.6.3,1,1,0,0,0-.4.5.365.365,0,0,0,.2.5Z" fill="#fff"/>
        <path id="Path_921" data-name="Path 921" d="M961.6,576.5a5.278,5.278,0,0,0,2.5.4.6.6,0,0,0,.4-.1c.2-.1.3-.4.4-.7a1.638,1.638,0,0,0-1-1.5,1.877,1.877,0,0,0-1.9.2c-.3.2-.6.5-.6.8s.1.8.4.9a.188.188,0,0,0,0-.3Z" fill="#fff"/>
        <path id="Path_922" data-name="Path 922" d="M965.7,571.9c0-.1.1-.3,0-.4,0-.1-.2-.2-.3-.3a5.01,5.01,0,0,1-.8-.7c0,.6.1,1.1.1,1.7v.1a.758.758,0,0,1-.4.2c-.2.1-.1.4,0,.6C965.1,574.7,965.5,572.5,965.7,571.9Z" fill="#fff"/>
        <path id="Path_923" data-name="Path 923" d="M961.7,576.3l-.2-.2c-.2,0-.3.2-.2.4,0,.2.2.3.3.2.1,0,.2-.2.1-.4Z" fill="#fff"/>
        <path id="Path_924" data-name="Path 924" d="M963,571.9c.2-.1.2-.4.1-.6a.713.713,0,0,0-.6-.3.215.215,0,0,0-.2.2c0,.1,0,.1.1.2a2.655,2.655,0,0,0,.6.5Z" fill="#fff"/>
        <path id="Path_925" data-name="Path 925" d="M961.4,574.6a1.479,1.479,0,0,0,.4-1.3,1.268,1.268,0,0,0-.6.1.55.55,0,0,0-.3.5c0,.3.3.4.6.5-.1,0-.1.1-.2.1Z" fill="#fff"/>
        <path id="Path_926" data-name="Path 926" d="M959.6,575.7v.4a1.16,1.16,0,0,1-.4-1c0-.2,0-.4.2-.5.1-.1.3,0,.4,0,.3,0,.6-.3.8-.1a.3.3,0,0,1,0,.4,1.38,1.38,0,0,1-.4.3c-.3.2-.6.3-.9.5Z" fill="#fff"/>
        <path id="Path_927" data-name="Path 927" d="M964.4,573.4a1.555,1.555,0,0,0,.6-.8c-.3,0-.6-.1-.8-.1h-.4a.483.483,0,0,0-.1.7c.1.3.4.3.7.2Z" fill="#fff"/>
        <path id="Path_928" data-name="Path 928" d="M960.4,571.6a.271.271,0,0,0,.2.4c.2.1.4,0,.6.1a.446.446,0,0,1,.4.3.188.188,0,0,1,0,.3c0,.1-.1.1-.2.1a1.389,1.389,0,0,1-1.1.2.871.871,0,0,1-.8-.6.663.663,0,0,1,.2-.7.878.878,0,0,1,.7-.1Z" fill="#fff"/>
        <path id="Path_929" data-name="Path 929" d="M966.3,582.2a1.494,1.494,0,0,0,.3-.7c0-.2,0-.5-.3-.6-.1-.1-.2-.1-.4-.1a.657.657,0,0,0-.5.8.961.961,0,0,0,.9.6Z" fill="#fff"/>
        <path id="Path_930" data-name="Path 930" d="M969.8,577.9a1.479,1.479,0,0,0,.4-1.3,1.268,1.268,0,0,0-.6.1.55.55,0,0,0-.3.5c0,.3.3.4.6.5-.1,0-.1.1-.2.1Z" fill="#fff"/>
        <path id="Path_931" data-name="Path 931" d="M958.8,575.7c-.2,0-.4.3-.5.5s-.2.5-.4.6h-.2c-.1-.1,0-.3.1-.5v-.4a.858.858,0,0,1,.6-.7c.2,0,.3.2.4.3,0,.2,0,.4-.2.5Z" fill="#fff"/>
        <path id="Path_932" data-name="Path 932" d="M973.6,588h-.3a.283.283,0,0,0,.4.4c.1-.2.1-.4-.1-.4Z" fill="#fff"/>
        <path id="Path_933" data-name="Path 933" d="M965,575.7v-.3c-.1,0-.3-.1-.5,0-.1.1-.2.3,0,.4h.2a1.268,1.268,0,0,0,.6-.1Z" fill="#fff"/>
      </g>
    </g>
    <path id="Path_994" data-name="Path 994" d="M40.8,0C63.333,0,81.6,4.074,81.6,9.1s-18.267,9.1-40.8,9.1S0,14.126,0,9.1,18.267,0,40.8,0Z" transform="translate(922 622.8)" opacity="0.5" fill="url(#radial-gradient)" style="mix-blend-mode: multiply;isolation: isolate"/>
    <g id="Group_681" data-name="Group 681">
      <path id="Path_934" data-name="Path 934" d="M954.8,596.7c-1.2,6.9-6.5,23-11.2,21.3-1-.4-2.1-1.7-3.2-3.6-3.2-5.8-6.4-17.2-8-24.9-.9-4.2-1.2-7.3-.9-7.8,2.1-3.1,22.2,10.4,23.3,11.9C955.1,594,955.1,595.1,954.8,596.7Z" fill="url(#linear-gradient)"/>
      <path id="Path_935" data-name="Path 935" d="M986.6,587.3c-.1.6-.2,1.3-.3,2-1.4,10.5-4.3,26-7.5,31.7-.8,1.4-1.5,2.1-2.3,2.2a1.268,1.268,0,0,1-.6-.1,5.128,5.128,0,0,1-2.2-1.6h0c-4.8-5.4-10.2-21.6-10.4-26.5,0-.6,0-1,.2-1.2,2.7-3.7,22.4-16.3,23.5-14.8C987.3,579.3,987.1,582.6,986.6,587.3Z" fill="url(#linear-gradient-2)"/>
      <path id="Path_936" data-name="Path 936" d="M931.6,581.7c-2.2,2.9,15.9,16,23.5,12.6C955.1,594.3,934.5,577.9,931.6,581.7Z" fill="url(#linear-gradient-3)"/>
      <path id="Path_937" data-name="Path 937" d="M963.3,594.9c-.6,1.5,20.3-1.9,23.7-16C987,578.9,969,581,963.3,594.9Z" fill="url(#linear-gradient-4)"/>
      <path id="Path_938" data-name="Path 938" d="M939.5,593.9c-1,1.3.2,17.5,4.1,24.1-1-.4-2.1-1.7-3.2-3.6-.6-2.8-1.6-7.1-2.5-11.3a49.982,49.982,0,0,0-5.5-13.6c-.9-4.2-1.2-7.3-.9-7.8,2.1-3.1,22.2,10.4,23.3,11.9a5.975,5.975,0,0,1-.1,3C954.8,596.7,940.5,592.7,939.5,593.9Z" opacity="0.3" fill="url(#linear-gradient-5)"/>
      <path id="Path_939" data-name="Path 939" d="M974.8,599.8c-.9.3-1.1,7.1.4,7.4C976.6,607.6,976.8,599.2,974.8,599.8Z" fill="#fff"/>
      <path id="Path_940" data-name="Path 940" d="M986.6,587.3s-11.4,3.4-14.1,8.8c-2.6,5.4-1.6,18.3,1.2,25.3-4.8-5.4-10.2-21.6-10.4-26.5,0-.6,0-1,.2-1.2,2.7-3.7,22.4-16.3,23.5-14.8C987.3,579.3,987.1,582.6,986.6,587.3Z" opacity="0.3" fill="url(#linear-gradient-6)"/>
      <path id="Path_941" data-name="Path 941" d="M937.2,534.1c0,6-.9,14.7-3.6,21.8-4.5,11.7-11.3,26.3-11.5,26.8h0c-4.2,2.5-9.1,2.4-12.3,1.9a25.57,25.57,0,0,1-3.2-.7,95.691,95.691,0,0,1,8.7-28.5,120.115,120.115,0,0,1,12.4-19.9l.1-.1c0-.1.1-.1.1-.2l.1-.1.1-.1.1-.1h0c4.1-5.2,7.5-8.4,8.2-8C936.9,527.1,937.2,530,937.2,534.1Z" fill="url(#linear-gradient-7)"/>
      <path id="Path_942" data-name="Path 942" d="M906.7,583.4s5.4-8.8,10.9-7.7,4.5,7,4.5,7A15.227,15.227,0,0,1,906.7,583.4Z" fill="url(#linear-gradient-8)"/>
      <path id="Path_943" data-name="Path 943" d="M937.2,534.1c0,6-.9,14.7-3.6,21.8-4.5,11.7-11.3,26.3-11.5,26.8h0l-12.3,1.9a25.57,25.57,0,0,1-3.2-.7,95.691,95.691,0,0,1,8.7-28.5,120.115,120.115,0,0,1,12.4-19.9c-2.3,3.1-12,16.4-14.6,27.7-3,12.9,9,7.9,13.9,0s10-29.1,10-29.1Z" opacity="0.3" fill="url(#linear-gradient-9)"/>
      <path id="Path_944" data-name="Path 944" d="M923.8,554.7c-1-.4,4.1-11.8,5.6-11.9C931,542.7,924.7,555,923.8,554.7Z" fill="#fff"/>
      <path id="Path_945" data-name="Path 945" d="M923.3,555.9c-.8-.4-1.5,1.7-.8,2S924.2,556.3,923.3,555.9Z" fill="#fff"/>
      <path id="Path_946" data-name="Path 946" d="M915.8,578.4c-2.9-.5-7,2.2-8.3,4.6s-2,16.2,1.3,27.6c0,0,4.6,1.2,8.1,0s5.9-11.3,6-18.9C923.1,584.1,920.5,579.2,915.8,578.4Z" fill="url(#linear-gradient-10)"/>
      <path id="Path_947" data-name="Path 947" d="M915.3,611s-4.2-24.3,5.4-29.3c0,0,2.8,4.8,1.8,14.2C921.4,605.4,919.8,610.2,915.3,611Z" fill="url(#linear-gradient-11)"/>
      <path id="Path_948" data-name="Path 948" d="M914.6,597.5s2.5,3.6,4.1,4.2a4.258,4.258,0,0,0,3,0l-6.2-11C915.6,590.6,914.4,595,914.6,597.5Z" opacity="0.5" fill="url(#linear-gradient-12)"/>
      <path id="Path_949" data-name="Path 949" d="M915.6,590.6s1.4-6.7,5.4-8.4c0,0,3.8,3.7,2.8,18.2,0,0-2.1,2.8-5.1,0A32.95,32.95,0,0,1,915.6,590.6Z" fill="url(#linear-gradient-13)"/>
      <path id="Path_950" data-name="Path 950" d="M917.9,588.3c-1.4,0,.7,6.1,1.4,6C920.1,594.1,919,588.3,917.9,588.3Z" fill="#fff"/>
      <path id="Path_951" data-name="Path 951" d="M933.6,448.4s-6.3-5.4-13.9-6.3c0,0-2.3,1.1-5.1,9.6-2.7,8.4,2.3,25.1,2.3,25.1Z" fill="url(#linear-gradient-14)"/>
      <path id="Path_952" data-name="Path 952" d="M916.7,446.3a11.512,11.512,0,0,1,3-4.2s6.3,5.8,6,19.7l-1.8,1.9Z" fill="url(#linear-gradient-15)"/>
      <path id="Path_953" data-name="Path 953" d="M985.4,448.4s6.3-5.4,13.9-6.3c0,0,2.3,1.1,5.1,9.6,2.7,8.4-2.3,25.1-2.3,25.1Z" fill="url(#linear-gradient-16)"/>
      <path id="Path_954" data-name="Path 954" d="M999.3,442.1a26.86,26.86,0,0,0-6.2,17.3l2.4,1.5,7-14.4S1000.1,442,999.3,442.1Z" fill="url(#linear-gradient-17)"/>
      <path id="Path_955" data-name="Path 955" d="M995.3,460.2s-1.6-9.1,4.4-15.9c0,0,6.8,3.2,9.6,15.1s-4.5,19-4.5,19Z" fill="url(#radial-gradient-2)"/>
      <path id="Path_956" data-name="Path 956" d="M923.7,460.2s1.6-9.1-4.4-15.9c0,0-6.8,3.2-9.6,15.1s4.5,19,4.5,19Z" fill="url(#radial-gradient-3)"/>
      <path id="Path_957" data-name="Path 957" d="M1003.6,510.7c-14,19.6-79.6,18.1-88.1,2.3-5.6-10.3-5-25.9.4-40.2,7-18.8,22.3-35.4,42.5-35.4,23.8,0,42.1,23.7,47.6,45.3C1008.8,493.7,1008.3,504.2,1003.6,510.7Z" fill="url(#linear-gradient-18)"/>
      <path id="Path_958" data-name="Path 958" d="M920.4,492.6c3.1,13.3,60.8,14.8,74.9,2.7s-6.2-55-37.5-53.1C929.3,443.9,915.3,470.7,920.4,492.6Z" fill="#dfe3fb"/>
      <path id="Path_959" data-name="Path 959" d="M920.1,491c3.1,13.3,60.8,14.8,74.9,2.7s-6.2-55-37.5-53.1C929,442.3,915,469.1,920.1,491Z" fill="url(#linear-gradient-19)"/>
      <path id="Path_960" data-name="Path 960" d="M1003.6,510.7c-14,19.6-79.6,18.1-88.1,2.3-5.6-10.3-5-25.9.4-40.2h0c-.2.8-5.7,20.9-.1,29.7,5.7,9,28.4,7.8,52.8,6.7,24.4-1,32.4-4.6,36.5-11.5,3.2-5.4,0-17.3-1.5-22.2l2.4,7.1C1008.8,493.7,1008.3,504.2,1003.6,510.7Z" opacity="0.3" fill="url(#linear-gradient-20)"/>
      <path id="Path_961" data-name="Path 961" d="M958.5,525.1c-13.6,0-23.5-1.5-29-3.8h0c-3.6-1.4-5.4-3.2-5.1-4.9.2-1.1,2.8-2,7-2.8,12.4-2.2,38-2.9,51.8-.8q1.8.3,3.3.6c.2,0,.4.1.6.1h.1c2.4.6,4.1,1.3,4.8,2.2a1.612,1.612,0,0,1,.4.7C993.8,520.9,970.8,525.1,958.5,525.1Z" fill="url(#linear-gradient-21)"/>
      <path id="Path_962" data-name="Path 962" d="M992.4,515.4a.758.758,0,0,1-.2.4c-1.3,1.9-6.8,4.3-6.8,4.3s-20.8-8.5-37.7-4.7-18.2,6-18.2,6h0c-3.6-1.4-5.4-3.2-5.1-4.9.2-1.1,2.8-2,7-2.8,12.4-2.2,38-2.9,51.8-.8,1.4.3,2.8.5,3.9.8h.1C990.6,514.3,992.5,514.9,992.4,515.4Z" opacity="0.5" fill="url(#linear-gradient-22)"/>
      <path id="Path_963" data-name="Path 963" d="M986.6,513.4c-3.2,3.1-18.7,5.7-27.5,5.7-15.8,0-25.4-2.5-27.6-5.5C944.9,511.2,974,510.6,986.6,513.4Z" fill="url(#linear-gradient-23)"/>
      <path id="Path_964" data-name="Path 964" d="M985.6,575.2c-1.9,11.2-12,18.7-26.4,18.7-12.6,0-23.2-4.7-26-15s-1.7-29.4,2-41.2a38.628,38.628,0,0,1,2-5.1h0a28.63,28.63,0,0,1,2.4-4.2h0c4.6-6.9,11.3-11.4,18.9-11.4a22.973,22.973,0,0,1,18.1,8.1,27.21,27.21,0,0,1,4.5,7.5,76.176,76.176,0,0,1,3.1,9.9v.1A85.935,85.935,0,0,1,985.6,575.2Z" fill="url(#linear-gradient-24)"/>
      <path id="Path_965" data-name="Path 965" d="M975.7,524.1s1.2,13.4,9.1,21.5C984.8,545.6,982.6,533.2,975.7,524.1Z" fill="url(#linear-gradient-25)"/>
      <path id="Path_966" data-name="Path 966" d="M1020.1,507.8c-12.3,24.4-34,32.7-34,32.7-6-3.9-11.2-16.5-9.1-18.9h0a1.38,1.38,0,0,1,.4-.3c26.4-12.7,34.4-25.8,34.4-25.8a7.914,7.914,0,0,1,6.8,4.7A19.7,19.7,0,0,1,1020.1,507.8Z" fill="url(#linear-gradient-26)"/>
      <path id="Path_967" data-name="Path 967" d="M1011.7,495.5c-2.2.6-2,15.2.8,16.7s7.5-4.4,7.5-4.4S1019.5,493.4,1011.7,495.5Z" fill="url(#linear-gradient-27)"/>
      <path id="Path_968" data-name="Path 968" d="M970,469.4c2.1,3.7,15.9.4,16.7-1.8,1-2.9-2.8-12.1-10.1-11.2C969.2,457.2,969,467.6,970,469.4Z" fill="url(#radial-gradient-4)"/>
      <path id="Path_969" data-name="Path 969" d="M948.4,469.4c-2.1,3.7-15.9.4-16.7-1.8-1-2.9,2.8-12.1,10.1-11.2C949.1,457.2,949.4,467.6,948.4,469.4Z" fill="url(#radial-gradient-5)"/>
      <path id="Path_970" data-name="Path 970" d="M944.6,476.2s3.9,4.1,15.1,4.1,16.9-4.7,16.9-4.7-4.9,6.7-16.9,6.7C947.7,482.2,944.6,476.2,944.6,476.2Z" fill="#2f95cd"/>
      <path id="Path_971" data-name="Path 971" d="M929.6,457.3c-.7,4.3,8.9,4.1,22,3.7,15.7-.5,31.5,13,40.7,3.3,1.5-1.6-13.5-22.6-31.7-22.2C942.4,442.6,930.2,453.5,929.6,457.3Z" opacity="0.5" fill="url(#linear-gradient-28)" style="mix-blend-mode: screen;isolation: isolate"/>
      <path id="Path_972" data-name="Path 972" d="M938.5,494.9c-.8,3.1,5.7,6.3,21.8,5.5,19.5-1,23.6-5,22.6-6.2-.6-.7-6.4,3-22.4-.5C950,491.3,939.4,491.6,938.5,494.9Z" opacity="0.5" fill="url(#linear-gradient-29)" style="mix-blend-mode: screen;isolation: isolate"/>
      <path id="Path_973" data-name="Path 973" d="M1003.5,475.2l-.5-1.4C1003.1,474.1,1003.3,474.6,1003.5,475.2Z" opacity="0.3" fill="url(#linear-gradient-30)"/>
      <path id="Path_974" data-name="Path 974" d="M985.6,575.2c-1.9,11.2-12,18.7-26.4,18.7-12.6,0-23.2-4.7-26-15s-1.7-29.4,2-41.2a38.628,38.628,0,0,1,2-5.1h0s-7.6,25.2-1.5,41.3,34.4,15.7,44,5c9.1-10.1,4.9-34,4.5-36.3A85.935,85.935,0,0,1,985.6,575.2Z" opacity="0.3" fill="url(#linear-gradient-31)"/>
      <path id="Path_975" data-name="Path 975" d="M933.7,568.5c2.1-15.1,14.3-25.3,27.7-24.1,14.5,1.4,22.3,15.2,22.1,27.1s-8.9,21.1-24.4,21.1C943.5,592.7,931.7,582.6,933.7,568.5Z" fill="url(#linear-gradient-32)"/>
      <path id="Path_976" data-name="Path 976" d="M933.8,569.8c2.1-15.1,14.3-25.3,27.7-24,14.5,1.4,22.3,15.2,22.1,27.1S974.7,594,959.2,594C943.6,593.9,931.8,583.9,933.8,569.8Z" fill="url(#radial-gradient-6)"/>
      <path id="Path_977" data-name="Path 977" d="M976.5,525c-3.1,4.8-20,7.6-29.8,6.7-8.5-.8-7.2-3.1-7.2-3.4h0c4.6-6.9,11.3-11.4,18.9-11.4C966.4,517,972.4,520.2,976.5,525Z" opacity="0.5" fill="url(#linear-gradient-33)"/>
      <path id="Path_978" data-name="Path 978" d="M970.5,533.4c-.8.3-.8,6.6,0,7.6s2.1.7,2.6-.8C973.5,538.7,971.7,533,970.5,533.4Z" fill="#fff"/>
      <path id="Path_979" data-name="Path 979" d="M972,542.7c-.7.2-.7,1.7-.4,2.3s1.4.4,1.6-.2C973.4,544.1,972.6,542.5,972,542.7Z" fill="#fff"/>
      <path id="Path_980" data-name="Path 980" d="M942.3,585.1s3.5,6,16.4,6.1,18.2-7.7,18.2-7.7a18.981,18.981,0,0,1-14.5,1.6C953.9,582.8,945.5,581.5,942.3,585.1Z" opacity="0.72" fill="url(#linear-gradient-34)" style="mix-blend-mode: screen;isolation: isolate"/>
      <path id="Path_981" data-name="Path 981" d="M969.5,440.2c-1.4.3,10.2,6.5,10.7,5.7C980.7,445.2,973.4,439.3,969.5,440.2Z" fill="#fff"/>
      <path id="Path_982" data-name="Path 982" d="M991.8,444.8c-1.2.6-1.1,1.9,1.3,1.6s3.7-2.2,3.4-2.6C996.3,443.4,993.1,444.1,991.8,444.8Z" fill="#fff"/>
      <path id="Path_983" data-name="Path 983" d="M1020.1,507.8c-12.3,24.4-34,32.7-34,32.7-6-3.9-11.2-16.5-9.1-18.9h0a1.38,1.38,0,0,1,.4-.3s3.9,14.2,15.2,10.3c13.4-4.7,18.9-28,18.9-28v-6.9l7,3.6A18.133,18.133,0,0,1,1020.1,507.8Z" opacity="0.3" fill="url(#linear-gradient-35)"/>
      <path id="Path_984" data-name="Path 984" d="M1010.9,499.6s-.1,7.7,4.3,9c4.4,1.2,9.8-6.9,11.9-10.3,2-3.4,5.1-18.6,2.2-22.3-2.9-3.6-8.5-2.7-12.3,2.4C1017,478.4,1011.1,493.1,1010.9,499.6Z" fill="url(#linear-gradient-36)"/>
      <path id="Path_985" data-name="Path 985" d="M1011.2,497.4s5.1-3.9,6.2-9.8,7.3-13.8,7.3-13.8-3.2-.3-7.7,4.6S1011.2,497.4,1011.2,497.4Z" fill="url(#linear-gradient-37)"/>
      <path id="Path_986" data-name="Path 986" d="M1016.2,479.4l3.9,1.5a25.534,25.534,0,0,0-2.4,5.7,25.368,25.368,0,0,1-3.3,6.5Z" opacity="0.5" fill="url(#linear-gradient-38)"/>
      <path id="Path_987" data-name="Path 987" d="M1011.2,495.9a24.786,24.786,0,0,1-1.5-8.5c-.2-5.6,1.2-10,1.8-10.8s2.8-.7,3.9.6c1,1.2,1.8,7.4,1.8,7.4S1015.7,494.5,1011.2,495.9Z" fill="url(#linear-gradient-39)"/>
      <path id="Path_988" data-name="Path 988" d="M1017.4,487.6s2.6,8.6,8.9,12l.8-1.3a22.416,22.416,0,0,1-9.4-11.8Z" fill="url(#linear-gradient-40)"/>
      <path id="Path_989" data-name="Path 989" d="M1012.8,480.7c-.6-.1-.4,5.5.4,5.2C1014,485.7,1013.7,480.8,1012.8,480.7Z" fill="#fff"/>
      <path id="Path_990" data-name="Path 990" d="M920.8,486.6a41.235,41.235,0,0,1,.1-10.6c.8-6.1,2.4-10,3.4-9.5,1,.6.8,6.5,1.4,12.4a85.5,85.5,0,0,0,1.3,8.9S922.9,491.8,920.8,486.6Z" opacity="0.2" fill="url(#linear-gradient-41)" style="mix-blend-mode: screen;isolation: isolate"/>
      <path id="Path_991" data-name="Path 991" d="M939,560.2c2.6,4.1,13.1,1.9,24.9,3.1s13.9,5,16.4,4.2-1.4-18.6-19.2-19.8C943.4,546.4,938.3,559.2,939,560.2Z" opacity="0.72" fill="url(#linear-gradient-42)" style="mix-blend-mode: screen;isolation: isolate"/>
      <path id="Path_992" data-name="Path 992" d="M1004.8,449.7s-2.2-2.7-5.2-2-3.2,10.2-1.4,10.4,2.6-5.2,3.9-6.1a6.459,6.459,0,0,1,3.8-.5Z" opacity="0.72" fill="url(#linear-gradient-43)" style="mix-blend-mode: screen;isolation: isolate"/>
      <path id="Path_993" data-name="Path 993" d="M912,453a4.3,4.3,0,0,1,3.8-.9c2.6.4,4.1,5.8,5.4,5.2,1.3-.5.4-9.2-3.2-11.7C918,445.6,913.5,449.5,912,453Z" opacity="0.72" fill="url(#linear-gradient-44)" style="mix-blend-mode: screen;isolation: isolate"/>
    </g>
  </g>
</svg>
