<svg xmlns="http://www.w3.org/2000/svg" xmlns:xlink="http://www.w3.org/1999/xlink" width="186.164" height="201.615" viewBox="0 0 186.164 201.615"><defs><style>.a,.ai,.aq,.h,.q,.r,.s{opacity:0.5;}.a{mix-blend-mode:multiply;fill:url(#a);}.a,.aj,.ak,.q,.r,.s,.t,.u{isolation:isolate;}.b{fill:#1a75fa;}.c{fill:#79f6ff;}.d{fill:url(#b);}.e{fill:url(#c);}.f{fill:url(#d);}.ab,.ad,.an,.at,.g,.y{opacity:0.3;}.g{fill:url(#e);}.h{fill:url(#f);}.i{fill:url(#g);}.j{fill:#dfe3fb;}.k{fill:url(#h);}.l{fill:url(#i);}.m{fill:url(#j);}.n{fill:url(#k);}.o{fill:#fff;}.p{fill:#46e9ff;}.aj,.ak,.q,.r,.s,.t,.u{mix-blend-mode:screen;}.q{fill:url(#l);}.r{fill:url(#m);}.s{fill:url(#n);}.aj,.ak,.t,.u{opacity:0.72;}.t{fill:url(#o);}.u{fill:url(#p);}.v{fill:#2f95cd;}.w{fill:url(#q);}.x{fill:url(#r);}.y{fill:url(#s);}.z{fill:url(#t);}.aa{fill:url(#u);}.ab{fill:url(#v);}.ac{fill:url(#w);}.ad{fill:url(#x);}.ae{fill:url(#y);}.af{fill:url(#z);}.ag{fill:url(#aa);}.ah{fill:#6340a2;}.ai{fill:url(#ab);}.aj{fill:url(#ac);}.ak{fill:url(#ad);}.al{fill:url(#ae);}.am{fill:url(#af);}.an{fill:url(#ag);}.ao{fill:url(#ah);}.ap{fill:url(#ai);}.aq{fill:url(#aj);}.ar{fill:url(#ak);}.as{fill:url(#al);}.at{fill:url(#am);}.au{fill:url(#an);}.av{fill:url(#ao);}.aw{fill:url(#ap);}.ax{fill:url(#aq);}.ay{fill:url(#ar);}</style><radialGradient id="a" cx="0.5" cy="0.502" r="0.501" gradientTransform="matrix(1, 0, 0, -1, 0, 1.005)" gradientUnits="objectBoundingBox"><stop offset="0" stop-color="#559dea"/><stop offset="0.388" stop-color="#5ea9f5"/><stop offset="1" stop-color="#fff"/></radialGradient><linearGradient id="b" x1="2.298" y1="4.74" x2="2.298" y2="5.891" gradientUnits="objectBoundingBox"><stop offset="0" stop-color="#b9acf4"/><stop offset="1" stop-color="#e1d1f5"/></linearGradient><linearGradient id="c" x1="1.05" y1="0.38" x2="1.162" y2="1.413" gradientUnits="objectBoundingBox"><stop offset="0" stop-color="#cbc1f7"/><stop offset="1" stop-color="#e8dcf7"/></linearGradient><linearGradient id="d" x1="0.865" y1="-1.822" x2="1.858" y2="-1.822" gradientUnits="objectBoundingBox"><stop offset="0" stop-color="#8879ea"/><stop offset="1" stop-color="#9e8cef"/></linearGradient><linearGradient id="e" x1="1.098" y1="0.014" x2="1.098" y2="1.128" gradientUnits="objectBoundingBox"><stop offset="0" stop-color="#9d68c2"/><stop offset="1" stop-color="#ccedff"/></linearGradient><linearGradient id="f" x1="1.36" y1="-2.814" x2="1.36" y2="-1.46" gradientUnits="objectBoundingBox"><stop offset="0" stop-color="#8da4e5"/><stop offset="1" stop-color="#755cbb"/></linearGradient><linearGradient id="g" x1="0.891" y1="-3.029" x2="0.914" y2="-1.751" gradientUnits="objectBoundingBox"><stop offset="0" stop-color="#5e36cc"/><stop offset="1" stop-color="#6c4a96"/></linearGradient><linearGradient id="h" x1="1.193" y1="0.092" x2="1.208" y2="0.843" gradientUnits="objectBoundingBox"><stop offset="0" stop-color="#0665bd"/><stop offset="1" stop-color="#1a1f77"/></linearGradient><linearGradient id="i" x1="0.37" y1="3.732" x2="0.37" y2="4.732" xlink:href="#b"/><linearGradient id="j" x1="0.369" y1="3.93" x2="0.369" y2="4.928" gradientUnits="objectBoundingBox"><stop offset="0" stop-color="#be9dea"/><stop offset="1" stop-color="#9e8cef"/></linearGradient><radialGradient id="k" cx="0.501" cy="0.5" r="0.43" gradientTransform="matrix(1.447, -0.005, -0.007, -1, -0.139, 8.9)" gradientUnits="objectBoundingBox"><stop offset="0" stop-color="#94fdff"/><stop offset="1" stop-color="#22e0ff"/></radialGradient><linearGradient id="l" x1="0.044" y1="0.268" x2="1.026" y2="0.633" gradientUnits="objectBoundingBox"><stop offset="0"/><stop offset="1" stop-color="#6a9bff"/></linearGradient><linearGradient id="m" x1="0.011" y1="-0.033" x2="0.988" y2="0.96" xlink:href="#l"/><linearGradient id="n" x1="5.815" y1="1.116" x2="5.815" y2="2.174" xlink:href="#l"/><linearGradient id="o" x1="0.503" y1="1.001" x2="0.501" y2="-0.004" gradientUnits="objectBoundingBox"><stop offset="0"/><stop offset="1" stop-color="#d4e2ff"/></linearGradient><linearGradient id="p" x1="0" y1="0.508" x2="1" y2="0.499" xlink:href="#o"/><linearGradient id="q" x1="0.418" y1="-0.283" x2="0.566" y2="0.805" gradientUnits="objectBoundingBox"><stop offset="0" stop-color="#cbc1f7"/><stop offset="1" stop-color="#d4bef1"/></linearGradient><linearGradient id="r" x1="0.583" y1="-3.048" x2="0.437" y2="-2.059" xlink:href="#j"/><linearGradient id="s" x1="0.5" y1="0.333" x2="0.5" y2="1.239" xlink:href="#e"/><linearGradient id="t" x1="0" y1="0.173" x2="0.533" y2="1" xlink:href="#c"/><linearGradient id="u" x1="-1.229" y1="-1.449" x2="-0.308" y2="-1.449" xlink:href="#d"/><linearGradient id="v" x1="-0.645" y1="0.588" x2="-0.642" y2="1.134" xlink:href="#e"/><linearGradient id="w" x1="-0.537" y1="1.261" x2="-0.351" y2="2.254" xlink:href="#c"/><linearGradient id="x" x1="-2.378" y1="2.273" x2="-2.378" y2="3.288" xlink:href="#e"/><linearGradient id="y" x1="-1.236" y1="2.058" x2="-0.304" y2="2.058" xlink:href="#j"/><radialGradient id="z" cx="0.64" cy="0.842" r="0.766" gradientTransform="matrix(0.991, -0.136, -0.119, -0.864, 0.106, 1.656)" xlink:href="#k"/><linearGradient id="aa" x1="-2.602" y1="5.953" x2="-1.969" y2="5.953" xlink:href="#d"/><linearGradient id="ab" x1="-0.303" y1="-0.672" x2="-0.105" y2="1" xlink:href="#f"/><linearGradient id="ac" x1="-0.019" y1="0.773" x2="0.945" y2="0.152" xlink:href="#o"/><linearGradient id="ad" x1="0.556" y1="0.957" x2="0.492" y2="0.268" xlink:href="#o"/><linearGradient id="ae" x1="-0.464" y1="4.991" x2="-0.329" y2="6.309" xlink:href="#c"/><linearGradient id="af" x1="-4.132" y1="15.983" x2="-4.132" y2="16.933" xlink:href="#j"/><linearGradient id="ag" x1="-0.396" y1="4.968" x2="-0.396" y2="6.363" xlink:href="#e"/><linearGradient id="ah" x1="8.928" y1="6.267" x2="9.085" y2="7.419" xlink:href="#c"/><linearGradient id="ai" x1="10.896" y1="8.205" x2="10.896" y2="9.636" xlink:href="#j"/><linearGradient id="aj" x1="47.454" y1="13.73" x2="47.454" y2="14.63" xlink:href="#f"/><linearGradient id="ak" x1="18.772" y1="10.689" x2="18.96" y2="11.843" xlink:href="#c"/><linearGradient id="al" x1="-1.307" y1="1.141" x2="-1.116" y2="2.172" xlink:href="#c"/><linearGradient id="am" x1="-2.206" y1="1.111" x2="-2.206" y2="2.153" xlink:href="#e"/><linearGradient id="an" x1="0.654" y1="-4.378" x2="0.352" y2="-3.288" xlink:href="#j"/><linearGradient id="ao" x1="0.465" y1="-2.743" x2="0.54" y2="-1.586" gradientUnits="objectBoundingBox"><stop offset="0" stop-color="#e8dcf7"/><stop offset="1" stop-color="#cbc1f7"/></linearGradient><linearGradient id="ap" x1="0.597" y1="-6.202" x2="0.404" y2="-5.443" xlink:href="#j"/><linearGradient id="aq" x1="0.5" y1="-0.273" x2="0.584" y2="1.525" xlink:href="#c"/><linearGradient id="ar" x1="0.117" y1="-7.532" x2="0.886" y2="-9.535" xlink:href="#j"/></defs><ellipse class="a" cx="40.8" cy="9.1" rx="40.8" ry="9.1" transform="translate(51 183.415)"/><g transform="translate(-945.8 -440.485)"><path class="b" d="M980.2,601.8c8.3,13.8,78.1,10,104.2-2.7,26.1-12.8,28.7-122.5,16.3-138.9s-91.2-21.6-123.6-3.8S969.1,583.5,980.2,601.8Z"/><path class="b" d="M1101.4,453c.1-6.7,15.2-14.4,23.9-12.1s10.1,32.3-3.2,33.3C1108.8,475.1,1101.3,461.4,1101.4,453Z"/><path class="b" d="M963.8,595c-1.2-5,2.7-10.4,6.3-9.5s7.6,17.7,2.2,18.1S964.6,598.3,963.8,595Z"/><path class="c" d="M1002.9,451s-8.2,5.9-11.5,19,15.8-3.1,15.8-3.1Z"/><path class="d" d="M995.7,464.7s6.2-15.8,12-18.3,14.3,2.4,14.3,2.4Z"/><path class="e" d="M1066.8,518.2c-15,15.9-72.8,7.8-80.8-3.2a27.069,27.069,0,0,1-5-15.2h0c-.8-24,23.6-54.7,53.9-52.3,20.5,1.6,34.1,21.4,37.7,40.5C1074.7,499.9,1073.1,511.5,1066.8,518.2Z"/><path class="f" d="M1053.9,524.7a111.379,111.379,0,0,1-26.2,2.2c-13.6-.8-23.3-2.9-28.7-5.4h0c-3.5-1.7-5.2-3.5-4.8-5.2.2-1.1,2.9-1.9,7.2-2.4,12.5-1.5,38.1-.7,51.8,2.1,1.2.3,2.3.5,3.2.8.2.1.4.1.6.2h.1c2.3.7,4,1.5,4.7,2.4a2.507,2.507,0,0,1,.4.7C1062.6,522,1059.1,523.6,1053.9,524.7Z"/><path class="g" d="M1066.8,518.2c-15,15.9-72.8,7.8-80.8-3.2a27.069,27.069,0,0,1-5-15.2h0s3.4,7.8,15.1,9.9,46.1,2.4,53.4-2.4,5.9-28.5,5.9-28.5l17.1,9.2C1074.7,499.9,1073.1,511.5,1066.8,518.2Z"/><path class="h" d="M1053.9,524.7c-5.7-2.9-22.5-10.5-36.4-8.2-17.1,2.8-18.5,5-18.5,5h0c-3.5-1.7-5.2-3.5-4.8-5.2.2-1.1,2.9-1.9,7.2-2.4,12.5-1.5,38.1-.7,51.8,2.1,1.4.3,2.7.7,3.9,1h.1c2.3.7,4,1.5,4.7,2.4a2.507,2.507,0,0,1,.4.7C1062.6,522,1059.1,523.6,1053.9,524.7Z"/><path class="i" d="M1056.4,516.8c-3.4,2.9-19,4.7-27.8,4.2-15.8-.9-25.2-4-27.3-7.1C1015,512.2,1044,513.3,1056.4,516.8Z"/><path class="j" d="M980.7,500.9c2,7.3,51.9,12.8,65.4,1s3.9-54.4-22.8-52.1C998,451.9,977,487.6,980.7,500.9Z"/><path class="k" d="M980.9,499.8c2,7.3,51.9,12.8,65.4,1s3.9-54.4-22.8-52.1C998.2,450.9,977.2,486.5,980.9,499.8Z"/><path class="l" d="M1050.4,456s-2.6,24.7,12.7,33.3c0,0,7.5.8,11.8-3.8,0,0-6.7,6.4-13.9-.2s-5.5-24.8-.2-30.8c5.4-6,13.2-4.4,13.2-4.4l-3.1-2.8S1059.4,445,1050.4,456Z"/><path class="m" d="M1070.9,447.3s-8.5-.7-14.3,9.1c-6.2,10.5-1.6,28.5,6.1,31.2,7.6,2.7,15.2-26.5,15.2-26.5l-4.5-11.6A4.938,4.938,0,0,0,1070.9,447.3Z"/><path class="n" d="M1082,472c-1.1,5.6-3.3,10.2-6.4,13.2h0l-.9.8h0a11.232,11.232,0,0,1-8.6,2.6c-10.3-1.3-11.8-16.2-10.6-24.6,1.4-9.8,9.7-15.7,16.3-14.8C1079.8,450.1,1084,461,1082,472Z"/><path class="o" d="M965.3,508.4"/><path class="o" d="M982.2,507.3"/><path class="p" d="M1023.8,478.5c-.4.5,6.5-4,17.5.3C1042.5,479.2,1030.9,468.8,1023.8,478.5Z"/><path class="p" d="M989.2,478.5c-.4.5,3.3-3,12.9-.7C1003.2,478.1,995.5,469.9,989.2,478.5Z"/><path class="q" d="M994.8,469.2c1.1,1.7,10.6-3.2,21-2.1s21.8,11.3,30.3,10c6.8-1-2.2-25.3-19.4-27.5C1009.5,447.3,993.7,467.5,994.8,469.2Z"/><path class="r" d="M991.7,502a72.247,72.247,0,0,1,24.2-1.4c13.4,1.5,15.5,2.9,15.3,4.2s-10,3.8-22.2,2.5C996.7,506,991.7,502,991.7,502Z"/><path class="s" d="M981.3,497.8s-1.4-9.4,7.1-22.7c0,0,1.8-2.1,2.7-1.3C991.9,474.5,983.4,484.2,981.3,497.8Z"/><path class="t" d="M1057.3,475.9s1.1,9.1,7.9,11.1c6.7,1.9,12.2-2.9,13.9-9.8,0,0-2.1,5.9-10.8,4.5C1059.4,480.1,1057.3,475.9,1057.3,475.9Z"/><path class="u" d="M1058.4,458.6c.1,1.7,12.4-1.9,16.3-1.4s5.6,5.3,6.2,5.2-1.1-11.4-8.4-12.2C1065.3,449.4,1058.4,457.4,1058.4,458.6Z"/><path class="v" d="M1000.5,488s12.3.4,19.2-1.3c0,0-1.6,11.5-9.6,11.5C1002.1,498.1,1000.5,488,1000.5,488Z"/><path class="w" d="M1000,555.8s-20.6,11.7-25.4,11.2-2.7-11.5-2.7-11.5c.6-.8,1.4-1.5,2.1-2.3h0c7.7-8.2,20.9-18.6,28.5-23.5h0c3.2-2.1,5.4-3.2,5.8-2.8C1011.2,530,1000,555.8,1000,555.8Z"/><path class="x" d="M971.9,555.5s2.7-2.3,6,.8c3.3,3-.1,10.3-3.3,10.7C971.4,567.3,969.4,560.2,971.9,555.5Z"/><path class="y" d="M1000,555.8s-20.6,11.7-25.4,11.2-2.7-11.5-2.7-11.5c.6-.8,1.4-1.5,2.1-2.3h0s5,3,14.3,1.5c9.3-1.4,14.2-25.1,14.2-25.1h0c3.2-2.1,5.4-3.2,5.8-2.8C1011.2,530,1000,555.8,1000,555.8Z"/><path class="z" d="M1024,593.8c.3,4.4-4.4,19.2-9.2,23.8h0a3.6,3.6,0,0,1-2.7,1.3c-4-.2-8.6-18.3-10.4-28.7-.7-4-.9-6.8-.5-7C1004.5,581.8,1023.7,588.6,1024,593.8Z"/><path class="aa" d="M1024.2,595.3s-4.3,3.3-12.3.7c-6.2-2-11.5-10.9-10.8-12.7C1001.9,581.5,1025.9,588.1,1024.2,595.3Z"/><path class="ab" d="M1024,593.8c.3,4.4-4.4,19.2-9.2,23.8,3.3-5.2,2-14.7-1.2-18.6-2.4-3-8.9-7-11.9-8.7-.7-4-.9-6.8-.5-7C1004.5,581.8,1023.7,588.6,1024,593.8Z"/><path class="o" d="M1008.9,600.4c-1.2-.1-.4,3.2-.2,3.4s.8-.9.8-1.8C1009.6,601.2,1009.3,600.5,1008.9,600.4Z"/><path class="ac" d="M1052.6,567.3c1.2,16.4-5.6,25.6-21.5,30.1-15.5,4.4-30-9.5-30.9-30.7-.6-13.5-.2-25.7,4.3-34.6h0a24.078,24.078,0,0,1,12.2-11.5c4.6-2,9.2-.6,13.7,2.8C1042,532.2,1051.6,554.7,1052.6,567.3Z"/><path class="ad" d="M1035.7,540.9a198.992,198.992,0,0,1,7.6,19.5c2.8,9.5.2,20.3.2,20.3l9.3-10.6a33.855,33.855,0,0,0-2.1-13c-2.4-6.2-3.8-8.9-3.8-8.9Z"/><path class="ae" d="M1000,569.4s.1-12.7,11.2-16c13.3-4,26.7,8.1,28.8,18.3,2.2,10.2,1.9,20.5-10.6,24.6C1029.6,596.3,1005.8,602.8,1000,569.4Z"/><path class="af" d="M1000.6,570.7s.1-12.7,11.2-16c13.3-4,26.7,8.1,28.8,18.3,2.2,10.2,1.9,20.5-10.6,24.6C1030.1,597.7,1006.4,604.1,1000.6,570.7Z"/><path class="ag" d="M1045.6,551.8c-.6.2-1.3-.1-2.2-.8-3.9-2.9-10-12.7-11.8-18.7-.7-2.3-.7-4,.3-4.6,1.7-.8,7.1,4.1,11.3,12C1045.8,544.4,1048.1,551.1,1045.6,551.8Z"/><path class="ah" d="M1043.4,551c-3.9-2.9-10-12.7-11.8-18.7,2.4,1.7,5.8,5.7,8.7,11.1A28.333,28.333,0,0,1,1043.4,551Z"/><path class="ai" d="M1030.3,523.3s-14.5,11-20.9,12.1c-6.3,1.1-5.1-3.2-5-3.4h0a24.078,24.078,0,0,1,12.2-11.5C1021.2,518.5,1025.9,519.9,1030.3,523.3Z"/><path class="aj" d="M1001.7,569.3c2.6,2.7,7.7-3.3,15.7-4.7,8.1-1.4,13.5,1.5,15.4-.3s-8.6-11.3-20.7-8.3C1002.4,558.5,1000.8,568.3,1001.7,569.3Z"/><path class="ak" d="M1019,595.7a14.473,14.473,0,0,0,9.7.9c5.5-1.4,6.5-4.6,6.5-4.6a11.94,11.94,0,0,0-6.3,1.6A18.463,18.463,0,0,1,1019,595.7Z"/><path class="o" d="M1022.7,535.9c-.9.3.1,10,1,10.1s1.3-2.2,1.1-5.4C1024.7,537.3,1023.6,535.6,1022.7,535.9Z"/><path class="al" d="M1089,564.7c1.5,6.2-4.3,10.3-6.8,10.1-2.2-.2-9.5-2.7-19.1-9.4h0c-1.4-1-2.9-2.1-4.4-3.3-11.7-9.3-28.3-29.3-23-31.3h0C1051,525.2,1087.5,558.6,1089,564.7Z"/><path class="am" d="M1077.3,573.4s-2.8-4.8.5-9c3.2-4.2,10.7-1,10.7-1a6.312,6.312,0,0,1-2.4,8.8C1080.5,575.7,1077.3,573.4,1077.3,573.4Z"/><path class="an" d="M1089,564.7c1.5,6.2-4.3,10.3-6.8,10.1-2.2-.2-9.5-2.7-19.1-9.4.9.5,7.2,4.4,9.9,2.8,2.9-1.7,3.7-13.1-12-26.6-15.2-13.1-24.7-10.9-25.3-10.7C1051,525.2,1087.5,558.6,1089,564.7Z"/><path class="ao" d="M1080,566.3c2-2.1,6.9-2.4,9.4-1.2s10.6,7.4,15,19.1c0,0-.8,6.9-5.4,8.2-3.5,1-9.7-7.6-14.3-13.6C1080,572.8,1076.7,569.7,1080,566.3Z"/><path class="ap" d="M1099.8,592.3s-11.1-22-21.8-20.3c0,0,2,3.5,8.5,10.4C1092.9,589.3,1097.5,593,1099.8,592.3Z"/><path class="aq" d="M1092.3,581s.2,4.3-.8,5.8a4.257,4.257,0,0,1-2.4,1.8l-1.6-12.6A29,29,0,0,1,1092.3,581Z"/><path class="ar" d="M1087.5,576s-5.1-4.6-9.4-3.5c0,0-.8,5.2,8.6,16.3,0,0,3.4,1,4.1-3A40.321,40.321,0,0,0,1087.5,576Z"/><path class="o" d="M1084.2,575.5c1.1-.8,3.1,5.3,2.4,5.7C1085.9,581.5,1083.2,576.2,1084.2,575.5Z"/><path class="o" d="M1049.8,548.6c-1.3,2.5,3,4.3,4.1,3.9S1050.7,546.9,1049.8,548.6Z"/><path class="o" d="M1054.8,553.4c-.4.3,1.3,1.9,1.8,2.1.8.5,2.4.7,2.5.4C1059.1,555.6,1055.2,553.1,1054.8,553.4Z"/><path class="o" d="M981.4,547.8c.2.7,5.1-1.5,5.1-3.6S981.1,546.8,981.4,547.8Z"/><path class="as" d="M1068.4,614.1c-.9.9-2.5.8-4.5.2a35.288,35.288,0,0,1-7.8-3.9h0c-8-4.9-16.7-12.6-17.2-14.8-1.6-7.7,6.2-17.6,11.2-22.5,1.9-1.9,3.5-3.1,3.8-3C1055.1,570.2,1072.8,609.7,1068.4,614.1Z"/><path class="at" d="M1068.4,614.1c-.9.9-2.5.8-4.5.2l-7.8-3.9c.7.3,9.2,3.7,6.3-8.5-3-12.7-12.7-27.9-12.7-27.9l.3-1c1.9-1.9,3.5-3.1,3.8-3C1055.1,570.2,1072.8,609.7,1068.4,614.1Z"/><path class="o" d="M1045,593c-1.9,1.2,2.8,5.1,3.3,5.1s.2-2.2-.7-3.6C1046.9,593.4,1045.7,592.6,1045,593Z"/><path class="o" d="M1049,598.6c-.3.4,1.2,1.7,1.4,1.2a1.419,1.419,0,0,0-.4-1.4A.919.919,0,0,0,1049,598.6Z"/><path class="o" d="M957.4,557.5c.1.8,5.9-1.9,5.9-2.9S957.3,556.1,957.4,557.5Z"/><path class="au" d="M945.8,567.7a10.763,10.763,0,0,0,1.1,3.8s2.9,2,8.4,1.7c5.6-.2,17.1-6.1,18.7-7.1,1.6-1.1,2.4-4.3,2.4-4.3Z"/><path class="av" d="M976,555.8c-2.8-1.1-10.1.4-14.5,2.1-4.5,1.6-11.7,6.7-15.7,9.8,0,0,.1,3,5.9,3.7s21.5-5.9,24.1-8.7C978.4,559.8,976,555.8,976,555.8Z"/><path class="aw" d="M955.9,560.7s9.9-1.3,14.9-5.1C970.8,555.6,962.3,555.2,955.9,560.7Z"/><path class="ax" d="M969.3,555.8s-5.8,3.4-11.9,3.6c0,0-6.2.1-6.5-.6s-.5-3.4,1.1-4.1C953.5,554,964.2,552.7,969.3,555.8Z"/><path class="ay" d="M956.8,560.6a44.036,44.036,0,0,1,15.4,4.6l.9-.5C973.1,564.6,967.3,560.6,956.8,560.6Z"/><path class="o" d="M956.5,569.3a13.5,13.5,0,0,1,6.8-1.8S958.6,569.7,956.5,569.3Z"/></g></svg>