<svg xmlns="http://www.w3.org/2000/svg" xmlns:xlink="http://www.w3.org/1999/xlink" width="192.708" height="211.8" viewBox="0 0 192.708 211.8"><defs><style>.a{fill:#1a75fa;}.b{fill:#e5f6ff;}.ai,.aj,.ak,.an,.ar,.ba,.bc,.c,.p{opacity:0.5;}.c{fill:url(#a);}.d{fill:url(#b);}.ao,.av,.be,.e,.i,.o,.v{opacity:0.3;}.e{fill:url(#c);}.f{fill:#fff;}.g{fill:url(#d);}.h{fill:url(#e);}.i{fill:url(#f);}.j{fill:url(#g);}.k{fill:#3de7ff;}.l{fill:url(#h);}.m{fill:url(#i);}.n{fill:url(#j);}.o{fill:url(#k);}.p{fill:url(#l);}.q{fill:url(#m);}.r{fill:#dfe3fb;}.s{fill:url(#n);}.t{fill:url(#o);}.u{fill:url(#p);}.v{fill:url(#q);}.w{fill:url(#r);}.x{fill:url(#s);}.y{fill:url(#t);}.z{fill:url(#u);}.aa{fill:url(#v);}.ab{fill:#6340a2;}.ac{fill:url(#w);}.ad{fill:url(#x);}.ae{fill:url(#y);}.af{fill:url(#z);}.ag{fill:url(#aa);}.ah{fill:#2f95cd;}.ai,.aj,.ak,.al,.am,.at,.au{mix-blend-mode:screen;isolation:isolate;}.ai{fill:url(#ab);}.aj{fill:url(#ac);}.ak{fill:url(#ad);}.al,.am,.at,.au{opacity:0.72;}.al{fill:url(#ae);}.am{fill:url(#af);}.an{fill:url(#ag);}.ao{fill:url(#ah);}.ap{fill:url(#ai);}.aq{fill:url(#aj);}.ar{fill:url(#ak);}.as{fill:url(#al);}.at{fill:url(#am);}.au{fill:url(#an);}.av{fill:url(#ao);}.aw{fill:url(#ap);}.ax{fill:url(#aq);}.ay{fill:url(#ar);}.az{fill:url(#as);}.ba{fill:url(#at);}.bb{fill:url(#au);}.bc{fill:url(#av);}.bd{fill:url(#aw);}.be{fill:url(#ax);}.bf{fill:url(#ay);}.bg{fill:url(#az);}</style><radialGradient id="a" cx="0.5" cy="0.496" r="0.498" gradientTransform="matrix(1, 0, 0, -1, 0, 0.992)" gradientUnits="objectBoundingBox"><stop offset="0" stop-color="#559dea"/><stop offset="0.388" stop-color="#5ea9f5"/><stop offset="1" stop-color="#fff"/></radialGradient><linearGradient id="b" x1="0.5" x2="0.676" y2="1.469" gradientUnits="objectBoundingBox"><stop offset="0" stop-color="#cbc1f7"/><stop offset="1" stop-color="#d4bef1"/></linearGradient><linearGradient id="c" x1="0.444" y1="0.5" x2="0.5" y2="1.781" gradientUnits="objectBoundingBox"><stop offset="0" stop-color="#9d68c2"/><stop offset="1" stop-color="#ccedff"/></linearGradient><linearGradient id="d" x1="0.386" y1="0.314" x2="1" y2="0.879" gradientUnits="objectBoundingBox"><stop offset="0" stop-color="#cbc1f7"/><stop offset="1" stop-color="#e8dcf7"/></linearGradient><linearGradient id="e" x1="0.003" y1="-5.958" x2="1" y2="-5.958" gradientUnits="objectBoundingBox"><stop offset="0" stop-color="#8879ea"/><stop offset="1" stop-color="#9e8cef"/></linearGradient><linearGradient id="f" x1="0.714" y1="1" x2="0.499" y2="-2.484" xlink:href="#c"/><linearGradient id="g" x1="0.577" y1="-3.88" x2="0.429" y2="-2.891" gradientUnits="objectBoundingBox"><stop offset="0" stop-color="#be9dea"/><stop offset="1" stop-color="#9e8cef"/></linearGradient><linearGradient id="h" x1="0.499" y1="7.295" x2="0.499" y2="8.298" gradientUnits="objectBoundingBox"><stop offset="0" stop-color="#b9acf4"/><stop offset="1" stop-color="#e1d1f5"/></linearGradient><linearGradient id="i" x1="0.457" y1="1.285" x2="0.569" y2="2.304" xlink:href="#d"/><linearGradient id="j" x1="0" y1="2.981" x2="1" y2="2.981" xlink:href="#e"/><linearGradient id="k" x1="0.5" y1="1.463" x2="0.5" y2="2.463" xlink:href="#c"/><linearGradient id="l" x1="0.5" y1="2.745" x2="0.5" y2="3.747" gradientUnits="objectBoundingBox"><stop offset="0" stop-color="#8da4e5"/><stop offset="1" stop-color="#755cbb"/></linearGradient><linearGradient id="m" x1="0.486" y1="3.739" x2="0.509" y2="4.706" gradientUnits="objectBoundingBox"><stop offset="0" stop-color="#5e36cc"/><stop offset="1" stop-color="#6c4a96"/></linearGradient><linearGradient id="n" x1="0.5" y1="0.05" x2="0.5" y2="0.943" gradientUnits="objectBoundingBox"><stop offset="0" stop-color="#0665bd"/><stop offset="1" stop-color="#1a1f77"/></linearGradient><linearGradient id="o" x1="0.539" y1="0.272" x2="0.75" y2="0.911" xlink:href="#d"/><linearGradient id="p" x1="0.499" y1="3.498" x2="0.499" y2="4.497" xlink:href="#h"/><linearGradient id="q" x1="0" y1="1" x2="0.659" y2="1.714" xlink:href="#c"/><linearGradient id="r" x1="0.499" y1="3.696" x2="0.499" y2="4.696" xlink:href="#g"/><radialGradient id="s" cx="0.499" cy="0.499" r="0.429" gradientTransform="matrix(1.453, 0, 0, -1, -0.226, 8.389)" gradientUnits="objectBoundingBox"><stop offset="0" stop-color="#94fdff"/><stop offset="1" stop-color="#22e0ff"/></radialGradient><linearGradient id="t" x1="-0.001" y1="-1.038" x2="1" y2="-1.038" xlink:href="#g"/><radialGradient id="u" cx="0.516" cy="0.843" r="0.623" gradientTransform="matrix(1.215, 0, 0, -1, -0.111, -2.876)" xlink:href="#s"/><linearGradient id="v" x1="-0.005" y1="-0.039" x2="0.997" y2="-0.039" xlink:href="#e"/><linearGradient id="w" x1="0.5" y1="0.029" x2="0.742" y2="0.721" xlink:href="#d"/><linearGradient id="x" x1="0.332" y1="0.047" x2="0.651" y2="0.598" xlink:href="#d"/><linearGradient id="y" x1="0.498" y1="-7.585" x2="0.498" y2="-6.589" xlink:href="#g"/><radialGradient id="z" cx="0.501" cy="0.496" r="0.422" gradientTransform="matrix(1.55, 0, 0, -1, -0.275, 12.332)" xlink:href="#s"/><radialGradient id="aa" cx="0.498" cy="0.5" r="1.133" gradientTransform="matrix(0.328, 0, 0, -1, 0.335, 45.531)" xlink:href="#s"/><linearGradient id="ab" x1="-0.001" y1="6.506" x2="0.999" y2="6.506" gradientUnits="objectBoundingBox"><stop offset="0"/><stop offset="1" stop-color="#6a9bff"/></linearGradient><linearGradient id="ac" x1="-0.001" y1="8.314" x2="0.999" y2="8.314" xlink:href="#ab"/><linearGradient id="ad" x1="0.495" y1="3.62" x2="0.495" y2="4.62" xlink:href="#ab"/><linearGradient id="ae" x1="0.499" y1="10.481" x2="0.499" y2="11.483" gradientUnits="objectBoundingBox"><stop offset="0" stop-color="#d4e2ff"/><stop offset="1"/></linearGradient><linearGradient id="af" x1="-0.001" y1="14.507" x2="1.001" y2="14.507" gradientUnits="objectBoundingBox"><stop offset="0"/><stop offset="1" stop-color="#d4e2ff"/></linearGradient><linearGradient id="ag" x1="0.336" y1="-0.393" x2="0.5" y2="1.174" xlink:href="#l"/><linearGradient id="ah" x1="0.708" y1="0.281" x2="1" y2="1.485" xlink:href="#c"/><linearGradient id="ai" x1="0.863" y1="1.787" x2="0.318" y2="-0.05" xlink:href="#d"/><linearGradient id="aj" x1="-5.513" y1="-4.341" x2="-5.513" y2="-3.317" xlink:href="#g"/><linearGradient id="ak" x1="-6.962" y1="-10.507" x2="-6.962" y2="-9.543" xlink:href="#l"/><linearGradient id="al" x1="-5.248" y1="-5.93" x2="-4.954" y2="-4.945" xlink:href="#d"/><linearGradient id="am" x1="-0.001" y1="-2.68" x2="1.001" y2="-2.68" xlink:href="#af"/><linearGradient id="an" x1="0.498" y1="-30.67" x2="0.498" y2="-29.683" xlink:href="#ae"/><linearGradient id="ao" x1="0.146" y1="0.378" x2="0.146" y2="1.319" xlink:href="#c"/><linearGradient id="ap" x1="0.5" y1="-0.233" x2="0.132" y2="0.697" xlink:href="#d"/><linearGradient id="aq" x1="0.523" y1="-11.342" x2="0.463" y2="-10.2" xlink:href="#g"/><linearGradient id="ar" x1="0.424" y1="0.97" x2="0.585" y2="0.006" gradientUnits="objectBoundingBox"><stop offset="0" stop-color="#ff2a30"/><stop offset="1" stop-color="#ff7f7f"/></linearGradient><linearGradient id="as" x1="0.42" y1="1.069" x2="0.682" y2="-0.051" gradientUnits="objectBoundingBox"><stop offset="0" stop-color="#d4000b"/><stop offset="1" stop-color="#fe1100"/></linearGradient><linearGradient id="at" x1="0.472" y1="1.017" x2="0.515" y2="0.122" xlink:href="#l"/><radialGradient id="au" cx="0.519" cy="0.439" r="0.56" gradientTransform="matrix(0.713, 0.527, -0.442, 0.85, -2.116, 0.019)" gradientUnits="objectBoundingBox"><stop offset="0" stop-color="#45ffcd"/><stop offset="1" stop-color="#22e0ff"/></radialGradient><linearGradient id="av" x1="0.441" y1="0.984" x2="0.539" y2="-0.028" xlink:href="#l"/><radialGradient id="aw" cx="0.496" cy="0.507" r="0.561" gradientTransform="translate(0.093) scale(0.813 1)" xlink:href="#au"/><linearGradient id="ax" x1="0.447" y1="0.976" x2="0.541" y2="-0.083" xlink:href="#c"/><linearGradient id="ay" x1="0.525" y1="-0.827" x2="0.583" y2="1.59" xlink:href="#d"/><linearGradient id="az" x1="0.528" y1="-6.539" x2="0.454" y2="-5.659" xlink:href="#g"/></defs><g transform="translate(-862.3 -434.5)"><path class="a" d="M871,529.6c-7.7,25.6,26.7,75.7,78.3,75,57.5-.8,103.2-50,105.6-91.5,2.5-41.4-38.9-70.6-72.7-63.2s-46.1,30.2-62,44.8C911,503.3,881.2,495.8,871,529.6Z"/><path class="a" d="M864.7,565.2a22.811,22.811,0,0,0-2.4,10.2,3.233,3.233,0,0,0,.3,1.7,3.59,3.59,0,0,0,2.7,1.7,6.992,6.992,0,0,0,6.7-3.7,8.3,8.3,0,0,0-.3-7.8,5.68,5.68,0,0,0-3.2-2.9,3.246,3.246,0,0,0-3.8,1.6.749.749,0,0,0,1.2,0Z"/><path class="b" d="M1043.5,434.8a.319.319,0,0,1,.3-.3.52.52,0,0,1,.4.2c.1.1.2.2.2.3a.585.585,0,0,1-.3.7.854.854,0,0,1-.7,0c-.1-.1-.2-.2-.2-.3s0-.3.2-.3Z"/></g><ellipse class="c" cx="40.8" cy="9.1" rx="40.8" ry="9.1" transform="translate(55.8 193.6)"/><g transform="translate(-862.3 -434.5)"><path class="d" d="M940.4,559.9s-20.6,11.7-25.4,11.2-2.7-11.5-2.7-11.5c.6-.8,1.4-1.5,2.1-2.3h0c7.7-8.2,20.9-18.6,28.5-23.5h0c3.2-2.1,5.4-3.2,5.8-2.8C951.6,534.1,940.4,559.9,940.4,559.9Z"/><path class="e" d="M940.4,559.9s-20.6,11.7-25.4,11.2-2.7-11.5-2.7-11.5c.6-.8,1.4-1.5,2.1-2.3h0s5,3,14.3,1.5c9.3-1.4,14.2-25.1,14.2-25.1h0c3.2-2.1,5.4-3.2,5.8-2.8C951.6,534.1,940.4,559.9,940.4,559.9Z"/><path class="f" d="M921.8,551.9c.2.7,5.1-1.5,5.1-3.6S921.5,550.9,921.8,551.9Z"/><path class="g" d="M955.5,599.7c-.4,4.4-7.3,18.4-12.7,22.2h0a3.832,3.832,0,0,1-2.9.9c-3.9-.8-5.8-19.4-6-29.9-.1-4.1.1-6.9.5-7C938,584.9,955.9,594.5,955.5,599.7Z"/><path class="h" d="M955.5,601.2s-4.8,2.6-12.3-1.1c-5.8-2.9-9.8-12.5-8.8-14.2C935.5,584.2,958.2,594.4,955.5,601.2Z"/><path class="i" d="M955.5,599.7c-.4,4.4-7.3,18.4-12.7,22.2,4.1-4.7,4.2-14.2,1.6-18.6-2-3.3-7.8-8.2-10.5-10.4-.1-4.1.1-6.9.5-7C938,584.9,955.9,594.5,955.5,599.7Z"/><path class="j" d="M912.3,559.7s2.7-2.3,6,.8c3.3,3-.1,10.3-3.3,10.7C911.8,571.5,909.9,564.4,912.3,559.7Z"/><path class="k" d="M926.1,457.4s-6.9,7.3-7.7,20.9c-.8,13.5,14.9-6,14.9-6Z"/><path class="l" d="M921.6,472.3s3.1-16.7,8.3-20.2,14.5-.3,14.5-.3Z"/><path class="m" d="M1001.6,511.3c-11.8,18.5-70,21.4-80,12.2a27.07,27.07,0,0,1-7.8-14h0c-5.4-23.4,12.8-58.2,43-61.6,20.4-2.3,37.5,14.6,44.7,32.7C1005.9,491.8,1006.5,503.5,1001.6,511.3Z"/><path class="n" d="M990.2,520.2a112.7,112.7,0,0,1-25.3,7.1c-13.5,1.8-23.5,1.6-29.2.1h0q-5.7-1.5-5.7-4.2c0-1.1,2.5-2.4,6.6-3.7,12-3.9,37.3-7.9,51.3-7.7a32.51,32.51,0,0,1,3.3.2,1.268,1.268,0,0,1,.6.1h.1c2.4.3,4.2.8,5.1,1.5a2.652,2.652,0,0,1,.5.6C998.2,515.8,995,518,990.2,520.2Z"/><path class="o" d="M1001.6,511.3c-11.8,18.5-70,21.4-80,12.2a27.07,27.07,0,0,1-7.8-14h0s4.9,7,16.7,6.9c11.9-.1,45.7-6.4,52-12.5,6.2-6,.4-29.1.4-29.1l18.5,5.8C1005.9,491.8,1006.5,503.5,1001.6,511.3Z"/><path class="p" d="M990.2,520.2c-6.2-1.8-24.1-6-37.3-1.2-16.2,6-17.2,8.4-17.2,8.4h0q-5.7-1.5-5.7-4.2c0-1.1,2.5-2.4,6.6-3.7,12-3.9,37.3-7.9,51.3-7.7,1.5.1,2.8.1,4,.2h.1c2.4.3,4.2.8,5.1,1.5a2.652,2.652,0,0,1,.5.6C998.2,515.8,995,518,990.2,520.2Z"/><path class="q" d="M991.2,511.9c-2.8,3.5-17.8,8.2-26.5,9.3-15.7,2.1-25.5.9-28.1-1.8C949.6,515.3,978.3,510.8,991.2,511.9Z"/><path class="r" d="M913.8,510.6c3.4,6.8,53.4,2.8,64.4-11.4s-6.5-54.1-32.2-46.9C921.5,459.3,907.6,498.2,913.8,510.6Z"/><path class="s" d="M913.8,509.5c3.4,6.8,53.4,2.8,64.4-11.4S971.7,444,946,451.2C921.5,458.2,907.6,497.1,913.8,509.5Z"/><path class="t" d="M984.7,578.5c-3.5,16-12.7,22.9-29.2,22.7-16.1-.2-26-17.7-20.8-38.2,3.3-13.1,7.2-24.7,14-32h0a23.541,23.541,0,0,1,15-7.5c4.9-.6,9,2.1,12.3,6.6C984.6,541.8,987.4,566.1,984.7,578.5Z"/><path class="u" d="M980.7,454.8s-2.7,24.6,12.5,33.4c0,0,7.5.8,11.8-3.7,0,0-6.8,6.3-13.9-.3s-5.4-24.8,0-30.8c5.4-5.9,13.2-4.4,13.2-4.4l-3.1-2.8S989.7,443.8,980.7,454.8Z"/><path class="v" d="M976,548.3a196.073,196.073,0,0,1,1.7,20.9c0,9.9-6.1,18.6-6.1,18.6l12.3-6.6a35.2,35.2,0,0,0,1.7-13.1c-.6-6.6-1.1-9.6-1.1-9.6Z"/><path class="w" d="M1001.2,446.2s-8.5-.8-14.4,9c-6.3,10.4-1.7,28.4,5.9,31.2,7.6,2.7,15.3-26.4,15.3-26.4l-4.4-11.6A4.11,4.11,0,0,0,1001.2,446.2Z"/><path class="x" d="M1012.2,471c-1.1,5.6-3.4,10.2-6.4,13.1h0l-.9.8h0a11.232,11.232,0,0,1-8.6,2.6c-10.3-1.3-11.7-16.2-10.5-24.7,1.4-9.8,9.8-15.6,16.4-14.8C1010.1,449.1,1014.3,460,1012.2,471Z"/><path class="y" d="M933.9,565.6s3.7-12.1,15.3-12.1c13.9,0,23.2,15.4,22.4,25.8s-4,20.2-17.1,20.6C954.5,599.8,929.9,599.3,933.9,565.6Z"/><path class="z" d="M933.9,566.9s3.7-12.1,15.3-12.1c13.9,0,23.2,15.4,22.4,25.8s-4,20.2-17.1,20.6C954.5,601.2,929.9,600.6,933.9,566.9Z"/><path class="aa" d="M982.6,561.8c-.6,0-1.2-.5-1.9-1.4-2.9-3.9-6-15.1-5.9-21.3,0-2.4.5-4.1,1.6-4.3,1.9-.3,5.6,5.9,7.5,14.7C984.9,554.7,985.2,561.8,982.6,561.8Z"/><path class="ab" d="M980.7,560.4c-2.9-3.9-6-15.1-5.9-21.3,1.8,2.4,4,7.2,5.2,13.1A33.689,33.689,0,0,1,980.7,560.4Z"/><path class="ac" d="M1010.1,584.9c-1.9,6-9,6.7-11,5.2-1.8-1.3-6.8-7.1-11.6-17.8h0c-.7-1.6-1.4-3.3-2.1-5-5.3-14-9.3-39.7-3.8-38.7h0C997.6,531.5,1012,578.9,1010.1,584.9Z"/><path class="ad" d="M984.2,627.4c-1.1.5-2.6,0-4.3-1.3a35.939,35.939,0,0,1-6.1-6.2h0c-5.9-7.3-11.7-17.4-11.4-19.6,1-7.8,11.6-14.6,17.9-17.6,2.5-1.2,4.3-1.8,4.6-1.6C986,581.6,989.8,624.7,984.2,627.4Z"/><path class="ae" d="M995.6,586.4s.1-5.6,5-7.5c4.9-2,9.7,4.6,9.7,4.6a6.428,6.428,0,0,1-6.6,6.4C997,589.9,995.6,586.4,995.6,586.4Z"/><path class="af" d="M919.7,493.4c1.2,3.8,9.1,2.8,11.2-3.2s-.2-13.7-4.2-14C922.7,475.8,917.4,485.8,919.7,493.4Z"/><path class="ag" d="M951.9,480.4c-.3.5,5.7-5.1,17.3-3C970.3,477.6,957,469.6,951.9,480.4Z"/><path class="ah" d="M940.2,501.5s11.1-2.9,16-11.8C956.3,489.7,954.4,501.7,940.2,501.5Z"/><path class="ai" d="M921.6,476.8c1.4,1.5,9.8-5.1,20.2-6.1,10.4-.9,23.5,6.9,31.6,4.1,6.4-2.3-6.9-24.5-24.2-23.3C931.9,452.6,920.2,475.3,921.6,476.8Z"/><path class="aj" d="M924.8,509.6a71.606,71.606,0,0,1,23.5-5.9c13.4-1.1,15.8-.1,15.8,1.2s-9.1,5.7-21.3,6.7C930.5,512.6,924.8,509.6,924.8,509.6Z"/><path class="ak" d="M913.8,507.5s-3.1-9,2.7-23.7c0,0,1.4-2.4,2.4-1.8C919.8,482.6,913.3,493.7,913.8,507.5Z"/><path class="al" d="M987.5,474.7s1.1,9.1,7.8,11.1,12.2-2.9,13.9-9.7c0,0-2.1,5.9-10.9,4.4C989.6,479,987.5,474.7,987.5,474.7Z"/><path class="am" d="M988.7,457.4c.1,1.7,12.4-1.8,16.3-1.3s5.6,5.3,6.2,5.2-1-11.4-8.3-12.2S988.6,456.2,988.7,457.4Z"/><path class="an" d="M976.1,530s-17,6.4-23.5,5.7c-6.3-.7-3.9-4.5-3.8-4.7h0a23.541,23.541,0,0,1,15-7.5C968.7,522.9,972.8,525.5,976.1,530Z"/><path class="ao" d="M1010.1,584.9c-1.9,6-9,6.7-11,5.2-1.8-1.3-6.8-7.1-11.6-17.8.5.9,4,7.4,7.1,7.4,3.4,0,9.9-9.4,3.3-29-6.4-19-15.7-22-16.3-22.1C997.6,531.5,1012,578.9,1010.1,584.9Z"/><path class="ap" d="M1001.5,581.7c2.8-.8,7.2,1.5,8.7,3.7,1.5,2.3,5.4,11.8,3.2,24.1,0,0-4.2,5.5-8.8,4.3-3.6-.9-4.4-11.5-5.4-19C998.3,587.2,996.9,582.9,1001.5,581.7Z"/><path class="aq" d="M1005.3,614.1s1.7-24.6-8.3-28.6c0,0-.1,4,2,13.2C1000.9,608,1003,613.5,1005.3,614.1Z"/><path class="ar" d="M1004.6,600.6s-2.1,3.8-3.7,4.6a4.1,4.1,0,0,1-3,.3l5.1-11.6A30.481,30.481,0,0,1,1004.6,600.6Z"/><path class="as" d="M1003,593.9s-2-6.6-6.3-7.8c0,0-3.4,4.1-1,18.4,0,0,2.4,2.6,5.1-.5A37.071,37.071,0,0,0,1003,593.9Z"/><path class="f" d="M1000.4,591.7c1.4-.1-.1,6.2-.8,6.1S999.3,591.8,1000.4,591.7Z"/><path class="at" d="M935.5,566c1.7,3.3,8.3-.9,16.4,0s12.5,5.2,14.8,4.1c2.3-1.2-5-13.3-17.5-13.8C939.2,555.8,934.9,564.8,935.5,566Z"/><path class="au" d="M944.5,596.1a14.167,14.167,0,0,0,9.1,3.7c5.6.2,7.5-2.5,7.5-2.5a11.641,11.641,0,0,0-6.5-.3A18.814,18.814,0,0,1,944.5,596.1Z"/><path class="av" d="M984.2,627.4c-1.1.5-2.6,0-4.3-1.3l-6.1-6.2c.6.5,7.4,6.5,8.7-5.9,1.4-13-2.8-30.5-2.8-30.5l.6-.8c2.5-1.2,4.3-1.8,4.6-1.6C986,581.6,989.8,624.7,984.2,627.4Z"/><path class="f" d="M984.6,551c-2.4,1.4,2.6,11.5,3.7,11.7C989.5,563,986.3,550,984.6,551Z"/><path class="f" d="M989.1,564.4c-.5.1.1,2.4.4,2.7.4.3,1.2.4,1.4.2S989.7,564.3,989.1,564.4Z"/><path class="f" d="M965.1,540c-1,0-2.7,9.6-1.9,9.9s1.9-1.7,2.6-4.9C966.7,541.9,966.1,539.9,965.1,540Z"/><path class="f" d="M969.1,599.8c-2.1.5,1,5.7,1.5,5.9s.9-2,.5-3.6C970.7,600.8,969.8,599.7,969.1,599.8Z"/><path class="f" d="M939.6,604c-1.2-.3-.9,3.1-.7,3.3s.9-.8,1.1-1.7C940.2,604.8,940,604.1,939.6,604Z"/><path class="f" d="M971,606.4c-.4.3.6,2,.9,1.6a1.363,1.363,0,0,0,0-1.5A.642.642,0,0,0,971,606.4Z"/><path class="aw" d="M917.5,566.6s-4.1,6.4-8.4,9.5c-4.4,3.1-13,4.5-13,4.5s-6.1-2.8-6.1-7c0,0,6.6-3.3,9.1-8.6,0,0,8.5-3,12.2-2A13.825,13.825,0,0,1,917.5,566.6Z"/><path class="ax" d="M905.3,564.6l7,4.6-8.9-3.8Z"/><path class="ay" d="M918.9,572.9h0c-1,1.1-17.2,18.6-24.7,37.2l-31.4-8.5a119.147,119.147,0,0,1,12.7-19.9h0a109.582,109.582,0,0,1,18.6-18.8A68.485,68.485,0,0,1,918.9,572.9Z"/><path class="az" d="M896.3,561.7s1.1,14.7-1.6,23.3c0,0-21.4,8-31.4,16.4l32.5-16C895.9,585.3,898.1,570.6,896.3,561.7Z"/><path class="ba" d="M889.4,566.8s2.4,4.2,9.6,4.1c7.1-.1,9.2-3.6,9.2-3.6l-4.2-1.8-11.1-1.7C892.8,563.9,889.6,566.6,889.4,566.8Z"/><path class="bb" d="M888.5,583.2c0,2.6,3.9,6.4,7.7,5.3,4.8-1.3,5.1-8.2,2.4-9.3-2.8-1.2-3.5.6-5,.6C892.2,580,888.5,580.1,888.5,583.2Z"/><path class="bc" d="M894.8,587a5.018,5.018,0,0,1-1.2-.2,6.791,6.791,0,0,1-3.2-2.3c-1.2-1.2-1.5-2.2-.5-3.1,1.5-1.3,5.2-1.5,6.5-1.7.9-.1,1.4.3,1.9,1.4a12.2,12.2,0,0,1,.5,1.7A3.787,3.787,0,0,1,894.8,587Z"/><path class="bd" d="M894.8,587a5.018,5.018,0,0,1-1.2-.2,9.425,9.425,0,0,1-1-1c-1.2-1.3-1.5-2.2-.5-3.1,1.4-1.2,4.6-1.5,6.1-1.6a12.2,12.2,0,0,1,.5,1.7A3.668,3.668,0,0,1,894.8,587Z"/><path class="be" d="M862.7,601.6a119.147,119.147,0,0,1,12.7-19.9c-.5.8-7.9,12.4-9.6,15.8l3.9.5,26.3,3.3s13.4-19.6,22.7-28.3c-13,14.9-23.9,39.4-23.9,39.4Z"/><path class="bf" d="M915,561.1s-4.4-4.6-8-4.9c-3.7-.3-13,3.7-15.8,9,0,0,.4,1.3,3.6,2,3.2.8,10.5-2.6,10.5-2.6l12.2,2.1A9.2,9.2,0,0,0,915,561.1Z"/><path class="bg" d="M905.3,564.6s5.9-1.8,6.6-6.2l.9.7S912,563.7,905.3,564.6Z"/><path class="f" d="M894.9,562.7c.1.9,6.6-2.1,6.6-3.2S894.8,561.2,894.9,562.7Z"/></g></svg>