<svg xmlns="http://www.w3.org/2000/svg" xmlns:xlink="http://www.w3.org/1999/xlink" width="190.495" height="201.745" viewBox="0 0 190.495 201.745"><defs><style>.a,.ah,.ap,.ax,.u,.w,.x,.z{opacity:0.5;}.a{fill:url(#a);}.b{fill:#1a75fa;}.c{fill:url(#b);}.d{fill:url(#c);}.ad,.al,.au,.e,.i,.s,.y{opacity:0.3;}.e{fill:url(#d);}.f{fill:url(#e);}.g{fill:url(#f);}.h{fill:#fff;}.i{fill:url(#g);}.j{fill:url(#h);}.k{fill:url(#i);}.l{fill:url(#j);}.m{fill:url(#k);}.n{fill:url(#l);}.o{fill:url(#m);}.p{fill:url(#n);}.q{fill:#dfe3fb;}.r{fill:url(#o);}.s{fill:url(#p);}.t{fill:url(#q);}.u{fill:url(#r);}.v{fill:url(#s);}.aa,.ab,.ay,.az,.w,.x,.z{mix-blend-mode:screen;isolation:isolate;}.w{fill:url(#t);}.x{fill:url(#u);}.y{fill:url(#v);}.z{fill:url(#w);}.aa,.ab,.ay,.az{opacity:0.72;}.aa{fill:url(#x);}.ab{fill:url(#y);}.ac{fill:url(#z);}.ad{fill:url(#aa);}.ae{fill:url(#ab);}.af{fill:url(#ac);}.ag{fill:url(#ad);}.ah{fill:url(#ae);}.ai{fill:url(#af);}.aj{fill:url(#ag);}.ak{fill:url(#ah);}.al{fill:url(#ai);}.am{fill:url(#aj);}.an{fill:url(#ak);}.ao{fill:url(#al);}.ap{fill:url(#am);}.aq{fill:url(#an);}.ar{fill:url(#ao);}.as{fill:#2f95cd;}.at{fill:url(#ap);}.au{fill:url(#aq);}.av{fill:url(#ar);}.aw{fill:url(#as);}.ax{fill:url(#at);}.ay{fill:url(#au);}.az{fill:url(#av);}.ba{fill:url(#aw);}.bb{fill:url(#ax);}</style><radialGradient id="a" cx="0.5" cy="0.499" r="0.5" gradientTransform="matrix(1, 0, 0, -1, 0, 0.999)" gradientUnits="objectBoundingBox"><stop offset="0" stop-color="#559dea"/><stop offset="0.388" stop-color="#5ea9f5"/><stop offset="1" stop-color="#fff"/></radialGradient><linearGradient id="b" x1="-5.981" y1="-4.374" x2="-5.752" y2="-3.378" gradientUnits="objectBoundingBox"><stop offset="0" stop-color="#cbc1f7"/><stop offset="1" stop-color="#e8dcf7"/></linearGradient><linearGradient id="c" x1="-8.94" y1="-7.11" x2="-8.94" y2="-6.428" gradientUnits="objectBoundingBox"><stop offset="0" stop-color="#be9dea"/><stop offset="1" stop-color="#9e8cef"/></linearGradient><linearGradient id="d" x1="0.5" y1="0.358" x2="0.71" y2="1.14" gradientUnits="objectBoundingBox"><stop offset="0" stop-color="#9d68c2"/><stop offset="1" stop-color="#ccedff"/></linearGradient><linearGradient id="e" x1="-26.812" y1="0.604" x2="-26.583" y2="1.6" xlink:href="#b"/><linearGradient id="f" x1="-41.392" y1="2.275" x2="-41.392" y2="2.958" xlink:href="#c"/><linearGradient id="g" x1="-33.186" y1="0.638" x2="-33.186" y2="1.598" xlink:href="#d"/><linearGradient id="h" x1="0.5" y1="-0.42" x2="0.792" y2="0.254" gradientUnits="objectBoundingBox"><stop offset="0" stop-color="#b9acf4"/><stop offset="1" stop-color="#e1d1f5"/></linearGradient><linearGradient id="i" x1="0.496" y1="6.746" x2="0.496" y2="7.745" xlink:href="#c"/><linearGradient id="j" x1="0.31" y1="-0.235" x2="0.5" y2="0.728" xlink:href="#h"/><linearGradient id="k" x1="0.496" y1="7.894" x2="0.496" y2="8.896" xlink:href="#c"/><radialGradient id="l" cx="0.499" cy="0.499" r="0.385" gradientTransform="matrix(2.299, 0, 0, -1, -0.648, 8.551)" gradientUnits="objectBoundingBox"><stop offset="0" stop-color="#94fdff"/><stop offset="1" stop-color="#22e0ff"/></radialGradient><radialGradient id="m" cx="0.499" cy="0.499" r="0.876" gradientTransform="translate(0.998 0.739) rotate(180) scale(1 0.481)" xlink:href="#l"/><linearGradient id="n" x1="0.519" y1="0.804" x2="0.531" y2="-0.01" gradientUnits="objectBoundingBox"><stop offset="0" stop-color="#cbc1f7"/><stop offset="0.094" stop-color="#cbc1f7"/><stop offset="0.533" stop-color="#e7dbf7"/><stop offset="1" stop-color="#e8dcf7"/></linearGradient><linearGradient id="o" x1="0.517" y1="-0.089" x2="0.517" y2="1.118" gradientUnits="objectBoundingBox"><stop offset="0" stop-color="#0665bd"/><stop offset="1" stop-color="#1a1f77"/></linearGradient><linearGradient id="p" x1="0.5" y1="1.023" x2="0.5" y2="2.023" xlink:href="#d"/><linearGradient id="q" y1="1.592" x2="1.001" y2="1.592" gradientUnits="objectBoundingBox"><stop offset="0" stop-color="#8879ea"/><stop offset="1" stop-color="#9e8cef"/></linearGradient><linearGradient id="r" x1="0.5" y1="1.902" x2="0.5" y2="2.908" gradientUnits="objectBoundingBox"><stop offset="0" stop-color="#8da4e5"/><stop offset="1" stop-color="#755cbb"/></linearGradient><linearGradient id="s" x1="0.485" y1="2.639" x2="0.508" y2="3.986" gradientUnits="objectBoundingBox"><stop offset="0" stop-color="#5e36cc"/><stop offset="1" stop-color="#6c4a96"/></linearGradient><linearGradient id="t" x1="-0.001" y1="6.01" x2="0.999" y2="6.01" gradientUnits="objectBoundingBox"><stop offset="0"/><stop offset="1" stop-color="#6a9bff"/></linearGradient><linearGradient id="u" x1="-0.001" y1="8.628" x2="0.999" y2="8.628" xlink:href="#t"/><linearGradient id="v" x1="0.432" y1="73.188" x2="0.432" y2="74.201" xlink:href="#d"/><linearGradient id="w" x1="3.75" y1="6.5" x2="3.75" y2="7.499" xlink:href="#t"/><linearGradient id="x" y1="14.353" x2="1.001" y2="14.353" gradientUnits="objectBoundingBox"><stop offset="0"/><stop offset="1" stop-color="#d4e2ff"/></linearGradient><linearGradient id="y" x1="0.001" y1="13.142" x2="1.001" y2="13.142" xlink:href="#x"/><linearGradient id="z" x1="0.553" y1="0.083" x2="0.398" y2="0.578" xlink:href="#b"/><linearGradient id="aa" x1="2.109" y1="0.46" x2="2.109" y2="1.577" xlink:href="#d"/><linearGradient id="ab" x1="2.336" y1="-4.05" x2="2.24" y2="-3.061" xlink:href="#c"/><linearGradient id="ac" x1="0.373" y1="0" x2="0.5" y2="0.712" xlink:href="#b"/><linearGradient id="ad" x1="12.097" y1="7.51" x2="12.097" y2="8.459" xlink:href="#c"/><linearGradient id="ae" x1="14.889" y1="15.713" x2="14.889" y2="16.869" xlink:href="#r"/><linearGradient id="af" x1="9.336" y1="12.97" x2="9.493" y2="14.344" xlink:href="#b"/><linearGradient id="ag" x1="3.503" y1="1.332" x2="4.333" y2="1.332" xlink:href="#q"/><linearGradient id="ah" x1="-10.719" y1="-1.022" x2="-10.531" y2="0.111" xlink:href="#b"/><linearGradient id="ai" x1="0.706" y1="0.643" x2="-0.18" y2="2.138" gradientUnits="objectBoundingBox"><stop offset="0" stop-color="#9d68c2"/><stop offset="0.294" stop-color="#c8e1fa"/><stop offset="1" stop-color="#ccedff"/></linearGradient><linearGradient id="aj" x1="-37.752" y1="-6.096" x2="-37.849" y2="-5.107" xlink:href="#c"/><linearGradient id="ak" x1="1" y1="0" x2="0.5" y2="1" xlink:href="#b"/><linearGradient id="al" x1="-16.144" y1="21.196" x2="-16.144" y2="22.207" xlink:href="#c"/><linearGradient id="am" x1="-17.394" y1="31.243" x2="-17.394" y2="32.408" xlink:href="#r"/><linearGradient id="an" x1="0.992" y1="37.326" x2="1.117" y2="39.297" xlink:href="#b"/><linearGradient id="ao" x1="-71.353" y1="0.204" x2="-70.523" y2="0.204" xlink:href="#q"/><linearGradient id="ap" x1="0.429" y1="-0.644" x2="0.603" y2="0.347" xlink:href="#b"/><linearGradient id="aq" x1="0.499" y1="-1.065" x2="0.499" y2="-0.065" xlink:href="#d"/><linearGradient id="ar" x1="0.499" y1="-1.57" x2="0.499" y2="-0.57" xlink:href="#c"/><radialGradient id="as" cx="0.53" cy="0.877" r="0.51" gradientTransform="matrix(1, 0, 0, -1.036, 0, 1.784)" xlink:href="#l"/><linearGradient id="at" x1="0.5" y1="-0.421" x2="0.5" y2="1.125" xlink:href="#r"/><linearGradient id="au" x1="0.001" y1="-2.201" x2="1.001" y2="-2.201" xlink:href="#x"/><linearGradient id="av" x1="0.5" y1="-0.589" x2="0.5" y2="1.874" xlink:href="#x"/><radialGradient id="aw" cx="0.516" cy="0.845" r="0.721" gradientTransform="matrix(1, 0, 0, -0.986, 0, 1.677)" xlink:href="#l"/><radialGradient id="ax" cx="0.639" cy="0.762" r="0.707" gradientTransform="translate(1.278 1.469) rotate(180) scale(1 0.928)" xlink:href="#l"/></defs><ellipse class="a" cx="40.8" cy="9.1" rx="40.8" ry="9.1" transform="translate(47.47 183.545)"/><g transform="translate(-25.03 -24.255)"><path class="b" d="M41.1,183.9c10.6,22.3,112.9,19,138.7,1.7S212.7,21.3,143.4,24.3C92.8,26.6,13.9,126.7,41.1,183.9Z"/><path class="b" d="M197.1,169.8c-3.9-2.1.8-25,7.2-27.6,6.3-2.6,13.2,10.5,10.7,17.9C212.6,167.5,203.9,173.4,197.1,169.8Z"/><path class="b" d="M41.6,105c3.6,2.3-2.5,22.5-8.4,24s-9.8-10.2-7.5-16S36.4,101.7,41.6,105Z"/><path class="c" d="M143.2,167.3c.2.6.3,1.3.5,2,2.7,10.3,5.8,25.7,5,32.1-.2,1.5-.6,2.5-1.3,2.9a1.268,1.268,0,0,1-.6.1,5.379,5.379,0,0,1-2.7-.7h0c-6.4-3.2-17.6-16.2-19.6-20.6a1.594,1.594,0,0,1-.3-1.2c1.1-4.4,14.6-23.6,16.2-22.6C140.9,159.6,142,162.8,143.2,167.3Z"/><path class="d" d="M124.6,183.1c0,1.6,18-9.4,15.9-23.8C140.5,159.3,124.6,168.1,124.6,183.1Z"/><path class="e" d="M143.2,167.3s-9.3,7.4-9.7,13.5c-.4,6,5.4,17.5,10.7,22.9-6.4-3.2-17.6-16.2-19.6-20.6a1.594,1.594,0,0,1-.3-1.2c1.1-4.4,14.6-23.6,16.2-22.6C140.9,159.6,142,162.8,143.2,167.3Z"/><path class="f" d="M80,169.8c-.2.6-.3,1.3-.5,2-2.7,10.3-5.8,25.7-5,32.1.2,1.5.6,2.5,1.3,2.9a1.268,1.268,0,0,0,.6.1,5.379,5.379,0,0,0,2.7-.7h0c6.4-3.2,17.6-16.2,19.6-20.6a1.594,1.594,0,0,0,.3-1.2c-1.1-4.4-14.6-23.6-16.2-22.6C82.3,162.1,81.3,165.2,80,169.8Z"/><path class="g" d="M98.6,185.6c0,1.6-18-9.4-15.9-23.8C82.8,161.8,98.7,170.6,98.6,185.6Z"/><path class="h" d="M86.2,185.8c.7.6-1.7,6.9-3.2,6.7C81.6,192.4,84.6,184.5,86.2,185.8Z"/><path class="h" d="M140.3,195.1c.9-.1,2.9,3.6,1.7,4.5S138.3,195.3,140.3,195.1Z"/><path class="i" d="M80,169.8s9.3,7.4,9.7,13.5c.4,6-5.4,17.5-10.7,22.9,6.4-3.2,17.6-16.2,19.6-20.6a1.594,1.594,0,0,0,.3-1.2c-1.1-4.4-14.6-23.6-16.2-22.6C82.3,162.1,81.3,165.2,80,169.8Z"/><path class="j" d="M84.4,43.7s-6.3-5.4-13.9-6.3c0,0-2.3,1.1-5.1,9.6s2.3,25.1,2.3,25.1Z"/><path class="k" d="M67.6,41.6a11.512,11.512,0,0,1,3-4.2s6.3,5.8,6,19.7L74.8,59Z"/><path class="l" d="M136.2,43.7s6.3-5.4,13.9-6.3c0,0,2.3,1.1,5.1,9.6s-2.3,25.1-2.3,25.1Z"/><path class="m" d="M150.1,37.4a26.86,26.86,0,0,0-6.2,17.3l2.4,1.5,7-14.4S151,37.2,150.1,37.4Z"/><path class="n" d="M146.1,55.5s-1.6-9.1,4.4-15.9c0,0,6.8,3.2,9.6,15.1s-4.5,19-4.5,19Z"/><path class="o" d="M74.5,55.5s1.6-9.1-4.4-15.9c0,0-6.8,3.2-9.6,15.1s4.5,19,4.5,19Z"/><path class="p" d="M154.4,106c-14,19.6-79.6,18.1-88.1,2.3-5.6-10.3-5-25.9.4-40.2,7-18.8,22.3-35.4,42.5-35.4,23.8,0,42.1,23.7,47.6,45.3C159.6,89,159.1,99.4,154.4,106Z"/><path class="q" d="M71.2,87.8c3.1,13.3,60.8,14.8,74.9,2.7,14.2-12.1-6.2-55-37.5-53.1C80.1,39.1,66.1,66,71.2,87.8Z"/><path class="r" d="M70.9,86.2c3.1,13.3,60.8,14.8,74.9,2.7,14.2-12.1-6.2-55-37.5-53.1C79.8,37.5,65.8,64.4,70.9,86.2Z"/><path class="s" d="M154.4,106c-14,19.6-79.6,18.1-88.1,2.3-5.6-10.3-5-25.9.4-40.2h0c-.2.8-5.7,20.9-.1,29.7,5.7,9,28.4,7.8,52.8,6.7,24.4-1,32.4-4.6,36.5-11.5,3.2-5.4,0-17.3-1.5-22.2l2.4,7.1C159.6,89,159.1,99.4,154.4,106Z"/><path class="t" d="M109.3,120.4c-13.6,0-23.5-1.5-29-3.8h0c-3.6-1.4-5.4-3.2-5.1-4.9.2-1.1,2.8-2,7-2.8,12.4-2.2,38-2.9,51.8-.8q1.8.3,3.3.6c.2,0,.4.1.6.1h.1c2.4.6,4.1,1.3,4.8,2.2a1.612,1.612,0,0,1,.4.7C144.6,116.1,121.6,120.4,109.3,120.4Z"/><path class="u" d="M143.2,110.6a.758.758,0,0,1-.2.4c-1.3,1.9-6.8,4.3-6.8,4.3s-20.8-8.5-37.7-4.7-18.2,6-18.2,6h0c-3.6-1.4-5.4-3.2-5.1-4.9.2-1.1,2.8-2,7-2.8,12.4-2.2,38-2.9,51.8-.8,1.4.3,2.8.5,3.9.8h.1C141.4,109.6,143.3,110.2,143.2,110.6Z"/><path class="v" d="M137.4,108.7c-3.2,3.1-18.7,5.7-27.5,5.7-15.8,0-25.4-2.5-27.6-5.5C95.7,106.5,124.8,105.9,137.4,108.7Z"/><path class="w" d="M80.4,52.5c-.7,4.3,8.9,4.1,22,3.7,15.7-.5,31.5,13,40.7,3.3,1.5-1.6-13.5-22.6-31.7-22.2C93.2,37.8,81,48.8,80.4,52.5Z"/><path class="x" d="M89.3,90.1c-.8,3.1,5.7,5.7,21.8,5.5,20.4-.2,24-5.2,23.6-5.5,0,0-8.5,5-24.4,1.4C99.7,89.2,90.2,86.8,89.3,90.1Z"/><path class="y" d="M154.3,70.5l-.5-1.4A9.328,9.328,0,0,1,154.3,70.5Z"/><path class="h" d="M120.4,35.4c-1.4.3,10.2,6.5,10.7,5.7C131.5,40.4,124.2,34.5,120.4,35.4Z"/><path class="h" d="M142.6,40c-1.2.6-1.1,1.9,1.3,1.6s3.7-2.2,3.4-2.6C147.1,38.7,143.9,39.3,142.6,40Z"/><path class="z" d="M71.6,81.8a41.235,41.235,0,0,1,.1-10.6c.8-6.1,2.4-10,3.4-9.5,1,.6.8,6.5,1.4,12.4A85.488,85.488,0,0,0,77.8,83S73.7,87,71.6,81.8Z"/><path class="aa" d="M155.6,45s-2.2-2.7-5.2-2-3.2,10.2-1.4,10.4,2.6-5.2,3.9-6.1a6.459,6.459,0,0,1,3.8-.5Z"/><path class="ab" d="M62.8,48.3a4.3,4.3,0,0,1,3.8-.9c2.6.4,4.1,5.8,5.4,5.2,1.3-.5.4-9.2-3.2-11.7C68.9,40.9,64.3,44.8,62.8,48.3Z"/><path class="ac" d="M91.2,116.7c-1.2,5.9-3.6,14.3-7.6,20.7C77,148,67.5,161.1,67.2,161.5h0c-4.6,1.7-9.4.6-12.4-.4a17.565,17.565,0,0,1-3-1.3,95.19,95.19,0,0,1,13.9-26.3,117.445,117.445,0,0,1,15.9-17.2l.1-.1.2-.2.1-.1.1-.1.1-.1h0c5-4.4,8.9-6.8,9.5-6.3C92.2,109.8,92,112.7,91.2,116.7Z"/><path class="ad" d="M91.2,116.7c-1.2,5.9-3.6,14.3-7.6,20.7C77,148,67.5,161.1,67.2,161.5h0l-12.4-.4a17.565,17.565,0,0,1-3-1.3,95.19,95.19,0,0,1,13.9-26.3,117.445,117.445,0,0,1,15.9-17.2c-2.8,2.6-14.9,13.8-19.6,24.4-5.3,12.1,7.4,9.5,13.7,2.6S91,116.5,91,116.5Z"/><path class="h" d="M78.1,129.1c-.9-.5,2.3-5.5,3.8-5.3C83.5,124,78.9,129.6,78.1,129.1Z"/><path class="h" d="M73.4,136.1c-.7-.5-1.8,1.4-1.2,1.9C72.9,138.4,74.2,136.7,73.4,136.1Z"/><path class="ae" d="M53.9,154.4s3.2-6.4,8.6-3.8c5.4,2.5,1.5,11.3,1.5,11.3s-7.2,3.3-12.2-1.9A30.839,30.839,0,0,1,53.9,154.4Z"/><path class="af" d="M53.7,152.8s6.9-2.8,10.1.4c2.6,2.6,1.6,8.2.1,11.8s-12,15.1-16.7,15c-4.7-.2-7.2-5.3-5.3-11.3C41.8,168.7,48.5,156.8,53.7,152.8Z"/><path class="ag" d="M53.7,152.8s-.1,6.4-4.2,10.8-6.8,14-6.8,14-2.2-2.4-.9-8.9S53.7,152.8,53.7,152.8Z"/><path class="ah" d="M42.2,167.4l3.5,2.3a25.136,25.136,0,0,1,3.1-5.3,26.843,26.843,0,0,0,3.3-6.5Z"/><path class="ai" d="M52.5,153.6a26.645,26.645,0,0,0-7.8,3.8c-4.6,3.2-7.4,6.9-7.7,7.8-.3,1,1.1,2.7,2.7,2.8s7-3,7-3S54.1,158.1,52.5,153.6Z"/><path class="h" d="M41.3,163.9c-.4-.5,4.2-3.6,4.4-2.8C46,161.9,41.9,164.6,41.3,163.9Z"/><path class="aj" d="M91.8,109.5s-6.6,11-5.9,23.6C85.9,133.1,94.4,117.7,91.8,109.5Z"/><path class="ak" d="M129.4,115.7c1.2,5.9,3.6,14.3,7.6,20.7,6.6,10.6,16.1,23.7,16.4,24.1h0c4.6,1.7,9.4.6,12.4-.4a17.565,17.565,0,0,0,3-1.3,95.19,95.19,0,0,0-13.9-26.3A117.445,117.445,0,0,0,139,115.3l-.1-.1-.2-.2-.1-.1-.1-.1-.1-.1h0c-5-4.4-8.9-6.8-9.5-6.3C128.5,108.8,128.6,111.7,129.4,115.7Z"/><path class="al" d="M129.4,115.7c1.2,5.9,3.6,14.3,7.6,20.7,6.6,10.6,16.1,23.7,16.4,24.1h0l12.4-.4a17.565,17.565,0,0,0,3-1.3,95.19,95.19,0,0,0-13.9-26.3A117.445,117.445,0,0,0,139,115.3c2.8,2.6,14.9,13.8,19.6,24.4,5.3,12.1-7.4,9.5-13.7,2.6s-15.3-26.8-15.3-26.8Z"/><path class="h" d="M142.5,128.1c.9-.5-2.3-5.5-3.8-5.3S141.7,128.6,142.5,128.1Z"/><path class="am" d="M166.8,153.3s-3.2-6.4-8.6-3.8c-5.4,2.5-1.5,11.3-1.5,11.3s7.2,3.3,12.2-1.9C168.8,158.9,168.2,156.6,166.8,153.3Z"/><path class="an" d="M166.9,151.8s-6.9-2.8-10.1.4c-2.6,2.6-1.6,8.2-.1,11.8s12,15.1,16.7,15c4.7-.2,7.2-5.3,5.3-11.3C178.8,167.7,172.1,155.8,166.9,151.8Z"/><path class="ao" d="M164.7,151.1s1.6,6.9,6.5,11.5c4.4,4.1,6.8,14,6.8,14s2.2-2.4.9-8.9C177.5,161.1,164.7,151.1,164.7,151.1Z"/><path class="ap" d="M178.4,166.4l-3.4,2a19.984,19.984,0,0,0-3.2-5c-5.9-6.2-7.1-12.3-7.1-12.3l8,7.3a49.773,49.773,0,0,1,3.4,4C176.8,163.4,178.4,166.4,178.4,166.4Z"/><path class="aq" d="M164.7,151.1s1.6-.5,7.3-.6c5.8-.1,8.9,1.5,9.7,2s1,2.7-.1,3.9-11.3,3-11.3,3A32.531,32.531,0,0,1,164.7,151.1Z"/><path class="h" d="M177,151.9c.1-.6-5.5-.5-5.2.3C172,153,176.9,152.8,177,151.9Z"/><path class="ar" d="M128.8,108.5s6.6,11,5.9,23.6C134.7,132.1,126.2,116.6,128.8,108.5Z"/><path class="as" d="M117.1,80.2s-3.9,4.9-8,5.8-5.5-4.1-5.5-4.1S111.1,82.5,117.1,80.2Z"/><path class="at" d="M137.5,165.6c-1.9,11.2-12,18.7-26.4,18.7-12.6,0-23.2-4.7-26-15s-1.7-29.4,2-41.2a38.63,38.63,0,0,1,2-5.1h0a28.631,28.631,0,0,1,2.4-4.2h0c4.6-6.9,11.3-11.4,18.9-11.4a22.973,22.973,0,0,1,18.1,8.1A27.212,27.212,0,0,1,133,123a76.182,76.182,0,0,1,3.1,9.9v.1C138.6,143.8,139.2,155.6,137.5,165.6Z"/><path class="au" d="M137.5,165.6c-1.9,11.2-12,18.7-26.4,18.7-12.6,0-23.2-4.7-26-15s-1.7-29.4,2-41.2a38.63,38.63,0,0,1,2-5.1h0s-7.6,25.2-1.5,41.3,34.4,15.7,44,5c9.1-10.1,4.9-34,4.5-36.3C138.6,143.8,139.2,155.6,137.5,165.6Z"/><path class="av" d="M85.6,158.9c2.1-15.1,14.3-25.3,27.7-24,14.5,1.4,22.3,15.2,22.1,27.1s-8.9,21.1-24.4,21.1C95.4,183.1,83.6,173.1,85.6,158.9Z"/><path class="aw" d="M85.7,160.2c2.1-15.1,14.3-25.3,27.7-24.1,14.5,1.4,22.3,15.2,22.1,27.1s-8.9,21.1-24.4,21.1C95.5,184.4,83.7,174.3,85.7,160.2Z"/><path class="ax" d="M128.4,115.4c-3.1,4.8-20,7.6-29.8,6.7-8.5-.8-7.2-3.1-7.2-3.4h0c4.6-6.9,11.3-11.4,18.9-11.4C118.2,107.4,124.3,110.6,128.4,115.4Z"/><path class="h" d="M122.4,123.8c-.8.3-.8,6.6,0,7.6s2.1.7,2.6-.8C125.4,129.2,123.6,123.4,122.4,123.8Z"/><path class="ay" d="M90.8,150.6c2.6,4.1,13.1,1.9,24.9,3.1s13.9,5,16.4,4.2-1.4-18.6-19.2-19.8C95.3,136.9,90.2,149.6,90.8,150.6Z"/><path class="az" d="M94.5,176s3.5,6,16.4,6.1,18.2-7.7,18.2-7.7a18.981,18.981,0,0,1-14.5,1.6C106.1,173.7,97.6,172.4,94.5,176Z"/><path class="ba" d="M117,68.8c1.6,3.5,15.9,3.9,18.2-1.6,2.1-4.9-4.3-18-12.9-16.8C115.9,51.4,114.2,63,117,68.8Z"/><path class="bb" d="M101,69.6c-1.6,3.5-15.9,3.9-18.2-1.6-2.1-4.9,4-17.4,12.9-16.8C102.1,51.7,103.7,63.7,101,69.6Z"/></g></svg>