<svg xmlns="http://www.w3.org/2000/svg" xmlns:xlink="http://www.w3.org/1999/xlink" width="188.424" height="224.897" viewBox="0 0 188.424 224.897"><defs><style>.a{fill:#1a75fa;}.b{fill:url(#a);}.c{fill:url(#b);}.d{fill:url(#c);}.e{fill:url(#d);}.ar,.ax,.ay,.f,.g,.j,.p{opacity:0.3;}.f{fill:url(#e);}.g{fill:url(#f);}.h{fill:url(#g);}.i{fill:url(#h);}.j{fill:url(#i);}.k{fill:url(#j);}.l{fill:url(#k);}.af,.ag,.aj,.au,.az,.ba,.bc,.m,.s{opacity:0.5;}.m{fill:url(#l);}.n{fill:url(#m);}.o{fill:url(#n);}.p{fill:url(#o);}.q{fill:url(#p);}.r{fill:url(#q);}.s{fill:url(#r);}.t{fill:#fff;}.ai,.ak,.u,.v{opacity:0.72;}.af,.ag,.ah,.ai,.ak,.ba,.u,.v{mix-blend-mode:screen;isolation:isolate;}.u{fill:url(#s);}.v{fill:url(#t);}.w{fill:url(#u);}.x{fill:url(#v);}.y{fill:url(#w);}.z{fill:url(#x);}.aa{fill:url(#y);}.ab{fill:url(#z);}.ac{fill:url(#aa);}.ad{fill:url(#ab);}.ae{fill:url(#ac);}.af{fill:url(#ad);}.ag{fill:url(#ae);}.ah{opacity:0.2;fill:url(#af);}.ai{fill:url(#ag);}.aj{fill:url(#ah);}.ak{fill:url(#ai);}.al{fill:#22e0ff;}.am{fill:#2f95cd;}.an{fill:url(#aj);}.ao{fill:url(#ak);}.ap{fill:url(#al);}.aq{fill:url(#am);}.ar{fill:url(#an);}.as{fill:url(#ao);}.at{fill:url(#ap);}.au{fill:url(#aq);}.av{fill:url(#ar);}.aw{fill:url(#as);}.ax{fill:url(#at);}.ay{fill:url(#au);}.az{fill:url(#av);}.ba{fill:url(#aw);}.bb{fill:url(#ax);}.bc{fill:url(#ay);}</style><linearGradient id="a" x1="0.375" y1="0.964" x2="0.535" y2="0.041" gradientUnits="objectBoundingBox"><stop offset="0" stop-color="#cbc1f7"/><stop offset="1" stop-color="#e8dcf7"/></linearGradient><linearGradient id="b" x1="0.5" y1="1.003" x2="0.5" gradientUnits="objectBoundingBox"><stop offset="0" stop-color="#be9dea"/><stop offset="1" stop-color="#9e8cef"/></linearGradient><linearGradient id="c" x1="0.354" y1="1.011" x2="0.536" y2="-0.042" xlink:href="#a"/><linearGradient id="d" x1="0.5" y1="1.005" x2="0.5" y2="0.005" xlink:href="#b"/><linearGradient id="e" x1="0.5" y1="1.001" x2="0.5" gradientUnits="objectBoundingBox"><stop offset="0" stop-color="#9d68c2"/><stop offset="1" stop-color="#ccedff"/></linearGradient><linearGradient id="f" x1="0.5" y1="0.999" x2="0.5" y2="-0.001" xlink:href="#e"/><linearGradient id="g" x1="0.425" y1="1.034" x2="0.569" y2="-0.051" xlink:href="#a"/><linearGradient id="h" x1="0.503" y1="1.001" x2="0.503" y2="-0.002" xlink:href="#b"/><linearGradient id="i" x1="0.501" y1="0.998" x2="0.501" y2="-0.001" xlink:href="#e"/><linearGradient id="j" x1="0.433" y1="1.03" x2="0.589" y2="-0.026" xlink:href="#a"/><linearGradient id="k" x1="0.5" y1="1" x2="0.5" y2="0.001" xlink:href="#b"/><linearGradient id="l" x1="0.494" y1="1" x2="0.494" gradientUnits="objectBoundingBox"><stop offset="0" stop-color="#8da4e5"/><stop offset="1" stop-color="#755cbb"/></linearGradient><linearGradient id="m" x1="0.335" y1="1.006" x2="0.594" y2="-0.003" xlink:href="#a"/><linearGradient id="n" x1="0.429" y1="0.999" x2="0.603" y2="0.007" xlink:href="#a"/><linearGradient id="o" x1="0.499" y1="1.001" x2="0.499" y2="0" xlink:href="#e"/><linearGradient id="p" x1="0.5" y1="1" x2="0.5" y2="0" xlink:href="#b"/><radialGradient id="q" cx="0.517" cy="0.844" r="0.763" gradientTransform="translate(0.017) scale(0.966 1)" gradientUnits="objectBoundingBox"><stop offset="0" stop-color="#94fdff"/><stop offset="1" stop-color="#22e0ff"/></radialGradient><linearGradient id="r" x1="0.501" y1="1.005" x2="0.501" y2="0.006" xlink:href="#l"/><linearGradient id="s" x1="0.502" y1="1.005" x2="0.502" y2="0.002" gradientUnits="objectBoundingBox"><stop offset="0" stop-color="#d4e2ff"/><stop offset="1"/></linearGradient><linearGradient id="t" y1="0.499" x2="0.999" y2="0.499" gradientUnits="objectBoundingBox"><stop offset="0"/><stop offset="1" stop-color="#d4e2ff"/></linearGradient><linearGradient id="u" x1="0.002" y1="0.499" x2="0.997" y2="0.499" gradientUnits="objectBoundingBox"><stop offset="0" stop-color="#8879ea"/><stop offset="1" stop-color="#9e8cef"/></linearGradient><linearGradient id="v" x1="0.501" y1="0.997" x2="0.501" y2="-0.002" gradientUnits="objectBoundingBox"><stop offset="0" stop-color="#b9acf4"/><stop offset="1" stop-color="#e1d1f5"/></linearGradient><linearGradient id="w" x1="0.503" y1="1.004" x2="0.503" y2="0.002" xlink:href="#b"/><linearGradient id="x" x1="0.5" y1="0.999" x2="0.5" gradientUnits="objectBoundingBox"><stop offset="0" stop-color="#45ffcd"/><stop offset="1" stop-color="#22e0ff"/></linearGradient><linearGradient id="y" x1="42.957" y1="0.999" x2="42.957" y2="0" xlink:href="#v"/><linearGradient id="z" x1="90.475" y1="1.002" x2="90.475" y2="-0.001" xlink:href="#b"/><radialGradient id="aa" cx="0.499" cy="0.501" r="0.383" gradientTransform="matrix(-2.361, 0, 0, 1, 196.085, 0)" xlink:href="#q"/><linearGradient id="ab" x1="0.46" y1="1.014" x2="0.571" y2="0.004" xlink:href="#a"/><linearGradient id="ac" x1="0.5" y1="1" x2="0.5" y2="-0.001" gradientUnits="objectBoundingBox"><stop offset="0" stop-color="#0665bd"/><stop offset="1" stop-color="#1a1f77"/></linearGradient><linearGradient id="ad" y1="0.501" x2="1.001" y2="0.501" gradientUnits="objectBoundingBox"><stop offset="0"/><stop offset="1" stop-color="#6a9bff"/></linearGradient><linearGradient id="ae" x1="-0.001" y1="0.494" x2="1" y2="0.494" xlink:href="#ad"/><linearGradient id="af" x1="-0.821" y1="1.043" x2="-0.821" y2="0.045" gradientUnits="objectBoundingBox"><stop offset="0"/><stop offset="1" stop-color="#00e3ff"/></linearGradient><linearGradient id="ag" x1="-0.002" y1="0.497" x2="1" y2="0.497" xlink:href="#t"/><linearGradient id="ah" x1="0.5" y1="0.999" x2="0.5" y2="-0.002" xlink:href="#l"/><linearGradient id="ai" x1="0.002" y1="0.501" x2="1.003" y2="0.501" xlink:href="#s"/><linearGradient id="aj" x1="0.5" y1="1" x2="0.5" y2="-0.001" xlink:href="#ac"/><linearGradient id="ak" x1="0.321" y1="0.982" x2="0.567" y2="0.034" xlink:href="#a"/><linearGradient id="al" x1="0.385" y1="0.986" x2="0.614" y2="0.013" gradientUnits="objectBoundingBox"><stop offset="0" stop-color="#a83d2c"/><stop offset="1" stop-color="#c51f1f"/></linearGradient><linearGradient id="am" x1="0.444" y1="0.993" x2="0.521" y2="-0.067" xlink:href="#a"/><linearGradient id="an" x1="0.5" y1="1.001" x2="0.5" y2="0.002" xlink:href="#e"/><linearGradient id="ao" x1="0.503" y1="1" x2="0.503" y2="-0.003" xlink:href="#b"/><linearGradient id="ap" x1="0.469" y1="0.978" x2="0.537" y2="0.014" gradientUnits="objectBoundingBox"><stop offset="0" stop-color="#ff2a30"/><stop offset="1" stop-color="#ff7f7f"/></linearGradient><linearGradient id="aq" x1="0.5" y1="0.998" x2="0.5" y2="-0.003" xlink:href="#l"/><linearGradient id="ar" x1="0.449" y1="0.994" x2="0.566" y2="0.041" xlink:href="#a"/><linearGradient id="as" x1="0.428" y1="0.955" x2="0.603" y2="0.01" xlink:href="#a"/><linearGradient id="at" x1="0.493" y1="0.998" x2="0.493" y2="-0.005" xlink:href="#e"/><linearGradient id="au" x1="0.497" y1="1.003" x2="0.497" y2="0.001" xlink:href="#e"/><radialGradient id="av" cx="0.5" cy="0.5" r="0.519" gradientTransform="translate(0.011 0.017) scale(0.963 0.965)" gradientUnits="objectBoundingBox"><stop offset="0"/><stop offset="0.229" stop-color="#010303"/><stop offset="0.365" stop-color="#050b0b"/><stop offset="0.477" stop-color="#0b1919"/><stop offset="0.576" stop-color="#132d2d"/><stop offset="0.667" stop-color="#1f4048"/><stop offset="0.751" stop-color="#2c5868"/><stop offset="0.83" stop-color="#3d658e"/><stop offset="0.905" stop-color="#5081ba"/><stop offset="0.975" stop-color="#65b1eb"/><stop offset="1" stop-color="#6d8fff"/></radialGradient><linearGradient id="aw" y1="0.499" x2="0.999" y2="0.499" gradientUnits="objectBoundingBox"><stop offset="0" stop-color="#6a9bff"/><stop offset="1"/></linearGradient><linearGradient id="ax" x1="0.385" y1="0.986" x2="0.614" y2="0.014" gradientUnits="objectBoundingBox"><stop offset="0" stop-color="#ff952a"/><stop offset="1" stop-color="#ffa27f"/></linearGradient><radialGradient id="ay" cx="0.5" cy="0.502" r="0.457" gradientTransform="translate(0 -0.046) scale(1 1.091)" gradientUnits="objectBoundingBox"><stop offset="0" stop-color="#559dea"/><stop offset="0.388" stop-color="#5ea9f5"/><stop offset="1" stop-color="#fff"/></radialGradient></defs><g transform="translate(-516.476 -294.103)"><path class="a" d="M539.9,463.9c10.6,22.3,112.9,19,138.7,1.7S647.1,303,577.8,306.1C527.3,308.3,512.7,406.8,539.9,463.9Z"/><path class="a" d="M691,453.6c-4.4-.7-7.1-24-1.9-28.5s15.8,5.8,15.8,13.6S698.6,454.9,691,453.6Z"/><path class="a" d="M566.9,299.8c1.1,3.3-9.5,10.3-13.3,7.6-3.7-2.7-1.5-11,1.8-12.7C558.8,293,565.3,295,566.9,299.8Z"/></g><g transform="translate(-516.476 -315.103)"><path class="b" d="M609.7,473.1h0c0,.8-.2,16.1-3.3,22.3-.8,1.6-1.8,2.6-3,2.6-4.3-.2-14.2-18.5-18.1-28.9a23.644,23.644,0,0,1-1.6-5.6c-.1-.9,0-1.4.5-1.4a24.367,24.367,0,0,1,2.7.1h.4c10.8,1.4,21.2,10,22.4,10.9Z"/><path class="c" d="M609.7,473.1c-14.4,1.3-23.9-6.4-26-9.6-.5-.8-.6-1.4,0-1.4a17.388,17.388,0,0,1,3.2.1h.4c9.5,1.5,21.1,10,22.4,10.9Z"/><path class="d" d="M635.7,463.5a26.2,26.2,0,0,1-1.9,6.5c-4.1,10.5-13.5,27.8-17.8,28a3.07,3.07,0,0,1-2.6-1.8c-3.5-5.7-3.7-23-3.7-23l.1-.1c1.1-.9,11.6-9.5,22.4-10.8h.3a24.367,24.367,0,0,1,2.7-.1C635.6,462.1,635.8,462.6,635.7,463.5Z"/><path class="e" d="M635.7,463.5c-2,3.3-11.6,10.9-26,9.6l.1-.1c1.2-.9,12.8-9.4,22.4-10.8h.3a11.562,11.562,0,0,1,3.2-.1C636.2,462.2,636.2,462.7,635.7,463.5Z"/><path class="f" d="M609.7,473.1h0c0,.8-.2,16.1-3.3,22.3,0,0-.9-16.2-5.2-19.8-4.3-3.7-15.9-6.5-15.9-6.5a23.644,23.644,0,0,1-1.6-5.6c-.5-.8-.6-1.4,0-1.4a17.388,17.388,0,0,1,3.2.1h.4c10.8,1.4,21.2,10,22.4,10.9Z"/><path class="g" d="M635.7,463.5a26.2,26.2,0,0,1-1.9,6.5c-2,.4-12.8,2.9-16.6,9.5-3.2,5.5-3.7,13.2-3.8,16.7-3.5-5.7-3.7-23-3.7-23l.1-.1c1.1-.9,11.6-9.5,22.4-10.8h.3a11.562,11.562,0,0,1,3.2-.1C636.2,462.2,636.2,462.7,635.7,463.5Z"/><path class="h" d="M589.3,417a54.737,54.737,0,0,1-1.9,10s-1,1.4-2.8,3.6a70.29,70.29,0,0,1-31.5,20.5c-.4.1-.8.3-1.2.4-2.6.8-7.4-7.1-4.9-13.8a8.177,8.177,0,0,1,.9-1.9,37.019,37.019,0,0,1,5.8-6.5c7.1-6.7,18.8-15.5,29.1-20.7h0a64.526,64.526,0,0,1,6.8-3A67.056,67.056,0,0,1,589.3,417Z" transform="matrix(0.951, 0.309, -0.309, 0.951, 157.324, -163.572)"/><path class="i" d="M553.1,451a9.013,9.013,0,0,1-1,.9c-3.9,2.9-9.6,1.2-6.5-10.9a10.5,10.5,0,0,1,1.3-3.4,5.515,5.515,0,0,1,4.3-2.9C556.6,434.2,557.2,446.3,553.1,451Z" transform="matrix(0.951, 0.309, -0.309, 0.951, 157.324, -163.572)"/><path class="j" d="M589.3,417l-4.8,13.6A70.29,70.29,0,0,1,553,451.1a9.013,9.013,0,0,1-1,.9c-3.9,2.9-9.6,1.2-6.5-10.9a10.5,10.5,0,0,1,1.3-3.4,8.177,8.177,0,0,1,.9-1.9,37.019,37.019,0,0,1,5.8-6.5c-.2.4-1.6,3.1,1.4,4.2,3.2,1.1,19.8-2.8,27.2-10.7,7.3-7.8,7.1-15.2.6-14.2a64.526,64.526,0,0,1,6.8-3A51.772,51.772,0,0,1,589.3,417Z" transform="matrix(0.951, 0.309, -0.309, 0.951, 157.324, -163.572)"/><path class="k" d="M550.2,439.5c-4.1-.7-16.6,8.3-20.6,26.6,0,0,.3,1.5,4,1.6S543.7,461,548,457,557.1,440.8,550.2,439.5Z" transform="matrix(0.951, 0.309, -0.309, 0.951, 157.324, -163.572)"/><path class="l" d="M533.6,467.7s6.5-9.7,7.8-12.1c0,0,2.5-12,6.3-14.4,3.8-2.3,5.1.3,6,3.3C554.5,447.5,548.2,465.6,533.6,467.7Z" transform="matrix(0.951, 0.309, -0.309, 0.951, 157.324, -163.572)"/><path class="m" d="M541.1,457.6s1.6,3.6,3.5,4.1c0,0-1.7-11.6,1.3-17.8A34.885,34.885,0,0,0,541.1,457.6Z" transform="matrix(0.951, 0.309, -0.309, 0.951, 157.324, -163.572)"/><path class="n" d="M547.5,442s4-2.8,6.2,2.5a48,48,0,0,1-5.6,17.5s-2.5.7-3.5-.3C542.5,459.4,543.1,445.1,547.5,442Z" transform="matrix(0.951, 0.309, -0.309, 0.951, 157.324, -163.572)"/><path class="o" d="M636.2,453.9c-1.9,11.2-12,18.7-26.4,18.7-12.6,0-23.2-4.7-26-15s-1.7-29.4,2-41.2a38.63,38.63,0,0,1,2-5.1h0a28.632,28.632,0,0,1,2.4-4.2h0c4.6-6.9,11.3-11.4,18.9-11.4a22.973,22.973,0,0,1,18.1,8.1,27.21,27.21,0,0,1,4.5,7.5,76.178,76.178,0,0,1,3.1,9.9v.1C637.3,432.1,637.9,443.9,636.2,453.9Z"/><path class="p" d="M636.2,453.9c-1.9,11.2-12,18.7-26.4,18.7-12.6,0-23.2-4.7-26-15s-1.7-29.4,2-41.2a38.63,38.63,0,0,1,2-5.1h0s-7.6,25.2-1.5,41.3,34.4,15.7,44,5c9.1-10.1,4.9-34,4.5-36.3C637.3,432.1,637.9,443.9,636.2,453.9Z"/><path class="q" d="M584.3,447.2c2.1-15.1,14.3-25.3,27.7-24,14.5,1.4,22.3,15.2,22.1,27.1s-8.9,21.1-24.4,21.1C594.1,471.4,582.3,461.3,584.3,447.2Z"/><path class="r" d="M584.4,448.5c2.1-15.1,14.3-25.3,27.7-24,14.5,1.4,22.3,15.2,22.1,27.1s-8.9,21.1-24.4,21.1C594.2,472.6,582.4,462.6,584.4,448.5Z"/><path class="s" d="M627.1,403.7c-3.1,4.8-20,7.6-29.8,6.7-8.5-.8-7.2-3.1-7.2-3.4h0c4.6-6.9,11.3-11.4,18.9-11.4C617,395.7,623,398.9,627.1,403.7Z"/><path class="t" d="M621.1,412.1c-.8.3-.8,6.6,0,7.6s2.1.7,2.6-.8C624.1,417.4,622.3,411.7,621.1,412.1Z"/><path class="t" d="M622.6,421.4c-.7.2-.7,1.7-.4,2.3s1.4.4,1.6-.2C624,422.8,623.2,421.3,622.6,421.4Z"/><path class="u" d="M592.9,463.8s3.5,6,16.4,6.1,18.2-7.7,18.2-7.7a18.981,18.981,0,0,1-14.5,1.6C604.5,461.5,596.1,460.2,592.9,463.8Z"/><path class="v" d="M589.6,438.9c2.6,4.1,13.1,1.9,24.9,3.1s13.9,5,16.4,4.2-1.4-18.6-19.2-19.8C594,425.2,588.9,437.9,589.6,438.9Z"/><path class="w" d="M628.1,404.9a5.932,5.932,0,0,0-2.1-1.7s3.3,16.4,9.8,23.1C635.8,426.3,632.9,410.8,628.1,404.9Z"/><path class="x" d="M635.2,327.7s6.3-5.4,13.9-6.3c0,0,2.3,1.1,5.1,9.6,2.7,8.4-2.3,25.1-2.3,25.1Z" transform="matrix(0.995, 0.105, -0.105, 0.995, 39.034, -63.819)"/><path class="y" d="M649.1,321.3a26.86,26.86,0,0,0-6.2,17.3l2.4,1.5,7-14.4S650,321.2,649.1,321.3Z" transform="matrix(0.995, 0.105, -0.105, 0.995, 39.034, -63.819)"/><path class="z" d="M645.1,339.5s-1.6-9.1,4.4-15.9c0,0,6.8,3.2,9.6,15.1s-4.5,19-4.5,19Z" transform="matrix(0.995, 0.105, -0.105, 0.995, 39.034, -63.819)"/><path class="t" d="M641.6,324c-1.2.6-1.1,1.9,1.3,1.6s3.7-2.2,3.4-2.6C646.1,322.6,642.9,323.3,641.6,324Z" transform="matrix(0.995, 0.105, -0.105, 0.995, 39.034, -63.819)"/><path class="aa" d="M582.8,329s-6.3-5.4-13.9-6.3c0,0-2.3,1.1-5.1,9.6-2.7,8.4,2.3,25.1,2.3,25.1Z" transform="translate(-46.359 97.456) rotate(-9)"/><path class="ab" d="M568.8,322.7A26.86,26.86,0,0,1,575,340l-2.4,1.5-7-14.4C565.7,327.1,568,322.6,568.8,322.7Z" transform="translate(-46.359 97.456) rotate(-9)"/><path class="ac" d="M572.9,340.8s1.6-9.1-4.4-15.9c0,0-6.8,3.2-9.6,15.1a21.918,21.918,0,0,0,5.3,19.8Z" transform="translate(-46.359 97.456) rotate(-9)"/><path class="t" d="M576.4,325.3c1.2.6,1.1,1.9-1.3,1.6s-3.7-2.2-3.4-2.6C571.9,324,575.1,324.6,576.4,325.3Z" transform="translate(-46.359 97.456) rotate(-9)"/><path class="ad" d="M565.2,386.8c9.6,22.1,81.3,15.2,89.9-2.9,9.4-19.9-12.2-68.9-46.5-66.6C579.5,319.2,552.9,358.4,565.2,386.8Z"/><path class="ae" d="M569.1,383.7c9.2,18.1,71.8,15.1,80.9-1.5,7.8-14.2-10.6-57.2-42-55.7S560.3,366.3,569.1,383.7Z"/><path class="t" d="M618.6,321.3c-.7.8,7,4.1,8,3.6C627.6,324.5,620.8,318.7,618.6,321.3Z"/><path class="af" d="M580.2,344.6c-.7,4.3,7.5,3.8,20.5,3.4,15.7-.5,31.5,13,40.7,3.3,1.5-1.6-13.5-22.6-31.7-22.2C591.6,329.6,580.8,340.9,580.2,344.6Z"/><path class="ag" d="M588.3,389.7c-.8,3.1,5.7,6.3,21.8,5.5,19.5-1,23.6-5,22.6-6.2-.6-.7-6.4,3-22.4-.5C599.8,386.2,589.2,386.4,588.3,389.7Z"/><path class="ah" d="M570.9,379.9a41.235,41.235,0,0,1,.1-10.6c.8-6.1,2.4-10,3.4-9.5,1,.6.8,6.5,1.4,12.4a85.5,85.5,0,0,0,1.3,8.9S572.9,385.1,570.9,379.9Z"/><path class="ai" d="M655,329s-2.2-2.7-5.2-2-3.2,10.2-1.4,10.4,2.6-5.2,3.9-6.1a6.459,6.459,0,0,1,3.8-.5Z" transform="matrix(0.995, 0.105, -0.105, 0.995, 39.034, -63.819)"/><path class="aj" d="M627.6,398.4S617.3,388,614,377.7l25.7,16.9S631,397.6,627.6,398.4Z"/><path class="ak" d="M561.4,333a4.3,4.3,0,0,1,3.8-.9c2.6.4,4.1,5.8,5.4,5.2,1.3-.5.4-9.2-3.2-11.7C567.5,325.6,562.9,329.5,561.4,333Z" transform="translate(-46.359 97.456) rotate(-9)"/><path class="al" d="M580.8,357.7a43.367,43.367,0,0,1,16.4,1.2c1.2.4-2.5-4-8.2-4.8S580.4,355.7,580.8,357.7Z"/><path class="am" d="M600.7,375.3c1.4-4.3,6.8-4.1,7.9-.3,1.2,4.1-3.6,8.8-5.7,8.1C600.7,382.4,599.6,378.5,600.7,375.3Z"/><path class="an" d="M614.9,370c-5.1-14.1,8.3-32.1,28.8-34.4,0,0,19.4,12.5,14.9,47.1C658.6,382.6,628,406.4,614.9,370Z"/><path class="ao" d="M643.7,335.5s6.9.1,15.1,6.8,12,26.7-.1,40.2C658.6,382.6,664,354.8,643.7,335.5Z"/><path class="al" d="M626.7,365.4c.6,6.4,19.7,5.8,22.8,0,2.5-4.7-4.7-19.9-12.3-18.8C629.5,347.6,625.9,356.3,626.7,365.4Z"/><path class="ap" d="M640.9,335.8a29.6,29.6,0,1,0,29.6,29.6A29.6,29.6,0,0,0,640.9,335.8Zm0,54.2a24.6,24.6,0,1,1,24.6-24.6A24.582,24.582,0,0,1,640.9,390Z"/><path class="aq" d="M673.8,409.2s-6.4,12.1-14.5,16.1-20.5-.8-24.5-4c-5.5-4.4-7.5-19.4-5.2-19.4,2.1,0,4.1,1.6,10.8,2.4h0c1.8.2,3.9.4,6.5.5a45.6,45.6,0,0,0,15.3-2.5c2.6-.9,4.3-1.7,4.3-1.7C671.2,400.6,673.8,409.2,673.8,409.2Z"/><path class="ar" d="M673.8,409.2s-6.4,12.1-14.5,16.1-20.5-.8-24.5-4c-5.5-4.4-7.5-19.4-5.2-19.4,2.1,0,4.1,1.6,10.8,2.4-.4,0-6.1-.4-7.1,1.2-1,1.7,10.4,18.3,21.7,13.7,11.4-4.6,9-16.9,7.1-16.9h0c2.6-.9,4.3-1.7,4.3-1.7C671.2,400.6,673.8,409.2,673.8,409.2Z"/><path class="as" d="M665.5,401.2s-.6,8.9,2.8,10.1,5.5-2.1,5.5-2.1l1.7-3.6Z"/><path class="at" d="M655,390.4s12.2,13.4,20.5,18.8c0,0,5.2-.6,6.2-5.7l-17.8-20.6Z"/><path class="au" d="M676.8,397.7s-11.4-8.7-13.5-9.4a17.375,17.375,0,0,0-2.4,4.6c-.7,2.5,12.3,14.7,12.3,14.7s-12.1-9.8-17.6-16.5c0,0,6.1-4.3,8.9-7.4Z"/><path class="av" d="M662,397.8c-.2.7-5.1,2.1-6.5-.5-.1-.3-.3-.5-.3-.8a3.744,3.744,0,0,1,1.3-4.6h0l.1.1C657.3,392.6,662.1,397.1,662,397.8Z"/><path class="aw" d="M676.8,397.7l-2.4-2.8s-8.2-4.1-9.8-11.3h0s1.9-3.9,5.9-4c1.6,0,3.1,2.1,4.2,4.9h0C676.3,388.9,677.3,394.9,676.8,397.7Z"/><path class="ax" d="M662,397.8c-.2.7-5.1,2.1-6.5-.5-.1-.3-.3-.5-.3-.8,1.1,1.4,2.8,1.1,3.3-.4s-1.4-3.6-1.8-4.1C657.3,392.6,662.1,397.1,662,397.8Z"/><path class="ay" d="M676.8,397.7l-2.4-2.8s-8.2-4.1-9.8-11.3c.2.4,4.1,6.5,8.3,7.1,3.1.4,1.9-5.7,1.8-6.2h0C676.3,388.9,677.3,394.9,676.8,397.7Z"/><path class="t" d="M545.9,448.5a8.093,8.093,0,0,0-1.1,5.1A8.094,8.094,0,0,0,545.9,448.5Z" transform="matrix(0.951, 0.309, -0.309, 0.951, 157.324, -163.572)"/><path class="t" d="M534.9,461.6a6.561,6.561,0,0,1,2.3-3.9C537.2,457.6,536.3,461,534.9,461.6Z" transform="matrix(0.951, 0.309, -0.309, 0.951, 157.324, -163.572)"/><path class="t" d="M559.8,426.8c-.3-.5,5.7-6.3,7.5-6.5,1.7-.2-.6.6-2,2.8C563.7,425.2,560.3,427.8,559.8,426.8Z" transform="matrix(0.951, 0.309, -0.309, 0.951, 157.324, -163.572)"/><path class="t" d="M568.9,419.1c-.6-.7,2.7-2,2.7-2S569.5,419.8,568.9,419.1Z" transform="matrix(0.951, 0.309, -0.309, 0.951, 157.324, -163.572)"/><path class="t" d="M640.9,408.5c-.2,1.4,6.8,1.4,6.7,0S641.1,407.1,640.9,408.5Z"/><path class="t" d="M594.5,480.1c-.9.4.8,5.2,2.1,5.1S595.6,479.6,594.5,480.1Z"/><ellipse class="az" cx="24.6" cy="23.7" rx="24.6" ry="23.7" transform="translate(616.3 340.5)"/><path class="ba" d="M619.1,358.4c.2,4.4,7.3,5.9,21.1-.9,11-5.4,21.5.8,22.5-.9.9-1.7-10.6-15.6-23.1-14.1C627.1,344.1,618.9,354.5,619.1,358.4Z"/><path class="bb" d="M640.9,333.7a29.6,29.6,0,1,0,29.6,29.6A29.6,29.6,0,0,0,640.9,333.7Zm0,54.2a24.6,24.6,0,1,1,24.6-24.6A24.582,24.582,0,0,1,640.9,387.9Z"/></g><ellipse class="bc" cx="40.8" cy="9.1" rx="40.8" ry="9.1" transform="translate(53.939 206.697)"/></svg>