<svg xmlns="http://www.w3.org/2000/svg" xmlns:xlink="http://www.w3.org/1999/xlink" width="152.241" height="214.857" viewBox="0 0 152.241 214.857"><defs><style>.a{fill:#1a75fa;}.ad,.ae,.af,.b,.m,.t{opacity:0.5;}.b{fill:url(#a);}.c{fill:url(#b);}.d{fill:url(#c);}.al,.ap,.aq,.e{opacity:0.3;}.e{fill:url(#d);}.f{fill:url(#e);}.g{fill:url(#f);}.h{fill:url(#g);}.i{fill:#6340a2;}.j{fill:url(#h);}.k{fill:url(#i);}.ah,.l{opacity:0.72;}.ad,.ae,.af,.ag,.ah,.l{mix-blend-mode:screen;}.ad,.ae,.af,.ag,.ah,.ao,.l{isolation:isolate;}.l{fill:url(#j);}.m{fill:url(#k);}.n{fill:url(#l);}.o{fill:url(#m);}.p{fill:url(#n);}.q{fill:url(#o);}.r{fill:url(#p);}.s{fill:url(#q);}.t{fill:url(#r);}.u{fill:url(#s);}.v{fill:url(#t);}.w{fill:url(#u);}.x{fill:#fff;}.y{fill:url(#v);}.z{fill:url(#w);}.aa{fill:url(#x);}.ab{fill:url(#y);}.ac{fill:url(#z);}.ad{fill:url(#aa);}.ae{fill:url(#ab);}.af{fill:url(#ac);}.ag{fill:url(#ad);}.ah{fill:url(#ae);}.ai{fill:url(#af);}.aj{fill:url(#ag);}.ak{fill:#2f95cd;}.al{fill:url(#ah);}.am{fill:url(#ai);}.an{fill:url(#aj);}.ao{mix-blend-mode:overlay;fill:url(#ak);}.ap{fill:url(#al);}.aq{fill:url(#am);}</style><radialGradient id="a" cx="0.5" cy="0.499" r="0.473" gradientTransform="matrix(1, 0, 0, -1.056, 0, 1.027)" gradientUnits="objectBoundingBox"><stop offset="0" stop-color="#559dea"/><stop offset="0.388" stop-color="#5ea9f5"/><stop offset="1" stop-color="#fff"/></radialGradient><linearGradient id="b" x1="0.5" y1="0.5" x2="0.692" y2="1.157" gradientUnits="objectBoundingBox"><stop offset="0" stop-color="#dad3f9"/><stop offset="1" stop-color="#be9dea"/></linearGradient><linearGradient id="c" x1="0.497" y1="-6.353" x2="0.497" y2="-5.353" gradientUnits="objectBoundingBox"><stop offset="0" stop-color="#be9dea"/><stop offset="1" stop-color="#9e8cef"/></linearGradient><linearGradient id="d" x1="0.466" y1="0.669" x2="0.428" y2="1.454" gradientUnits="objectBoundingBox"><stop offset="0" stop-color="#9d68c2"/><stop offset="1" stop-color="#ccedff"/></linearGradient><linearGradient id="e" x1="0.586" y1="0.161" x2="0.722" y2="0.698" xlink:href="#b"/><linearGradient id="f" x1="0.542" y1="0.121" x2="0.921" y2="1.113" gradientUnits="objectBoundingBox"><stop offset="0" stop-color="#cbc1f7"/><stop offset="1" stop-color="#e8dcf7"/></linearGradient><linearGradient id="g" x1="0.291" y1="-2.224" x2="0.674" y2="-1.263" xlink:href="#c"/><radialGradient id="h" cx="0.516" cy="0.844" r="0.484" gradientTransform="matrix(1, 0, 0, -1.023, 0, 1.708)" gradientUnits="objectBoundingBox"><stop offset="0" stop-color="#94fdff"/><stop offset="1" stop-color="#22e0ff"/></radialGradient><linearGradient id="i" x1="0.5" y1="0.148" x2="0.624" y2="1.203" xlink:href="#f"/><linearGradient id="j" x1="-0.001" y1="0.497" x2="0.998" y2="0.497" gradientUnits="objectBoundingBox"><stop offset="0"/><stop offset="1" stop-color="#d4e2ff"/></linearGradient><linearGradient id="k" x1="0.498" y1="-5.7" x2="0.498" y2="-4.702" gradientUnits="objectBoundingBox"><stop offset="0" stop-color="#8da4e5"/><stop offset="1" stop-color="#755cbb"/></linearGradient><linearGradient id="l" x1="0.373" y1="-0.09" x2="0.734" y2="0.929" xlink:href="#f"/><linearGradient id="m" x1="0.313" y1="-0.163" x2="1" y2="1.654" xlink:href="#b"/><linearGradient id="n" x1="0.359" y1="-1.288" x2="0.853" y2="1.474" xlink:href="#f"/><linearGradient id="o" x1="0.498" y1="-4.825" x2="0.498" y2="-3.825" xlink:href="#c"/><linearGradient id="p" x1="0.496" y1="-8.025" x2="0.496" y2="-7.022" xlink:href="#c"/><linearGradient id="q" x1="0.41" y1="-4.8" x2="0.567" y2="-3.825" xlink:href="#f"/><linearGradient id="r" x1="0.499" y1="-3.54" x2="0.499" y2="-2.538" xlink:href="#k"/><linearGradient id="s" x1="0.498" y1="2.725" x2="0.498" y2="3.725" gradientUnits="objectBoundingBox"><stop offset="0" stop-color="#b9acf4"/><stop offset="1" stop-color="#e1d1f5"/></linearGradient><linearGradient id="t" x1="0.496" y1="5.872" x2="0.496" y2="6.874" xlink:href="#c"/><radialGradient id="u" cx="0.499" cy="0.499" r="0.385" gradientTransform="matrix(2.299, 0, 0, -1, -0.648, 6.322)" xlink:href="#h"/><linearGradient id="v" x1="-57.629" y1="2.646" x2="-57.629" y2="3.646" xlink:href="#s"/><linearGradient id="w" x1="-121.409" y1="5.731" x2="-121.409" y2="6.733" xlink:href="#c"/><radialGradient id="x" cx="0.499" cy="0.499" r="0.974" gradientTransform="translate(0.998 0.682) rotate(180) scale(1 0.367)" xlink:href="#h"/><linearGradient id="y" x1="0.46" y1="0.633" x2="0.571" y2="1.642" xlink:href="#f"/><linearGradient id="z" x1="0.517" y1="-0.079" x2="0.484" y2="0.96" gradientUnits="objectBoundingBox"><stop offset="0" stop-color="#0665bd"/><stop offset="1" stop-color="#1a1f77"/></linearGradient><linearGradient id="aa" x1="-0.001" y1="4.098" x2="1.001" y2="4.098" gradientUnits="objectBoundingBox"><stop offset="0"/><stop offset="1" stop-color="#6a9bff"/></linearGradient><linearGradient id="ab" x1="-0.001" y1="-0.176" x2="1" y2="-0.176" xlink:href="#aa"/><linearGradient id="ac" x1="3.991" y1="4.49" x2="3.991" y2="5.489" xlink:href="#aa"/><radialGradient id="ad" cx="0.499" cy="0.496" r="0.462" gradientTransform="matrix(1.189, 0, 0, -1, -0.094, 21.483)" xlink:href="#h"/><linearGradient id="ae" x1="0.002" y1="9.771" x2="1.002" y2="9.771" xlink:href="#j"/><radialGradient id="af" cx="0.515" cy="0.844" r="0.731" gradientTransform="matrix(1, 0, 0, -0.928, 0, 1.628)" xlink:href="#h"/><radialGradient id="ag" cx="0.482" cy="0.844" r="0.759" gradientTransform="translate(0.963 1.505) rotate(180) scale(1 0.783)" xlink:href="#h"/><linearGradient id="ah" x1="0.598" y1="0.614" x2="0.598" y2="1.309" xlink:href="#d"/><linearGradient id="ai" x1="0.442" y1="-4.717" x2="0.559" y2="-3.722" xlink:href="#f"/><linearGradient id="aj" x1="0.497" y1="-16.74" x2="0.497" y2="-15.741" xlink:href="#c"/><linearGradient id="ak" x1="0.74" y1="-0.499" x2="0.705" y2="2.066" xlink:href="#j"/><linearGradient id="al" x1="0.356" y1="0.5" x2="0.5" y2="2.085" xlink:href="#d"/><linearGradient id="am" x1="0.403" y1="0" x2="0.5" y2="1.341" xlink:href="#d"/></defs><g transform="translate(-259.321 -11.142)"><path class="a" d="M286.9,178.5c8.3,13.8,78.1,10,104.2-2.7,26.1-12.8,24-103.5,11.6-119.9S316.9,12.3,284.6,30.1,275.8,160.2,286.9,178.5Z"/><path class="a" d="M374.8,24.4c.1-6.7,19.3-15.1,28-12.9s10.1,32.3-3.2,33.3C386.4,45.9,374.7,32.8,374.8,24.4Z"/><path class="a" d="M259.5,171.2c-1.6-7.1,7.9-16.3,12.9-15s10.7,25,3.1,25.6C267.8,182.4,260.5,175.9,259.5,171.2Z"/></g><ellipse class="b" cx="40.8" cy="9.1" rx="40.8" ry="9.1" transform="translate(38.279 196.657)"/><g transform="translate(-259.321 -11.142)"><path class="c" d="M331.6,198.3c-1,.4-36.6,4-40.8,0-4.1-3.9,24-21.3,28.1-21,1,.1,1.8,1.1,3.3,3.3C326.9,187.2,331.6,198.3,331.6,198.3Z"/><path class="d" d="M318.9,177.3c-1.8.2,4.6,18.6,12.7,21C331.6,198.3,323.7,176.6,318.9,177.3Z"/><path class="e" d="M331.6,198.3c-1,.4-36.4,3.8-40.8,0,0,0,10.4,1.7,19.9-1.5,9.5-3.3,9.7-11.6,9.7-11.6l.6-7C325.7,184.8,331.6,198.3,331.6,198.3Z"/><path class="f" d="M294.1,167.7s-1.7-8.2,5.8-17c9.7-11.4,30-19.8,33.4-18.2s-7.7,19.4-7.7,19.4-14,3.5-21.4,12.2C296.7,172.7,294.1,167.7,294.1,167.7Z"/><path class="g" d="M366,178.6c-1,8-4.6,14.3-10.9,17.7-4.2,2.3-9.5,3.3-16,2.6-9.5-1-15.4-8.1-17.9-17.8h0a54.6,54.6,0,0,1-1.5-14.3c.4-16.4,9.1-29.4,15.1-33.4,9.9-6.7,23.9-2.8,25.5,8.9C361.5,151.7,367.6,165.3,366,178.6Z"/><path class="h" d="M357.2,135.9c-1.7-.7-2.6,14.8,4.2,23.9,0,0,3.1-2,1.8-9.6C361.8,142.6,359.4,136.8,357.2,135.9Z"/><path class="i" d="M356,141.6s6.2,8.8,4.2,16.4C360.1,158,356.2,152,356,141.6Z"/><path class="j" d="M355.1,196.3c-4.2,2.3-9.5,3.3-16,2.6-9.5-1-15.4-8.1-17.9-17.8h0c-2.7-10.8,2.2-25.1,16.7-25.1,14.6,0,21.7,14.9,22.4,25.4C360.5,185.6,360.1,193.9,355.1,196.3Z"/><path class="k" d="M384.3,193.1a7.1,7.1,0,0,1-6,7.8,44.049,44.049,0,0,1-10.9-.1h-.3c-5.3-.6-10.3-1.8-10.6-3.6a22.953,22.953,0,0,1-.2-3.7c.1-10.5,6.2-22.4,10.1-21.6,2.4.5,5.9,2.8,9.1,6a35.26,35.26,0,0,1,6.8,8.8A12.448,12.448,0,0,1,384.3,193.1Z"/><path class="l" d="M1066.491,698.8c2.206,4.1,11.115,1.9,21.127,3.1s11.794,5,13.915,4.2-1.188-18.6-16.29-19.8C1070.224,685,1065.9,697.7,1066.491,698.8Z" transform="translate(-743.814 -528.96)"/><path class="m" d="M375.7,177.9s-7.4-2.1-13.3,2.7c-4.1,3.4-5.3,10.6-6,12.9.1-10.5,6.2-22.4,10.1-21.6C368.9,172.5,372.4,174.8,375.7,177.9Z"/><path class="n" d="M382.4,161.9c-.7,3.7-8.6,9.2-22.1,8.2,0,0-6.4-5.2-5.8-10.9a11.89,11.89,0,0,0,1.4-.6c1.6-.8,6.6-2.7,7.1-4.4.9-3.2-2.5-7.7-4.5-12.4-1.9-4.3-.5-8.1.5-8.3s7.5,2,13.9,8a15.273,15.273,0,0,1,1.8,1.8h0C382,151,383.1,158.5,382.4,161.9Z"/><path class="o" d="M355.7,159.2a73.523,73.523,0,0,0-9.9-5.9s-4,.8-4.8,2.9c-.7,2.2,8.1,6.4,8.1,6.4Z"/><path class="p" d="M297.8,160s3.5-6.7,6.3-7.6,4.5-.5,5,0,.5,3.1-.6,5.2c-1.1,2-5.5,4.3-5.5,4.3Z"/><path class="q" d="M297.3,158s6.2-.4,13.3,4.9c0,0,2,7.4-2.1,12a22.464,22.464,0,0,1-7.6,2.4C296.5,177.9,297.3,158,297.3,158Z"/><path class="r" d="M354.5,159.3a11.033,11.033,0,0,1,8.6,4.7c2.5,3.9-1.4,6.2-1.4,6.2S355,169.8,354.5,159.3Z"/><path class="s" d="M297.3,158c-2.8-.2-5,13.4-2.2,17.5s9.9.8,11.2-.7,3.3-7.9,2.5-10.6S304.2,158.4,297.3,158Z"/><path class="t" d="M321.2,135.7s5.9,9.6,17.5,9.2c11.5-.4,17.7-10.5,17.7-10.5l-33.6.6Z"/><path class="u" d="M368,62.7s6.3-5.4,13.9-6.3c0,0,2.3,1.1,5.1,9.6,2.7,8.4-2.3,25.1-2.3,25.1Z" transform="translate(15.076 -49.198) rotate(8)"/><path class="v" d="M381.9,56.4a26.86,26.86,0,0,0-6.2,17.3l2.4,1.5,7-14.4S382.8,56.3,381.9,56.4Z" transform="translate(15.076 -49.198) rotate(8)"/><path class="w" d="M377.9,74.5s-1.6-9.1,4.4-15.9c0,0,6.8,3.2,9.6,15.1s-4.5,19-4.5,19Z" transform="translate(15.076 -49.198) rotate(8)"/><path class="x" d="M374.4,59.1c-1.2.6-1.1,1.9,1.3,1.6s3.7-2.2,3.4-2.6C378.9,57.7,375.7,58.4,374.4,59.1Z" transform="translate(15.076 -49.198) rotate(8)"/><path class="y" d="M315.6,64.1s-6.3-5.4-13.9-6.3c0,0-2.3,1.1-5.1,9.6-2.7,8.4,2.3,25.1,2.3,25.1Z" transform="matrix(0.996, -0.087, 0.087, 0.996, -5.496, 28.73)"/><path class="z" d="M301.7,57.7A26.86,26.86,0,0,1,307.9,75l-2.4,1.5-7-14.4C298.5,62.2,300.8,57.6,301.7,57.7Z" transform="matrix(0.996, -0.087, 0.087, 0.996, -5.496, 28.73)"/><path class="aa" d="M305.7,75.9s1.6-9.1-4.4-15.9c0,0-6.8,3.2-9.6,15.1A21.918,21.918,0,0,0,297,94.9Z" transform="matrix(0.996, -0.087, 0.087, 0.996, -5.496, 28.73)"/><path class="x" d="M309.2,60.4c1.2.6,1.1,1.9-1.3,1.6s-3.7-2.2-3.4-2.6C304.7,59.1,307.9,59.7,309.2,60.4Z" transform="matrix(0.996, -0.087, 0.087, 0.996, -5.496, 28.73)"/><path class="ab" d="M298,121.9c9.6,22.1,81.3,15.2,89.9-2.9,9.4-19.9-12.2-68.9-46.5-66.6C312.3,54.2,285.7,93.5,298,121.9Z"/><path class="ac" d="M302,116.5c9.2,18.1,71.8,15.1,80.9-1.5,7.8-14.2-10.6-57.2-42-55.7S293.2,99.1,302,116.5Z"/><path class="x" d="M351.4,56.4c-.7.8,7,4.1,8,3.6C360.4,59.6,353.6,53.8,351.4,56.4Z"/><path class="ad" d="M313,77.4c-.7,4.3,7.5,3.8,20.5,3.4,15.7-.5,31.5,13,40.7,3.3,1.5-1.6-13.5-22.6-31.7-22.2S313.6,73.6,313,77.4Z"/><path class="ae" d="M321.1,122.4c-.8,3.1,5.7,6.3,21.8,5.5,19.5-1,23.6-5,22.6-6.2-.6-.7-6.4,3-22.4-.5C332.6,118.9,322,119.1,321.1,122.4Z"/><path class="af" d="M303.7,112.7a41.234,41.234,0,0,1,.1-10.6c.8-6.1,2.4-10,3.4-9.5,1,.6.8,6.5,1.4,12.4a85.488,85.488,0,0,0,1.3,8.9S305.7,117.9,303.7,112.7Z"/><path class="ag" d="M387.8,64s-2.2-2.7-5.2-2-3.2,10.2-1.4,10.4,2.6-5.2,3.9-6.1a6.459,6.459,0,0,1,3.8-.5Z" transform="translate(15.076 -49.198) rotate(8)"/><path class="ah" d="M294.2,68.1a4.3,4.3,0,0,1,3.8-.9c2.6.4,4.1,5.8,5.4,5.2,1.3-.5.4-9.2-3.2-11.7C300.3,60.7,295.7,64.5,294.2,68.1Z" transform="matrix(0.996, -0.087, 0.087, 0.996, -5.496, 28.73)"/><path class="ai" d="M354.2,99.4c1.6,3.5,15.9,3.9,18.2-1.6,2.1-4.9-4.3-18-12.9-16.8C353.1,82,351.4,93.6,354.2,99.4Z"/><path class="aj" d="M329.8,99.4c-1.6,3.5-15.9,3.9-18.2-1.6-2.1-4.9,4-17.4,12.9-16.8C331,81.6,332.6,93.6,329.8,99.4Z"/><path class="ak" d="M347.7,106.9s-4.8,4.7-8.4,4.4-1-4.9-1-4.9A20.237,20.237,0,0,1,347.7,106.9Z"/><path class="al" d="M382.4,161.9c-.7,3.7-8.6,9.2-22.1,8.2,0,0-6.4-5.2-5.8-10.9,0,0-.7.4.2,0l2.7.5a45.95,45.95,0,0,0,17.5.6c9.1-1.6,2.7-13.2,0-17C382,151,383.1,158.5,382.4,161.9Z"/><path class="am" d="M361.4,171.6h0c-.2.1-.3.2-.5.2h-.1c-.6.2-1.8.7-3.2,1.3a19.989,19.989,0,0,0-2.1,1c-3,1.4-6.7,3.8-7,3.9h0s-7.1-3.3-7.5-7.6c-.3-3,1.5-7.4,3.8-10a5.8,5.8,0,0,1,3-2.2,12.745,12.745,0,0,1,6.8.9,7.691,7.691,0,0,1,6.8,4.4A9.084,9.084,0,0,1,361.4,171.6Z"/><path class="an" d="M361.4,171.6h0c-.2.1-.3.2-.5.2h-.1c-.6.3-1.5.8-2.5,1.3-3.5,1.9-8.1,4.9-8.1,4.9h-1.7a12.15,12.15,0,0,1,5.9-5.2A16.433,16.433,0,0,1,361.4,171.6Z"/><path class="ao" d="M328.8,192.3a15.8,15.8,0,0,0,11.4,5.6c7.6.5,11.1-1.6,11.1-1.6a6.08,6.08,0,0,0-4.5-2.9c-3.3-.5-7,2.2-10.6,1.8A22.268,22.268,0,0,1,328.8,192.3Z"/><path class="ap" d="M384.3,193.1a7.1,7.1,0,0,1-6,7.8,44.049,44.049,0,0,1-10.9-.1c1.3.1,7.5.5,8.9-1.1,1.6-1.8,1.7-4.9,3.4-6.2,1.8-1.3,3.5-.3,4-.4Z"/><path class="x" d="M374.3,190.7c-.3.8,2.4,2.9,3.9,2.4s.3-2.7-.4-3.2C377.1,189.5,374.6,190.1,374.3,190.7Z"/><path class="x" d="M296.2,192.3c-.1.7,4-1,4.8-2.3.7-1.3,1-2.8.7-2.9S296.3,191.2,296.2,192.3Z"/><path class="x" d="M347.8,159.3c-.2.7,2.6,3.8,3.4,3.3.7-.5.1-2.7-1.3-3.3C348.5,158.6,348,158.9,347.8,159.3Z"/><path class="x" d="M367.3,150.7c-.8.2-.7,1.5-1.4,2.6s-2.1,2-1.9,2.3,3.5.2,4.1-1.5C368.7,152.3,367.8,150.6,367.3,150.7Z"/><path class="x" d="M366.4,149.4a3.43,3.43,0,0,1-.9-2.3c.2-.6,1.2.1,1.3.6C367,148.3,366.8,149.5,366.4,149.4Z"/><path class="x" d="M297.2,159c.1,1.2,4.6,1.5,5.1.8s-.4-1.2-1.9-1.5C298.9,158.1,297.2,158.7,297.2,159Z"/><path class="aq" d="M358.4,173.1c-3.5,1.9-8.1,4.9-8.1,4.9h-1.7s-7.1-3.3-7.5-7.6c-.3-3,1.5-7.4,3.8-10,.5,1.4,3.6,8.9,6.6,11.2a10.108,10.108,0,0,0,3,1.3,18.165,18.165,0,0,0,3.2.3A1.953,1.953,0,0,1,358.4,173.1Z"/><path class="x" d="M311.1,142.5c-.1.6,6.1-.9,5.4-2.9C316.1,138.3,311.2,141.4,311.1,142.5Z"/></g></svg>