<svg xmlns="http://www.w3.org/2000/svg" xmlns:xlink="http://www.w3.org/1999/xlink" width="177.306" height="208.595" viewBox="0 0 177.306 208.595"><defs><style>.a{fill:#1a75fa;}.ah,.ai,.an,.ar,.b,.d,.s,.w,.y{opacity:0.5;}.b{fill:url(#a);}.c{fill:url(#b);}.d{fill:url(#c);}.e{fill:url(#d);}.f{fill:url(#e);}.aj,.ak,.g,.i{opacity:0.3;}.g{fill:url(#f);}.h{fill:url(#g);}.i{fill:url(#h);}.j{fill:url(#i);}.k{fill:url(#j);}.l{fill:url(#k);}.m{fill:#6340a2;}.ac,.ad,.n,.o{opacity:0.72;}.ac,.ad,.ah,.ai,.n,.o,.y{mix-blend-mode:screen;isolation:isolate;}.n{fill:url(#l);}.o{fill:url(#m);}.p{fill:#fff;}.q{fill:url(#n);}.r{fill:url(#o);}.s{fill:url(#p);}.t{fill:url(#q);}.u{fill:url(#r);}.v{fill:url(#s);}.w{fill:url(#t);}.x{fill:url(#u);}.y{fill:url(#v);}.z{fill:url(#w);}.aa{fill:url(#x);}.ab{fill:url(#y);}.ac{fill:url(#z);}.ad{fill:url(#aa);}.ae{fill:url(#ab);}.af{fill:url(#ac);}.ag{fill:#2f95cd;}.ah{fill:url(#ad);}.ai{fill:url(#ae);}.aj{fill:url(#af);}.ak{fill:url(#ag);}.al{fill:url(#ah);}.am{fill:url(#ai);}.an{fill:url(#aj);}.ao{fill:url(#ak);}.ap{fill:url(#am);}.aq{fill:url(#an);}.ar{fill:url(#ao);}.as{fill:url(#ap);}</style><radialGradient id="a" cx="0.5" cy="0.498" r="0.476" gradientTransform="matrix(1, 0, 0, -1.047, 0, 1.02)" gradientUnits="objectBoundingBox"><stop offset="0" stop-color="#559dea"/><stop offset="0.388" stop-color="#5ea9f5"/><stop offset="1" stop-color="#fff"/></radialGradient><linearGradient id="b" x1="0.106" y1="-12.987" x2="0.534" y2="-12.074" gradientUnits="objectBoundingBox"><stop offset="0" stop-color="#cbc1f7"/><stop offset="1" stop-color="#d4bef1"/></linearGradient><linearGradient id="c" x1="0.5" y1="-15.687" x2="0.5" y2="-14.685" gradientUnits="objectBoundingBox"><stop offset="0" stop-color="#8da4e5"/><stop offset="1" stop-color="#755cbb"/></linearGradient><linearGradient id="d" x1="0.404" y1="-5.589" x2="0.61" y2="-4.652" xlink:href="#b"/><linearGradient id="e" x1="-1.96" y1="-20.786" x2="-2.096" y2="-19.832" gradientUnits="objectBoundingBox"><stop offset="0" stop-color="#be9dea"/><stop offset="1" stop-color="#9e8cef"/></linearGradient><linearGradient id="f" x1="0.681" y1="0.346" x2="1" y2="1.458" gradientUnits="objectBoundingBox"><stop offset="0" stop-color="#9d68c2"/><stop offset="1" stop-color="#ccedff"/></linearGradient><linearGradient id="g" x1="0.227" y1="-0.057" x2="0.763" y2="1.062" gradientUnits="objectBoundingBox"><stop offset="0" stop-color="#bfa8f7"/><stop offset="1" stop-color="#e8dcf7"/></linearGradient><linearGradient id="h" x1="0.075" y1="0.955" x2="-0.105" y2="1.624" xlink:href="#f"/><linearGradient id="i" x1="-4.577" y1="-6.955" x2="-3.637" y2="-6.955" xlink:href="#e"/><radialGradient id="j" cx="0.375" cy="0.843" r="0.649" gradientTransform="matrix(-1.059, -0.247, 0.27, -0.969, -6.416, -15.528)" gradientUnits="objectBoundingBox"><stop offset="0" stop-color="#94fdff"/><stop offset="1" stop-color="#22e0ff"/></radialGradient><linearGradient id="k" x1="-9.397" y1="-10.448" x2="-8.728" y2="-10.448" gradientUnits="objectBoundingBox"><stop offset="0" stop-color="#8879ea"/><stop offset="1" stop-color="#9e8cef"/></linearGradient><linearGradient id="l" y1="0.5" x2="1" y2="0.77" gradientUnits="objectBoundingBox"><stop offset="0"/><stop offset="1" stop-color="#d4e2ff"/></linearGradient><linearGradient id="m" x1="-10.589" y1="-79.849" x2="-10.589" y2="-79.064" gradientUnits="objectBoundingBox"><stop offset="0" stop-color="#d4e2ff"/><stop offset="1"/></linearGradient><linearGradient id="n" x1="0.5" y1="-0.285" x2="1.683" y2="1" gradientUnits="objectBoundingBox"><stop offset="0" stop-color="#cbc1f7"/><stop offset="1" stop-color="#e8dcf7"/></linearGradient><linearGradient id="o" x1="0.5" y1="0.5" x2="0.5" y2="1" xlink:href="#n"/><linearGradient id="p" x1="0.459" y1="-15.489" x2="0.562" y2="-14.376" xlink:href="#c"/><radialGradient id="q" cx="0.42" cy="0.522" r="0.44" gradientTransform="matrix(-1.423, 0.219, -0.319, -0.976, 25.635, -10.326)" xlink:href="#j"/><linearGradient id="r" x1="0.5" y1="-1.135" x2="0" y2="1.463" gradientUnits="objectBoundingBox"><stop offset="0" stop-color="#b9acf4"/><stop offset="1" stop-color="#e1d1f5"/></linearGradient><linearGradient id="s" x1="0.242" y1="0" x2="0.772" y2="1.332" xlink:href="#n"/><linearGradient id="t" x1="0.5" y1="-10.933" x2="0.5" y2="-9.932" xlink:href="#c"/><linearGradient id="u" x1="0.5" y1="0.142" x2="0.5" y2="1.25" gradientUnits="objectBoundingBox"><stop offset="0" stop-color="#0665bd"/><stop offset="1" stop-color="#1a1f77"/></linearGradient><linearGradient id="v" x1="0.46" y1="-14.911" x2="0.561" y2="-14.011" gradientUnits="objectBoundingBox"><stop offset="0"/><stop offset="1" stop-color="#6a9bff"/></linearGradient><linearGradient id="w" x1="0.661" y1="0" x2="1" y2="1" xlink:href="#r"/><linearGradient id="x" x1="-4.591" y1="-3.699" x2="-4.591" y2="-2.699" xlink:href="#e"/><radialGradient id="y" cx="0.5" cy="0.5" r="0.429" gradientTransform="translate(-9.258 -6.681) rotate(180) scale(1.453 1)" xlink:href="#j"/><linearGradient id="z" x1="0.5" y1="-0.608" x2="1" y2="2.075" xlink:href="#m"/><linearGradient id="aa" x1="-5.078" y1="-9.872" x2="-4.075" y2="-9.872" xlink:href="#l"/><radialGradient id="ab" cx="0.456" cy="0.481" r="0.501" gradientTransform="matrix(1, 0, 0, -0.774, 0, 0.853)" xlink:href="#j"/><radialGradient id="ac" cx="0.477" cy="0.49" r="0.666" gradientTransform="matrix(0.968, -0.25, -0.153, -0.594, 0.09, 0.901)" xlink:href="#j"/><linearGradient id="ad" x1="0" y1="-3.219" x2="1" y2="-3.219" xlink:href="#v"/><linearGradient id="ae" x1="0.458" y1="-14.014" x2="0.542" y2="-12.813" xlink:href="#v"/><linearGradient id="af" x1="0.5" y1="-683.722" x2="0.5" y2="-682.75" xlink:href="#f"/><linearGradient id="ag" x1="0.537" y1="0.777" x2="0.842" y2="1.237" xlink:href="#f"/><linearGradient id="ah" x1="-1.581" y1="-12.685" x2="-1.397" y2="-11.641" xlink:href="#n"/><linearGradient id="ai" x1="-1.539" y1="-12.607" x2="-1.69" y2="-11.639" xlink:href="#e"/><linearGradient id="aj" x1="-5.248" y1="-22.287" x2="-5.5" y2="-21.3" xlink:href="#c"/><linearGradient id="ak" x1="-3.174" y1="-17.978" x2="-2.863" y2="-16.963" xlink:href="#n"/><linearGradient id="am" x1="0.394" y1="1.017" x2="0.585" y2="-0.014" xlink:href="#n"/><linearGradient id="an" x1="0.567" y1="0.974" x2="0.409" y2="0.026" xlink:href="#e"/><linearGradient id="ao" x1="0.707" y1="1.01" x2="0.436" y2="0.024" xlink:href="#c"/><linearGradient id="ap" x1="0.313" y1="1" x2="0.626" y2="-0.009" xlink:href="#n"/></defs><g transform="translate(-1224.338 -576.905)"><path class="a" d="M1263.4,594.5c-38.3,12.3-52.3,72.5-24.4,104.9s63.8,28.7,84.7,42.6c26.1,17.4,52.2,21.4,72.9-13.5C1425.1,680.4,1326.3,574.3,1263.4,594.5Z"/></g><ellipse class="b" cx="40.8" cy="9.1" rx="40.8" ry="9.1" transform="translate(47.963 190.395)"/><g transform="translate(-1224.338 -576.905)"><path class="c" d="M1334.4,731.7s-1.9,2.8-4.4,6.4c-4.1,5.9-9.8,13.8-12,15.2-1,.7-1.7-1.8-2-5.5-.8-8.8-.1-24.9-.1-24.9S1329.5,725.8,1334.4,731.7Z"/><path class="d" d="M1334.4,731.7s-1.9,2.8-4.4,6.4c0,0-3.7-.6-9.9,3.1-2.4,1.4-3.5,3.9-4.1,6.5-.8-8.8-.1-24.9-.1-24.9S1329.5,725.8,1334.4,731.7Z"/><path class="e" d="M1360,716.5h0c-4-1.1-8.9-4.9-12.6-10.5-8.1-12.1-16.8-37.4-6.4-42.6,1-.5,5.9,5.7,11.2,13.9,6.2,9.7,12.9,22.3,14.3,30.1C1367.8,715.2,1364.5,717.7,1360,716.5Z"/><path class="f" d="M1354.6,713.7s3.5-13.6,7.8-13.4,4.9,12.7,2.1,15.3C1361.8,718.1,1356.2,715.2,1354.6,713.7Z"/><path class="g" d="M1360,716.5h0c-4-1.1-8.9-4.9-12.6-10.5-8.1-12.1-16.8-37.4-6.4-42.6,1-.5,5.9,5.7,11.2,13.9h0s-2.4,18.1-.7,24.5,7.5,10.4,7.5,10.4Z"/><path class="h" d="M1297.7,704.9c-.6,16.4,6.6,25.4,22.6,29.2,15.7,3.8,29.6-10.7,29.6-31.9,0-13.5-.8-25.7-5.7-34.4h0a24.286,24.286,0,0,0-12.7-11c-4.6-1.8-9.3-.2-13.5,3.3C1306.9,669.4,1298.1,692.3,1297.7,704.9Z"/><path class="i" d="M1313.5,677.9s-4.8,11.7-6.8,19.8c-2.4,9.6,1,20.2,1,20.2l-9.1-2.9s-2.5-13.2.7-20.4a70.857,70.857,0,0,0,3.5-9.1Z"/><path class="j" d="M1350.1,705s-.6-12.7-11.9-15.5c-13.5-3.4-26.3,9.1-28.1,19.4s-1.1,20.5,11.5,24.2C1321.6,733.1,1345.6,738.6,1350.1,705Z"/><path class="k" d="M1349.8,706.3s-.6-12.7-11.9-15.5c-13.5-3.4-26.3,9.1-28.1,19.4s-1.1,20.5,11.5,24.2C1321.3,734.4,1345.3,739.9,1349.8,706.3Z"/><path class="l" d="M1303.8,689.3a3.029,3.029,0,0,0,2.2-.9c3.8-3,9.5-13.1,11-19.1.6-2.3.5-4.1-.5-4.5-1.7-.8-6.9,4.4-10.9,12.4C1303.3,681.9,1301.3,688.7,1303.8,689.3Z"/><path class="m" d="M1306,688.4c3.8-3,9.5-13.1,11-19.1-2.3,1.8-5.6,6-8.3,11.4A35.455,35.455,0,0,0,1306,688.4Z"/><path class="n" d="M1348.4,705c-2.5,2.8-7.8-3-15.9-4.1s-13.4,2-15.4.3,8.2-11.7,20.4-9.1C1347.3,694.2,1349.3,704,1348.4,705Z"/><path class="o" d="M1332.3,732a14.391,14.391,0,0,1-9.7,1.3c-5.5-1.2-6.7-4.3-6.7-4.3a12.389,12.389,0,0,1,6.4,1.3A18.212,18.212,0,0,0,1332.3,732Z"/><path class="p" d="M1323.3,677.9c.9.3.7,8.1-.2,8.2-.8.1-2.4-.2-2.3-3.5C1320.8,679.3,1322.4,677.6,1323.3,677.9Z"/><path class="q" d="M1315,767.6c-5.2.1-26.8-47.6-21.6-51.4,8.8-6.4,20.9,6.4,25.4,13.7a13.462,13.462,0,0,1,1.8,3.9C1321.1,738,1320.2,767.5,1315,767.6Z"/><path class="r" d="M1313.5,668.5c2.9,2.9-5.5,19.1-12.7,21.8-7.3,2.7-23-.6-25.5-1.6s-3.4-9.4-1.1-12.6C1276.6,672.8,1309.5,664.5,1313.5,668.5Z"/><path class="s" d="M1301.7,668.1a43.935,43.935,0,0,0,27.7,8c16.5-.9,17.7-6.2,17.7-6.2s-5.4-8-9.8-9.4c-1.7-.5-19.9-3.8-25.8,7C1307.6,667.5,1301.7,668.1,1301.7,668.1Z"/><path class="t" d="M1341.2,581.1s8.4,5.6,12.1,18.7c3.7,13-15.9-2.6-15.9-2.6Z"/><path class="u" d="M1347.1,597s-2.3-17.4-8.1-19.7-13.4,6.2-13.4,6.2Z"/><path class="v" d="M1300.5,587.3c-26.1,15.9-24.7,55.5-14.7,69.9,11.7,16.7,72.9,6.2,81.5-21.3C1376,608.2,1332.9,567.6,1300.5,587.3Z"/><path class="w" d="M1292.5,628.9s-3.2,14.3-11.4,17.9c0,0-1.9-7-1.9-11.4S1292.5,628.9,1292.5,628.9Z"/><path class="x" d="M1315.8,591.1c-20.2,10.1-23.3,50.8-9.9,64.4,13.4,13.5,59-.8,62.2-25C1371,609,1340,579.1,1315.8,591.1Z"/><path class="y" d="M1320.1,656.2s-9.6,1.5-13.8-4.1-2.3-10-.9-10.3,5.6,8.1,9,11.1S1320.1,656.2,1320.1,656.2Z"/><path class="z" d="M1297.4,603.1s2.7,24.6-12.5,33.4c0,0-7.5.8-11.8-3.7,0,0,6.8,6.3,13.9-.3s5.4-24.8,0-30.8c-5.4-5.9-13.2-4.4-13.2-4.4l3.1-2.8S1288.4,592.2,1297.4,603.1Z"/><path class="aa" d="M1276.9,594.5s8.5-.8,14.4,9c6.3,10.4,1.7,28.4-5.9,31.2-7.6,2.7-15.3-26.4-15.3-26.4l4.4-11.6A4.448,4.448,0,0,1,1276.9,594.5Z"/><path class="ab" d="M1265.9,619.4c1.1,5.6,3.4,10.2,6.4,13.1h0l.9.8h0a11.232,11.232,0,0,0,8.6,2.6c10.3-1.3,11.7-16.2,10.5-24.7-1.4-9.8-9.8-15.6-16.4-14.8C1268,597.4,1263.8,608.4,1265.9,619.4Z"/><path class="ac" d="M1290.6,623.1s-1.1,9.1-7.8,11.1-12.2-2.9-13.9-9.7c0,0,2.1,5.9,10.9,4.4C1288.5,627.4,1290.6,623.1,1290.6,623.1Z"/><path class="ad" d="M1289.4,605.8c-.1,1.7-12.4-1.8-16.3-1.3s-5.6,5.3-6.2,5.2,1-11.4,8.3-12.2S1289.5,604.6,1289.4,605.8Z"/><path class="ae" d="M1352.1,622.5c4.2,2.3,10.3-2.8,8.8-9s-8.7-11.2-12.3-9.2C1345,606.2,1345.1,618.6,1352.1,622.5Z"/><path class="af" d="M1314.2,636.3c6.6,4.6,13.7-2.9,13.7-9.6-.1-6.7-6.2-13.2-12.3-11.6C1308.9,617,1307.5,631.6,1314.2,636.3Z"/><path class="ag" d="M1334.4,638.6c-.6,1.1,7.4,6.5,11.2,4.9,4.5-1.8,3.8-11.4,3-12C1347.7,630.9,1335.4,636.7,1334.4,638.6Z"/><path class="ah" d="M1301.7,626.3c3.6,4.9,13.8-11.9,24.9-17.6,12.6-6.5,30.9.4,32.1-1.6s-14.4-19.6-34.6-16.5C1304,593.7,1298.4,621.8,1301.7,626.3Z"/><path class="ai" d="M1334.4,656.1a27.024,27.024,0,0,0,14.3-9.3,15.324,15.324,0,0,1,13.6-6.2S1351.3,656.1,1334.4,656.1Z"/><path class="p" d="M1297.8,595.5c0,1.6,10-6.5,8.7-7.1C1305.3,587.7,1297.9,593.6,1297.8,595.5Z"/><path class="aj" d="M1316,711.2l-.3-.5C1315.8,710.8,1315.8,710.9,1316,711.2Z"/><path class="ak" d="M1315,767.6c-5.2.1-26.8-47.6-21.6-51.4,0,0,6.5,29.9,14.3,37.7,7.9,7.7,13-12.6,11.6-21.4a19.971,19.971,0,0,0-.5-2.6,13.462,13.462,0,0,1,1.8,3.9C1321.1,738,1320.2,767.5,1315,767.6Z"/><path class="p" d="M1302.7,724.4c-.8,1.3,1.2,9.1,2.3,9,1.1-.2,1.3-4.3.8-5.6C1305.2,726.5,1302.8,724.2,1302.7,724.4Z"/><path class="p" d="M1305.2,734.7c-.9.5.2,2.8.8,2.8C1306.7,737.4,1306,734.3,1305.2,734.7Z"/><path class="p" d="M1331.2,581.1c.6,1.3,4.8-1.4,4.2-2.6C1334.7,577.4,1330.5,579.8,1331.2,581.1Z"/><path class="al" d="M1373.9,709.3s-3.5-4.5-8.3-4.9-6.4,1-7.2,4.4,6.6,15.2,15.4,24c3.6.1,4.5-4.4,4.9-7.3C1378.6,723.1,1377.5,715,1373.9,709.3Z"/><path class="am" d="M1362.1,704.6s9.5,12,12.7,19c1.7,3.8,2.7,6.3,2.7,6.3s-2,6-6.1,1.3c-5.8-6.7-13.6-16.8-12.5-22C1359.8,704.8,1360.5,704,1362.1,704.6Z"/><path class="an" d="M1370.1,715.6s-.9,6.7-4.9,7.9l-1.4-15.9C1363.9,707.6,1368.9,713.7,1370.1,715.6Z"/><path class="ao" d="M1366,711.3c.7,1.5,0,11.6-1,12.8s-3.6-.6-4.4-2.6-4.5-12.9-.6-16.6C1359.9,704.8,1363.2,705,1366,711.3Z"/><path class="p" d="M1364.3,712.7c.4.1,1.1,3.5.8,4.1s-1.1.6-1.5-.2C1363.2,715.9,1363.6,712.7,1364.3,712.7Z"/><path class="f" d="M1354.6,711.526s3.5-11.394,7.8-11.226,4.9,10.64,2.1,12.818C1361.8,715.212,1356.2,712.783,1354.6,711.526Z" transform="translate(2673.883 1317.071) rotate(177)"/><path class="ap" d="M1035.6,721.9s3.3-4.7,8.1-5.3,6.5.7,7.4,4-5.9,15.5-14.3,24.7c-3.6.3-4.7-4.2-5.2-7C1031.5,735.9,1033.9,725.8,1035.6,721.9Z" transform="translate(1485.784 -569.834) rotate(65)"/><path class="aq" d="M1047.2,716.6s-9,12.4-11.8,19.6c-1.5,3.9-2.4,6.4-2.4,6.4s2.3,5.9,6.2,1c5.5-7,12.8-17.5,11.5-22.5C1049.5,716.7,1048.7,715.9,1047.2,716.6Z" transform="translate(1485.784 -569.834) rotate(65)"/><path class="ar" d="M1039.6,728s1.2,6.6,5.3,7.6l.6-15.9S1040.8,726,1039.6,728Z" transform="translate(1485.784 -569.834) rotate(65)"/><path class="as" d="M1043.5,723.5c-.6,1.5.6,11.6,1.7,12.7s3.6-.8,4.3-2.8,3.8-13.1-.2-16.6C1049.3,716.8,1046,717.1,1043.5,723.5Z" transform="translate(1485.784 -569.834) rotate(65)"/><path class="p" d="M1045.4,724.9c-.4.1-.9,3.5-.6,4.1.4.6,1.1.5,1.5-.2C1046.6,728,1046,724.7,1045.4,724.9Z" transform="matrix(-0.017, -1, 1, -0.017, 557.851, 1734.13)"/></g></svg>