<svg xmlns="http://www.w3.org/2000/svg" xmlns:xlink="http://www.w3.org/1999/xlink" width="65.4" height="90.6" viewBox="0 0 65.4 90.6"><defs><style>.a,.l{fill:#fff;}.a{stroke:#707070;}.b{opacity:0.39;fill:url(#a);}.c{opacity:0.33;fill:url(#b);}.d{fill:url(#c);}.e{fill:url(#d);}.f{opacity:0.5;fill:url(#e);}.g{fill:url(#f);}.h{fill:url(#g);}.i{clip-path:url(#h);}.j{fill:url(#i);}.k{fill:url(#j);}.l{opacity:0.7;}.m{fill:url(#k);}</style><radialGradient id="a" cx="0.5" cy="0.5" r="0.449" gradientTransform="translate(-0.14) scale(1.281 1)" gradientUnits="objectBoundingBox"><stop offset="0" stop-color="#94fdff"/><stop offset="1" stop-color="#22e0ff"/></radialGradient><radialGradient id="b" cx="0.499" cy="0.501" r="0.431" gradientTransform="translate(-0.215) scale(1.43 1)" xlink:href="#a"/><linearGradient id="c" x1="-0.001" y1="0.501" x2="0.998" y2="0.501" gradientUnits="objectBoundingBox"><stop offset="0" stop-color="#0665bd"/><stop offset="1" stop-color="#1a1f77"/></linearGradient><linearGradient id="d" x1="0.001" y1="0.496" x2="1" y2="0.496" xlink:href="#c"/><linearGradient id="e" y1="0.498" x2="1.002" y2="0.498" gradientUnits="objectBoundingBox"><stop offset="0" stop-color="#8da4e5"/><stop offset="1" stop-color="#755cbb"/></linearGradient><linearGradient id="f" x1="-0.001" y1="0.496" x2="1" y2="0.496" gradientUnits="objectBoundingBox"><stop offset="0.205" stop-color="#9d68c2"/><stop offset="0.913" stop-color="#ccedff"/></linearGradient><linearGradient id="g" x1="-0.001" y1="0.496" x2="1" y2="0.496" gradientUnits="objectBoundingBox"><stop offset="0" stop-color="#dad3f9"/><stop offset="1" stop-color="#be9dea"/></linearGradient><clipPath id="h"><rect class="a" width="54" height="56" transform="translate(897.7 561.8)"/></clipPath><linearGradient id="i" x1="-0.001" y1="0.5" x2="1.001" y2="0.5" xlink:href="#c"/><linearGradient id="j" x1="-0.004" y1="0.5" x2="0.998" y2="0.5" xlink:href="#c"/><linearGradient id="k" x1="0" y1="0.498" x2="1" y2="0.498" xlink:href="#g"/></defs><g transform="translate(-217 0)"><g transform="translate(-677.7 -539.8)"><path class="b" d="M932.3,587v-3.7c11.6-2.6,20.4-14.6,20.4-29v-1.6H902.4v1.6c0,14.4,8.7,26.3,20.3,29v3.6c-11.7,2.5-20.6,14.6-20.6,29v1.6h50.3v-1.6C952.4,601.6,943.8,589.7,932.3,587Z"/><path class="c" d="M930.7,588.5v-6.8c11.7-1.9,20.7-14.3,20.7-29.3v-1.6H903.8v1.6c0,14.9,8.9,27.2,20.4,29.2v6.8c-11.7,1.9-20.7,14.3-20.7,29.3v1.6H951v-1.6C951.1,602.9,942.2,590.6,930.7,588.5Z"/><path class="d" d="M894.8,539.8v5.6a4.268,4.268,0,0,0,4.3,4.3h56.7a4.268,4.268,0,0,0,4.3-4.3v-5.6Z"/><path class="e" d="M960,630.4v-5.6a4.268,4.268,0,0,0-4.3-4.3H899a4.268,4.268,0,0,0-4.3,4.3v5.6Z"/><rect class="f" width="7.8" height="4.6" transform="translate(902.9 615.9)"/><rect class="g" width="55.5" height="4.6" transform="translate(899.8 549.7)"/><path class="h" d="M955.3,554.3H927.5l-27.7-3.4v-1.2h55.5Z"/><g class="i"><path class="j" d="M946.7,605.8C946.1,604.3,929,595,929,595V580.2c8.2-.7,15.2-7.5,18.5-17H907.7c3.3,9.6,10.3,16.4,18.5,17V595s-18,9.7-18.8,12.1a27.1,27.1,0,0,0-1.3,9.1v1.4h42.3v-1.4A27.068,27.068,0,0,0,946.7,605.8Z"/><path class="k" d="M948.4,616.2a26.557,26.557,0,0,0-1.7-10.3C946.1,604.3,929,595,929,595V580.2c8.2-.7,15.2-7.5,18.5-17H919.2s2.3,14.7,8.8,17.1V595s-7,6.6-7.8,8.2-1,12.3-1,14.3h29.3A5.7,5.7,0,0,1,948.4,616.2Z"/></g><path class="l" d="M908.3,556.8h6.8s-1.5,16.2,8.2,21.7C923.2,578.5,909.1,574.4,908.3,556.8Z"/><path class="l" d="M908.3,613.4h6.8s-1.5-16.2,8.2-21.7C923.2,591.7,909.1,595.8,908.3,613.4Z"/><rect class="m" width="55.5" height="4.6" transform="translate(899.5 615.9)"/></g></g></svg>