<svg xmlns="http://www.w3.org/2000/svg" xmlns:xlink="http://www.w3.org/1999/xlink" width="152.6" height="50.631" viewBox="0 0 152.6 50.631"><defs><style>.a{fill:url(#a);}.b{fill:url(#b);}.c{fill:url(#c);}.d{fill:url(#d);}.e,.f,.g,.h{opacity:0.3;}.e{fill:url(#e);}.f{fill:url(#f);}.g{fill:url(#g);}.h{fill:url(#h);}.i{fill:url(#i);}.j{fill:url(#j);}.k{fill:url(#k);}.l,.v,.w,.x{opacity:0.5;}.l{fill:url(#l);}.m,.z{opacity:0.72;}.m,.v,.w,.x,.z{mix-blend-mode:screen;isolation:isolate;}.m{fill:url(#m);}.n{fill:url(#n);}.o{fill:url(#o);}.p{fill:url(#p);}.q{fill:#fff;}.r{fill:url(#q);}.s{fill:url(#r);}.t{fill:url(#s);}.u{fill:url(#t);}.v{fill:url(#u);}.w{fill:url(#v);}.x{fill:url(#w);}.y{fill:url(#x);}.z{fill:url(#y);}.aa{fill:url(#z);}.ab{fill:url(#aa);}.ac{fill:#2f95cd;}.ad{fill:url(#ba);}.ae{fill:url(#bb);}.af{fill:url(#cb);}.ag{fill:url(#cc);}</style><linearGradient id="a" x1="0.429" y1="0.054" x2="0.565" y2="0.992" gradientUnits="objectBoundingBox"><stop offset="0" stop-color="#cbc1f7"/><stop offset="1" stop-color="#e8dcf7"/></linearGradient><linearGradient id="b" x1="0.412" y1="-0.053" x2="0.573" y2="1.044" xlink:href="#a"/><linearGradient id="c" x1="7.725" y1="0.851" x2="8.549" y2="0.851" gradientUnits="objectBoundingBox"><stop offset="0" stop-color="#8879ea"/><stop offset="1" stop-color="#9e8cef"/></linearGradient><linearGradient id="d" x1="-177.874" y1="-2.27" x2="-177.049" y2="-2.27" xlink:href="#c"/><linearGradient id="e" x1="0.498" y1="-0.002" x2="0.498" y2="0.996" gradientUnits="objectBoundingBox"><stop offset="0" stop-color="#9d68c2"/><stop offset="1" stop-color="#ccedff"/></linearGradient><linearGradient id="f" x1="0.501" y1="-0.005" x2="0.501" y2="0.995" xlink:href="#e"/><linearGradient id="g" x1="0.496" y1="-0.007" x2="0.496" y2="0.998" xlink:href="#e"/><linearGradient id="h" x1="0.52" y1="0" x2="0.52" y2="0.999" xlink:href="#e"/><linearGradient id="i" x1="0.402" y1="0.005" x2="0.511" y2="1.07" xlink:href="#a"/><linearGradient id="j" x1="0.501" y1="0.001" x2="0.501" y2="0.998" gradientUnits="objectBoundingBox"><stop offset="0" stop-color="#be9dea"/><stop offset="1" stop-color="#9e8cef"/></linearGradient><radialGradient id="k" cx="0.53" cy="0.116" r="1.285" gradientTransform="translate(0.327) scale(0.346 1)" gradientUnits="objectBoundingBox"><stop offset="0" stop-color="#94fdff"/><stop offset="1" stop-color="#22e0ff"/></radialGradient><linearGradient id="l" x1="0.501" y1="-2.072" x2="0.501" y2="-1.073" gradientUnits="objectBoundingBox"><stop offset="0" stop-color="#8da4e5"/><stop offset="1" stop-color="#755cbb"/></linearGradient><linearGradient id="m" x1="-0.002" y1="0.495" x2="1.002" y2="0.495" gradientUnits="objectBoundingBox"><stop offset="0"/><stop offset="1" stop-color="#d4e2ff"/></linearGradient><linearGradient id="n" x1="0.503" y1="2.695" x2="0.503" y2="3.692" gradientUnits="objectBoundingBox"><stop offset="0" stop-color="#b9acf4"/><stop offset="1" stop-color="#e1d1f5"/></linearGradient><linearGradient id="o" x1="0.517" y1="5.787" x2="0.517" y2="6.782" xlink:href="#j"/><radialGradient id="p" cx="0.496" cy="0.497" r="0.386" gradientTransform="matrix(2.285, 0, 0, -1, -0.638, 6.284)" xlink:href="#k"/><linearGradient id="q" x1="-105.458" y1="2.62" x2="-105.458" y2="3.617" xlink:href="#n"/><radialGradient id="r" cx="0.499" cy="0.501" r="0.385" gradientTransform="translate(-467.387 5.968) rotate(180) scale(2.345 1)" xlink:href="#k"/><linearGradient id="s" x1="0.46" y1="0.624" x2="0.571" y2="1.635" xlink:href="#a"/><linearGradient id="t" x1="0.501" y1="0.765" x2="0.501" y2="1.763" gradientUnits="objectBoundingBox"><stop offset="0" stop-color="#0665bd"/><stop offset="1" stop-color="#1a1f77"/></linearGradient><linearGradient id="u" x1="0.001" y1="4.063" x2="1.003" y2="4.063" gradientUnits="objectBoundingBox"><stop offset="0"/><stop offset="1" stop-color="#6a9bff"/></linearGradient><linearGradient id="v" x1="-0.001" y1="-0.263" x2="1.003" y2="-0.263" xlink:href="#u"/><linearGradient id="w" x1="10.194" y1="7.894" x2="10.194" y2="8.899" xlink:href="#u"/><radialGradient id="x" cx="0.478" cy="0.491" r="0.753" gradientTransform="matrix(1, 0, 0, -0.97, 0, 0.967)" xlink:href="#k"/><linearGradient id="y" x1="-0.001" y1="9.645" x2="0.997" y2="9.645" xlink:href="#m"/><radialGradient id="z" cx="0.521" cy="0.845" r="0.825" gradientTransform="matrix(1, 0, 0, -0.941, 0, 1.64)" xlink:href="#k"/><radialGradient id="aa" cx="0.48" cy="0.845" r="0.775" gradientTransform="matrix(-1, 0, 0, -0.946, 0.96, 1.644)" xlink:href="#k"/><radialGradient id="ba" cx="0.521" cy="0.845" r="0.745" gradientTransform="matrix(1, 0, 0, -0.941, 0, 1.64)" xlink:href="#k"/><radialGradient id="bb" cx="0.48" cy="0.845" r="0.823" gradientTransform="matrix(-1, 0, 0, -0.946, 0.96, 1.644)" xlink:href="#k"/><radialGradient id="cb" cx="0.521" cy="0.845" r="0.776" gradientTransform="matrix(1, 0, 0, -0.941, 0, 1.64)" xlink:href="#k"/><radialGradient id="cc" cx="0.48" cy="0.845" r="0.807" gradientTransform="translate(0.96 1.644) rotate(180) scale(1 0.946)" xlink:href="#k"/></defs><g transform="translate(-928 -2797)"><g transform="translate(44.7 2281.631)"><path class="a" d="M943,565.9c1.4-2,3-4.4,4.3-6.5a31.928,31.928,0,0,0,3.5-9.4c.4-1.8.5-3.1.2-3.3s-2,.9-4.3,2.9h0l-.1.1h0a50.319,50.319,0,0,0-7.2,7.8,46.325,46.325,0,0,0-4.9,8.3H943Z"/><path class="b" d="M971.6,558.9c1.4,2.3,3.2,4.9,4.6,7h8.6a42.838,42.838,0,0,0-5.1-8.8,55.754,55.754,0,0,0-7.2-7.8h0l-.1-.1h0c-2.3-2-4-3.1-4.3-2.9-.2.2-.1,1.5.2,3.3A26.771,26.771,0,0,0,971.6,558.9Z"/><path class="c" d="M951.1,546.7a21.191,21.191,0,0,0-2.7,10.7S952.3,550.4,951.1,546.7Z"/><path class="d" d="M967.9,546.2a21.191,21.191,0,0,1,2.7,10.7S966.7,549.9,967.9,546.2Z"/><path class="e" d="M976.3,565.9h8.6a42.838,42.838,0,0,0-5.1-8.8,55.754,55.754,0,0,0-7.2-7.8c1.3,1.2,6.8,6.3,8.9,11.1,2.4,5.5-3.4,4.3-6.2,1.2-2.9-3.1-7-12.2-7-12.2l-.1.1a27.162,27.162,0,0,0,3.5,9.4C973.1,561.2,974.8,563.8,976.3,565.9Z"/><path class="f" d="M943,565.9c1.4-2,3-4.4,4.3-6.5a31.928,31.928,0,0,0,3.5-9.4l-.1-.1s-4.1,9-7,12.2c-2.9,3.1-8.6,4.3-6.2-1.2,2.1-4.8,7.6-9.9,8.9-11.1a50.319,50.319,0,0,0-7.2,7.8,46.325,46.325,0,0,0-4.9,8.3Z"/><path class="g" d="M971.8,565.9h.5a40.4,40.4,0,0,0-1.1-8.5A39.592,39.592,0,0,1,971.8,565.9Z"/><path class="h" d="M948.1,565.9a45.5,45.5,0,0,1,1.7-13.1,15.717,15.717,0,0,0-.9,2.3,43.805,43.805,0,0,0-1.6,10.8Z"/><path class="i" d="M972.3,565.9a40.4,40.4,0,0,0-1.1-8.5h0c-.4-1.5-.9-3.1-1.4-4.5a14.476,14.476,0,0,0-2-3.4,10.456,10.456,0,0,0-8.2-3.7c-3.5,0-6.5,2-8.6,5.2a11.778,11.778,0,0,0-1.1,1.9,15.717,15.717,0,0,0-.9,2.3,43.805,43.805,0,0,0-1.6,10.8h24.9Z"/><path class="j" d="M970.1,565.9c-1.4-3.9-4.5-7.2-9.3-7.7a11.362,11.362,0,0,0-11.7,7.7Z"/><path class="k" d="M970,565.9a10.979,10.979,0,0,0-9.1-7.1,11.566,11.566,0,0,0-11.5,7.1Z"/><path class="l" d="M967.7,549.3c-1.4,2.2-9.1,3.5-13.5,3-3.9-.4-3.3-1.4-3.3-1.5h0c2.1-3.1,5.1-5.2,8.6-5.2A10.96,10.96,0,0,1,967.7,549.3Z"/><path class="m" d="M951.2,565.9h18.1a9.465,9.465,0,0,0-8.6-6.2c-8-.5-10.3,5.2-10,5.7C950.8,565.6,951,565.7,951.2,565.9Z"/><path class="n" d="M969.1,519.4a12.287,12.287,0,0,1,5.4-2.5s.9.4,2,3.8c1.1,3.3-.9,9.8-.9,9.8Z"/><path class="o" d="M974.5,516.9a10.662,10.662,0,0,0-2.4,6.8l.9.6,2.7-5.6C975.8,518.6,974.9,516.8,974.5,516.9Z"/><path class="p" d="M973,524a8.183,8.183,0,0,1,1.7-6.2s2.7,1.3,3.8,5.9a7.988,7.988,0,0,1-1.8,7.4Z"/><path class="q" d="M971.6,517.9c-.5.2-.4.7.5.6s1.4-.9,1.3-1A5.874,5.874,0,0,0,971.6,517.9Z"/><path class="r" d="M948.6,519.9a12.287,12.287,0,0,0-5.4-2.5s-.9.4-2,3.8c-1.1,3.3.9,9.8.9,9.8Z"/><path class="s" d="M944.8,524.5a8.183,8.183,0,0,0-1.7-6.2s-2.7,1.3-3.8,5.9a8.354,8.354,0,0,0,2.1,7.7Z"/><path class="q" d="M946.1,518.5c.5.2.4.7-.5.6s-1.4-.9-1.3-1C944.4,517.9,945.6,518.2,946.1,518.5Z"/><path class="t" d="M941.8,542.5c3.8,8.6,31.8,5.9,35.1-1.1,3.7-7.8-4.8-26.9-18.2-26C947.3,516,937,531.4,941.8,542.5Z"/><path class="u" d="M943.3,540.4c3.6,7.1,28.1,5.9,31.6-.6,3-5.5-4.1-22.4-16.4-21.8C946.3,518.6,939.9,533.6,943.3,540.4Z"/><path class="v" d="M947.6,525.1c-.3,1.7,2.9,1.5,8,1.3,6.1-.2,12.3,5.1,15.9,1.3.6-.6-5.3-8.8-12.4-8.7C952,519.2,947.9,523.6,947.6,525.1Z"/><path class="w" d="M950.8,542.7c-.3,1.2,2.2,2.5,8.5,2.1,7.6-.4,9.2-2,8.8-2.4-.2-.3-2.5,1.2-8.8-.2C955.3,541.3,951.1,541.4,950.8,542.7Z"/><path class="x" d="M944,538.9a15.452,15.452,0,0,1,0-4.1c.3-2.4.9-3.9,1.3-3.7s.3,2.5.5,4.8c.2,1.8.5,3.5.5,3.5A1.3,1.3,0,0,1,944,538.9Z"/><path class="y" d="M976.9,519.9a2.181,2.181,0,0,0-2-.8c-1.2.3-1.3,4-.5,4.1.7.1,1-2,1.5-2.4a2.211,2.211,0,0,1,1.5-.2Z"/><path class="z" d="M940.3,521.5a1.9,1.9,0,0,1,1.5-.4c1,.1,1.6,2.3,2.1,2,.5-.2.2-3.6-1.3-4.6C942.7,518.6,940.9,520.1,940.3,521.5Z"/><path class="aa" d="M963.7,533.7c.6,1.4,6.2,1.5,7.1-.6.8-1.9-1.7-7-5-6.6C963.3,526.9,962.6,531.4,963.7,533.7Z"/><path class="ab" d="M954.2,533.7c-.6,1.4-6.2,1.5-7.1-.6-.8-1.9,1.6-6.8,5-6.6C954.7,526.7,955.3,531.4,954.2,533.7Z"/><path class="ac" d="M961.2,536.6s-1.9,1.8-3.3,1.7-.4-1.9-.4-1.9A7.875,7.875,0,0,1,961.2,536.6Z"/></g><g transform="translate(95.7 2281.631)"><path class="a" d="M943,565.9c1.4-2,3-4.4,4.3-6.5a31.928,31.928,0,0,0,3.5-9.4c.4-1.8.5-3.1.2-3.3s-2,.9-4.3,2.9h0l-.1.1h0a50.319,50.319,0,0,0-7.2,7.8,46.325,46.325,0,0,0-4.9,8.3H943Z"/><path class="b" d="M971.6,558.9c1.4,2.3,3.2,4.9,4.6,7h8.6a42.838,42.838,0,0,0-5.1-8.8,55.754,55.754,0,0,0-7.2-7.8h0l-.1-.1h0c-2.3-2-4-3.1-4.3-2.9-.2.2-.1,1.5.2,3.3A26.771,26.771,0,0,0,971.6,558.9Z"/><path class="c" d="M951.1,546.7a21.191,21.191,0,0,0-2.7,10.7S952.3,550.4,951.1,546.7Z"/><path class="d" d="M967.9,546.2a21.191,21.191,0,0,1,2.7,10.7S966.7,549.9,967.9,546.2Z"/><path class="e" d="M976.3,565.9h8.6a42.838,42.838,0,0,0-5.1-8.8,55.754,55.754,0,0,0-7.2-7.8c1.3,1.2,6.8,6.3,8.9,11.1,2.4,5.5-3.4,4.3-6.2,1.2-2.9-3.1-7-12.2-7-12.2l-.1.1a27.162,27.162,0,0,0,3.5,9.4C973.1,561.2,974.8,563.8,976.3,565.9Z"/><path class="f" d="M943,565.9c1.4-2,3-4.4,4.3-6.5a31.928,31.928,0,0,0,3.5-9.4l-.1-.1s-4.1,9-7,12.2c-2.9,3.1-8.6,4.3-6.2-1.2,2.1-4.8,7.6-9.9,8.9-11.1a50.319,50.319,0,0,0-7.2,7.8,46.325,46.325,0,0,0-4.9,8.3Z"/><path class="g" d="M971.8,565.9h.5a40.4,40.4,0,0,0-1.1-8.5A39.592,39.592,0,0,1,971.8,565.9Z"/><path class="h" d="M948.1,565.9a45.5,45.5,0,0,1,1.7-13.1,15.717,15.717,0,0,0-.9,2.3,43.805,43.805,0,0,0-1.6,10.8Z"/><path class="i" d="M972.3,565.9a40.4,40.4,0,0,0-1.1-8.5h0c-.4-1.5-.9-3.1-1.4-4.5a14.476,14.476,0,0,0-2-3.4,10.456,10.456,0,0,0-8.2-3.7c-3.5,0-6.5,2-8.6,5.2a11.778,11.778,0,0,0-1.1,1.9,15.717,15.717,0,0,0-.9,2.3,43.805,43.805,0,0,0-1.6,10.8h24.9Z"/><path class="j" d="M970.1,565.9c-1.4-3.9-4.5-7.2-9.3-7.7a11.362,11.362,0,0,0-11.7,7.7Z"/><path class="k" d="M970,565.9a10.979,10.979,0,0,0-9.1-7.1,11.566,11.566,0,0,0-11.5,7.1Z"/><path class="l" d="M967.7,549.3c-1.4,2.2-9.1,3.5-13.5,3-3.9-.4-3.3-1.4-3.3-1.5h0c2.1-3.1,5.1-5.2,8.6-5.2A10.96,10.96,0,0,1,967.7,549.3Z"/><path class="m" d="M951.2,565.9h18.1a9.465,9.465,0,0,0-8.6-6.2c-8-.5-10.3,5.2-10,5.7C950.8,565.6,951,565.7,951.2,565.9Z"/><path class="n" d="M969.1,519.4a12.287,12.287,0,0,1,5.4-2.5s.9.4,2,3.8c1.1,3.3-.9,9.8-.9,9.8Z"/><path class="o" d="M974.5,516.9a10.662,10.662,0,0,0-2.4,6.8l.9.6,2.7-5.6C975.8,518.6,974.9,516.8,974.5,516.9Z"/><path class="p" d="M973,524a8.183,8.183,0,0,1,1.7-6.2s2.7,1.3,3.8,5.9a7.988,7.988,0,0,1-1.8,7.4Z"/><path class="q" d="M971.6,517.9c-.5.2-.4.7.5.6s1.4-.9,1.3-1A5.874,5.874,0,0,0,971.6,517.9Z"/><path class="r" d="M948.6,519.9a12.287,12.287,0,0,0-5.4-2.5s-.9.4-2,3.8c-1.1,3.3.9,9.8.9,9.8Z"/><path class="s" d="M944.8,524.5a8.183,8.183,0,0,0-1.7-6.2s-2.7,1.3-3.8,5.9a8.354,8.354,0,0,0,2.1,7.7Z"/><path class="q" d="M946.1,518.5c.5.2.4.7-.5.6s-1.4-.9-1.3-1C944.4,517.9,945.6,518.2,946.1,518.5Z"/><path class="t" d="M941.8,542.5c3.8,8.6,31.8,5.9,35.1-1.1,3.7-7.8-4.8-26.9-18.2-26C947.3,516,937,531.4,941.8,542.5Z"/><path class="u" d="M943.3,540.4c3.6,7.1,28.1,5.9,31.6-.6,3-5.5-4.1-22.4-16.4-21.8C946.3,518.6,939.9,533.6,943.3,540.4Z"/><path class="v" d="M947.6,525.1c-.3,1.7,2.9,1.5,8,1.3,6.1-.2,12.3,5.1,15.9,1.3.6-.6-5.3-8.8-12.4-8.7C952,519.2,947.9,523.6,947.6,525.1Z"/><path class="w" d="M950.8,542.7c-.3,1.2,2.2,2.5,8.5,2.1,7.6-.4,9.2-2,8.8-2.4-.2-.3-2.5,1.2-8.8-.2C955.3,541.3,951.1,541.4,950.8,542.7Z"/><path class="x" d="M944,538.9a15.452,15.452,0,0,1,0-4.1c.3-2.4.9-3.9,1.3-3.7s.3,2.5.5,4.8c.2,1.8.5,3.5.5,3.5A1.3,1.3,0,0,1,944,538.9Z"/><path class="y" d="M976.9,519.9a2.181,2.181,0,0,0-2-.8c-1.2.3-1.3,4-.5,4.1.7.1,1-2,1.5-2.4a2.211,2.211,0,0,1,1.5-.2Z"/><path class="z" d="M940.3,521.5a1.9,1.9,0,0,1,1.5-.4c1,.1,1.6,2.3,2.1,2,.5-.2.2-3.6-1.3-4.6C942.7,518.6,940.9,520.1,940.3,521.5Z"/><path class="ad" d="M963.7,533.7c.6,1.4,6.2,1.5,7.1-.6.8-1.9-1.7-7-5-6.6C963.3,526.9,962.6,531.4,963.7,533.7Z"/><path class="ae" d="M954.2,533.7c-.6,1.4-6.2,1.5-7.1-.6-.8-1.9,1.6-6.8,5-6.6C954.7,526.7,955.3,531.4,954.2,533.7Z"/><path class="ac" d="M961.2,536.6s-1.9,1.8-3.3,1.7-.4-1.9-.4-1.9A7.875,7.875,0,0,1,961.2,536.6Z"/></g><g transform="translate(-6.3 2281.631)"><path class="a" d="M943,565.9c1.4-2,3-4.4,4.3-6.5a31.928,31.928,0,0,0,3.5-9.4c.4-1.8.5-3.1.2-3.3s-2,.9-4.3,2.9h0l-.1.1h0a50.319,50.319,0,0,0-7.2,7.8,46.325,46.325,0,0,0-4.9,8.3H943Z"/><path class="b" d="M971.6,558.9c1.4,2.3,3.2,4.9,4.6,7h8.6a42.838,42.838,0,0,0-5.1-8.8,55.754,55.754,0,0,0-7.2-7.8h0l-.1-.1h0c-2.3-2-4-3.1-4.3-2.9-.2.2-.1,1.5.2,3.3A26.771,26.771,0,0,0,971.6,558.9Z"/><path class="c" d="M951.1,546.7a21.191,21.191,0,0,0-2.7,10.7S952.3,550.4,951.1,546.7Z"/><path class="d" d="M967.9,546.2a21.191,21.191,0,0,1,2.7,10.7S966.7,549.9,967.9,546.2Z"/><path class="e" d="M976.3,565.9h8.6a42.838,42.838,0,0,0-5.1-8.8,55.754,55.754,0,0,0-7.2-7.8c1.3,1.2,6.8,6.3,8.9,11.1,2.4,5.5-3.4,4.3-6.2,1.2-2.9-3.1-7-12.2-7-12.2l-.1.1a27.162,27.162,0,0,0,3.5,9.4C973.1,561.2,974.8,563.8,976.3,565.9Z"/><path class="f" d="M943,565.9c1.4-2,3-4.4,4.3-6.5a31.928,31.928,0,0,0,3.5-9.4l-.1-.1s-4.1,9-7,12.2c-2.9,3.1-8.6,4.3-6.2-1.2,2.1-4.8,7.6-9.9,8.9-11.1a50.319,50.319,0,0,0-7.2,7.8,46.325,46.325,0,0,0-4.9,8.3Z"/><path class="g" d="M971.8,565.9h.5a40.4,40.4,0,0,0-1.1-8.5A39.592,39.592,0,0,1,971.8,565.9Z"/><path class="h" d="M948.1,565.9a45.5,45.5,0,0,1,1.7-13.1,15.717,15.717,0,0,0-.9,2.3,43.805,43.805,0,0,0-1.6,10.8Z"/><path class="i" d="M972.3,565.9a40.4,40.4,0,0,0-1.1-8.5h0c-.4-1.5-.9-3.1-1.4-4.5a14.476,14.476,0,0,0-2-3.4,10.456,10.456,0,0,0-8.2-3.7c-3.5,0-6.5,2-8.6,5.2a11.778,11.778,0,0,0-1.1,1.9,15.717,15.717,0,0,0-.9,2.3,43.805,43.805,0,0,0-1.6,10.8h24.9Z"/><path class="j" d="M970.1,565.9c-1.4-3.9-4.5-7.2-9.3-7.7a11.362,11.362,0,0,0-11.7,7.7Z"/><path class="k" d="M970,565.9a10.979,10.979,0,0,0-9.1-7.1,11.566,11.566,0,0,0-11.5,7.1Z"/><path class="l" d="M967.7,549.3c-1.4,2.2-9.1,3.5-13.5,3-3.9-.4-3.3-1.4-3.3-1.5h0c2.1-3.1,5.1-5.2,8.6-5.2A10.96,10.96,0,0,1,967.7,549.3Z"/><path class="m" d="M951.2,565.9h18.1a9.465,9.465,0,0,0-8.6-6.2c-8-.5-10.3,5.2-10,5.7C950.8,565.6,951,565.7,951.2,565.9Z"/><path class="n" d="M969.1,519.4a12.287,12.287,0,0,1,5.4-2.5s.9.4,2,3.8c1.1,3.3-.9,9.8-.9,9.8Z"/><path class="o" d="M974.5,516.9a10.662,10.662,0,0,0-2.4,6.8l.9.6,2.7-5.6C975.8,518.6,974.9,516.8,974.5,516.9Z"/><path class="p" d="M973,524a8.183,8.183,0,0,1,1.7-6.2s2.7,1.3,3.8,5.9a7.988,7.988,0,0,1-1.8,7.4Z"/><path class="q" d="M971.6,517.9c-.5.2-.4.7.5.6s1.4-.9,1.3-1A5.874,5.874,0,0,0,971.6,517.9Z"/><path class="r" d="M948.6,519.9a12.287,12.287,0,0,0-5.4-2.5s-.9.4-2,3.8c-1.1,3.3.9,9.8.9,9.8Z"/><path class="s" d="M944.8,524.5a8.183,8.183,0,0,0-1.7-6.2s-2.7,1.3-3.8,5.9a8.354,8.354,0,0,0,2.1,7.7Z"/><path class="q" d="M946.1,518.5c.5.2.4.7-.5.6s-1.4-.9-1.3-1C944.4,517.9,945.6,518.2,946.1,518.5Z"/><path class="t" d="M941.8,542.5c3.8,8.6,31.8,5.9,35.1-1.1,3.7-7.8-4.8-26.9-18.2-26C947.3,516,937,531.4,941.8,542.5Z"/><path class="u" d="M943.3,540.4c3.6,7.1,28.1,5.9,31.6-.6,3-5.5-4.1-22.4-16.4-21.8C946.3,518.6,939.9,533.6,943.3,540.4Z"/><path class="v" d="M947.6,525.1c-.3,1.7,2.9,1.5,8,1.3,6.1-.2,12.3,5.1,15.9,1.3.6-.6-5.3-8.8-12.4-8.7C952,519.2,947.9,523.6,947.6,525.1Z"/><path class="w" d="M950.8,542.7c-.3,1.2,2.2,2.5,8.5,2.1,7.6-.4,9.2-2,8.8-2.4-.2-.3-2.5,1.2-8.8-.2C955.3,541.3,951.1,541.4,950.8,542.7Z"/><path class="x" d="M944,538.9a15.452,15.452,0,0,1,0-4.1c.3-2.4.9-3.9,1.3-3.7s.3,2.5.5,4.8c.2,1.8.5,3.5.5,3.5A1.3,1.3,0,0,1,944,538.9Z"/><path class="y" d="M976.9,519.9a2.181,2.181,0,0,0-2-.8c-1.2.3-1.3,4-.5,4.1.7.1,1-2,1.5-2.4a2.211,2.211,0,0,1,1.5-.2Z"/><path class="z" d="M940.3,521.5a1.9,1.9,0,0,1,1.5-.4c1,.1,1.6,2.3,2.1,2,.5-.2.2-3.6-1.3-4.6C942.7,518.6,940.9,520.1,940.3,521.5Z"/><path class="af" d="M963.7,533.7c.6,1.4,6.2,1.5,7.1-.6.8-1.9-1.7-7-5-6.6C963.3,526.9,962.6,531.4,963.7,533.7Z"/><path class="ag" d="M954.2,533.7c-.6,1.4-6.2,1.5-7.1-.6-.8-1.9,1.6-6.8,5-6.6C954.7,526.7,955.3,531.4,954.2,533.7Z"/><path class="ac" d="M961.2,536.6s-1.9,1.8-3.3,1.7-.4-1.9-.4-1.9A7.875,7.875,0,0,1,961.2,536.6Z"/></g></g></svg>