<svg xmlns="http://www.w3.org/2000/svg" xmlns:xlink="http://www.w3.org/1999/xlink" width="178.485" height="224.897" viewBox="0 0 178.485 224.897">
  <defs>
    <style>
      /* Animation styles*/
    ellipse#Ellipse_81 {
	transition: all 100ms linear;
}

g#ranka {
  transition: all 100ms linear;
  transform-box: fill-box;
}

g#Group_656 {
	transition: all 100ms linear;
}

g#Component_13_6:hover ellipse#Ellipse_81 {
	transition: all 100ms linear;
	ry: 7.6px;
	rx: 28.8px;
}

g#Component_13_6:hover g#Group_656 {
	transition: all 100ms linear;
	transform: translate(-525px, -310px)
}

g#Component_13_6:hover g#ranka {
  transition: all 100ms linear;
 transform: translate(-3px,-14px) rotate(15deg);
 transform-box: fill-box;
    transform-origin: center;
}

      .cls-1 {
        fill: #1a75fa;
      }

      .cls-2 {
        fill: url(#linear-gradient);
      }

      .cls-3 {
        fill: url(#linear-gradient-2);
      }

      .cls-4 {
        fill: url(#linear-gradient-3);
      }

      .cls-5 {
        fill: url(#linear-gradient-4);
      }

      .cls-36, .cls-42, .cls-43, .cls-46, .cls-6, .cls-7, .cls-9 {
        opacity: 0.3;
      }

      .cls-6 {
        fill: url(#linear-gradient-5);
      }

      .cls-7 {
        fill: url(#linear-gradient-6);
      }

      .cls-8 {
        fill: url(#linear-gradient-7);
      }

      .cls-9 {
        fill: url(#linear-gradient-8);
      }

      .cls-10 {
        fill: url(#linear-gradient-9);
      }

      .cls-11 {
        fill: url(#radial-gradient);
      }

      .cls-12, .cls-25, .cls-26, .cls-29, .cls-39, .cls-49, .cls-51, .cls-52, .cls-54 {
        opacity: 0.5;
      }

      .cls-12 {
        fill: url(#linear-gradient-10);
      }

      .cls-13 {
        fill: #fff;
      }

      .cls-14, .cls-15, .cls-28, .cls-30 {
        opacity: 0.72;
      }

      .cls-14 {
        fill: url(#linear-gradient-11);
      }

      .cls-15 {
        fill: url(#linear-gradient-12);
      }

      .cls-16 {
        fill: url(#linear-gradient-13);
      }

      .cls-17 {
        fill: url(#linear-gradient-14);
      }

      .cls-18 {
        fill: url(#linear-gradient-15);
      }

      .cls-19 {
        fill: url(#linear-gradient-16);
      }

      .cls-20 {
        fill: url(#linear-gradient-17);
      }

      .cls-21 {
        fill: url(#linear-gradient-18);
      }

      .cls-22 {
        fill: url(#radial-gradient-2);
      }

      .cls-23 {
        fill: url(#linear-gradient-19);
      }

      .cls-24 {
        fill: url(#linear-gradient-20);
      }

      .cls-25 {
        fill: url(#linear-gradient-21);
      }

      .cls-26 {
        fill: url(#linear-gradient-22);
      }

      .cls-27 {
        opacity: 0.2;
        fill: url(#linear-gradient-23);
      }

      .cls-28 {
        fill: url(#linear-gradient-24);
      }

      .cls-29 {
        fill: url(#linear-gradient-25);
      }

      .cls-30 {
        fill: url(#linear-gradient-26);
      }

      .cls-31 {
        fill: #22e0ff;
      }

      .cls-32 {
        fill: #2f95cd;
      }

      .cls-33 {
        fill: url(#linear-gradient-28);
      }

      .cls-34 {
        fill: url(#linear-gradient-29);
      }

      .cls-35 {
        fill: url(#linear-gradient-30);
      }

      .cls-36 {
        fill: url(#linear-gradient-31);
      }

      .cls-37 {
        fill: url(#linear-gradient-32);
      }

      .cls-38 {
        fill: url(#linear-gradient-33);
      }

      .cls-39 {
        fill: url(#linear-gradient-34);
      }

      .cls-40 {
        fill: url(#linear-gradient-35);
      }

      .cls-41 {
        fill: url(#linear-gradient-36);
      }

      .cls-42 {
        fill: url(#linear-gradient-37);
      }

      .cls-43 {
        fill: url(#linear-gradient-38);
      }

      .cls-44 {
        fill: url(#linear-gradient-39);
      }

      .cls-45 {
        fill: url(#linear-gradient-40);
      }

      .cls-46 {
        fill: url(#linear-gradient-41);
      }

      .cls-47 {
        fill: url(#linear-gradient-42);
      }

      .cls-48 {
        fill: url(#linear-gradient-43);
      }

      .cls-49 {
        fill: url(#linear-gradient-44);
      }

      .cls-50 {
        fill: url(#linear-gradient-45);
      }

      .cls-51 {
        fill: url(#radial-gradient-3);
      }

      .cls-52 {
        fill: url(#linear-gradient-46);
      }

      .cls-53 {
        fill: url(#linear-gradient-47);
      }

      .cls-54 {
        fill: url(#radial-gradient-4);
      }
    </style>
    <linearGradient id="linear-gradient" x1="0.375" y1="0.964" x2="0.535" y2="0.041" gradientUnits="objectBoundingBox">
      <stop offset="0" stop-color="#cbc1f7"/>
      <stop offset="1" stop-color="#e8dcf7"/>
    </linearGradient>
    <linearGradient id="linear-gradient-2" x1="0.5" y1="1.003" x2="0.5" gradientUnits="objectBoundingBox">
      <stop offset="0" stop-color="#be9dea"/>
      <stop offset="1" stop-color="#9e8cef"/>
    </linearGradient>
    <linearGradient id="linear-gradient-3" x1="0.354" y1="1.011" x2="0.536" y2="-0.042" xlink:href="#linear-gradient"/>
    <linearGradient id="linear-gradient-4" y1="1.005" y2="0.005" xlink:href="#linear-gradient-2"/>
    <linearGradient id="linear-gradient-5" x1="0.5" y1="1.001" x2="0.5" gradientUnits="objectBoundingBox">
      <stop offset="0" stop-color="#9d68c2"/>
      <stop offset="1" stop-color="#ccedff"/>
    </linearGradient>
    <linearGradient id="linear-gradient-6" y1="0.999" y2="-0.001" xlink:href="#linear-gradient-5"/>
    <linearGradient id="linear-gradient-7" x1="0.429" y1="0.999" x2="0.603" y2="0.007" xlink:href="#linear-gradient"/>
    <linearGradient id="linear-gradient-8" x1="0.499" y1="1.001" x2="0.499" xlink:href="#linear-gradient-5"/>
    <linearGradient id="linear-gradient-9" y1="1" xlink:href="#linear-gradient-2"/>
    <radialGradient id="radial-gradient" cx="0.517" cy="0.844" r="0.763" gradientTransform="translate(0.017) scale(0.966 1)" gradientUnits="objectBoundingBox">
      <stop offset="0" stop-color="#94fdff"/>
      <stop offset="1" stop-color="#22e0ff"/>
    </radialGradient>
    <linearGradient id="linear-gradient-10" x1="0.501" y1="1.005" x2="0.501" y2="0.006" gradientUnits="objectBoundingBox">
      <stop offset="0" stop-color="#8da4e5"/>
      <stop offset="1" stop-color="#755cbb"/>
    </linearGradient>
    <linearGradient id="linear-gradient-11" x1="0.502" y1="1.005" x2="0.502" y2="0.002" gradientUnits="objectBoundingBox">
      <stop offset="0" stop-color="#fff" stop-opacity="0.969"/>
      <stop offset="1" stop-color="#fff" stop-opacity="0"/>
    </linearGradient>
    <linearGradient id="linear-gradient-12" y1="0.499" x2="0.999" y2="0.499" gradientUnits="objectBoundingBox">
      <stop offset="0" stop-color="#59eeff"/>
      <stop offset="1" stop-color="#eff4ff"/>
    </linearGradient>
    <linearGradient id="linear-gradient-13" x1="0.002" y1="0.499" x2="0.997" y2="0.499" gradientUnits="objectBoundingBox">
      <stop offset="0" stop-color="#8879ea"/>
      <stop offset="1" stop-color="#9e8cef"/>
    </linearGradient>
    <linearGradient id="linear-gradient-14" x1="0.501" y1="0.997" x2="0.501" y2="-0.002" gradientUnits="objectBoundingBox">
      <stop offset="0" stop-color="#b9acf4"/>
      <stop offset="1" stop-color="#e1d1f5"/>
    </linearGradient>
    <linearGradient id="linear-gradient-15" x1="0.503" y1="1.004" x2="0.503" y2="0.002" xlink:href="#linear-gradient-2"/>
    <linearGradient id="linear-gradient-16" x1="0.5" y1="0.999" x2="0.5" gradientUnits="objectBoundingBox">
      <stop offset="0" stop-color="#45ffcd"/>
      <stop offset="1" stop-color="#22e0ff"/>
    </linearGradient>
    <linearGradient id="linear-gradient-17" x1="42.957" y1="0.999" x2="42.957" y2="0" xlink:href="#linear-gradient-14"/>
    <linearGradient id="linear-gradient-18" x1="90.475" y1="1.002" x2="90.475" y2="-0.001" xlink:href="#linear-gradient-2"/>
    <radialGradient id="radial-gradient-2" cx="0.499" cy="0.501" r="0.383" gradientTransform="matrix(-2.361, 0, 0, 1, 196.085, 0)" xlink:href="#radial-gradient"/>
    <linearGradient id="linear-gradient-19" x1="0.46" y1="1.014" x2="0.571" y2="0.004" xlink:href="#linear-gradient"/>
    <linearGradient id="linear-gradient-20" x1="0.5" y1="1" x2="0.5" y2="-0.001" gradientUnits="objectBoundingBox">
      <stop offset="0" stop-color="#0665bd"/>
      <stop offset="1" stop-color="#1a1f77"/>
    </linearGradient>
    <linearGradient id="linear-gradient-21" y1="0.501" x2="1.001" y2="0.501" gradientUnits="objectBoundingBox">
      <stop offset="0" stop-color="#0d49a1"/>
      <stop offset="1" stop-color="#fff" stop-opacity="0"/>
    </linearGradient>
    <linearGradient id="linear-gradient-22" x1="-0.001" y1="0.494" x2="1" y2="0.494" gradientUnits="objectBoundingBox">
      <stop offset="0" stop-color="#0b52aa"/>
      <stop offset="1" stop-color="#6a9bff"/>
    </linearGradient>
    <linearGradient id="linear-gradient-23" x1="-0.821" y1="1.043" x2="-0.821" y2="0.045" xlink:href="#linear-gradient-22"/>
    <linearGradient id="linear-gradient-24" x1="-0.002" y1="0.497" x2="1" y2="0.497" xlink:href="#linear-gradient-12"/>
    <linearGradient id="linear-gradient-25" x1="0.5" y1="0.999" x2="0.5" y2="-0.002" xlink:href="#linear-gradient-10"/>
    <linearGradient id="linear-gradient-26" x1="0.002" y1="0.501" x2="1.003" y2="0.501" xlink:href="#linear-gradient-12"/>
    <linearGradient id="linear-gradient-28" x1="0.321" y1="0.982" x2="0.567" y2="0.034" xlink:href="#linear-gradient"/>
    <linearGradient id="linear-gradient-29" x1="0.385" y1="0.986" x2="0.614" y2="0.013" gradientUnits="objectBoundingBox">
      <stop offset="0" stop-color="#a83d2c"/>
      <stop offset="1" stop-color="#c51f1f"/>
    </linearGradient>
    <linearGradient id="linear-gradient-30" x1="0.444" y1="0.993" x2="0.521" y2="-0.067" xlink:href="#linear-gradient"/>
    <linearGradient id="linear-gradient-31" y1="1.001" y2="0.002" xlink:href="#linear-gradient-5"/>
    <linearGradient id="linear-gradient-32" x1="0.503" y1="1" x2="0.503" y2="-0.003" xlink:href="#linear-gradient-2"/>
    <linearGradient id="linear-gradient-33" x1="0.469" y1="0.978" x2="0.537" y2="0.014" gradientUnits="objectBoundingBox">
      <stop offset="0" stop-color="#ff2a30"/>
      <stop offset="1" stop-color="#ff7f7f"/>
    </linearGradient>
    <linearGradient id="linear-gradient-34" x1="0.5" y1="0.998" x2="0.5" y2="-0.003" xlink:href="#linear-gradient-10"/>
    <linearGradient id="linear-gradient-35" x1="0.449" y1="0.994" x2="0.566" y2="0.041" xlink:href="#linear-gradient"/>
    <linearGradient id="linear-gradient-36" x1="0.428" y1="0.955" x2="0.603" y2="0.01" xlink:href="#linear-gradient"/>
    <linearGradient id="linear-gradient-37" x1="0.493" y1="0.998" x2="0.493" y2="-0.005" xlink:href="#linear-gradient-5"/>
    <linearGradient id="linear-gradient-38" x1="0.497" y1="1.003" x2="0.497" y2="0.001" xlink:href="#linear-gradient-5"/>
    <linearGradient id="linear-gradient-39" x1="0.425" y1="1.034" x2="0.569" y2="-0.051" xlink:href="#linear-gradient"/>
    <linearGradient id="linear-gradient-40" x1="0.503" y1="1.001" x2="0.503" y2="-0.002" xlink:href="#linear-gradient-2"/>
    <linearGradient id="linear-gradient-41" x1="0.501" y1="0.998" x2="0.501" y2="-0.001" xlink:href="#linear-gradient-5"/>
    <linearGradient id="linear-gradient-42" x1="0.433" y1="1.03" x2="0.589" y2="-0.026" xlink:href="#linear-gradient"/>
    <linearGradient id="linear-gradient-43" y1="1" y2="0.001" xlink:href="#linear-gradient-2"/>
    <linearGradient id="linear-gradient-44" x1="0.494" y1="1" x2="0.494" y2="0" xlink:href="#linear-gradient-10"/>
    <linearGradient id="linear-gradient-45" x1="0.335" y1="1.006" x2="0.594" y2="-0.003" xlink:href="#linear-gradient"/>
    <radialGradient id="radial-gradient-3" cx="0.5" cy="0.5" r="0.519" gradientTransform="translate(0.011 0.017) scale(0.963 0.965)" gradientUnits="objectBoundingBox">
      <stop offset="0"/>
      <stop offset="0.229" stop-color="#010303"/>
      <stop offset="0.365" stop-color="#050b0b"/>
      <stop offset="0.477" stop-color="#0b1919"/>
      <stop offset="0.576" stop-color="#132d2d"/>
      <stop offset="0.667" stop-color="#1f4048"/>
      <stop offset="0.751" stop-color="#2c5868"/>
      <stop offset="0.83" stop-color="#3d658e"/>
      <stop offset="0.905" stop-color="#5081ba"/>
      <stop offset="0.975" stop-color="#65b1eb"/>
      <stop offset="1" stop-color="#6d8fff"/>
    </radialGradient>
    <linearGradient id="linear-gradient-46" y1="0.499" x2="0.999" y2="0.499" gradientUnits="objectBoundingBox">
      <stop offset="0" stop-color="#6a9bff"/>
      <stop offset="1"/>
    </linearGradient>
    <linearGradient id="linear-gradient-47" x1="0.385" y1="0.986" x2="0.614" y2="0.014" gradientUnits="objectBoundingBox">
      <stop offset="0" stop-color="#ff952a"/>
      <stop offset="1" stop-color="#ffa27f"/>
    </linearGradient>
    <radialGradient id="radial-gradient-4" cx="0.5" cy="0.502" r="0.457" gradientTransform="translate(0 -0.046) scale(1 1.091)" gradientUnits="objectBoundingBox">
      <stop offset="0" stop-color="#559dea"/>
      <stop offset="0.431" stop-color="#5ea9f5"/>
      <stop offset="1" stop-color="#fff" stop-opacity="0"/>
    </radialGradient>
  </defs>
  <g id="Component_13_6" data-name="Component 13 – 6" transform="translate(0 0)">
    <g id="Group_654" data-name="Group 654" transform="translate(-526.415 -294.103)">
      <path id="Path_400" data-name="Path 400" class="cls-1" d="M539.9,463.9c10.6,22.3,112.9,19,138.7,1.7S647.1,303,577.8,306.1C527.3,308.3,512.7,406.8,539.9,463.9Z"/>
      <path id="Path_401" data-name="Path 401" class="cls-1" d="M691,453.6c-4.4-.7-7.1-24-1.9-28.5s15.8,5.8,15.8,13.6S698.6,454.9,691,453.6Z"/>
      <path id="Path_402" data-name="Path 402" class="cls-1" d="M566.9,299.8c1.1,3.3-9.5,10.3-13.3,7.6-3.7-2.7-1.5-11,1.8-12.7C558.8,293,565.3,295,566.9,299.8Z"/>
    </g>
    <g id="Group_656" data-name="Group 656" transform="translate(-526.415 -294.103)">
      <path id="Path_403" data-name="Path 403" class="cls-2" d="M609.7,473.1h0c0,.8-.2,16.1-3.3,22.3-.8,1.6-1.8,2.6-3,2.6-4.3-.2-14.2-18.5-18.1-28.9a23.644,23.644,0,0,1-1.6-5.6c-.1-.9,0-1.4.5-1.4a24.364,24.364,0,0,1,2.7.1h.4c10.8,1.4,21.2,10,22.4,10.9Z"/>
      <path id="Path_404" data-name="Path 404" class="cls-3" d="M609.7,473.1c-14.4,1.3-23.9-6.4-26-9.6-.5-.8-.6-1.4,0-1.4a17.387,17.387,0,0,1,3.2.1h.4c9.5,1.5,21.1,10,22.4,10.9Z"/>
      <path id="Path_405" data-name="Path 405" class="cls-4" d="M635.7,463.5a26.2,26.2,0,0,1-1.9,6.5c-4.1,10.5-13.5,27.8-17.8,28a3.07,3.07,0,0,1-2.6-1.8c-3.5-5.7-3.7-23-3.7-23l.1-.1c1.1-.9,11.6-9.5,22.4-10.8h.3a24.364,24.364,0,0,1,2.7-.1C635.6,462.1,635.8,462.6,635.7,463.5Z"/>
      <path id="Path_406" data-name="Path 406" class="cls-5" d="M635.7,463.5c-2,3.3-11.6,10.9-26,9.6l.1-.1c1.2-.9,12.8-9.4,22.4-10.8h.3a11.562,11.562,0,0,1,3.2-.1C636.2,462.2,636.2,462.7,635.7,463.5Z"/>
      <path id="Path_407" data-name="Path 407" class="cls-6" d="M609.7,473.1h0c0,.8-.2,16.1-3.3,22.3,0,0-.9-16.2-5.2-19.8-4.3-3.7-15.9-6.5-15.9-6.5a23.642,23.642,0,0,1-1.6-5.6c-.5-.8-.6-1.4,0-1.4a17.387,17.387,0,0,1,3.2.1h.4c10.8,1.4,21.2,10,22.4,10.9Z"/>
      <path id="Path_408" data-name="Path 408" class="cls-7" d="M635.7,463.5a26.2,26.2,0,0,1-1.9,6.5c-2,.4-12.8,2.9-16.6,9.5-3.2,5.5-3.7,13.2-3.8,16.7-3.5-5.7-3.7-23-3.7-23l.1-.1c1.1-.9,11.6-9.5,22.4-10.8h.3a11.562,11.562,0,0,1,3.2-.1C636.2,462.2,636.2,462.7,635.7,463.5Z"/>
      <g id="Group_655" data-name="Group 655">
        <path id="Path_416" data-name="Path 416" class="cls-8" d="M636.2,453.9c-1.9,11.2-12,18.7-26.4,18.7-12.6,0-23.2-4.7-26-15s-1.7-29.4,2-41.2a38.617,38.617,0,0,1,2-5.1h0a28.632,28.632,0,0,1,2.4-4.2h0c4.6-6.9,11.3-11.4,18.9-11.4a22.973,22.973,0,0,1,18.1,8.1,27.211,27.211,0,0,1,4.5,7.5,76.172,76.172,0,0,1,3.1,9.9v.1C637.3,432.1,637.9,443.9,636.2,453.9Z"/>
        <path id="Path_417" data-name="Path 417" class="cls-9" d="M636.2,453.9c-1.9,11.2-12,18.7-26.4,18.7-12.6,0-23.2-4.7-26-15s-1.7-29.4,2-41.2a38.617,38.617,0,0,1,2-5.1h0s-7.6,25.2-1.5,41.3,34.4,15.7,44,5c9.1-10.1,4.9-34,4.5-36.3C637.3,432.1,637.9,443.9,636.2,453.9Z"/>
        <path id="Path_418" data-name="Path 418" class="cls-10" d="M584.3,447.2c2.1-15.1,14.3-25.3,27.7-24,14.5,1.4,22.3,15.2,22.1,27.1s-8.9,21.1-24.4,21.1C594.1,471.4,582.3,461.3,584.3,447.2Z"/>
        <path id="Path_419" data-name="Path 419" class="cls-11" d="M584.4,448.5c2.1-15.1,14.3-25.3,27.7-24,14.5,1.4,22.3,15.2,22.1,27.1s-8.9,21.1-24.4,21.1C594.2,472.6,582.4,462.6,584.4,448.5Z"/>
        <path id="Path_420" data-name="Path 420" class="cls-12" d="M627.1,403.7c-3.1,4.8-20,7.6-29.8,6.7-8.5-.8-7.2-3.1-7.2-3.4h0c4.6-6.9,11.3-11.4,18.9-11.4C617,395.7,623,398.9,627.1,403.7Z"/>
        <path id="Path_421" data-name="Path 421" class="cls-13" d="M621.1,412.1c-.8.3-.8,6.6,0,7.6s2.1.7,2.6-.8C624.1,417.4,622.3,411.7,621.1,412.1Z"/>
        <path id="Path_422" data-name="Path 422" class="cls-13" d="M622.6,421.4c-.7.2-.7,1.7-.4,2.3s1.4.4,1.6-.2C624,422.8,623.2,421.3,622.6,421.4Z"/>
        <path id="Path_423" data-name="Path 423" class="cls-14" d="M592.9,463.8s3.5,6,16.4,6.1,18.2-7.7,18.2-7.7a18.981,18.981,0,0,1-14.5,1.6C604.5,461.5,596.1,460.2,592.9,463.8Z"/>
        <path id="Path_424" data-name="Path 424" class="cls-15" d="M589.6,438.9c2.6,4.1,13.1,1.9,24.9,3.1s13.9,5,16.4,4.2-1.4-18.6-19.2-19.8C594,425.2,588.9,437.9,589.6,438.9Z"/>
      </g>
      <path id="Path_425" data-name="Path 425" class="cls-16" d="M628.1,404.9a5.932,5.932,0,0,0-2.1-1.7s3.3,16.4,9.8,23.1C635.8,426.3,632.9,410.8,628.1,404.9Z"/>
      <path id="Path_426" data-name="Path 426" class="cls-17" d="M635.2,327.7s6.3-5.4,13.9-6.3c0,0,2.3,1.1,5.1,9.6,2.7,8.4-2.3,25.1-2.3,25.1Z"/>
      <path id="Path_427" data-name="Path 427" class="cls-18" d="M649.1,321.3a26.86,26.86,0,0,0-6.2,17.3l2.4,1.5,7-14.4S650,321.2,649.1,321.3Z"/>
      <path id="Path_428" data-name="Path 428" class="cls-19" d="M645.1,339.5s-1.6-9.1,4.4-15.9c0,0,6.8,3.2,9.6,15.1s-4.5,19-4.5,19Z"/>
      <path id="Path_429" data-name="Path 429" class="cls-13" d="M641.6,324c-1.2.6-1.1,1.9,1.3,1.6s3.7-2.2,3.4-2.6C646.1,322.6,642.9,323.3,641.6,324Z"/>
      <path id="Path_430" data-name="Path 430" class="cls-20" d="M582.8,329s-6.3-5.4-13.9-6.3c0,0-2.3,1.1-5.1,9.6-2.7,8.4,2.3,25.1,2.3,25.1Z"/>
      <path id="Path_431" data-name="Path 431" class="cls-21" d="M568.8,322.7A26.86,26.86,0,0,1,575,340l-2.4,1.5-7-14.4C565.7,327.1,568,322.6,568.8,322.7Z"/>
      <path id="Path_432" data-name="Path 432" class="cls-22" d="M572.9,340.8s1.6-9.1-4.4-15.9c0,0-6.8,3.2-9.6,15.1a21.918,21.918,0,0,0,5.3,19.8Z"/>
      <path id="Path_433" data-name="Path 433" class="cls-13" d="M576.4,325.3c1.2.6,1.1,1.9-1.3,1.6s-3.7-2.2-3.4-2.6C571.9,324,575.1,324.6,576.4,325.3Z"/>
      <path id="Path_434" data-name="Path 434" class="cls-23" d="M565.2,386.8c9.6,22.1,81.3,15.2,89.9-2.9,9.4-19.9-12.2-68.9-46.5-66.6C579.5,319.2,552.9,358.4,565.2,386.8Z"/>
      <path id="Path_435" data-name="Path 435" class="cls-24" d="M569.1,383.7c9.2,18.1,71.8,15.1,80.9-1.5,7.8-14.2-10.6-57.2-42-55.7S560.3,366.3,569.1,383.7Z"/>
      <path id="Path_436" data-name="Path 436" class="cls-13" d="M618.6,321.3c-.7.8,7,4.1,8,3.6C627.6,324.5,620.8,318.7,618.6,321.3Z"/>
      <path id="Path_437" data-name="Path 437" class="cls-25" d="M580.2,344.6c-.7,4.3,7.5,3.8,20.5,3.4,15.7-.5,31.5,13,40.7,3.3,1.5-1.6-13.5-22.6-31.7-22.2C591.6,329.6,580.8,340.9,580.2,344.6Z"/>
      <path id="Path_438" data-name="Path 438" class="cls-26" d="M588.3,389.7c-.8,3.1,5.7,6.3,21.8,5.5,19.5-1,23.6-5,22.6-6.2-.6-.7-6.4,3-22.4-.5C599.8,386.2,589.2,386.4,588.3,389.7Z"/>
      <path id="Path_439" data-name="Path 439" class="cls-27" d="M570.9,379.9a41.238,41.238,0,0,1,.1-10.6c.8-6.1,2.4-10,3.4-9.5,1,.6.8,6.5,1.4,12.4a85.513,85.513,0,0,0,1.3,8.9S572.9,385.1,570.9,379.9Z"/>
      <path id="Path_440" data-name="Path 440" class="cls-28" d="M655,329s-2.2-2.7-5.2-2-3.2,10.2-1.4,10.4,2.6-5.2,3.9-6.1a6.459,6.459,0,0,1,3.8-.5Z"/>
      <path id="Path_441" data-name="Path 441" class="cls-29" d="M627.6,398.4S617.3,388,614,377.7l25.7,16.9S631,397.6,627.6,398.4Z"/>
      <path id="Path_442" data-name="Path 442" class="cls-30" d="M561.4,333a4.3,4.3,0,0,1,3.8-.9c2.6.4,4.1,5.8,5.4,5.2,1.3-.5.4-9.2-3.2-11.7C567.5,325.6,562.9,329.5,561.4,333Z"/>
      <path id="Path_443" data-name="Path 443" class="cls-31" d="M580.8,357.7a43.367,43.367,0,0,1,16.4,1.2c1.2.4-2.5-4-8.2-4.8S580.4,355.7,580.8,357.7Z"/>
      <path id="Path_444" data-name="Path 444" class="cls-32" d="M600.7,375.3c1.4-4.3,6.8-4.1,7.9-.3,1.2,4.1-3.6,8.8-5.7,8.1C600.7,382.4,599.6,378.5,600.7,375.3Z"/>
      <path id="Path_445" data-name="Path 445" class="cls-24" d="M614.9,370c-5.1-14.1,8.3-32.1,28.8-34.4,0,0,19.4,12.5,14.9,47.1C658.6,382.6,628,406.4,614.9,370Z"/>
      <path id="Path_446" data-name="Path 446" class="cls-33" d="M643.7,335.5s6.9.1,15.1,6.8,12,26.7-.1,40.2C658.6,382.6,664,354.8,643.7,335.5Z"/>
      <path id="Path_447" data-name="Path 447" class="cls-31" d="M626.7,365.4c.6,6.4,19.7,5.8,22.8,0,2.5-4.7-4.7-19.9-12.3-18.8C629.5,347.6,625.9,356.3,626.7,365.4Z"/>
      <path id="Path_448" data-name="Path 448" class="cls-34" d="M640.9,335.8a29.6,29.6,0,1,0,29.6,29.6A29.6,29.6,0,0,0,640.9,335.8Zm0,54.2a24.582,24.582,0,1,1,17.4-7.2,24.6,24.6,0,0,1-17.4,7.2Z"/>
      <path id="Path_450" data-name="Path 450" class="cls-35" d="M673.8,409.2s-6.4,12.1-14.5,16.1-20.5-.8-24.5-4c-5.5-4.4-7.5-19.4-5.2-19.4,2.1,0,4.1,1.6,10.8,2.4h0c1.8.2,3.9.4,6.5.5a45.6,45.6,0,0,0,15.3-2.5c2.6-.9,4.3-1.7,4.3-1.7C671.2,400.6,673.8,409.2,673.8,409.2Z"/>
      <path id="Path_456" data-name="Path 456" class="cls-36" d="M673.8,409.2s-6.4,12.1-14.5,16.1-20.5-.8-24.5-4c-5.5-4.4-7.5-19.4-5.2-19.4,2.1,0,4.1,1.6,10.8,2.4-.4,0-6.1-.4-7.1,1.2-1,1.7,10.4,18.3,21.7,13.7,11.4-4.6,9-16.9,7.1-16.9h0c2.6-.9,4.3-1.7,4.3-1.7C671.2,400.6,673.8,409.2,673.8,409.2Z"/>
      <path id="Path_451" data-name="Path 451" class="cls-37" d="M665.5,401.2s-.6,8.9,2.8,10.1,5.5-2.1,5.5-2.1l1.7-3.6Z"/>
      <path id="Path_452" data-name="Path 452" class="cls-38" d="M655,390.4s12.2,13.4,20.5,18.8c0,0,5.2-.6,6.2-5.7l-17.8-20.6Z"/>
      <path id="Path_453" data-name="Path 453" class="cls-39" d="M676.8,397.7s-11.4-8.7-13.5-9.4a17.375,17.375,0,0,0-2.4,4.6c-.7,2.5,12.3,14.7,12.3,14.7s-12.1-9.8-17.6-16.5c0,0,6.1-4.3,8.9-7.4Z"/>
      <path id="Path_454" data-name="Path 454" class="cls-40" d="M662,397.8c-.2.7-5.1,2.1-6.5-.5-.1-.3-.3-.5-.3-.8a3.744,3.744,0,0,1,1.3-4.6h0l.1.1C657.3,392.6,662.1,397.1,662,397.8Z"/>
      <path id="Path_455" data-name="Path 455" class="cls-41" d="M676.8,397.7l-2.4-2.8s-8.2-4.1-9.8-11.3h0s1.9-3.9,5.9-4c1.6,0,3.1,2.1,4.2,4.9h0C676.3,388.9,677.3,394.9,676.8,397.7Z"/>
      <path id="Path_457" data-name="Path 457" class="cls-42" d="M662,397.8c-.2.7-5.1,2.1-6.5-.5-.1-.3-.3-.5-.3-.8,1.1,1.4,2.8,1.1,3.3-.4s-1.4-3.6-1.8-4.1C657.3,392.6,662.1,397.1,662,397.8Z"/>
      <path id="Path_458" data-name="Path 458" class="cls-43" d="M676.8,397.7l-2.4-2.8s-8.2-4.1-9.8-11.3c.2.4,4.1,6.5,8.3,7.1,3.1.4,1.9-5.7,1.8-6.2h0C676.3,388.9,677.3,394.9,676.8,397.7Z"/>
      <g id="ranka">
        <path id="Path_409" data-name="Path 409" class="cls-44" d="M589.3,417a54.736,54.736,0,0,1-1.9,10s-1,1.4-2.8,3.6a70.291,70.291,0,0,1-31.5,20.5c-.4.1-.8.3-1.2.4-2.6.8-7.4-7.1-4.9-13.8a8.18,8.18,0,0,1,.9-1.9,37.016,37.016,0,0,1,5.8-6.5c7.1-6.7,18.8-15.5,29.1-20.7h0a64.527,64.527,0,0,1,6.8-3,67.046,67.046,0,0,1-.3,11.4Z"/>
        <path id="Path_410" data-name="Path 410" class="cls-45" d="M553.1,451a9.011,9.011,0,0,1-1,.9c-3.9,2.9-9.6,1.2-6.5-10.9a10.5,10.5,0,0,1,1.3-3.4,5.515,5.515,0,0,1,4.3-2.9C556.6,434.2,557.2,446.3,553.1,451Z"/>
        <path id="Path_411" data-name="Path 411" class="cls-46" d="M589.3,417l-4.8,13.6A70.29,70.29,0,0,1,553,451.1a9.01,9.01,0,0,1-1,.9c-3.9,2.9-9.6,1.2-6.5-10.9a10.5,10.5,0,0,1,1.3-3.4,8.18,8.18,0,0,1,.9-1.9,37.021,37.021,0,0,1,5.8-6.5c-.2.4-1.6,3.1,1.4,4.2,3.2,1.1,19.8-2.8,27.2-10.7,7.3-7.8,7.1-15.2.6-14.2a64.52,64.52,0,0,1,6.8-3,51.765,51.765,0,0,1-.2,11.4Z"/>
        <path id="Path_412" data-name="Path 412" class="cls-47" d="M550.2,439.5c-4.1-.7-16.6,8.3-20.6,26.6,0,0,.3,1.5,4,1.6S543.7,461,548,457,557.1,440.8,550.2,439.5Z"/>
        <path id="Path_413" data-name="Path 413" class="cls-48" d="M533.6,467.7s6.5-9.7,7.8-12.1c0,0,2.5-12,6.3-14.4,3.8-2.3,5.1.3,6,3.3C554.5,447.5,548.2,465.6,533.6,467.7Z"/>
        <path id="Path_414" data-name="Path 414" class="cls-49" d="M541.1,457.6s1.6,3.6,3.5,4.1c0,0-1.7-11.6,1.3-17.8A34.885,34.885,0,0,0,541.1,457.6Z"/>
        <path id="Path_415" data-name="Path 415" class="cls-50" d="M547.5,442s4-2.8,6.2,2.5a48,48,0,0,1-5.6,17.5s-2.5.7-3.5-.3C542.5,459.4,543.1,445.1,547.5,442Z"/>
        <path id="Path_459" data-name="Path 459" class="cls-13" d="M545.9,448.5a8.092,8.092,0,0,0-1.1,5.1,8.094,8.094,0,0,0,1.1-5.1Z"/>
        <path id="Path_460" data-name="Path 460" class="cls-13" d="M534.9,461.6a6.561,6.561,0,0,1,2.3-3.9C537.2,457.6,536.3,461,534.9,461.6Z"/>
        <path id="Path_461" data-name="Path 461" class="cls-13" d="M559.8,426.8c-.3-.5,5.7-6.3,7.5-6.5,1.7-.2-.6.6-2,2.8C563.7,425.2,560.3,427.8,559.8,426.8Z"/>
        <path id="Path_462" data-name="Path 462" class="cls-13" d="M568.9,419.1c-.6-.7,2.7-2,2.7-2S569.5,419.8,568.9,419.1Z"/>
      </g>
      <path id="Path_463" data-name="Path 463" class="cls-13" d="M640.9,408.5c-.2,1.4,6.8,1.4,6.7,0S641.1,407.1,640.9,408.5Z"/>
      <path id="Path_464" data-name="Path 464" class="cls-13" d="M594.5,480.1c-.9.4.8,5.2,2.1,5.1S595.6,479.6,594.5,480.1Z"/>
      <ellipse id="Ellipse_48" data-name="Ellipse 48" class="cls-51" cx="24.6" cy="23.7" rx="24.6" ry="23.7" transform="translate(616.3 340.5)"/>
      <path id="Path_465" data-name="Path 465" class="cls-52" d="M619.1,358.4c.2,4.4,7.3,5.9,21.1-.9,11-5.4,21.5.8,22.5-.9.9-1.7-10.6-15.6-23.1-14.1C627.1,344.1,618.9,354.5,619.1,358.4Z"/>
      <path id="Path_449" data-name="Path 449" class="cls-53" d="M640.9,333.7a29.6,29.6,0,1,0,29.6,29.6,29.6,29.6,0,0,0-29.6-29.6Zm0,54.2a24.582,24.582,0,1,1,17.4-7.2,24.6,24.6,0,0,1-17.4,7.2Z"/>
    </g>
    <ellipse id="Ellipse_81" data-name="Ellipse 81" class="cls-54" cx="40.8" cy="9.1" rx="40.8" ry="9.1" transform="translate(44 206.697)"/>
  </g>
</svg>
