<?xml version="1.0" encoding="UTF-8" standalone="no"?>
<svg xmlns:dc="http://purl.org/dc/elements/1.1/" xmlns:cc="http://creativecommons.org/ns#" xmlns:rdf="http://www.w3.org/1999/02/22-rdf-syntax-ns#" xmlns:svg="http://www.w3.org/2000/svg" xmlns="http://www.w3.org/2000/svg" xmlns:xlink="http://www.w3.org/1999/xlink" xmlns:sodipodi="http://sodipodi.sourceforge.net/DTD/sodipodi-0.dtd" xmlns:inkscape="http://www.inkscape.org/namespaces/inkscape" width="178.48518" height="223.86833" viewBox="0 0 178.48518 223.86833" version="1.1" id="svg225" sodipodi:docname="robo-3.svg" inkscape:version="1.0.1 (3bc2e813f5, 2020-09-07)">
	<metadata id="metadata229">
		<RDF>
			<Work rdf:about="">
				<format>
					image/svg+xml
				</format>
				<type rdf:resource="http://purl.org/dc/dcmitype/StillImage" />
				<title>
				</title>
			</Work>
		</RDF>
	</metadata>
	<namedview pagecolor="#ffffff" bordercolor="#666666" borderopacity="1" objecttolerance="10" gridtolerance="10" guidetolerance="10" inkscape:pageopacity="0" inkscape:pageshadow="2" inkscape:window-width="2560" inkscape:window-height="1361" id="namedview227" showgrid="false" fit-margin-top="0" fit-margin-left="0" fit-margin-right="0" fit-margin-bottom="0" inkscape:zoom="1.1205129" inkscape:cx="-215.12846" inkscape:cy="-99.273786" inkscape:window-x="-9" inkscape:window-y="-9" inkscape:window-maximized="1" inkscape:current-layer="Component_13_6" />
	<defs id="defs150">
		<style id="style2">
			/* Animation styles*/
			ellipse#Ellipse_81 {
			transition: all 100ms linear;
			}
			
			g#ranka {
			transition: all 100ms linear;
			transform-box: fill-box;
			}
			
			g#Group_656 {
			transition: all 100ms linear;
			}
			
			g#Component_13_6:hover ellipse#Ellipse_81 {
			transition: all 100ms linear;
			ry: 7.6px;
			rx: 28.8px;
			}
			
			g#Component_13_6:hover g#Group_656 {
			transition: all 100ms linear;
			transform: translateY(-20px)
			}
			
			g#Component_13_6:hover g#ranka {
			transition: all 100ms linear;
			transform: translate(-3px,-14px) rotate(15deg);
			transform-box: fill-box;
			transform-origin: center;
			}
			
			.cls-1 {
			fill: #1a75fa;
			}
			
			.cls-2 {
			fill: url(#linear-gradient);
			}
			
			.cls-3 {
			fill: url(#linear-gradient-2);
			}
			
			.cls-4 {
			fill: url(#linear-gradient-3);
			}
			
			.cls-5 {
			fill: url(#linear-gradient-4);
			}
			
			.cls-36, .cls-42, .cls-43, .cls-46, .cls-6, .cls-7, .cls-9 {
			opacity: 0.3;
			}
			
			.cls-6 {
			fill: url(#linear-gradient-5);
			}
			
			.cls-7 {
			fill: url(#linear-gradient-6);
			}
			
			.cls-8 {
			fill: url(#linear-gradient-7);
			}
			
			.cls-9 {
			fill: url(#linear-gradient-8);
			}
			
			.cls-10 {
			fill: url(#linear-gradient-9);
			}
			
			.cls-11 {
			fill: url(#radial-gradient);
			}
			
			.cls-12, .cls-25, .cls-26, .cls-29, .cls-39, .cls-49, .cls-51, .cls-52, .cls-54 {
			opacity: 0.5;
			}
			
			.cls-12 {
			fill: url(#linear-gradient-10);
			}
			
			.cls-13 {
			fill: #fff;
			}
			
			.cls-14, .cls-15, .cls-28, .cls-30 {
			opacity: 0.72;
			}
			
			.cls-14 {
			fill: url(#linear-gradient-11);
			}
			
			.cls-15 {
			fill: url(#linear-gradient-12);
			}
			
			.cls-16 {
			fill: url(#linear-gradient-13);
			}
			
			.cls-17 {
			fill: url(#linear-gradient-14);
			}
			
			.cls-18 {
			fill: url(#linear-gradient-15);
			}
			
			.cls-19 {
			fill: url(#linear-gradient-16);
			}
			
			.cls-20 {
			fill: url(#linear-gradient-17);
			}
			
			.cls-21 {
			fill: url(#linear-gradient-18);
			}
			
			.cls-22 {
			fill: url(#radial-gradient-2);
			}
			
			.cls-23 {
			fill: url(#linear-gradient-19);
			}
			
			.cls-24 {
			fill: url(#linear-gradient-20);
			}
			
			.cls-25 {
			fill: url(#linear-gradient-21);
			}
			
			.cls-26 {
			fill: url(#linear-gradient-22);
			}
			
			.cls-27 {
			opacity: 0.2;
			fill: url(#linear-gradient-23);
			}
			
			.cls-28 {
			fill: url(#linear-gradient-24);
			}
			
			.cls-29 {
			fill: url(#linear-gradient-25);
			}
			
			.cls-30 {
			fill: url(#linear-gradient-26);
			}
			
			.cls-31 {
			fill: #22e0ff;
			}
			
			.cls-32 {
			fill: #2f95cd;
			}
			
			.cls-33 {
			fill: url(#linear-gradient-28);
			}
			
			.cls-34 {
			fill: url(#linear-gradient-29);
			}
			
			.cls-35 {
			fill: url(#linear-gradient-30);
			}
			
			.cls-36 {
			fill: url(#linear-gradient-31);
			}
			
			.cls-37 {
			fill: url(#linear-gradient-32);
			}
			
			.cls-38 {
			fill: url(#linear-gradient-33);
			}
			
			.cls-39 {
			fill: url(#linear-gradient-34);
			}
			
			.cls-40 {
			fill: url(#linear-gradient-35);
			}
			
			.cls-41 {
			fill: url(#linear-gradient-36);
			}
			
			.cls-42 {
			fill: url(#linear-gradient-37);
			}
			
			.cls-43 {
			fill: url(#linear-gradient-38);
			}
			
			.cls-44 {
			fill: url(#linear-gradient-39);
			}
			
			.cls-45 {
			fill: url(#linear-gradient-40);
			}
			
			.cls-46 {
			fill: url(#linear-gradient-41);
			}
			
			.cls-47 {
			fill: url(#linear-gradient-42);
			}
			
			.cls-48 {
			fill: url(#linear-gradient-43);
			}
			
			.cls-49 {
			fill: url(#linear-gradient-44);
			}
			
			.cls-50 {
			fill: url(#linear-gradient-45);
			}
			
			.cls-51 {
			fill: url(#radial-gradient-3);
			}
			
			.cls-52 {
			fill: url(#linear-gradient-46);
			}
			
			.cls-53 {
			fill: url(#linear-gradient-47);
			}
			
			.cls-54 {
			fill: url(#radial-gradient-4);
			}
		</style>
		<linearGradient id="linear-gradient" x1="0.375" y1="0.96399999" x2="0.53500003" y2="0.041000001" gradientUnits="objectBoundingBox">
			<stop offset="0" stop-color="#cbc1f7" id="stop4" />
			<stop offset="1" stop-color="#e8dcf7" id="stop6" />
		</linearGradient>
		<linearGradient id="linear-gradient-2" x1="0.5" y1="1.003" x2="0.5" gradientUnits="objectBoundingBox">
			<stop offset="0" stop-color="#be9dea" id="stop9" />
			<stop offset="1" stop-color="#9e8cef" id="stop11" />
		</linearGradient>
		<linearGradient id="linear-gradient-3" x1="726.01945" y1="424.86809" x2="731.57579" y2="392.7207" xlink:href="#linear-gradient" gradientTransform="scale(0.85247444,1.1730557)" gradientUnits="userSpaceOnUse" />
		<linearGradient id="linear-gradient-4" y1="725.83435" y2="708.63566" xlink:href="#linear-gradient-2" gradientTransform="scale(1.5335475,0.65208281)" x1="397.57489" x2="414.77358" gradientUnits="userSpaceOnUse" />
		<linearGradient id="linear-gradient-5" x1="0.5" y1="1.001" x2="0.5" gradientUnits="objectBoundingBox">
			<stop offset="0" stop-color="#9d68c2" id="stop16" />
			<stop offset="1" stop-color="#ccedff" id="stop18" />
		</linearGradient>
		<linearGradient id="linear-gradient-6" y1="436.57275" y2="406.5975" xlink:href="#linear-gradient-5" gradientTransform="scale(0.87989263,1.1365023)" x1="692.92546" x2="722.9007" gradientUnits="userSpaceOnUse" />
		<linearGradient id="linear-gradient-7" x1="716.76125" y1="399.36838" x2="728.07139" y2="334.88753" xlink:href="#linear-gradient" gradientTransform="scale(0.84518277,1.183176)" gradientUnits="userSpaceOnUse" />
		<linearGradient id="linear-gradient-8" x1="643.97465" y1="447.46045" x2="643.97465" xlink:href="#linear-gradient-5" gradientTransform="scale(0.94668305,1.0563197)" y2="389.37074" gradientUnits="userSpaceOnUse" />
		<linearGradient id="linear-gradient-9" y1="479.68772" xlink:href="#linear-gradient-2" gradientTransform="scale(1.0175811,0.98272267)" x1="573.98732" x2="623.14813" y2="430.52692" gradientUnits="userSpaceOnUse" />
		<radialGradient id="radial-gradient" cx="0.51700002" cy="0.84399998" r="0.76300001" gradientTransform="matrix(0.966,0,0,1,0.017,0)" gradientUnits="objectBoundingBox">
			<stop offset="0" stop-color="#94fdff" id="stop25" />
			<stop offset="1" stop-color="#22e0ff" id="stop27" />
		</radialGradient>
		<linearGradient id="linear-gradient-10" x1="0.50099999" y1="1.005" x2="0.50099999" y2="0.0060000001" gradientUnits="objectBoundingBox">
			<stop offset="0" stop-color="#8da4e5" id="stop30" />
			<stop offset="1" stop-color="#755cbb" id="stop32" />
		</linearGradient>
		<linearGradient id="linear-gradient-11" x1="299.61139" y1="957.2117" x2="299.61139" y2="940.17388" gradientUnits="userSpaceOnUse" gradientTransform="scale(2.0368692,0.49094955)">
			<stop offset="0" stop-color="#fff" stop-opacity="0.969" id="stop35" />
			<stop offset="1" stop-color="#fff" stop-opacity="0" id="stop37" />
		</linearGradient>
		<linearGradient id="linear-gradient-12" y1="0.49900001" x2="0.99900001" y2="0.49900001" gradientUnits="objectBoundingBox">
			<stop offset="0" stop-color="#59eeff" id="stop40" />
			<stop offset="1" stop-color="#eff4ff" id="stop42" />
		</linearGradient>
		<linearGradient id="linear-gradient-13" x1="961.12723" y1="270.12778" x2="976.09793" y2="270.12778" gradientUnits="userSpaceOnUse" gradientTransform="scale(0.65133895,1.5352989)">
			<stop offset="0" stop-color="#8879ea" id="stop45" />
			<stop offset="1" stop-color="#9e8cef" id="stop47" />
		</linearGradient>
		<linearGradient id="linear-gradient-14" x1="0.50099999" y1="0.99699998" x2="0.50099999" y2="-0.0020000001" gradientUnits="objectBoundingBox">
			<stop offset="0" stop-color="#b9acf4" id="stop50" />
			<stop offset="1" stop-color="#e1d1f5" id="stop52" />
		</linearGradient>
		<linearGradient id="linear-gradient-15" x1="915.90783" y1="240.53403" x2="915.90783" y2="227.21301" xlink:href="#linear-gradient-2" gradientTransform="scale(0.70708865,1.4142498)" gradientUnits="userSpaceOnUse" />
		<linearGradient id="linear-gradient-16" x1="989.06022" y1="235.89433" x2="989.06022" gradientUnits="userSpaceOnUse" gradientTransform="scale(0.65953822,1.5162124)" y2="213.42657">
			<stop offset="0" stop-color="#45ffcd" id="stop56" />
			<stop offset="1" stop-color="#22e0ff" id="stop58" />
		</linearGradient>
		<linearGradient id="linear-gradient-17" x1="1871.2978" y1="269.94812" x2="1871.2978" y2="243.7625" xlink:href="#linear-gradient-14" gradientTransform="scale(0.75538425,1.3238296)" gradientUnits="userSpaceOnUse" />
		<linearGradient id="linear-gradient-18" x1="2002.713" y1="241.49736" x2="2002.713" y2="228.16305" xlink:href="#linear-gradient-2" gradientTransform="scale(0.70708865,1.4142498)" gradientUnits="userSpaceOnUse" />
		<radialGradient id="radial-gradient-2" cx="870.29167" cy="222.55655" r="8.6886034" gradientTransform="scale(0.6500186,1.5384175)" xlink:href="#radial-gradient" fx="870.29167" fy="222.55655" gradientUnits="userSpaceOnUse" />
		<linearGradient id="linear-gradient-19" x1="567.23494" y1="429.20644" x2="577.12622" y2="339.20461" xlink:href="#linear-gradient" gradientTransform="scale(1.0681745,0.93617662)" gradientUnits="userSpaceOnUse" />
		<linearGradient id="linear-gradient-20" x1="0.5" y1="1" x2="0.5" y2="-0.001" gradientUnits="objectBoundingBox">
			<stop offset="0" stop-color="#0665bd" id="stop65" />
			<stop offset="1" stop-color="#1a1f77" id="stop67" />
		</linearGradient>
		<linearGradient id="linear-gradient-21" y1="528.13071" x2="415.43312" y2="528.13071" gradientUnits="userSpaceOnUse" gradientTransform="scale(1.5443278,0.64753092)" x1="375.67054">
			<stop offset="0" stop-color="#0d49a1" id="stop70" />
			<stop offset="1" stop-color="#fff" stop-opacity="0" id="stop72" />
		</linearGradient>
		<linearGradient id="linear-gradient-22" x1="-0.001" y1="0.49399999" x2="1" y2="0.49399999" gradientUnits="objectBoundingBox">
			<stop offset="0" stop-color="#0b52aa" id="stop75" />
			<stop offset="1" stop-color="#6a9bff" id="stop77" />
		</linearGradient>
		<linearGradient id="linear-gradient-23" x1="1059.4794" y1="204.63937" x2="1059.4794" y2="192.49246" xlink:href="#linear-gradient-22" gradientTransform="scale(0.53354004,1.8742736)" gradientUnits="userSpaceOnUse" />
		<linearGradient id="linear-gradient-24" x1="705.68568" y1="304.60337" x2="715.35477" y2="304.60337" xlink:href="#linear-gradient-12" gradientTransform="scale(0.91716729,1.0903136)" gradientUnits="userSpaceOnUse" />
		<linearGradient id="linear-gradient-25" x1="562.57735" y1="443.89285" x2="562.57735" y2="420.80488" xlink:href="#linear-gradient-10" gradientTransform="scale(1.1142468,0.89746725)" gradientUnits="userSpaceOnUse" />
		<linearGradient id="linear-gradient-26" x1="615.78744" y1="302.21815" x2="626.50753" y2="302.21815" xlink:href="#linear-gradient-12" gradientTransform="scale(0.91170993,1.0968401)" gradientUnits="userSpaceOnUse" />
		<linearGradient id="linear-gradient-28" x1="936.22175" y1="265.38037" x2="944.26134" y2="234.39852" xlink:href="#linear-gradient" gradientTransform="scale(0.69534234,1.4381405)" gradientUnits="userSpaceOnUse" />
		<linearGradient id="linear-gradient-29" x1="634.092" y1="394.1712" x2="647.6488" y2="336.5696" gradientUnits="userSpaceOnUse">
			<stop offset="0" stop-color="#a83d2c" id="stop85" />
			<stop offset="1" stop-color="#c51f1f" id="stop87" />
		</linearGradient>
		<linearGradient id="linear-gradient-30" x1="494.41257" y1="559.77627" x2="497.06157" y2="523.3095" xlink:href="#linear-gradient" gradientTransform="scale(1.3120681,0.76215557)" gradientUnits="userSpaceOnUse" />
		<linearGradient id="linear-gradient-31" y1="560.0515" y2="525.68328" xlink:href="#linear-gradient-5" gradientTransform="scale(1.3120681,0.76215557)" x1="479.1378" x2="513.54042" gradientUnits="userSpaceOnUse" />
		<linearGradient id="linear-gradient-32" x1="681.17256" y1="405.12025" x2="681.17256" y2="394.88914" xlink:href="#linear-gradient-2" gradientTransform="scale(0.98434632,1.0159026)" gradientUnits="userSpaceOnUse" />
		<linearGradient id="linear-gradient-33" x1="662.50326" y1="411.71706" x2="664.30521" y2="386.17179" gradientUnits="userSpaceOnUse" gradientTransform="scale(1.0075759,0.9924811)">
			<stop offset="0" stop-color="#ff2a30" id="stop93" />
			<stop offset="1" stop-color="#ff7f7f" id="stop95" />
		</linearGradient>
		<linearGradient id="linear-gradient-34" x1="707.3521" y1="383.84176" x2="707.3521" y2="361.3097" xlink:href="#linear-gradient-10" gradientTransform="scale(0.94182232,1.0617714)" gradientUnits="userSpaceOnUse" />
		<linearGradient id="linear-gradient-35" x1="648.15712" y1="404.87088" x2="648.97787" y2="398.18563" xlink:href="#linear-gradient" gradientTransform="scale(1.015305,0.98492574)" gradientUnits="userSpaceOnUse" />
		<linearGradient id="linear-gradient-36" x1="811.63616" y1="327.56609" x2="814.25043" y2="313.44903" xlink:href="#linear-gradient" gradientTransform="scale(0.82534154,1.2116196)" gradientUnits="userSpaceOnUse" />
		<linearGradient id="linear-gradient-37" x1="658.92407" y1="398.5711" x2="658.92407" y2="391.74531" xlink:href="#linear-gradient-5" gradientTransform="scale(0.99943709,1.0005632)" gradientUnits="userSpaceOnUse" />
		<linearGradient id="linear-gradient-38" x1="717.27031" y1="371.93343" x2="717.27031" y2="358.72199" xlink:href="#linear-gradient-5" gradientTransform="scale(0.93511158,1.0693911)" gradientUnits="userSpaceOnUse" />
		<linearGradient id="linear-gradient-39" x1="581.0364" y1="440.41912" x2="587.46861" y2="391.95417" xlink:href="#linear-gradient" gradientTransform="scale(0.97197299,1.0288352)" gradientUnits="userSpaceOnUse" />
		<linearGradient id="linear-gradient-40" x1="710.50943" y1="350.95385" x2="710.50943" y2="336.62658" xlink:href="#linear-gradient-2" gradientTransform="scale(0.77448077,1.2911876)" gradientUnits="userSpaceOnUse" />
		<linearGradient id="linear-gradient-41" x1="582.82253" y1="440.99675" x2="582.82253" y2="394.68998" xlink:href="#linear-gradient-5" gradientTransform="scale(0.97321581,1.0275213)" gradientUnits="userSpaceOnUse" />
		<linearGradient id="linear-gradient-42" x1="584.89232" y1="432.60448" x2="588.95966" y2="405.07171" xlink:href="#linear-gradient" gradientTransform="scale(0.92328692,1.0830869)" gradientUnits="userSpaceOnUse" />
		<linearGradient id="linear-gradient-43" y1="401.39823" y2="377.92315" xlink:href="#linear-gradient-2" gradientTransform="scale(0.85823868,1.165177)" x1="621.73847" x2="645.23705" gradientUnits="userSpaceOnUse" />
		<linearGradient id="linear-gradient-44" x1="1046.5643" y1="239.75656" x2="1046.5643" y2="230.51318" xlink:href="#linear-gradient-10" gradientTransform="scale(0.51929079,1.9257033)" gradientUnits="userSpaceOnUse" />
		<linearGradient id="linear-gradient-45" x1="781.69877" y1="323.46754" x2="785.49975" y2="308.65987" xlink:href="#linear-gradient" gradientTransform="scale(0.6995949,1.4293986)" gradientUnits="userSpaceOnUse" />
		<radialGradient id="radial-gradient-3" cx="24.145808" cy="24.145808" r="25.063348" gradientTransform="scale(1.0188104,0.98153688)" gradientUnits="userSpaceOnUse" fx="24.145808" fy="24.145808">
			<stop offset="0" id="stop110" />
			<stop offset="0.229" stop-color="#010303" id="stop112" />
			<stop offset="0.365" stop-color="#050b0b" id="stop114" />
			<stop offset="0.477" stop-color="#0b1919" id="stop116" />
			<stop offset="0.576" stop-color="#132d2d" id="stop118" />
			<stop offset="0.667" stop-color="#1f4048" id="stop120" />
			<stop offset="0.751" stop-color="#2c5868" id="stop122" />
			<stop offset="0.83" stop-color="#3d658e" id="stop124" />
			<stop offset="0.905" stop-color="#5081ba" id="stop126" />
			<stop offset="0.975" stop-color="#65b1eb" id="stop128" />
			<stop offset="1" stop-color="#6d8fff" id="stop130" />
		</radialGradient>
		<linearGradient id="linear-gradient-46" y1="523.47945" x2="445.93596" y2="523.47945" gradientUnits="userSpaceOnUse" gradientTransform="scale(1.4861011,0.67290175)" x1="416.59106">
			<stop offset="0" stop-color="#6a9bff" id="stop133" />
			<stop offset="1" id="stop135" />
		</linearGradient>
		<linearGradient id="linear-gradient-47" x1="634.092" y1="392.0712" x2="647.6488" y2="334.5288" gradientUnits="userSpaceOnUse">
			<stop offset="0" stop-color="#ff952a" id="stop138" />
			<stop offset="1" stop-color="#ffa27f" id="stop140" />
		</linearGradient>
		<radialGradient id="radial-gradient-4" cx="19.268627" cy="19.345701" r="17.611525" gradientTransform="matrix(2.1174315,0,0,0.47227029,569.38209,499.77112)" gradientUnits="userSpaceOnUse" fx="19.268627" fy="19.345701">
			<stop offset="0" stop-color="#559dea" id="stop143" />
			<stop offset="0.431" stop-color="#5ea9f5" id="stop145" />
			<stop offset="1" stop-color="#fff" stop-opacity="0" id="stop147" />
		</radialGradient>
		<linearGradient inkscape:collect="always" xlink:href="#linear-gradient" id="linearGradient251" gradientUnits="userSpaceOnUse" x1="696.88803" y1="422.9664" x2="701.77984" y2="394.74675" gradientTransform="scale(0.85154027,1.1743426)" />
		<linearGradient inkscape:collect="always" xlink:href="#linear-gradient-2" id="linearGradient253" gradientUnits="userSpaceOnUse" x1="388.05124" y1="727.50267" x2="388.05124" gradientTransform="scale(1.5371509,0.65055421)" y2="710.2678" />
		<linearGradient inkscape:collect="always" xlink:href="#linear-gradient-5" id="linearGradient255" gradientUnits="userSpaceOnUse" x1="670.0797" y1="441.02616" x2="670.0797" gradientTransform="scale(0.89018266,1.123365)" y2="411.32466" />
		<radialGradient inkscape:collect="always" xlink:href="#radial-gradient" id="radialGradient257" gradientUnits="userSpaceOnUse" gradientTransform="scale(1.0175811,0.98272267)" cx="599.50173" cy="473.34149" r="37.509696" fx="599.50173" fy="473.34149" />
		<linearGradient inkscape:collect="always" xlink:href="#linear-gradient-10" id="linearGradient259" gradientUnits="userSpaceOnUse" x1="386.71128" y1="646.26363" x2="386.71128" y2="622.7317" gradientTransform="scale(1.5737876,0.63540976)" />
		<linearGradient inkscape:collect="always" xlink:href="#linear-gradient-12" id="linearGradient261" gradientUnits="userSpaceOnUse" y1="632.76561" x2="435.45144" y2="632.76561" gradientTransform="scale(1.4503163,0.68950474)" x1="406.48929" />
		<linearGradient inkscape:collect="always" xlink:href="#linear-gradient-14" id="linearGradient263" gradientUnits="userSpaceOnUse" x1="854.02866" y1="268.9137" x2="854.02866" y2="242.72807" gradientTransform="scale(0.75538425,1.3238296)" />
		<linearGradient inkscape:collect="always" xlink:href="#linear-gradient-20" id="linearGradient265" gradientUnits="userSpaceOnUse" x1="550.94377" y1="437.93341" x2="550.94377" y2="360.93918" gradientTransform="scale(1.1058451,0.90428577)" />
		<linearGradient inkscape:collect="always" xlink:href="#linear-gradient-22" id="linearGradient267" gradientUnits="userSpaceOnUse" x1="254.60501" y1="903.51139" x2="273.93166" y2="903.51139" gradientTransform="scale(2.310206,0.43286184)" />
		<linearGradient inkscape:collect="always" xlink:href="#linear-gradient-20" id="linearGradient269" gradientUnits="userSpaceOnUse" x1="697.90279" y1="355.941" x2="697.90279" y2="306.04527" gradientTransform="scale(0.91208319,1.0963912)" />
	</defs>
	<g id="Component_13_6" data-name="Component 13 – 6" transform="translate(-526.41481,-294.10279)">
		<g id="Group_654" data-name="Group 654">
			<path id="Path_400" data-name="Path 400" class="cls-1" d="m 539.9,463.9 c 10.6,22.3 112.9,19 138.7,1.7 25.8,-17.3 -31.5,-162.6 -100.8,-159.5 -50.5,2.2 -65.1,100.7 -37.9,157.8 z" />
			<path id="Path_401" data-name="Path 401" class="cls-1" d="m 691,453.6 c -4.4,-0.7 -7.1,-24 -1.9,-28.5 5.2,-4.5 15.8,5.8 15.8,13.6 0,7.8 -6.3,16.2 -13.9,14.9 z" />
			<path id="Path_402" data-name="Path 402" class="cls-1" d="m 566.9,299.8 c 1.1,3.3 -9.5,10.3 -13.3,7.6 -3.7,-2.7 -1.5,-11 1.8,-12.7 3.4,-1.7 9.9,0.3 11.5,5.1 z" />
		</g>
		<g id="Group_656" data-name="Group 656">
			<path id="Path_403" data-name="Path 403" class="cls-2" d="m 609.7,473.1 v 0 c 0,0.8 -0.2,16.1 -3.3,22.3 -0.8,1.6 -1.8,2.6 -3,2.6 -4.3,-0.2 -14.2,-18.5 -18.1,-28.9 a 23.644,23.644 0 0 1 -1.6,-5.6 c -0.1,-0.9 0,-1.4 0.5,-1.4 a 24.364,24.364 0 0 1 2.7,0.1 h 0.4 c 10.8,1.4 21.2,10 22.4,10.9 z" style="fill:url(#linearGradient251)" />
			<path id="Path_404" data-name="Path 404" class="cls-3" d="m 609.7,473.1 c -14.4,1.3 -23.9,-6.4 -26,-9.6 -0.5,-0.8 -0.6,-1.4 0,-1.4 a 17.387,17.387 0 0 1 3.2,0.1 h 0.4 c 9.5,1.5 21.1,10 22.4,10.9 z" style="fill:url(#linearGradient253)" />
			<path id="Path_405" data-name="Path 405" class="cls-4" d="m 635.7,463.5 a 26.2,26.2 0 0 1 -1.9,6.5 c -4.1,10.5 -13.5,27.8 -17.8,28 a 3.07,3.07 0 0 1 -2.6,-1.8 c -3.5,-5.7 -3.7,-23 -3.7,-23 l 0.1,-0.1 c 1.1,-0.9 11.6,-9.5 22.4,-10.8 h 0.3 a 24.364,24.364 0 0 1 2.7,-0.1 c 0.4,-0.1 0.6,0.4 0.5,1.3 z" style="fill:url(#linear-gradient-3)" />
			<path id="Path_406" data-name="Path 406" class="cls-5" d="m 635.7,463.5 c -2,3.3 -11.6,10.9 -26,9.6 l 0.1,-0.1 c 1.2,-0.9 12.8,-9.4 22.4,-10.8 h 0.3 a 11.562,11.562 0 0 1 3.2,-0.1 c 0.5,0.1 0.5,0.6 0,1.4 z" style="fill:url(#linear-gradient-4)" />
			<path id="Path_407" data-name="Path 407" class="cls-6" d="m 609.7,473.1 v 0 c 0,0.8 -0.2,16.1 -3.3,22.3 0,0 -0.9,-16.2 -5.2,-19.8 -4.3,-3.7 -15.9,-6.5 -15.9,-6.5 a 23.642,23.642 0 0 1 -1.6,-5.6 c -0.5,-0.8 -0.6,-1.4 0,-1.4 a 17.387,17.387 0 0 1 3.2,0.1 h 0.4 c 10.8,1.4 21.2,10 22.4,10.9 z" style="fill:url(#linearGradient255)" />
			<path id="Path_408" data-name="Path 408" class="cls-7" d="m 635.7,463.5 a 26.2,26.2 0 0 1 -1.9,6.5 c -2,0.4 -12.8,2.9 -16.6,9.5 -3.2,5.5 -3.7,13.2 -3.8,16.7 -3.5,-5.7 -3.7,-23 -3.7,-23 l 0.1,-0.1 c 1.1,-0.9 11.6,-9.5 22.4,-10.8 h 0.3 a 11.562,11.562 0 0 1 3.2,-0.1 c 0.5,0 0.5,0.5 0,1.3 z" style="fill:url(#linear-gradient-6)" />
			<g id="Group_655" data-name="Group 655">
				<path id="Path_416" data-name="Path 416" class="cls-8" d="m 636.2,453.9 c -1.9,11.2 -12,18.7 -26.4,18.7 -12.6,0 -23.2,-4.7 -26,-15 -2.8,-10.3 -1.7,-29.4 2,-41.2 a 38.617,38.617 0 0 1 2,-5.1 v 0 a 28.632,28.632 0 0 1 2.4,-4.2 v 0 c 4.6,-6.9 11.3,-11.4 18.9,-11.4 a 22.973,22.973 0 0 1 18.1,8.1 27.211,27.211 0 0 1 4.5,7.5 76.172,76.172 0 0 1 3.1,9.9 v 0.1 c 2.5,10.8 3.1,22.6 1.4,32.6 z" style="fill:url(#linear-gradient-7)" />
				<path id="Path_417" data-name="Path 417" class="cls-9" d="m 636.2,453.9 c -1.9,11.2 -12,18.7 -26.4,18.7 -12.6,0 -23.2,-4.7 -26,-15 -2.8,-10.3 -1.7,-29.4 2,-41.2 a 38.617,38.617 0 0 1 2,-5.1 v 0 c 0,0 -7.6,25.2 -1.5,41.3 6.1,16.1 34.4,15.7 44,5 9.1,-10.1 4.9,-34 4.5,-36.3 2.5,10.8 3.1,22.6 1.4,32.6 z" style="fill:url(#linear-gradient-8)" />
				<path id="Path_418" data-name="Path 418" class="cls-10" d="m 584.3,447.2 c 2.1,-15.1 14.3,-25.3 27.7,-24 14.5,1.4 22.3,15.2 22.1,27.1 -0.2,11.9 -8.9,21.1 -24.4,21.1 -15.6,0 -27.4,-10.1 -25.4,-24.2 z" style="fill:url(#linear-gradient-9)" />
				<path id="Path_419" data-name="Path 419" class="cls-11" d="m 584.4,448.5 c 2.1,-15.1 14.3,-25.3 27.7,-24 14.5,1.4 22.3,15.2 22.1,27.1 -0.2,11.9 -8.9,21.1 -24.4,21.1 -15.6,-0.1 -27.4,-10.1 -25.4,-24.2 z" style="fill:url(#radialGradient257)" />
				<path id="Path_420" data-name="Path 420" class="cls-12" d="m 627.1,403.7 c -3.1,4.8 -20,7.6 -29.8,6.7 -8.5,-0.8 -7.2,-3.1 -7.2,-3.4 v 0 c 4.6,-6.9 11.3,-11.4 18.9,-11.4 8,0.1 14,3.3 18.1,8.1 z" style="fill:url(#linearGradient259)" />
				<path id="Path_421" data-name="Path 421" class="cls-13" d="m 621.1,412.1 c -0.8,0.3 -0.8,6.6 0,7.6 0.8,1 2.1,0.7 2.6,-0.8 0.4,-1.5 -1.4,-7.2 -2.6,-6.8 z" />
				<path id="Path_422" data-name="Path 422" class="cls-13" d="m 622.6,421.4 c -0.7,0.2 -0.7,1.7 -0.4,2.3 0.3,0.6 1.4,0.4 1.6,-0.2 0.2,-0.7 -0.6,-2.2 -1.2,-2.1 z" />
				<path id="Path_423" data-name="Path 423" class="cls-14" d="m 592.9,463.8 c 0,0 3.5,6 16.4,6.1 12.9,0.1 18.2,-7.7 18.2,-7.7 a 18.981,18.981 0 0 1 -14.5,1.6 c -8.5,-2.3 -16.9,-3.6 -20.1,0 z" style="fill:url(#linear-gradient-11)" />
				<path id="Path_424" data-name="Path 424" class="cls-15" d="m 589.6,438.9 c 2.6,4.1 13.1,1.9 24.9,3.1 11.8,1.2 13.9,5 16.4,4.2 2.5,-0.8 -1.4,-18.6 -19.2,-19.8 -17.7,-1.2 -22.8,11.5 -22.1,12.5 z" style="fill:url(#linearGradient261)" />
			</g>
			<path id="Path_425" data-name="Path 425" class="cls-16" d="m 628.1,404.9 a 5.932,5.932 0 0 0 -2.1,-1.7 c 0,0 3.3,16.4 9.8,23.1 0,0 -2.9,-15.5 -7.7,-21.4 z" style="fill:url(#linear-gradient-13)" />
			<path id="Path_426" data-name="Path 426" class="cls-17" d="m 635.2,327.7 c 0,0 6.3,-5.4 13.9,-6.3 0,0 2.3,1.1 5.1,9.6 2.7,8.4 -2.3,25.1 -2.3,25.1 z" style="fill:url(#linearGradient263)" />
			<path id="Path_427" data-name="Path 427" class="cls-18" d="m 649.1,321.3 a 26.86,26.86 0 0 0 -6.2,17.3 l 2.4,1.5 7,-14.4 c 0,0 -2.3,-4.5 -3.2,-4.4 z" style="fill:url(#linear-gradient-15)" />
			<path id="Path_428" data-name="Path 428" class="cls-19" d="m 645.1,339.5 c 0,0 -1.6,-9.1 4.4,-15.9 0,0 6.8,3.2 9.6,15.1 2.8,11.9 -4.5,19 -4.5,19 z" style="fill:url(#linear-gradient-16)" />
			<path id="Path_429" data-name="Path 429" class="cls-13" d="m 641.6,324 c -1.2,0.6 -1.1,1.9 1.3,1.6 2.4,-0.3 3.7,-2.2 3.4,-2.6 -0.2,-0.4 -3.4,0.3 -4.7,1 z" />
			<path id="Path_430" data-name="Path 430" class="cls-20" d="m 582.8,329 c 0,0 -6.3,-5.4 -13.9,-6.3 0,0 -2.3,1.1 -5.1,9.6 -2.7,8.4 2.3,25.1 2.3,25.1 z" style="fill:url(#linear-gradient-17)" />
			<path id="Path_431" data-name="Path 431" class="cls-21" d="M 568.8,322.7 A 26.86,26.86 0 0 1 575,340 l -2.4,1.5 -7,-14.4 c 0.1,0 2.4,-4.5 3.2,-4.4 z" style="fill:url(#linear-gradient-18)" />
			<path id="Path_432" data-name="Path 432" class="cls-22" d="m 572.9,340.8 c 0,0 1.6,-9.1 -4.4,-15.9 0,0 -6.8,3.2 -9.6,15.1 a 21.918,21.918 0 0 0 5.3,19.8 z" style="fill:url(#radial-gradient-2)" />
			<path id="Path_433" data-name="Path 433" class="cls-13" d="m 576.4,325.3 c 1.2,0.6 1.1,1.9 -1.3,1.6 -2.4,-0.3 -3.7,-2.2 -3.4,-2.6 0.2,-0.3 3.4,0.3 4.7,1 z" />
			<path id="Path_434" data-name="Path 434" class="cls-23" d="m 565.2,386.8 c 9.6,22.1 81.3,15.2 89.9,-2.9 9.4,-19.9 -12.2,-68.9 -46.5,-66.6 -29.1,1.9 -55.7,41.1 -43.4,69.5 z" style="fill:url(#linear-gradient-19)" />
			<path id="Path_435" data-name="Path 435" class="cls-24" d="m 569.1,383.7 c 9.2,18.1 71.8,15.1 80.9,-1.5 7.8,-14.2 -10.6,-57.2 -42,-55.7 -31.4,1.5 -47.7,39.8 -38.9,57.2 z" style="fill:url(#linearGradient265)" />
			<path id="Path_436" data-name="Path 436" class="cls-13" d="m 618.6,321.3 c -0.7,0.8 7,4.1 8,3.6 1,-0.4 -5.8,-6.2 -8,-3.6 z" />
			<path id="Path_437" data-name="Path 437" class="cls-25" d="m 580.2,344.6 c -0.7,4.3 7.5,3.8 20.5,3.4 15.7,-0.5 31.5,13 40.7,3.3 1.5,-1.6 -13.5,-22.6 -31.7,-22.2 -18.1,0.5 -28.9,11.8 -29.5,15.5 z" style="fill:url(#linear-gradient-21)" />
			<path id="Path_438" data-name="Path 438" class="cls-26" d="m 588.3,389.7 c -0.8,3.1 5.7,6.3 21.8,5.5 19.5,-1 23.6,-5 22.6,-6.2 -0.6,-0.7 -6.4,3 -22.4,-0.5 -10.5,-2.3 -21.1,-2.1 -22,1.2 z" style="fill:url(#linearGradient267)" />
			<path id="Path_439" data-name="Path 439" class="cls-27" d="m 570.9,379.9 a 41.238,41.238 0 0 1 0.1,-10.6 c 0.8,-6.1 2.4,-10 3.4,-9.5 1,0.6 0.8,6.5 1.4,12.4 a 85.513,85.513 0 0 0 1.3,8.9 c 0,0 -4.2,4 -6.2,-1.2 z" style="fill:url(#linear-gradient-23)" />
			<path id="Path_440" data-name="Path 440" class="cls-28" d="m 655,329 c 0,0 -2.2,-2.7 -5.2,-2 -3,0.7 -3.2,10.2 -1.4,10.4 1.8,0.2 2.6,-5.2 3.9,-6.1 a 6.459,6.459 0 0 1 3.8,-0.5 z" style="fill:url(#linear-gradient-24)" />
			<path id="Path_441" data-name="Path 441" class="cls-29" d="m 627.6,398.4 c 0,0 -10.3,-10.4 -13.6,-20.7 l 25.7,16.9 c 0,0 -8.7,3 -12.1,3.8 z" style="fill:url(#linear-gradient-25)" />
			<path id="Path_442" data-name="Path 442" class="cls-30" d="m 561.4,333 a 4.3,4.3 0 0 1 3.8,-0.9 c 2.6,0.4 4.1,5.8 5.4,5.2 1.3,-0.5 0.4,-9.2 -3.2,-11.7 0.1,0 -4.5,3.9 -6,7.4 z" style="fill:url(#linear-gradient-26)" />
			<path id="Path_443" data-name="Path 443" class="cls-31" d="m 580.8,357.7 a 43.367,43.367 0 0 1 16.4,1.2 c 1.2,0.4 -2.5,-4 -8.2,-4.8 -5.7,-0.8 -8.6,1.6 -8.2,3.6 z" />
			<path id="Path_444" data-name="Path 444" class="cls-32" d="m 600.7,375.3 c 1.4,-4.3 6.8,-4.1 7.9,-0.3 1.2,4.1 -3.6,8.8 -5.7,8.1 -2.2,-0.7 -3.3,-4.6 -2.2,-7.8 z" />
			<path id="Path_445" data-name="Path 445" class="cls-24" d="m 614.9,370 c -5.1,-14.1 8.3,-32.1 28.8,-34.4 0,0 19.4,12.5 14.9,47.1 0,-0.1 -30.6,23.7 -43.7,-12.7 z" style="fill:url(#linearGradient269)" />
			<path id="Path_446" data-name="Path 446" class="cls-33" d="m 643.7,335.5 c 0,0 6.9,0.1 15.1,6.8 8.2,6.7 12,26.7 -0.1,40.2 -0.1,0.1 5.3,-27.7 -15,-47 z" style="fill:url(#linear-gradient-28)" />
			<path id="Path_447" data-name="Path 447" class="cls-31" d="m 626.7,365.4 c 0.6,6.4 19.7,5.8 22.8,0 2.5,-4.7 -4.7,-19.9 -12.3,-18.8 -7.7,1 -11.3,9.7 -10.5,18.8 z" />
			<path id="Path_448" data-name="Path 448" class="cls-34" d="m 640.9,335.8 a 29.6,29.6 0 1 0 29.6,29.6 29.6,29.6 0 0 0 -29.6,-29.6 z m 0,54.2 a 24.582,24.582 0 1 1 17.4,-7.2 24.6,24.6 0 0 1 -17.4,7.2 z" style="fill:url(#linear-gradient-29)" />
			<path id="Path_450" data-name="Path 450" class="cls-35" d="m 673.8,409.2 c 0,0 -6.4,12.1 -14.5,16.1 -8.1,4 -20.5,-0.8 -24.5,-4 -5.5,-4.4 -7.5,-19.4 -5.2,-19.4 2.1,0 4.1,1.6 10.8,2.4 v 0 c 1.8,0.2 3.9,0.4 6.5,0.5 a 45.6,45.6 0 0 0 15.3,-2.5 c 2.6,-0.9 4.3,-1.7 4.3,-1.7 4.7,0 7.3,8.6 7.3,8.6 z" style="fill:url(#linear-gradient-30)" />
			<path id="Path_456" data-name="Path 456" class="cls-36" d="m 673.8,409.2 c 0,0 -6.4,12.1 -14.5,16.1 -8.1,4 -20.5,-0.8 -24.5,-4 -5.5,-4.4 -7.5,-19.4 -5.2,-19.4 2.1,0 4.1,1.6 10.8,2.4 -0.4,0 -6.1,-0.4 -7.1,1.2 -1,1.7 10.4,18.3 21.7,13.7 11.4,-4.6 9,-16.9 7.1,-16.9 v 0 c 2.6,-0.9 4.3,-1.7 4.3,-1.7 4.8,0 7.4,8.6 7.4,8.6 z" style="fill:url(#linear-gradient-31)" />
			<path id="Path_451" data-name="Path 451" class="cls-37" d="m 665.5,401.2 c 0,0 -0.6,8.9 2.8,10.1 3.4,1.2 5.5,-2.1 5.5,-2.1 l 1.7,-3.6 z" style="fill:url(#linear-gradient-32)" />
			<path id="Path_452" data-name="Path 452" class="cls-38" d="m 655,390.4 c 0,0 12.2,13.4 20.5,18.8 0,0 5.2,-0.6 6.2,-5.7 l -17.8,-20.6 z" style="fill:url(#linear-gradient-33)" />
			<path id="Path_453" data-name="Path 453" class="cls-39" d="m 676.8,397.7 c 0,0 -11.4,-8.7 -13.5,-9.4 a 17.375,17.375 0 0 0 -2.4,4.6 c -0.7,2.5 12.3,14.7 12.3,14.7 0,0 -12.1,-9.8 -17.6,-16.5 0,0 6.1,-4.3 8.9,-7.4 z" style="fill:url(#linear-gradient-34)" />
			<path id="Path_454" data-name="Path 454" class="cls-40" d="m 662,397.8 c -0.2,0.7 -5.1,2.1 -6.5,-0.5 -0.1,-0.3 -0.3,-0.5 -0.3,-0.8 a 3.744,3.744 0 0 1 1.3,-4.6 v 0 l 0.1,0.1 c 0.7,0.6 5.5,5.1 5.4,5.8 z" style="fill:url(#linear-gradient-35)" />
			<path id="Path_455" data-name="Path 455" class="cls-41" d="m 676.8,397.7 -2.4,-2.8 c 0,0 -8.2,-4.1 -9.8,-11.3 v 0 c 0,0 1.9,-3.9 5.9,-4 1.6,0 3.1,2.1 4.2,4.9 v 0 c 1.6,4.4 2.6,10.4 2.1,13.2 z" style="fill:url(#linear-gradient-36)" />
			<path id="Path_457" data-name="Path 457" class="cls-42" d="m 662,397.8 c -0.2,0.7 -5.1,2.1 -6.5,-0.5 -0.1,-0.3 -0.3,-0.5 -0.3,-0.8 1.1,1.4 2.8,1.1 3.3,-0.4 0.5,-1.5 -1.4,-3.6 -1.8,-4.1 0.6,0.6 5.4,5.1 5.3,5.8 z" style="fill:url(#linear-gradient-37)" />
			<path id="Path_458" data-name="Path 458" class="cls-43" d="m 676.8,397.7 -2.4,-2.8 c 0,0 -8.2,-4.1 -9.8,-11.3 0.2,0.4 4.1,6.5 8.3,7.1 3.1,0.4 1.9,-5.7 1.8,-6.2 v 0 c 1.6,4.4 2.6,10.4 2.1,13.2 z" style="fill:url(#linear-gradient-38)" />
			<g id="ranka">
				<path id="Path_409" data-name="Path 409" class="cls-44" d="m 589.3,417 a 54.736,54.736 0 0 1 -1.9,10 c 0,0 -1,1.4 -2.8,3.6 a 70.291,70.291 0 0 1 -31.5,20.5 c -0.4,0.1 -0.8,0.3 -1.2,0.4 -2.6,0.8 -7.4,-7.1 -4.9,-13.8 a 8.18,8.18 0 0 1 0.9,-1.9 37.016,37.016 0 0 1 5.8,-6.5 c 7.1,-6.7 18.8,-15.5 29.1,-20.7 v 0 a 64.527,64.527 0 0 1 6.8,-3 67.046,67.046 0 0 1 -0.3,11.4 z" style="fill:url(#linear-gradient-39)" />
				<path id="Path_410" data-name="Path 410" class="cls-45" d="m 553.1,451 a 9.011,9.011 0 0 1 -1,0.9 c -3.9,2.9 -9.6,1.2 -6.5,-10.9 a 10.5,10.5 0 0 1 1.3,-3.4 5.515,5.515 0 0 1 4.3,-2.9 c 5.4,-0.5 6,11.6 1.9,16.3 z" style="fill:url(#linear-gradient-40)" />
				<path id="Path_411" data-name="Path 411" class="cls-46" d="m 589.3,417 -4.8,13.6 a 70.29,70.29 0 0 1 -31.5,20.5 9.01,9.01 0 0 1 -1,0.9 c -3.9,2.9 -9.6,1.2 -6.5,-10.9 a 10.5,10.5 0 0 1 1.3,-3.4 8.18,8.18 0 0 1 0.9,-1.9 37.021,37.021 0 0 1 5.8,-6.5 c -0.2,0.4 -1.6,3.1 1.4,4.2 3.2,1.1 19.8,-2.8 27.2,-10.7 7.3,-7.8 7.1,-15.2 0.6,-14.2 a 64.52,64.52 0 0 1 6.8,-3 51.765,51.765 0 0 1 -0.2,11.4 z" style="fill:url(#linear-gradient-41)" />
				<path id="Path_412" data-name="Path 412" class="cls-47" d="m 550.2,439.5 c -4.1,-0.7 -16.6,8.3 -20.6,26.6 0,0 0.3,1.5 4,1.6 3.7,0.1 10.1,-6.7 14.4,-10.7 4.3,-4 9.1,-16.2 2.2,-17.5 z" style="fill:url(#linear-gradient-42)" />
				<path id="Path_413" data-name="Path 413" class="cls-48" d="m 533.6,467.7 c 0,0 6.5,-9.7 7.8,-12.1 0,0 2.5,-12 6.3,-14.4 3.8,-2.3 5.1,0.3 6,3.3 0.8,3 -5.5,21.1 -20.1,23.2 z" style="fill:url(#linear-gradient-43)" />
				<path id="Path_414" data-name="Path 414" class="cls-49" d="m 541.1,457.6 c 0,0 1.6,3.6 3.5,4.1 0,0 -1.7,-11.6 1.3,-17.8 a 34.885,34.885 0 0 0 -4.8,13.7 z" style="fill:url(#linear-gradient-44)" />
				<path id="Path_415" data-name="Path 415" class="cls-50" d="m 547.5,442 c 0,0 4,-2.8 6.2,2.5 a 48,48 0 0 1 -5.6,17.5 c 0,0 -2.5,0.7 -3.5,-0.3 -2.1,-2.3 -1.5,-16.6 2.9,-19.7 z" style="fill:url(#linear-gradient-45)" />
				<path id="Path_459" data-name="Path 459" class="cls-13" d="m 545.9,448.5 a 8.092,8.092 0 0 0 -1.1,5.1 8.094,8.094 0 0 0 1.1,-5.1 z" />
				<path id="Path_460" data-name="Path 460" class="cls-13" d="m 534.9,461.6 a 6.561,6.561 0 0 1 2.3,-3.9 c 0,-0.1 -0.9,3.3 -2.3,3.9 z" />
				<path id="Path_461" data-name="Path 461" class="cls-13" d="m 559.8,426.8 c -0.3,-0.5 5.7,-6.3 7.5,-6.5 1.7,-0.2 -0.6,0.6 -2,2.8 -1.6,2.1 -5,4.7 -5.5,3.7 z" />
				<path id="Path_462" data-name="Path 462" class="cls-13" d="m 568.9,419.1 c -0.6,-0.7 2.7,-2 2.7,-2 0,0 -2.1,2.7 -2.7,2 z" />
			</g>
			<path id="Path_463" data-name="Path 463" class="cls-13" d="m 640.9,408.5 c -0.2,1.4 6.8,1.4 6.7,0 -0.1,-1.4 -6.5,-1.4 -6.7,0 z" />
			<path id="Path_464" data-name="Path 464" class="cls-13" d="m 594.5,480.1 c -0.9,0.4 0.8,5.2 2.1,5.1 1.3,-0.1 -1,-5.6 -2.1,-5.1 z" />
			<ellipse id="Ellipse_48" data-name="Ellipse 48" class="cls-51" cx="24.6" cy="23.700001" rx="24.6" ry="23.700001" transform="translate(616.3,340.5)" style="fill:url(#radial-gradient-3)" />
			<path id="Path_465" data-name="Path 465" class="cls-52" d="m 619.1,358.4 c 0.2,4.4 7.3,5.9 21.1,-0.9 11,-5.4 21.5,0.8 22.5,-0.9 0.9,-1.7 -10.6,-15.6 -23.1,-14.1 -12.5,1.6 -20.7,12 -20.5,15.9 z" style="fill:url(#linear-gradient-46)" />
			<path id="Path_449" data-name="Path 449" class="cls-53" d="m 640.9,333.7 a 29.6,29.6 0 1 0 29.6,29.6 29.6,29.6 0 0 0 -29.6,-29.6 z m 0,54.2 a 24.582,24.582 0 1 1 17.4,-7.2 24.6,24.6 0 0 1 -17.4,7.2 z" style="fill:url(#linear-gradient-47)" />
		</g>
		<ellipse id="Ellipse_81" data-name="Ellipse 81" class="cls-54" cx="610.18207" cy="508.87112" rx="40.799999" ry="9.1000004" style="fill:url(#radial-gradient-4)" />
	</g>
</svg>
