<?xml version="1.0" encoding="UTF-8" standalone="no"?>
<svg
   xmlns:dc="http://purl.org/dc/elements/1.1/"
   xmlns:cc="http://creativecommons.org/ns#"
   xmlns:rdf="http://www.w3.org/1999/02/22-rdf-syntax-ns#"
   xmlns:svg="http://www.w3.org/2000/svg"
   xmlns="http://www.w3.org/2000/svg"
   xmlns:xlink="http://www.w3.org/1999/xlink"
   xmlns:sodipodi="http://sodipodi.sourceforge.net/DTD/sodipodi-0.dtd"
   xmlns:inkscape="http://www.inkscape.org/namespaces/inkscape"
   width="192.21448"
   height="209.91284"
   viewBox="0 0 192.21448 209.91284"
   version="1.1"
   id="svg176"
   sodipodi:docname="robo-8.svg"
   inkscape:version="1.0.1 (3bc2e813f5, 2020-09-07)">
  <metadata
     id="metadata180">
    <rdf:RDF>
      <cc:Work
         rdf:about="">
        <dc:format>image/svg+xml</dc:format>
        <dc:type
           rdf:resource="http://purl.org/dc/dcmitype/StillImage" />
        <dc:title></dc:title>
      </cc:Work>
    </rdf:RDF>
  </metadata>
  <sodipodi:namedview
     pagecolor="#ffffff"
     bordercolor="#666666"
     borderopacity="1"
     objecttolerance="10"
     gridtolerance="10"
     guidetolerance="10"
     inkscape:pageopacity="0"
     inkscape:pageshadow="2"
     inkscape:window-width="2560"
     inkscape:window-height="1361"
     id="namedview178"
     showgrid="false"
     fit-margin-top="0"
     fit-margin-left="0"
     fit-margin-right="0"
     fit-margin-bottom="0"
     inkscape:zoom="0.78024549"
     inkscape:cx="-429.44287"
     inkscape:cy="-129.76156"
     inkscape:window-x="-9"
     inkscape:window-y="-9"
     inkscape:window-maximized="1"
     inkscape:current-layer="Component_28_4" />
  <defs
     id="defs110">
    <style
       id="style2">

    ellipse#Ellipse_51 {
	transition: all 100ms linear;
}

g#ranka-kaire {
  transition: all 100ms linear;
  transform-box: fill-box;
}

g#ranka-desine {
  transition: all 100ms linear;
  transform-box: fill-box;
}

g#Group_673{
	transition: all 100ms linear;
}

g#Component_28_4:hover g#ranka-kaire {
	transition: all 100ms linear;
  transform-box: fill-box;
	transform: translate(5px, -14px) rotate(26deg);
}

g#Component_28_4:hover g#ranka-desine {
	transition: all 100ms linear;
  transform-box: fill-box;
	transform: translate(1px, 0px) rotate(-14deg);
}

g#Component_28_4:hover ellipse#Ellipse_51 {
ry: 7.6px;
	rx: 28.8px;
                transition:all 100ms linear;
}

g#Component_28_4:hover g#Group_673 {
	transition: all 100ms linear;
	transform:translateY(-14px);
}


      .cls-1 {
        fill: #1a75fa;
      }

      .cls-2 {
        fill: #e5f6ff;
      }

      .cls-22, .cls-29, .cls-3, .cls-37, .cls-38, .cls-47 {
        opacity: 0.5;
      }

      .cls-3 {
        fill: url(#radial-gradient);
      }

      .cls-4 {
        fill: url(#linear-gradient);
      }

      .cls-5 {
        fill: url(#linear-gradient-2);
      }

      .cls-10, .cls-18, .cls-26, .cls-44, .cls-6 {
        opacity: 0.3;
      }

      .cls-6 {
        fill: url(#linear-gradient-3);
      }

      .cls-7 {
        fill: url(#linear-gradient-4);
      }

      .cls-8 {
        fill: url(#linear-gradient-5);
      }

      .cls-9 {
        fill: #fff;
      }

      .cls-10 {
        fill: url(#linear-gradient-6);
      }

      .cls-11 {
        fill: url(#linear-gradient-7);
      }

      .cls-12 {
        fill: url(#linear-gradient-8);
      }

      .cls-13 {
        fill: url(#radial-gradient-2);
      }

      .cls-14 {
        fill: url(#linear-gradient-9);
      }

      .cls-15 {
        fill: url(#linear-gradient-10);
      }

      .cls-16 {
        fill: url(#radial-gradient-3);
      }

      .cls-17 {
        fill: url(#linear-gradient-11);
      }

      .cls-18 {
        fill: url(#linear-gradient-12);
      }

      .cls-19 {
        fill: url(#linear-gradient-13);
      }

      .cls-20 {
        fill: url(#linear-gradient-14);
      }

      .cls-21 {
        fill: url(#linear-gradient-15);
      }

      .cls-22 {
        fill: url(#linear-gradient-16);
      }

      .cls-23 {
        fill: url(#linear-gradient-17);
      }

      .cls-24 {
        fill: url(#linear-gradient-18);
      }

      .cls-25 {
        fill: url(#linear-gradient-19);
      }

      .cls-26 {
        fill: url(#linear-gradient-20);
      }

      .cls-27 {
        fill: url(#linear-gradient-21);
      }

      .cls-28 {
        fill: url(#radial-gradient-4);
      }

      .cls-29 {
        fill: url(#linear-gradient-22);
      }

      .cls-30, .cls-31, .cls-40, .cls-41 {
        opacity: 0.72;
      }

      .cls-30 {
        fill: url(#linear-gradient-23);
      }

      .cls-31 {
        fill: url(#linear-gradient-24);
      }

      .cls-32 {
        fill: url(#linear-gradient-25);
      }

      .cls-33 {
        fill: url(#linear-gradient-26);
      }

      .cls-34 {
        fill: url(#radial-gradient-5);
      }

      .cls-35 {
        fill: url(#radial-gradient-6);
      }

      .cls-36 {
        fill: #2f95cd;
      }

      .cls-37 {
        fill: url(#linear-gradient-27);
      }

      .cls-38 {
        fill: url(#linear-gradient-28);
      }

      .cls-39 {
        opacity: 0.2;
        fill: url(#linear-gradient-29);
      }

      .cls-40 {
        fill: url(#linear-gradient-30);
      }

      .cls-41 {
        fill: url(#linear-gradient-31);
      }

      .cls-42 {
        fill: url(#linear-gradient-32);
      }

      .cls-43 {
        fill: url(#linear-gradient-33);
      }

      .cls-44 {
        fill: url(#linear-gradient-34);
      }

      .cls-45 {
        fill: url(#linear-gradient-35);
      }

      .cls-46 {
        fill: url(#linear-gradient-36);
      }

      .cls-47 {
        fill: url(#linear-gradient-37);
      }

      .cls-48 {
        fill: url(#linear-gradient-38);
      }
    </style>
    <radialGradient
       id="radial-gradient"
       cx="19.268627"
       cy="19.191553"
       r="19.307163"
       gradientUnits="userSpaceOnUse"
       gradientTransform="matrix(2.1174315,0,0,0.47227029,1047.2195,768.83458)"
       fx="19.268627"
       fy="19.191553">
      <stop
         offset="0"
         stop-color="#559dea"
         id="stop4" />
      <stop
         offset="0.431"
         stop-color="#5ea9f5"
         id="stop6" />
      <stop
         offset="1"
         stop-color="#fff"
         stop-opacity="0"
         id="stop8" />
    </radialGradient>
    <linearGradient
       id="linear-gradient"
       x1="-0.39300001"
       y1="0.91000003"
       x2="-0.221"
       y2="-0.106"
       gradientUnits="objectBoundingBox">
      <stop
         offset="0"
         stop-color="#cbc1f7"
         id="stop11" />
      <stop
         offset="1"
         stop-color="#e8dcf7"
         id="stop13" />
    </linearGradient>
    <linearGradient
       id="linear-gradient-2"
       x1="-0.25099999"
       y1="0.84500003"
       x2="-0.25099999"
       y2="-0.46000001"
       gradientUnits="objectBoundingBox">
      <stop
         offset="0"
         stop-color="#be9dea"
         id="stop16" />
      <stop
         offset="1"
         stop-color="#9e8cef"
         id="stop18" />
    </linearGradient>
    <linearGradient
       id="linear-gradient-3"
       x1="-0.24600001"
       y1="0.92400002"
       x2="-0.24600001"
       y2="-0.146"
       gradientUnits="objectBoundingBox">
      <stop
         offset="0"
         stop-color="#9d68c2"
         id="stop21" />
      <stop
         offset="1"
         stop-color="#ccedff"
         id="stop23" />
    </linearGradient>
    <linearGradient
       id="linear-gradient-4"
       x1="1420.034"
       y1="597.15949"
       x2="1427.2443"
       y2="561.90555"
       xlink:href="#linear-gradient"
       gradientTransform="scale(0.78381956,1.2758038)"
       gradientUnits="userSpaceOnUse" />
    <linearGradient
       id="linear-gradient-5"
       x1="782.7693"
       y1="1048.5671"
       x2="782.7693"
       y2="1025.2298"
       xlink:href="#linear-gradient-2"
       gradientTransform="scale(1.4273249,0.70061135)"
       gradientUnits="userSpaceOnUse" />
    <linearGradient
       id="linear-gradient-6"
       x1="1387.8701"
       y1="612.52354"
       x2="1387.8701"
       y2="578.16826"
       xlink:href="#linear-gradient-3"
       gradientTransform="scale(0.80508088,1.2421112)"
       gradientUnits="userSpaceOnUse" />
    <linearGradient
       id="linear-gradient-7"
       x1="0.498"
       y1="0.99900001"
       x2="0.498"
       gradientUnits="objectBoundingBox">
      <stop
         offset="0"
         stop-color="#b9acf4"
         id="stop29" />
      <stop
         offset="1"
         stop-color="#e1d1f5"
         id="stop31" />
    </linearGradient>
    <linearGradient
       id="linear-gradient-8"
       x1="1590.3237"
       y1="424.27978"
       x2="1590.3237"
       y2="410.95876"
       xlink:href="#linear-gradient-2"
       gradientTransform="scale(0.70708865,1.4142498)"
       gradientUnits="userSpaceOnUse" />
    <radialGradient
       id="radial-gradient-2"
       cx="0.498"
       cy="0.50099999"
       r="0.38499999"
       gradientTransform="matrix(2.299,0,0,1,-0.649,0)"
       gradientUnits="objectBoundingBox">
      <stop
         offset="0"
         stop-color="#94fdff"
         id="stop35" />
      <stop
         offset="1"
         stop-color="#22e0ff"
         id="stop37" />
    </radialGradient>
    <linearGradient
       id="linear-gradient-9"
       x1="1240.0067"
       y1="466.24627"
       x2="1240.0067"
       y2="440.03444"
       xlink:href="#linear-gradient-7"
       gradientTransform="scale(0.75538425,1.3238296)"
       gradientUnits="userSpaceOnUse" />
    <linearGradient
       id="linear-gradient-10"
       x1="1328.2484"
       y1="425.23928"
       x2="1328.2484"
       y2="411.90498"
       xlink:href="#linear-gradient-2"
       gradientTransform="scale(0.70708931,1.4142485)"
       gradientUnits="userSpaceOnUse" />
    <radialGradient
       id="radial-gradient-3"
       cx="1603.9226"
       cy="391.45102"
       r="8.6886034"
       gradientTransform="scale(0.6500186,1.5384175)"
       xlink:href="#radial-gradient-2"
       fx="1603.9226"
       fy="391.45102"
       gradientUnits="userSpaceOnUse" />
    <linearGradient
       id="linear-gradient-11"
       x1="1159.768"
       y1="681.27687"
       x2="1164.4889"
       y2="646.24495"
       xlink:href="#linear-gradient"
       gradientTransform="scale(0.96363691,1.0377353)"
       gradientUnits="userSpaceOnUse" />
    <linearGradient
       id="linear-gradient-12"
       x1="1421.27"
       y1="554.8507"
       x2="1421.27"
       y2="524.36384"
       xlink:href="#linear-gradient-3"
       gradientTransform="scale(0.78410409,1.2753409)"
       gradientUnits="userSpaceOnUse" />
    <linearGradient
       id="linear-gradient-13"
       x1="1466.2285"
       y1="545.6406"
       x2="1463.9779"
       y2="532.39321"
       xlink:href="#linear-gradient-2"
       gradientTransform="scale(0.77393823,1.2920928)"
       gradientUnits="userSpaceOnUse" />
    <linearGradient
       id="linear-gradient-14"
       x1="846.21934"
       y1="953.03263"
       x2="847.61665"
       y2="932.68436"
       xlink:href="#linear-gradient"
       gradientTransform="scale(1.3516173,0.73985437)"
       gradientUnits="userSpaceOnUse" />
    <linearGradient
       id="linear-gradient-15"
       x1="800.38419"
       y1="997.66714"
       x2="799.56976"
       y2="981.48615"
       xlink:href="#linear-gradient-2"
       gradientTransform="scale(1.4261335,0.70119664)"
       gradientUnits="userSpaceOnUse" />
    <linearGradient
       id="linear-gradient-16"
       y1="1155.2602"
       x2="693.2246"
       y2="1155.2602"
       gradientUnits="userSpaceOnUse"
       gradientTransform="scale(1.6635528,0.6011231)"
       x1="683.77753">
      <stop
         offset="0"
         stop-color="#755cbb"
         id="stop48" />
      <stop
         offset="1"
         stop-color="#ccedff"
         id="stop50" />
    </linearGradient>
    <linearGradient
       id="linear-gradient-17"
       x1="706.93775"
       y1="1161.2649"
       x2="707.70201"
       y2="1144.2312"
       xlink:href="#linear-gradient"
       gradientTransform="scale(1.6783569,0.59582083)"
       gradientUnits="userSpaceOnUse" />
    <linearGradient
       id="linear-gradient-18"
       x1="1075.8179"
       y1="740.27074"
       x2="1075.2681"
       y2="734.10619"
       gradientUnits="userSpaceOnUse"
       gradientTransform="scale(1.0679316,0.93638956)">
      <stop
         offset="0"
         stop-color="#cbc1f7"
         id="stop54" />
      <stop
         offset="1"
         stop-color="#d4bef1"
         id="stop56" />
    </linearGradient>
    <linearGradient
       id="linear-gradient-19"
       x1="1281.2091"
       y1="618.83697"
       x2="1292.5169"
       y2="554.43459"
       xlink:href="#linear-gradient"
       gradientTransform="scale(0.84500607,1.1834235)"
       gradientUnits="userSpaceOnUse" />
    <linearGradient
       id="linear-gradient-20"
       x1="1147.9614"
       y1="693.30036"
       x2="1147.9614"
       y2="635.2228"
       xlink:href="#linear-gradient-3"
       gradientTransform="scale(0.94648514,1.0565406)"
       gradientUnits="userSpaceOnUse" />
    <linearGradient
       id="linear-gradient-21"
       x1="1067.1961"
       y1="744.09651"
       x2="1067.1961"
       y2="694.93645"
       xlink:href="#linear-gradient-2"
       gradientTransform="scale(1.0175655,0.9827377)"
       gradientUnits="userSpaceOnUse" />
    <radialGradient
       id="radial-gradient-4"
       cx="1068.1622"
       cy="737.75822"
       r="37.509696"
       gradientTransform="scale(1.0175811,0.98272267)"
       xlink:href="#radial-gradient-2"
       fx="1068.1622"
       fy="737.75822"
       gradientUnits="userSpaceOnUse" />
    <linearGradient
       id="linear-gradient-22"
       x1="0.5"
       y1="1.002"
       x2="0.5"
       y2="0.003"
       gradientUnits="objectBoundingBox">
      <stop
         offset="0"
         stop-color="#8da4e5"
         id="stop63" />
      <stop
         offset="1"
         stop-color="#755cbb"
         id="stop65" />
    </linearGradient>
    <linearGradient
       id="linear-gradient-23"
       x1="533.72824"
       y1="1486.5091"
       x2="533.72824"
       y2="1469.4543"
       gradientUnits="userSpaceOnUse"
       gradientTransform="scale(2.0368692,0.49094955)">
      <stop
         offset="0"
         stop-color="#fff"
         stop-opacity="0.969"
         id="stop68" />
      <stop
         offset="1"
         stop-color="#fff"
         stop-opacity="0"
         id="stop70" />
    </linearGradient>
    <linearGradient
       id="linear-gradient-24"
       x1="-0.001"
       y1="0.49700001"
       x2="0.99800003"
       y2="0.49700001"
       gradientUnits="objectBoundingBox">
      <stop
         offset="0"
         stop-color="#59eeff"
         id="stop73" />
      <stop
         offset="1"
         stop-color="#eff4ff"
         id="stop75" />
    </linearGradient>
    <linearGradient
       id="linear-gradient-25"
       x1="1013.4481"
       y1="706.89478"
       x2="1023.3416"
       y2="616.96185"
       xlink:href="#linear-gradient"
       gradientTransform="scale(1.0684147,0.93596617)"
       gradientUnits="userSpaceOnUse" />
    <linearGradient
       id="linear-gradient-26"
       x1="982.14696"
       y1="725.37727"
       x2="982.14696"
       y2="648.37935"
       gradientUnits="userSpaceOnUse"
       gradientTransform="scale(1.105898,0.9042425)">
      <stop
         offset="0"
         stop-color="#0665bd"
         id="stop79" />
      <stop
         offset="1"
         stop-color="#1a1f77"
         id="stop81" />
    </linearGradient>
    <radialGradient
       id="radial-gradient-5"
       cx="1031.9116"
       cy="661.39232"
       r="9.285811"
       gradientTransform="scale(1.0717913,0.93301744)"
       xlink:href="#radial-gradient-2"
       fx="1031.9116"
       fy="661.39232"
       gradientUnits="userSpaceOnUse" />
    <radialGradient
       id="radial-gradient-6"
       cx="981.23877"
       cy="670.41595"
       r="9.4095821"
       gradientTransform="scale(1.0864105,0.92046238)"
       xlink:href="#radial-gradient-2"
       fx="981.23877"
       fy="670.41595"
       gradientUnits="userSpaceOnUse" />
    <linearGradient
       id="linear-gradient-27"
       x1="684.43832"
       y1="929.46178"
       x2="724.20089"
       y2="929.46178"
       gradientUnits="userSpaceOnUse"
       gradientTransform="scale(1.5443278,0.64753092)">
      <stop
         offset="0"
         stop-color="#0d49a1"
         id="stop86" />
      <stop
         offset="1"
         stop-color="#fff"
         stop-opacity="0"
         id="stop88" />
    </linearGradient>
    <linearGradient
       id="linear-gradient-28"
       x1="461.03682"
       y1="1503.8381"
       x2="480.36347"
       y2="1503.8381"
       gradientUnits="userSpaceOnUse"
       gradientTransform="scale(2.310206,0.43286184)">
      <stop
         offset="0"
         stop-color="#0a56ae"
         id="stop91" />
      <stop
         offset="1"
         stop-color="#6a9bff"
         id="stop93" />
    </linearGradient>
    <linearGradient
       id="linear-gradient-29"
       x1="1984.4873"
       y1="325.56136"
       x2="1984.4873"
       y2="313.40225"
       gradientUnits="userSpaceOnUse"
       gradientTransform="scale(0.53354106,1.87427)">
      <stop
         offset="0"
         stop-color="#0b52aa"
         id="stop96" />
      <stop
         offset="1"
         stop-color="#6a9bff"
         id="stop98" />
    </linearGradient>
    <linearGradient
       id="linear-gradient-30"
       x1="1225.637"
       y1="542.93168"
       x2="1235.2964"
       y2="542.93168"
       xlink:href="#linear-gradient-24"
       gradientTransform="scale(0.91716729,1.0903136)"
       gradientUnits="userSpaceOnUse" />
    <linearGradient
       id="linear-gradient-31"
       x1="1138.8384"
       y1="539.13944"
       x2="1149.5584"
       y2="539.13944"
       xlink:href="#linear-gradient-24"
       gradientTransform="scale(0.91170993,1.0968401)"
       gradientUnits="userSpaceOnUse" />
    <linearGradient
       id="linear-gradient-32"
       x1="1442.7582"
       y1="525.61524"
       x2="1453.1656"
       y2="481.96314"
       xlink:href="#linear-gradient"
       gradientTransform="scale(0.72623311,1.3769683)"
       gradientUnits="userSpaceOnUse" />
    <linearGradient
       id="linear-gradient-33"
       x1="820.36029"
       y1="919.73075"
       x2="820.36029"
       y2="907.60288"
       xlink:href="#linear-gradient-2"
       gradientTransform="scale(1.2718393,0.78626283)"
       gradientUnits="userSpaceOnUse" />
    <linearGradient
       id="linear-gradient-34"
       x1="1349.9999"
       y1="562.48764"
       x2="1349.9999"
       y2="523.17733"
       xlink:href="#linear-gradient-3"
       gradientTransform="scale(0.77842186,1.2846505)"
       gradientUnits="userSpaceOnUse" />
    <linearGradient
       id="linear-gradient-35"
       x1="1261.6025"
       y1="614.39675"
       x2="1266.1428"
       y2="589.88817"
       xlink:href="#linear-gradient"
       gradientTransform="scale(0.82380368,1.2138814)"
       gradientUnits="userSpaceOnUse" />
    <linearGradient
       id="linear-gradient-36"
       x1="1333.3668"
       y1="582.66346"
       x2="1329.7614"
       y2="561.03056"
       xlink:href="#linear-gradient-2"
       gradientTransform="scale(0.78232199,1.2782461)"
       gradientUnits="userSpaceOnUse" />
    <linearGradient
       id="linear-gradient-37"
       x1="1713.4755"
       y1="448.19089"
       x2="1710.8507"
       y2="438.64093"
       xlink:href="#linear-gradient-22"
       gradientTransform="scale(0.60915448,1.6416197)"
       gradientUnits="userSpaceOnUse" />
    <linearGradient
       id="linear-gradient-38"
       x1="1645.6383"
       y1="468.07396"
       x2="1649.5616"
       y2="455.42664"
       xlink:href="#linear-gradient"
       gradientTransform="scale(0.63551821,1.573519)"
       gradientUnits="userSpaceOnUse" />
    <linearGradient
       inkscape:collect="always"
       xlink:href="#linear-gradient"
       id="linearGradient182"
       gradientUnits="userSpaceOnUse"
       x1="1221.8926"
       y1="651.00319"
       x2="1226.9777"
       y2="620.96555"
       gradientTransform="scale(0.86107246,1.1613425)" />
    <linearGradient
       inkscape:collect="always"
       xlink:href="#linear-gradient-2"
       id="linearGradient184"
       gradientUnits="userSpaceOnUse"
       x1="679.82632"
       y1="1138.937"
       x2="679.82632"
       y2="1117.5908"
       gradientTransform="scale(1.5529299,0.64394409)" />
    <linearGradient
       inkscape:collect="always"
       xlink:href="#linear-gradient-3"
       id="linearGradient186"
       gradientUnits="userSpaceOnUse"
       x1="1225.6143"
       y1="651.66498"
       x2="1225.6143"
       y2="620.04333"
       gradientTransform="scale(0.86142933,1.1608613)" />
    <linearGradient
       inkscape:collect="always"
       xlink:href="#linear-gradient-7"
       id="linearGradient188"
       gradientUnits="userSpaceOnUse"
       x1="1483.8251"
       y1="465.68066"
       x2="1483.8251"
       gradientTransform="scale(0.75614045,1.3225056)"
       y2="439.46883" />
    <radialGradient
       inkscape:collect="always"
       xlink:href="#radial-gradient-2"
       id="radialGradient190"
       gradientUnits="userSpaceOnUse"
       gradientTransform="scale(0.65953822,1.5162124)"
       cx="1712.0969"
       cy="396.04222"
       r="8.6587473"
       fx="1712.0969"
       fy="396.04222" />
    <linearGradient
       inkscape:collect="always"
       xlink:href="#linear-gradient-22"
       id="linearGradient192"
       gradientUnits="userSpaceOnUse"
       x1="689.84434"
       y1="1055.022"
       x2="689.84434"
       y2="1031.4856"
       gradientTransform="scale(1.5734917,0.63552925)" />
    <linearGradient
       inkscape:collect="always"
       xlink:href="#linear-gradient-24"
       id="linearGradient194"
       gradientUnits="userSpaceOnUse"
       x1="735.53126"
       y1="1009.2972"
       x2="764.50311"
       y2="1009.2972"
       gradientTransform="scale(1.449831,0.68973557)" />
  </defs>
  <g
     id="Component_28_4"
     data-name="Component 28 – 4"
     transform="translate(-986.47302,-577.12173)">
    <g
       id="deme">
      <path
         id="Path_651"
         data-name="Path 651"
         class="cls-1"
         d="m 1170.1,733.3 c -3.3,6.6 -7.2,10.6 -11.3,12.6 -6.4,3.2 -13.5,2 -20.9,-0.8 a 1.444,1.444 0 0 0 -0.7,-0.2 l -3,-1.2 c -11.6,-4.9 -23.6,-12.4 -34,-11.4 -4.7,0.5 -9.9,2.4 -15.4,5 -5,2.3 -10.2,5.2 -15.8,7.9 -1,0.5 -2,1 -3,1.4 -2.6,1.2 -5.2,2.4 -7.8,3.4 -15,5.9 -31.7,8.5 -49.6,-2.5 -12.5,-7.7 -37.6,-51.2 -8.9,-94.2 31.9,-47.8 117.2,-47.1 141.9,-33.5 43.6,24.1 42.4,86 28.5,113.5 z" />
      <g
         id="Group_671"
         data-name="Group 671">
        <path
           id="Path_652"
           data-name="Path 652"
           class="cls-1"
           d="m 988.8,747 a 23.36,23.36 0 0 0 -0.8,10.5 4.285,4.285 0 0 0 0.5,1.6 3.152,3.152 0 0 0 2.9,1.2 6.867,6.867 0 0 0 6,-4.7 8.324,8.324 0 0 0 -1.5,-7.6 5.644,5.644 0 0 0 -3.7,-2.3 3.228,3.228 0 0 0 -3.5,2.1 0.625,0.625 0 0 0 1.1,-0.2 z" />
        <path
           id="Path_654"
           data-name="Path 654"
           class="cls-2"
           d="m 1134.9,603 a 0.43,0.43 0 0 1 0.4,0.4 0.55,0.55 0 0 1 -0.3,0.5 c -0.1,0.1 -0.2,0.1 -0.3,0.2 -0.3,0.1 -0.5,-0.2 -0.6,-0.4 a 0.634,0.634 0 0 1 0.5,-0.6 0.675,0.675 0 0 1 0.6,0.4 z" />
        <path
           id="Path_655"
           data-name="Path 655"
           class="cls-2"
           d="m 1133,607.4 v 0.4 c 0.2,0.1 0.5,0.1 0.6,-0.1 0.1,-0.2 0.1,-0.5 -0.1,-0.6 a 0.337,0.337 0 0 0 -0.5,0.3 z" />
      </g>
    </g>
    <ellipse
       id="Ellipse_51"
       data-name="Ellipse 51"
       class="cls-3"
       cx="1088.0195"
       cy="777.93457"
       rx="40.799999"
       ry="9.1000004"
       style="fill:url(#radial-gradient)" />
    <g
       id="Group_673"
       data-name="Group 673">
      <path
         id="Path_658"
         data-name="Path 658"
         class="cls-4"
         d="m 1087.6,736.2 c 0,7 -2.4,23.7 -7.4,22.9 -1.1,-0.2 -2.3,-1.3 -3.7,-3 -4.2,-5.1 -9.3,-15.8 -12.1,-23.1 -1.6,-4 -2.5,-7 -2.2,-7.5 1.5,-3.4 23.6,6.5 25,7.8 0.3,0.1 0.4,1.2 0.4,2.9 z"
         style="fill:url(#linearGradient182)" />
      <path
         id="Path_659"
         data-name="Path 659"
         class="cls-5"
         d="m 1062.2,725.4 c -1.7,3.2 18.4,13.1 25.3,8.4 0,0 -23.1,-12.7 -25.3,-8.4 z"
         style="fill:url(#linearGradient184)" />
      <path
         id="Path_660"
         data-name="Path 660"
         class="cls-6"
         d="m 1072,736.1 c -0.8,1.4 3.2,17.2 8.2,23 -1.1,-0.2 -2.3,-1.3 -3.7,-3 -1.1,-2.7 -2.8,-6.7 -4.4,-10.7 a 53.512,53.512 0 0 0 -7.8,-12.4 c -1.6,-4 -2.5,-7 -2.2,-7.5 1.5,-3.4 23.6,6.5 25,7.8 0.3,0.2 0.4,1.4 0.4,3 0.1,-0.1 -14.7,-1.6 -15.5,-0.2 z"
         style="fill:url(#linearGradient186)" />
      <path
         id="Path_661"
         data-name="Path 661"
         class="cls-7"
         d="m 1111.5,728.6 c -0.2,0.6 -0.4,1.3 -0.6,1.9 -3,10.2 -8.3,25 -12.3,30.1 -1,1.2 -1.8,1.9 -2.6,1.8 a 1.422,1.422 0 0 1 -0.6,-0.2 4.617,4.617 0 0 1 -1.9,-2 v 0 c -3.9,-6 -6.7,-22.9 -6.1,-27.8 a 2.351,2.351 0 0 1 0.4,-1.2 c 3.3,-3.2 24.7,-12.6 25.5,-11 0.3,0.6 -0.5,3.8 -1.8,8.4 z"
         style="fill:url(#linear-gradient-4)" />
      <path
         id="Path_662"
         data-name="Path 662"
         class="cls-8"
         d="m 1087.4,732.5 c -0.8,1.4 20.3,1.3 25.9,-12.1 0,-0.1 -18.1,-0.8 -25.9,12.1 z"
         style="fill:url(#linear-gradient-5)" />
      <path
         id="Path_663"
         data-name="Path 663"
         class="cls-9"
         d="m 1098,739.1 c -0.9,0.1 -2.1,6.8 -0.8,7.4 1.3,0.6 2.8,-7.7 0.8,-7.4 z" />
      <path
         id="Path_664"
         data-name="Path 664"
         class="cls-10"
         d="m 1111.5,728.6 c 0,0 -11.8,1.6 -15.3,6.5 -3.4,4.9 -4.5,17.8 -2.7,25.2 -3.9,-6 -6.7,-22.9 -6.1,-27.8 a 2.351,2.351 0 0 1 0.4,-1.2 c 3.3,-3.2 24.7,-12.6 25.5,-11 0.3,0.5 -0.5,3.7 -1.8,8.3 z"
         style="fill:url(#linear-gradient-6)" />
      <path
         id="Path_670"
         data-name="Path 670"
         class="cls-11"
         d="m 1112.1,587.5 c 0,0 6.3,-5.4 13.9,-6.3 0,0 2.3,1.1 5.1,9.6 2.8,8.5 -2.3,25.1 -2.3,25.1 z"
         style="fill:url(#linearGradient188)" />
      <path
         id="Path_671"
         data-name="Path 671"
         class="cls-12"
         d="m 1126,581.2 a 26.86,26.86 0 0 0 -6.2,17.3 l 2.4,1.5 7,-14.4 c 0,0 -2.3,-4.5 -3.2,-4.4 z"
         style="fill:url(#linear-gradient-8)" />
      <path
         id="Path_672"
         data-name="Path 672"
         class="cls-13"
         d="m 1122,599.3 c 0,0 -1.6,-9.1 4.4,-15.9 0,0 6.8,3.2 9.6,15.1 2.8,11.9 -4.5,19 -4.5,19 z"
         style="fill:url(#radialGradient190)" />
      <path
         id="Path_673"
         data-name="Path 673"
         class="cls-9"
         d="m 1118.5,583.9 c -1.2,0.6 -1.1,1.9 1.3,1.6 2.4,-0.3 3.7,-2.2 3.4,-2.6 -0.2,-0.4 -3.4,0.3 -4.7,1 z" />
      <path
         id="Path_674"
         data-name="Path 674"
         class="cls-14"
         d="m 1059.6,588.9 c 0,0 -6.3,-5.4 -13.9,-6.3 0,0 -2.3,1.1 -5.1,9.6 -2.7,8.4 2.3,25.1 2.3,25.1 z"
         style="fill:url(#linear-gradient-9)" />
      <path
         id="Path_675"
         data-name="Path 675"
         class="cls-15"
         d="m 1045.7,582.5 a 26.86,26.86 0 0 1 6.2,17.3 l -2.4,1.5 -7,-14.4 c 0,0.1 2.4,-4.5 3.2,-4.4 z"
         style="fill:url(#linear-gradient-10)" />
      <path
         id="Path_676"
         data-name="Path 676"
         class="cls-16"
         d="m 1049.7,600.7 c 0,0 1.6,-9.1 -4.4,-15.9 0,0 -6.8,3.2 -9.6,15.1 a 21.918,21.918 0 0 0 5.3,19.8 z"
         style="fill:url(#radial-gradient-3)" />
      <path
         id="Path_677"
         data-name="Path 677"
         class="cls-9"
         d="m 1053.2,585.2 c 1.2,0.6 1.1,1.9 -1.3,1.6 -2.4,-0.3 -3.7,-2.2 -3.4,-2.6 0.2,-0.4 3.4,0.3 4.7,1 z" />
      <g
         id="ranka-desine">
        <path
           id="Path_656"
           data-name="Path 656"
           class="cls-17"
           d="m 1138.5,689.2 c 0,0 0,8.2 -3.3,13.3 a 12.143,12.143 0 0 1 -8.9,5.1 20.536,20.536 0 0 1 -9.1,-0.9 c -7.1,-2.2 -11.7,-13.2 -14.2,-24 -2.5,-10.8 3.5,-14.1 4.4,-13.8 1.6,0.6 5.5,5.7 10,10.3 a 38.383,38.383 0 0 0 7.1,6 31.269,31.269 0 0 0 14,4 z"
           style="fill:url(#linear-gradient-11)" />
        <path
           id="Path_657"
           data-name="Path 657"
           class="cls-18"
           d="m 1126.4,707.5 a 20.536,20.536 0 0 1 -9.1,-0.9 c -7.1,-2.2 -11.7,-13.2 -14.2,-24 -2.5,-10.8 3.5,-14.1 4.4,-13.8 1.6,0.6 5.5,5.7 10,10.3 a 35.456,35.456 0 0 0 -2.1,18.3 c 1.5,10.5 11,10.1 11,10.1 z"
           style="fill:url(#linear-gradient-12)" />
        <path
           id="Path_694"
           data-name="Path 694"
           class="cls-19"
           d="m 1131.9,688.1 c -4.1,1.3 -4.6,15.2 -0.7,17 3.9,1.8 9.4,-10.4 7.3,-16 0,0.1 -3.6,-1.9 -6.6,-1 z"
           style="fill:url(#linear-gradient-13)" />
        <path
           id="Path_695"
           data-name="Path 695"
           class="cls-20"
           d="m 1132.2,689.8 a 8.18,8.18 0 0 0 -1.7,7.6 c 1.2,4.7 7.5,7.9 15.3,7.8 7.8,-0.1 12.8,-5.7 13.9,-9.2 0,0 -1.4,-2.9 -9.1,-4.7 -5.2,-1.2 -12.2,-2.1 -12.2,-2.1 a 12.486,12.486 0 0 0 -6.2,0.6 z"
           style="fill:url(#linear-gradient-14)" />
        <path
           id="Path_696"
           data-name="Path 696"
           class="cls-21"
           d="m 1130.9,698.2 a 35,35 0 0 0 15,0.8 c 8.1,-1.5 5.6,-7.3 5.6,-7.3 a 35.358,35.358 0 0 0 -7.6,-2.7 c -3.6,-0.7 -11.5,0 -11.5,0 a 7.5,7.5 0 0 0 -1.5,9.2 z"
           style="fill:url(#linear-gradient-15)" />
        <path
           id="Path_697"
           data-name="Path 697"
           class="cls-22"
           d="m 1137.5,692 a 19.544,19.544 0 0 0 8.3,5.1 c 4.7,1.1 7.4,-3.4 7.4,-3.4 l -1.6,-2.1 z"
           style="fill:url(#linear-gradient-16)" />
        <path
           id="Path_698"
           data-name="Path 698"
           class="cls-23"
           d="m 1132.8,689.4 c -1.2,-3.6 15.1,-3.6 17.3,-2.2 1,0.6 2.6,2.8 1.9,4.1 -0.7,1.3 -6,2.1 -8.3,1.9 -2.2,-0.3 -10.1,-1.5 -10.9,-3.8 z"
           style="fill:url(#linear-gradient-17)" />
        <path
           id="Path_699"
           data-name="Path 699"
           class="cls-24"
           d="m 1145.3,693.2 c 0,0 -0.2,-3.6 1.7,-5 a 3.67,3.67 0 0 1 3.5,-0.7 c 0,0 2.4,1.8 1.5,3.8 -0.9,1.9 -5.5,2.4 -6.7,1.9 z"
           style="fill:url(#linear-gradient-18)" />
      </g>
      <path
         id="Path_678"
         data-name="Path 678"
         class="cls-25"
         d="m 1113.1,713.8 c -1.9,11.2 -12,18.7 -26.4,18.7 -12.6,0 -23.2,-4.7 -26,-15 -2.8,-10.3 -1.7,-29.4 2,-41.2 a 38.615,38.615 0 0 1 2,-5.1 v 0 a 28.618,28.618 0 0 1 2.4,-4.2 v 0 c 4.6,-6.9 11.3,-11.4 18.9,-11.4 a 22.973,22.973 0 0 1 18.1,8.1 27.211,27.211 0 0 1 4.5,7.5 76.155,76.155 0 0 1 3.1,9.9 v 0.1 a 85.934,85.934 0 0 1 1.4,32.6 z"
         style="fill:url(#linear-gradient-19)" />
      <path
         id="Path_679"
         data-name="Path 679"
         class="cls-26"
         d="m 1113.1,713.8 c -1.9,11.2 -12,18.7 -26.4,18.7 -12.6,0 -23.2,-4.7 -26,-15 -2.8,-10.3 -1.7,-29.4 2,-41.2 a 38.615,38.615 0 0 1 2,-5.1 v 0 c 0,0 -7.6,25.2 -1.5,41.3 6.1,16.1 34.4,15.7 44,5 9.1,-10.1 4.9,-34 4.5,-36.3 a 85.934,85.934 0 0 1 1.4,32.6 z"
         style="fill:url(#linear-gradient-20)" />
      <path
         id="Path_680"
         data-name="Path 680"
         class="cls-27"
         d="m 1061.2,707.1 c 2.1,-15.1 14.3,-25.3 27.7,-24 14.5,1.4 22.3,15.2 22.1,27.1 -0.2,11.9 -8.9,21.1 -24.4,21.1 -15.5,0 -27.4,-10.1 -25.4,-24.2 z"
         style="fill:url(#linear-gradient-21)" />
      <path
         id="Path_681"
         data-name="Path 681"
         class="cls-28"
         d="m 1061.3,708.3 c 2.1,-15.1 14.3,-25.3 27.7,-24 14.5,1.4 22.3,15.2 22.1,27.1 -0.2,11.9 -8.9,21.1 -24.4,21.1 -15.6,0 -27.4,-10.1 -25.4,-24.2 z"
         style="fill:url(#radial-gradient-4)" />
      <path
         id="Path_682"
         data-name="Path 682"
         class="cls-29"
         d="m 1104,663.6 c -3.1,4.8 -20,7.6 -29.8,6.7 -8.5,-0.8 -7.2,-3.1 -7.2,-3.4 v 0 c 4.6,-6.9 11.3,-11.4 18.9,-11.4 a 23.138,23.138 0 0 1 18.1,8.1 z"
         style="fill:url(#linearGradient192)" />
      <path
         id="Path_683"
         data-name="Path 683"
         class="cls-9"
         d="m 1098,672 c -0.8,0.3 -0.8,6.6 0,7.6 0.8,1 2.1,0.7 2.6,-0.8 0.4,-1.5 -1.4,-7.2 -2.6,-6.8 z" />
      <path
         id="Path_684"
         data-name="Path 684"
         class="cls-9"
         d="m 1099.4,681.3 c -0.7,0.2 -0.7,1.7 -0.4,2.3 0.3,0.6 1.4,0.4 1.6,-0.2 0.2,-0.8 -0.5,-2.3 -1.2,-2.1 z" />
      <path
         id="Path_685"
         data-name="Path 685"
         class="cls-30"
         d="m 1069.8,723.7 c 0,0 3.5,6 16.4,6.1 12.9,0.1 18.2,-7.7 18.2,-7.7 a 18.981,18.981 0 0 1 -14.5,1.6 c -8.5,-2.3 -16.9,-3.6 -20.1,0 z"
         style="fill:url(#linear-gradient-23)" />
      <path
         id="Path_686"
         data-name="Path 686"
         class="cls-31"
         d="m 1066.5,698.8 c 2.6,4.1 13.1,1.9 24.9,3.1 11.8,1.2 13.9,5 16.4,4.2 2.5,-0.8 -1.4,-18.6 -19.2,-19.8 -17.7,-1.3 -22.8,11.4 -22.1,12.5 z"
         style="fill:url(#linearGradient194)" />
      <path
         id="Path_687"
         data-name="Path 687"
         class="cls-32"
         d="m 1042.1,646.7 c 9.6,22.1 81.3,15.2 89.9,-2.9 9.4,-19.9 -12.2,-68.9 -46.5,-66.6 -29.2,1.8 -55.8,41.1 -43.4,69.5 z"
         style="fill:url(#linear-gradient-25)" />
      <path
         id="Path_688"
         data-name="Path 688"
         class="cls-33"
         d="m 1046,643.6 c 9.2,18.1 71.8,15.1 80.9,-1.5 7.8,-14.2 -10.6,-57.2 -42,-55.7 -31.5,1.5 -47.7,39.8 -38.9,57.2 z"
         style="fill:url(#linear-gradient-26)" />
      <path
         id="Path_689"
         data-name="Path 689"
         class="cls-34"
         d="m 1114,622.2 c -1.2,3.3 -17.7,2.9 -17.7,1.7 0.1,-6.6 3.6,-15.2 10.2,-15.2 6.8,0.1 9.8,7.3 7.5,13.5 z"
         style="fill:url(#radial-gradient-5)" />
      <path
         id="Path_690"
         data-name="Path 690"
         class="cls-35"
         d="m 1058.3,622.6 c 1.4,3.2 17.9,1.9 17.8,0.7 -0.5,-6.6 -4.5,-15 -11,-14.6 -6.8,0.5 -9.4,7.9 -6.8,13.9 z"
         style="fill:url(#radial-gradient-6)" />
      <path
         id="Path_691"
         data-name="Path 691"
         class="cls-36"
         d="m 1076.4,634.8 c -2.5,0.6 2.7,8.9 11,8.9 7.4,0 11.6,-8.5 10.6,-8.9 -0.9,-0.4 -5.4,1.9 -11.5,1.9 -6.1,0.1 -9,-2.1 -10.1,-1.9 z" />
      <path
         id="Path_700"
         data-name="Path 700"
         class="cls-9"
         d="m 1095.5,581.2 c -0.7,0.8 7,4.1 8,3.6 1,-0.5 -5.8,-6.2 -8,-3.6 z" />
      <path
         id="Path_701"
         data-name="Path 701"
         class="cls-37"
         d="m 1057.1,604.5 c -0.7,4.3 7.5,3.8 20.5,3.4 15.7,-0.5 31.5,13 40.7,3.3 1.5,-1.6 -13.5,-22.6 -31.7,-22.2 -18.2,0.4 -28.9,11.7 -29.5,15.5 z"
         style="fill:url(#linear-gradient-27)" />
      <path
         id="Path_702"
         data-name="Path 702"
         class="cls-38"
         d="m 1065.2,649.5 c -0.8,3.1 5.7,6.3 21.8,5.5 19.5,-1 23.6,-5 22.6,-6.2 -0.6,-0.7 -6.4,3 -22.4,-0.5 -10.5,-2.3 -21.2,-2.1 -22,1.2 z"
         style="fill:url(#linear-gradient-28)" />
      <path
         id="Path_703"
         data-name="Path 703"
         class="cls-39"
         d="m 1047.8,639.8 a 41.235,41.235 0 0 1 0.1,-10.6 c 0.8,-6.1 2.4,-10 3.4,-9.5 1,0.6 0.8,6.5 1.4,12.4 a 85.479,85.479 0 0 0 1.3,8.9 c 0,0 -4.2,4 -6.2,-1.2 z"
         style="fill:url(#linear-gradient-29)" />
      <path
         id="Path_704"
         data-name="Path 704"
         class="cls-40"
         d="m 1131.9,588.8 c 0,0 -2.2,-2.7 -5.2,-2 -3,0.7 -3.2,10.2 -1.4,10.4 1.8,0.2 2.6,-5.2 3.9,-6.1 a 6.458,6.458 0 0 1 3.8,-0.5 z"
         style="fill:url(#linear-gradient-30)" />
      <path
         id="Path_705"
         data-name="Path 705"
         class="cls-41"
         d="m 1038.3,592.9 a 4.3,4.3 0 0 1 3.8,-0.9 c 2.6,0.4 4.1,5.8 5.4,5.2 1.3,-0.5 0.4,-9.2 -3.2,-11.7 0,0 -4.5,3.8 -6,7.4 z"
         style="fill:url(#linear-gradient-31)" />
      <g
         id="ranka-kaire">
        <path
           id="Path_665"
           data-name="Path 665"
           class="cls-42"
           d="m 1066.2,672.1 c 0,6 -0.9,14.7 -3.6,21.8 -4.5,11.7 -11.3,26.3 -11.5,26.8 v 0 c -4.2,2.5 -9.1,2.4 -12.3,1.9 a 25.573,25.573 0 0 1 -3.2,-0.7 95.691,95.691 0 0 1 8.7,-28.5 120.12,120.12 0 0 1 12.4,-19.9 l 0.1,-0.1 c 0,-0.1 0.1,-0.1 0.1,-0.2 l 0.1,-0.1 0.1,-0.1 0.1,-0.1 v 0 c 4.1,-5.2 7.5,-8.4 8.2,-8 0.4,0.2 0.8,3.1 0.8,7.2 z"
           style="fill:url(#linear-gradient-32)" />
        <path
           id="Path_666"
           data-name="Path 666"
           class="cls-43"
           d="m 1035.6,721.4 c 0,0 5.4,-8.8 10.9,-7.7 5.5,1.1 4.5,7 4.5,7 a 15.16,15.16 0 0 1 -15.4,0.7 z"
           style="fill:url(#linear-gradient-33)" />
        <path
           id="Path_667"
           data-name="Path 667"
           class="cls-44"
           d="m 1066.2,672.1 c 0,6 -0.9,14.7 -3.6,21.8 -4.5,11.7 -11.3,26.3 -11.5,26.8 v 0 l -12.3,1.9 a 25.573,25.573 0 0 1 -3.2,-0.7 95.691,95.691 0 0 1 8.7,-28.5 120.12,120.12 0 0 1 12.4,-19.9 c -2.3,3.1 -12,16.4 -14.6,27.7 -3,12.9 9,7.9 13.9,0 4.9,-7.9 10,-29.1 10,-29.1 z"
           style="fill:url(#linear-gradient-34)" />
        <path
           id="Path_668"
           data-name="Path 668"
           class="cls-9"
           d="m 1052.8,692.7 c -1,-0.4 4.1,-11.8 5.6,-11.9 1.6,-0.1 -4.8,12.2 -5.6,11.9 z" />
        <path
           id="Path_669"
           data-name="Path 669"
           class="cls-9"
           d="m 1052.3,693.9 c -0.8,-0.4 -1.5,1.7 -0.8,2 0.7,0.3 1.7,-1.6 0.8,-2 z" />
        <path
           id="Path_692"
           data-name="Path 692"
           class="cls-45"
           d="m 1035.6,721.9 c 0,0 3.3,-4.7 8.1,-5.3 4.8,-0.6 6.5,0.7 7.4,4 0.9,3.3 -5.9,15.5 -14.3,24.7 -3.6,0.3 -4.7,-4.2 -5.2,-7 -0.1,-2.4 2.3,-12.5 4,-16.4 z"
           style="fill:url(#linear-gradient-35)" />
        <path
           id="Path_693"
           data-name="Path 693"
           class="cls-46"
           d="m 1047.2,716.6 c 0,0 -9,12.4 -11.8,19.6 -1.5,3.9 -2.4,6.4 -2.4,6.4 0,0 2.3,5.9 6.2,1 5.5,-7 12.8,-17.5 11.5,-22.5 -1.2,-4.4 -2,-5.2 -3.5,-4.5 z"
           style="fill:url(#linear-gradient-36)" />
        <path
           id="Path_706"
           data-name="Path 706"
           class="cls-47"
           d="m 1039.6,728 c 0,0 1.2,6.6 5.3,7.6 l 0.6,-15.9 c 0,0 -4.7,6.3 -5.9,8.3 z"
           style="fill:url(#linear-gradient-37)" />
        <path
           id="Path_707"
           data-name="Path 707"
           class="cls-48"
           d="m 1043.5,723.5 c -0.6,1.5 0.6,11.6 1.7,12.7 1.1,1.1 3.6,-0.8 4.3,-2.8 0.7,-2 3.8,-13.1 -0.2,-16.6 0,0 -3.3,0.3 -5.8,6.7 z"
           style="fill:url(#linear-gradient-38)" />
        <path
           id="Path_708"
           data-name="Path 708"
           class="cls-9"
           d="m 1045.4,724.9 c -0.4,0.1 -0.9,3.5 -0.6,4.1 0.4,0.6 1.1,0.5 1.5,-0.2 0.3,-0.8 -0.3,-4.1 -0.9,-3.9 z" />
      </g>
    </g>
  </g>
</svg>
