<?xml version="1.0" encoding="UTF-8" standalone="no"?>
<svg
   xmlns:dc="http://purl.org/dc/elements/1.1/"
   xmlns:cc="http://creativecommons.org/ns#"
   xmlns:rdf="http://www.w3.org/1999/02/22-rdf-syntax-ns#"
   xmlns:svg="http://www.w3.org/2000/svg"
   xmlns="http://www.w3.org/2000/svg"
   xmlns:xlink="http://www.w3.org/1999/xlink"
   xmlns:sodipodi="http://sodipodi.sourceforge.net/DTD/sodipodi-0.dtd"
   xmlns:inkscape="http://www.inkscape.org/namespaces/inkscape"
   width="177.30569"
   height="209.45415"
   viewBox="0 0 177.30569 209.45415"
   version="1.1"
   id="svg168"
   sodipodi:docname="robo-7.svg"
   inkscape:version="1.0.1 (3bc2e813f5, 2020-09-07)">
  <metadata
     id="metadata172">
    <rdf:RDF>
      <cc:Work
         rdf:about="">
        <dc:format>image/svg+xml</dc:format>
        <dc:type
           rdf:resource="http://purl.org/dc/dcmitype/StillImage" />
        <dc:title></dc:title>
      </cc:Work>
    </rdf:RDF>
  </metadata>
  <sodipodi:namedview
     pagecolor="#ffffff"
     bordercolor="#666666"
     borderopacity="1"
     objecttolerance="10"
     gridtolerance="10"
     guidetolerance="10"
     inkscape:pageopacity="0"
     inkscape:pageshadow="2"
     inkscape:window-width="2560"
     inkscape:window-height="1361"
     id="namedview170"
     showgrid="false"
     fit-margin-top="0"
     fit-margin-left="0"
     fit-margin-right="0"
     fit-margin-bottom="0"
     inkscape:zoom="0.60404132"
     inkscape:cx="-1026.8059"
     inkscape:cy="-159.50276"
     inkscape:window-x="-9"
     inkscape:window-y="-9"
     inkscape:window-maximized="1"
     inkscape:current-layer="Component_17_20" />
  <defs
     id="defs107">
    <style
       id="style2">
    ellipse#Ellipse_59 {
	transition: all 100ms linear;
}

g#galva {
  transition: all 100ms linear;
  transform-box: fill-box;
}

g#ranka-kaire {
  transition: all 100ms linear;
  transform-box: fill-box;
}

g#koja-kaire {
  transition: all 100ms linear;
  transform-box: fill-box;
}

g#ranka-desine {
  transition: all 100ms linear;
  transform-box: fill-box;
}

g#Group_733 {
transition: all 100ms linear;
}

g#Component_17_20:hover g#ranka-kaire {
	transition: all 100ms linear;
  transform-box: fill-box;
	transform: translate(3px, -15px) rotate(14deg);
}

g#Component_17_20:hover g#ranka-desine {
	transition: all 100ms linear;
  transform-box: fill-box;
	transform: translate(1px, 0px) rotate(-14deg);
}

g#Component_17_20:hover g#galva {
	transition: all 100ms linear;
  transform-box: fill-box;
	transform: translate(7px, -5px) rotate(6deg);
}

g#Component_17_20:hover g#koja-kaire {
	transition: all 100ms linear;
  transform-box: fill-box;
	transform: translate(4px, -2px) rotate(6deg);
}

g#Component_17_20:hover ellipse#Ellipse_59 {
ry: 7.6px;
	rx: 28.8px;
                transition:all 100ms linear;
}

g#Component_17_20:hover g#Group_733 {
  transition: all 100ms linear;
	transform: translateY(-20px);
}
      .cls-1 {
        fill: #1a75fa;
      }

      .cls-12, .cls-2, .cls-24, .cls-28, .cls-30, .cls-39, .cls-40, .cls-44, .cls-8 {
        opacity: 0.5;
      }

      .cls-2 {
        fill: url(#radial-gradient);
      }

      .cls-3 {
        fill: url(#linear-gradient);
      }

      .cls-4 {
        fill: url(#linear-gradient-2);
      }

      .cls-14, .cls-21, .cls-23, .cls-5 {
        opacity: 0.3;
      }

      .cls-5 {
        fill: url(#linear-gradient-3);
      }

      .cls-6 {
        fill: url(#linear-gradient-4);
      }

      .cls-7 {
        fill: url(#linear-gradient-5);
      }

      .cls-8 {
        fill: url(#linear-gradient-6);
      }

      .cls-9 {
        fill: url(#linear-gradient-7);
      }

      .cls-10 {
        fill: #fff;
      }

      .cls-11 {
        fill: url(#linear-gradient-8);
      }

      .cls-12 {
        fill: url(#linear-gradient-9);
      }

      .cls-13 {
        fill: url(#linear-gradient-10);
      }

      .cls-14 {
        fill: url(#linear-gradient-11);
      }

      .cls-15 {
        fill: url(#linear-gradient-12);
      }

      .cls-16 {
        fill: url(#radial-gradient-2);
      }

      .cls-17 {
        fill: url(#linear-gradient-13);
      }

      .cls-18 {
        fill: #6340a2;
      }

      .cls-19, .cls-20, .cls-34, .cls-35 {
        opacity: 0.72;
      }

      .cls-19 {
        fill: url(#linear-gradient-14);
      }

      .cls-20 {
        fill: url(#linear-gradient-15);
      }

      .cls-21 {
        fill: url(#linear-gradient-16);
      }

      .cls-22 {
        fill: url(#linear-gradient-17);
      }

      .cls-23 {
        fill: url(#linear-gradient-18);
      }

      .cls-24 {
        fill: url(#linear-gradient-19);
      }

      .cls-25 {
        fill: url(#radial-gradient-3);
      }

      .cls-26 {
        fill: url(#linear-gradient-20);
      }

      .cls-27 {
        fill: url(#linear-gradient-21);
      }

      .cls-28 {
        fill: url(#linear-gradient-22);
      }

      .cls-29 {
        fill: url(#linear-gradient-23);
      }

      .cls-30 {
        fill: url(#linear-gradient-24);
      }

      .cls-31 {
        fill: url(#linear-gradient-25);
      }

      .cls-32 {
        fill: url(#linear-gradient-26);
      }

      .cls-33 {
        fill: url(#radial-gradient-4);
      }

      .cls-34 {
        fill: url(#linear-gradient-27);
      }

      .cls-35 {
        fill: url(#linear-gradient-28);
      }

      .cls-36 {
        fill: url(#radial-gradient-5);
      }

      .cls-37 {
        fill: url(#radial-gradient-6);
      }

      .cls-38 {
        fill: #2f95cd;
      }

      .cls-39 {
        fill: url(#linear-gradient-29);
      }

      .cls-40 {
        fill: url(#linear-gradient-30);
      }

      .cls-41 {
        fill: url(#linear-gradient-31);
      }

      .cls-42 {
        fill: url(#linear-gradient-33);
      }

      .cls-43 {
        fill: url(#linear-gradient-34);
      }

      .cls-44 {
        fill: url(#linear-gradient-35);
      }

      .cls-45 {
        fill: url(#linear-gradient-36);
      }
    </style>
    <radialGradient
       id="radial-gradient"
       cx="19.268627"
       cy="19.191553"
       r="18.343735"
       gradientTransform="matrix(2.1174315,0,0,0.47227029,1274.7472,768.15937)"
       gradientUnits="userSpaceOnUse"
       fx="19.268627"
       fy="19.191553">
      <stop
         offset="0"
         stop-color="#559dea"
         id="stop4" />
      <stop
         offset="0.431"
         stop-color="#5ea9f5"
         id="stop6" />
      <stop
         offset="1"
         stop-color="#fff"
         stop-opacity="0"
         id="stop8" />
    </radialGradient>
    <linearGradient
       id="linear-gradient"
       x1="0.40400001"
       y1="-5.5890002"
       x2="0.61000001"
       y2="-4.652"
       gradientUnits="objectBoundingBox">
      <stop
         offset="0"
         stop-color="#cbc1f7"
         id="stop11" />
      <stop
         offset="1"
         stop-color="#d4bef1"
         id="stop13" />
    </linearGradient>
    <linearGradient
       id="linear-gradient-2"
       x1="-1.96"
       y1="-20.785999"
       x2="-2.096"
       y2="-19.832001"
       gradientUnits="objectBoundingBox">
      <stop
         offset="0"
         stop-color="#be9dea"
         id="stop16" />
      <stop
         offset="1"
         stop-color="#9e8cef"
         id="stop18" />
    </linearGradient>
    <linearGradient
       id="linear-gradient-3"
       x1="0.68099999"
       y1="0.34599999"
       x2="1"
       y2="1.4579999"
       gradientUnits="objectBoundingBox">
      <stop
         offset="0"
         stop-color="#9d68c2"
         id="stop21" />
      <stop
         offset="1"
         stop-color="#ccedff"
         id="stop23" />
    </linearGradient>
    <linearGradient
       id="linear-gradient-4"
       x1="-1.581"
       y1="-12.685"
       x2="-1.397"
       y2="-11.641"
       gradientUnits="objectBoundingBox">
      <stop
         offset="0"
         stop-color="#cbc1f7"
         id="stop26" />
      <stop
         offset="1"
         stop-color="#e8dcf7"
         id="stop28" />
    </linearGradient>
    <linearGradient
       id="linear-gradient-5"
       x1="1643.8405"
       y1="278.48794"
       x2="1640.3496"
       y2="300.86646"
       xlink:href="#linear-gradient-2"
       gradientTransform="scale(0.80908628,1.2359621)"
       gradientUnits="userSpaceOnUse" />
    <linearGradient
       id="linear-gradient-6"
       x1="-5.2480001"
       y1="-22.287001"
       x2="-5.5"
       y2="-21.299999"
       gradientUnits="objectBoundingBox">
      <stop
         offset="0"
         stop-color="#8da4e5"
         id="stop32" />
      <stop
         offset="1"
         stop-color="#755cbb"
         id="stop34" />
    </linearGradient>
    <linearGradient
       id="linear-gradient-7"
       x1="2081.1553"
       y1="225.72364"
       x2="2085.0592"
       y2="238.46453"
       xlink:href="#linear-gradient-4"
       gradientTransform="scale(0.64038011,1.5615725)"
       gradientUnits="userSpaceOnUse" />
    <linearGradient
       id="linear-gradient-8"
       x1="1679.4744"
       y1="256.20413"
       x2="1689.7216"
       y2="278.06332"
       xlink:href="#linear-gradient"
       gradientTransform="scale(0.78453569,1.2746393)"
       gradientUnits="userSpaceOnUse" />
    <linearGradient
       id="linear-gradient-9"
       x1="1525.5637"
       y1="288.52247"
       x2="1525.5637"
       y2="310.19228"
       xlink:href="#linear-gradient-6"
       gradientTransform="scale(0.86853685,1.1513616)"
       gradientUnits="userSpaceOnUse" />
    <linearGradient
       id="linear-gradient-10"
       x1="1606.8878"
       y1="530.99403"
       x2="1641.2432"
       y2="602.71738"
       gradientUnits="userSpaceOnUse"
       gradientTransform="scale(0.81494347,1.227079)">
      <stop
         offset="0"
         stop-color="#bfa8f7"
         id="stop40" />
      <stop
         offset="1"
         stop-color="#e8dcf7"
         id="stop42" />
    </linearGradient>
    <linearGradient
       id="linear-gradient-11"
       x1="2064.7044"
       y1="450.48192"
       x2="2060.1751"
       y2="467.31601"
       xlink:href="#linear-gradient-3"
       gradientTransform="scale(0.62907683,1.589631)"
       gradientUnits="userSpaceOnUse" />
    <linearGradient
       id="linear-gradient-12"
       x1="1173.7327"
       y1="362.97912"
       x2="1213.7558"
       y2="362.97912"
       xlink:href="#linear-gradient-2"
       gradientTransform="scale(0.95671112,1.0452476)"
       gradientUnits="userSpaceOnUse" />
    <radialGradient
       id="radial-gradient-2"
       cx="0.375"
       cy="0.84299999"
       r="0.64899999"
       gradientTransform="matrix(-1.059,-0.247,0.27,-0.969,-6.416,-15.528)"
       gradientUnits="objectBoundingBox">
      <stop
         offset="0"
         stop-color="#94fdff"
         id="stop47" />
      <stop
         offset="1"
         stop-color="#22e0ff"
         id="stop49" />
    </radialGradient>
    <linearGradient
       id="linear-gradient-13"
       x1="1504.1521"
       y1="315.72042"
       x2="1516.8809"
       y2="315.72042"
       gradientUnits="userSpaceOnUse"
       gradientTransform="scale(0.7740266,1.2919453)">
      <stop
         offset="0"
         stop-color="#8879ea"
         id="stop52" />
      <stop
         offset="1"
         stop-color="#9e8cef"
         id="stop54" />
    </linearGradient>
    <linearGradient
       id="linear-gradient-14"
       y1="0.5"
       x2="1"
       y2="0.76999998"
       gradientUnits="objectBoundingBox">
      <stop
         offset="0"
         stop-color="#59eeff"
         id="stop57" />
      <stop
         offset="1"
         stop-color="#eff4ff"
         id="stop59" />
    </linearGradient>
    <linearGradient
       id="linear-gradient-15"
       x1="-10.589"
       y1="-79.848999"
       x2="-10.589"
       y2="-79.064003"
       gradientUnits="objectBoundingBox">
      <stop
         offset="0"
         stop-color="#fff"
         stop-opacity="0.969"
         id="stop62" />
      <stop
         offset="1"
         stop-color="#fff"
         stop-opacity="0"
         id="stop64" />
    </linearGradient>
    <linearGradient
       id="linear-gradient-16"
       x1="1698.755"
       y1="285.70147"
       x2="1698.755"
       y2="286.07791"
       xlink:href="#linear-gradient-3"
       gradientTransform="scale(0.77459667,1.2909944)"
       gradientUnits="userSpaceOnUse" />
    <linearGradient
       id="linear-gradient-17"
       x1="1796.1356"
       y1="508.74218"
       x2="1841.8671"
       y2="558.41667"
       xlink:href="#linear-gradient-4"
       gradientTransform="scale(0.72748379,1.3746011)"
       gradientUnits="userSpaceOnUse" />
    <linearGradient
       id="linear-gradient-18"
       x1="1767.9239"
       y1="559.301"
       x2="1779.52"
       y2="576.79008"
       xlink:href="#linear-gradient-3"
       gradientTransform="scale(0.7396812,1.3519338)"
       gradientUnits="userSpaceOnUse" />
    <linearGradient
       id="linear-gradient-19"
       x1="797.89776"
       y1="669.12162"
       x2="800.71895"
       y2="699.60687"
       xlink:href="#linear-gradient-6"
       gradientTransform="scale(1.6575289,0.60330773)"
       gradientUnits="userSpaceOnUse" />
    <radialGradient
       id="radial-gradient-3"
       cx="1623.6198"
       cy="491.43841"
       r="8.696872"
       gradientTransform="scale(0.8279483,1.2078049)"
       xlink:href="#radial-gradient-2"
       fx="1623.6198"
       fy="491.43841"
       gradientUnits="userSpaceOnUse" />
    <linearGradient
       id="linear-gradient-20"
       x1="0.5"
       y1="-1.135"
       x2="0"
       y2="1.4630001"
       gradientUnits="objectBoundingBox">
      <stop
         offset="0"
         stop-color="#b9acf4"
         id="stop72" />
      <stop
         offset="1"
         stop-color="#e1d1f5"
         id="stop74" />
    </linearGradient>
    <linearGradient
       id="linear-gradient-21"
       x1="1254.9379"
       y1="603.3426"
       x2="1300.5995"
       y2="718.09967"
       xlink:href="#linear-gradient-4"
       gradientTransform="scale(1.0365035,0.96478211)"
       gradientUnits="userSpaceOnUse" />
    <linearGradient
       id="linear-gradient-22"
       x1="1491.7327"
       y1="373.41096"
       x2="1491.7327"
       y2="388.8559"
       xlink:href="#linear-gradient-6"
       gradientTransform="scale(0.8619842,1.1601141)"
       gradientUnits="userSpaceOnUse" />
    <linearGradient
       id="linear-gradient-23"
       x1="1350.3689"
       y1="590.94151"
       x2="1350.3689"
       y2="670.08419"
       gradientUnits="userSpaceOnUse"
       gradientTransform="scale(0.98716261,1.0130043)">
      <stop
         offset="0"
         stop-color="#0665bd"
         id="stop79" />
      <stop
         offset="1"
         stop-color="#1a1f77"
         id="stop81" />
    </linearGradient>
    <linearGradient
       id="linear-gradient-24"
       x1="0.46000001"
       y1="-14.911"
       x2="0.56099999"
       y2="-14.011"
       gradientUnits="objectBoundingBox">
      <stop
         offset="0"
         stop-color="#0b52aa"
         id="stop84" />
      <stop
         offset="1"
         stop-color="#6a9bff"
         id="stop86" />
    </linearGradient>
    <linearGradient
       id="linear-gradient-25"
       x1="1693.7395"
       y1="452.38286"
       x2="1704.644"
       y2="484.54962"
       xlink:href="#linear-gradient-20"
       gradientTransform="scale(0.76120616,1.3137046)"
       gradientUnits="userSpaceOnUse" />
    <linearGradient
       id="linear-gradient-26"
       x1="1498.8372"
       y1="344.21284"
       x2="1498.8372"
       y2="375.45201"
       xlink:href="#linear-gradient-2"
       gradientTransform="scale(0.77338724,1.2930133)"
       gradientUnits="userSpaceOnUse" />
    <radialGradient
       id="radial-gradient-4"
       cx="1541.5071"
       cy="511.23051"
       r="14.113765"
       gradientTransform="scale(0.82971451,1.2052338)"
       xlink:href="#radial-gradient-2"
       fx="1541.5071"
       fy="511.23051"
       gradientUnits="userSpaceOnUse" />
    <linearGradient
       id="linear-gradient-27"
       x1="933.70903"
       y1="844.40038"
       x2="941.62522"
       y2="886.87866"
       xlink:href="#linear-gradient-15"
       gradientTransform="scale(1.370609,0.72960268)"
       gradientUnits="userSpaceOnUse" />
    <linearGradient
       id="linear-gradient-28"
       x1="848.07916"
       y1="647.13067"
       x2="864.7795"
       y2="647.13067"
       xlink:href="#linear-gradient-14"
       gradientTransform="scale(1.3582935,0.73621793)"
       gradientUnits="userSpaceOnUse" />
    <radialGradient
       id="radial-gradient-5"
       cx="1537.6597"
       cy="539.48179"
       r="8.4685469"
       gradientTransform="scale(0.87993514,1.1364474)"
       xlink:href="#radial-gradient-2"
       fx="1537.6597"
       fy="539.48179"
       gradientUnits="userSpaceOnUse" />
    <radialGradient
       id="radial-gradient-6"
       cx="1482.6238"
       cy="556.73046"
       r="13.540316"
       gradientTransform="scale(0.8892643,1.1245251)"
       xlink:href="#radial-gradient-2"
       fx="1482.6238"
       fy="556.73046"
       gradientUnits="userSpaceOnUse" />
    <linearGradient
       id="linear-gradient-29"
       y1="590.21884"
       x2="1084.9841"
       y2="590.21884"
       gradientUnits="userSpaceOnUse"
       gradientTransform="scale(1.2523362,0.79850764)"
       x1="1038.7109">
      <stop
         offset="0"
         stop-color="#0d49a1"
         id="stop96" />
      <stop
         offset="1"
         stop-color="#fff"
         stop-opacity="0"
         id="stop98" />
    </linearGradient>
    <linearGradient
       id="linear-gradient-30"
       x1="1005.7817"
       y1="566.06563"
       x2="1007.5314"
       y2="591.0821"
       xlink:href="#linear-gradient-24"
       gradientTransform="scale(1.339434,0.746584)"
       gradientUnits="userSpaceOnUse" />
    <linearGradient
       id="linear-gradient-31"
       x1="985.11656"
       y1="892.04964"
       x2="985.11656"
       y2="907.74406"
       xlink:href="#linear-gradient-4"
       gradientTransform="scale(1.313023,0.76160126)"
       gradientUnits="userSpaceOnUse" />
    <linearGradient
       id="linear-gradient-33"
       x1="1261.6025"
       y1="614.39675"
       x2="1266.1428"
       y2="589.88817"
       xlink:href="#linear-gradient-4"
       gradientTransform="scale(0.82380368,1.2138814)"
       gradientUnits="userSpaceOnUse" />
    <linearGradient
       id="linear-gradient-34"
       x1="1333.3668"
       y1="582.66346"
       x2="1329.7614"
       y2="561.03056"
       xlink:href="#linear-gradient-2"
       gradientTransform="scale(0.78232199,1.2782461)"
       gradientUnits="userSpaceOnUse" />
    <linearGradient
       id="linear-gradient-35"
       x1="1713.4755"
       y1="448.19089"
       x2="1710.8507"
       y2="438.64093"
       xlink:href="#linear-gradient-6"
       gradientTransform="scale(0.60915448,1.6416197)"
       gradientUnits="userSpaceOnUse" />
    <linearGradient
       id="linear-gradient-36"
       x1="1645.6383"
       y1="468.07396"
       x2="1649.5616"
       y2="455.42664"
       xlink:href="#linear-gradient-4"
       gradientTransform="scale(0.63551821,1.573519)"
       gradientUnits="userSpaceOnUse" />
    <linearGradient
       inkscape:collect="always"
       xlink:href="#linear-gradient"
       id="linearGradient174"
       gradientUnits="userSpaceOnUse"
       x1="1783.1803"
       y1="275.92228"
       x2="1791.5018"
       y2="313.77288"
       gradientTransform="scale(0.75627691,1.322267)" />
    <linearGradient
       inkscape:collect="always"
       xlink:href="#linear-gradient-2"
       id="linearGradient176"
       gradientUnits="userSpaceOnUse"
       x1="1577.256"
       y1="305.56794"
       x2="1575.3863"
       y2="318.68363"
       gradientTransform="scale(0.8444072,1.1842628)" />
    <linearGradient
       inkscape:collect="always"
       xlink:href="#linear-gradient-3"
       id="linearGradient178"
       gradientUnits="userSpaceOnUse"
       x1="2022.1453"
       y1="455.96002"
       x2="2033.4801"
       y2="495.47203"
       gradientTransform="scale(0.66880418,1.495206)" />
    <linearGradient
       inkscape:collect="always"
       xlink:href="#linear-gradient-4"
       id="linearGradient180"
       gradientUnits="userSpaceOnUse"
       x1="1568.1595"
       y1="290.24952"
       x2="1572.5893"
       y2="315.38351"
       gradientTransform="scale(0.84567449,1.1824881)" />
    <linearGradient
       inkscape:collect="always"
       xlink:href="#linear-gradient-6"
       id="linearGradient182"
       gradientUnits="userSpaceOnUse"
       x1="2114.0766"
       y1="222.3502"
       x2="2111.5544"
       y2="232.2286"
       gradientTransform="scale(0.62946518,1.5886502)" />
    <radialGradient
       inkscape:collect="always"
       xlink:href="#radial-gradient-2"
       id="radialGradient184"
       gradientUnits="userSpaceOnUse"
       gradientTransform="scale(0.95671112,1.0452476)"
       cx="1384.2641"
       cy="696.24402"
       r="27.63295"
       fx="1384.2641"
       fy="696.24402" />
    <linearGradient
       inkscape:collect="always"
       xlink:href="#linear-gradient-14"
       id="linearGradient186"
       gradientUnits="userSpaceOnUse"
       y1="1048.9814"
       x2="898.28177"
       y2="1054.6907"
       gradientTransform="scale(1.501304,0.66608759)"
       x1="877.13623" />
    <linearGradient
       inkscape:collect="always"
       xlink:href="#linear-gradient-15"
       id="linearGradient188"
       gradientUnits="userSpaceOnUse"
       x1="608.52524"
       y1="670.68321"
       x2="608.52524"
       y2="677.54176"
       gradientTransform="scale(1.8770633,0.53274708)" />
    <linearGradient
       inkscape:collect="always"
       xlink:href="#linear-gradient-20"
       id="linearGradient190"
       gradientUnits="userSpaceOnUse"
       x1="1291.9417"
       y1="573.14375"
       x2="1281.5489"
       y2="627.14456"
       gradientTransform="scale(1.0343733,0.96676896)" />
    <linearGradient
       inkscape:collect="always"
       xlink:href="#linear-gradient-24"
       id="linearGradient192"
       gradientUnits="userSpaceOnUse"
       x1="1238.0801"
       y1="449.31154"
       x2="1239.6408"
       y2="463.21906"
       gradientTransform="scale(1.0591094,0.94418954)" />
    <linearGradient
       inkscape:collect="always"
       xlink:href="#linear-gradient-2"
       id="linearGradient194"
       gradientUnits="userSpaceOnUse"
       x1="1443.6566"
       y1="384.4976"
       x2="1441.9452"
       y2="396.50234"
       gradientTransform="scale(0.92255064,1.0839513)" />
  </defs>
  <g
     id="Component_17_20"
     data-name="Component 17 – 20"
     transform="translate(-1224.3376,-576.90519)">
    <g
       id="Group_731"
       data-name="Group 731">
      <path
         id="Path_1308"
         data-name="Path 1308"
         class="cls-1"
         d="m 1263.4,594.5 c -38.3,12.3 -52.3,72.5 -24.4,104.9 27.9,32.4 63.8,28.7 84.7,42.6 26.1,17.4 52.2,21.4 72.9,-13.5 28.5,-48.1 -70.3,-154.2 -133.2,-134 z" />
    </g>
    <ellipse
       id="Ellipse_59"
       data-name="Ellipse 59"
       class="cls-2"
       cx="1315.5472"
       cy="777.25934"
       rx="40.799999"
       ry="9.1000004"
       style="fill:url(#radial-gradient)" />
    <g
       id="Group_733"
       data-name="Group 733">
      <g
         id="ranka-desine">
        <path
           id="Path_1314"
           data-name="Path 1314"
           class="cls-3"
           d="m 1360,716.5 v 0 c -4,-1.1 -8.9,-4.9 -12.6,-10.5 -8.1,-12.1 -16.8,-37.4 -6.4,-42.6 1,-0.5 5.9,5.7 11.2,13.9 6.2,9.7 12.9,22.3 14.3,30.1 1.3,7.8 -2,10.3 -6.5,9.1 z"
           style="fill:url(#linearGradient174)" />
        <path
           id="Path_1315"
           data-name="Path 1315"
           class="cls-4"
           d="m 1354.6,713.7 c 0,0 3.5,-13.6 7.8,-13.4 4.3,0.2 4.9,12.7 2.1,15.3 -2.7,2.5 -8.3,-0.4 -9.9,-1.9 z"
           style="fill:url(#linearGradient176)" />
        <path
           id="Path_1316"
           data-name="Path 1316"
           class="cls-5"
           d="m 1360,716.5 v 0 c -4,-1.1 -8.9,-4.9 -12.6,-10.5 -8.1,-12.1 -16.8,-37.4 -6.4,-42.6 1,-0.5 5.9,5.7 11.2,13.9 v 0 c 0,0 -2.4,18.1 -0.7,24.5 1.7,6.4 7.5,10.4 7.5,10.4 z"
           style="fill:url(#linearGradient178)" />
        <path
           id="Path_1365"
           data-name="Path 1365"
           class="cls-6"
           d="m 1373.9,709.3 c 0,0 -3.5,-4.5 -8.3,-4.9 -4.8,-0.4 -6.4,1 -7.2,4.4 -0.8,3.4 6.6,15.2 15.4,24 3.6,0.1 4.5,-4.4 4.9,-7.3 -0.1,-2.4 -1.2,-10.5 -4.8,-16.2 z"
           style="fill:url(#linearGradient180)" />
        <path
           id="Path_1366"
           data-name="Path 1366"
           class="cls-7"
           d="m 1362.1,704.6 c 0,0 9.5,12 12.7,19 1.7,3.8 2.7,6.3 2.7,6.3 0,0 -2,6 -6.1,1.3 -5.8,-6.7 -13.6,-16.8 -12.5,-22 0.9,-4.4 1.6,-5.2 3.2,-4.6 z"
           style="fill:url(#linear-gradient-5)" />
        <path
           id="Path_1367"
           data-name="Path 1367"
           class="cls-8"
           d="m 1370.1,715.6 c 0,0 -0.9,6.7 -4.9,7.9 l -1.4,-15.9 c 0.1,0 5.1,6.1 6.3,8 z"
           style="fill:url(#linearGradient182)" />
        <path
           id="Path_1368"
           data-name="Path 1368"
           class="cls-9"
           d="m 1366,711.3 c 0.7,1.5 0,11.6 -1,12.8 -1,1.2 -3.6,-0.6 -4.4,-2.6 -0.8,-2 -4.5,-12.9 -0.6,-16.6 -0.1,-0.1 3.2,0.1 6,6.4 z"
           style="fill:url(#linear-gradient-7)" />
        <path
           id="Path_1369"
           data-name="Path 1369"
           class="cls-10"
           d="m 1364.3,712.7 c 0.4,0.1 1.1,3.5 0.8,4.1 -0.3,0.6 -1.1,0.6 -1.5,-0.2 -0.4,-0.7 0,-3.9 0.7,-3.9 z" />
      </g>
      <path
         id="Path_1312"
         data-name="Path 1312"
         class="cls-11"
         d="m 1334.4,731.7 c 0,0 -1.9,2.8 -4.4,6.4 -4.1,5.9 -9.8,13.8 -12,15.2 -1,0.7 -1.7,-1.8 -2,-5.5 -0.8,-8.8 -0.1,-24.9 -0.1,-24.9 0,0 13.6,2.9 18.5,8.8 z"
         style="fill:url(#linear-gradient-8)" />
      <path
         id="Path_1313"
         data-name="Path 1313"
         class="cls-12"
         d="m 1334.4,731.7 c 0,0 -1.9,2.8 -4.4,6.4 0,0 -3.7,-0.6 -9.9,3.1 -2.4,1.4 -3.5,3.9 -4.1,6.5 -0.8,-8.8 -0.1,-24.9 -0.1,-24.9 0,0 13.6,3 18.5,8.9 z"
         style="fill:url(#linear-gradient-9)" />
      <path
         id="Path_1317"
         data-name="Path 1317"
         class="cls-13"
         d="m 1297.7,704.9 c -0.6,16.4 6.6,25.4 22.6,29.2 15.7,3.8 29.6,-10.7 29.6,-31.9 0,-13.5 -0.8,-25.7 -5.7,-34.4 v 0 a 24.286,24.286 0 0 0 -12.7,-11 c -4.6,-1.8 -9.3,-0.2 -13.5,3.3 -11.1,9.3 -19.9,32.2 -20.3,44.8 z"
         style="fill:url(#linear-gradient-10)" />
      <path
         id="Path_1318"
         data-name="Path 1318"
         class="cls-14"
         d="m 1313.5,677.9 c 0,0 -4.8,11.7 -6.8,19.8 -2.4,9.6 1,20.2 1,20.2 l -9.1,-2.9 c 0,0 -2.5,-13.2 0.7,-20.4 a 70.819,70.819 0 0 0 3.5,-9.1 z"
         style="fill:url(#linear-gradient-11)" />
      <path
         id="Path_1319"
         data-name="Path 1319"
         class="cls-15"
         d="m 1350.1,705 c 0,0 -0.6,-12.7 -11.9,-15.5 -13.5,-3.4 -26.3,9.1 -28.1,19.4 -1.8,10.3 -1.1,20.5 11.5,24.2 0,0 24,5.5 28.5,-28.1 z"
         style="fill:url(#linear-gradient-12)" />
      <path
         id="Path_1320"
         data-name="Path 1320"
         class="cls-16"
         d="m 1349.8,706.3 c 0,0 -0.6,-12.7 -11.9,-15.5 -13.5,-3.4 -26.3,9.1 -28.1,19.4 -1.8,10.3 -1.1,20.5 11.5,24.2 0,0 24,5.5 28.5,-28.1 z"
         style="fill:url(#radialGradient184)" />
      <path
         id="Path_1321"
         data-name="Path 1321"
         class="cls-17"
         d="m 1303.8,689.3 a 3.029,3.029 0 0 0 2.2,-0.9 c 3.8,-3 9.5,-13.1 11,-19.1 0.6,-2.3 0.5,-4.1 -0.5,-4.5 -1.7,-0.8 -6.9,4.4 -10.9,12.4 -2.3,4.7 -4.3,11.5 -1.8,12.1 z"
         style="fill:url(#linear-gradient-13)" />
      <path
         id="Path_1322"
         data-name="Path 1322"
         class="cls-18"
         d="m 1306,688.4 c 3.8,-3 9.5,-13.1 11,-19.1 -2.3,1.8 -5.6,6 -8.3,11.4 a 35.454,35.454 0 0 0 -2.7,7.7 z" />
      <path
         id="Path_1323"
         data-name="Path 1323"
         class="cls-19"
         d="m 1348.4,705 c -2.5,2.8 -7.8,-3 -15.9,-4.1 -8.1,-1.1 -13.4,2 -15.4,0.3 -2,-1.7 8.2,-11.7 20.4,-9.1 9.8,2.1 11.8,11.9 10.9,12.9 z"
         style="fill:url(#linearGradient186)" />
      <path
         id="Path_1324"
         data-name="Path 1324"
         class="cls-20"
         d="m 1332.3,732 a 14.391,14.391 0 0 1 -9.7,1.3 c -5.5,-1.2 -6.7,-4.3 -6.7,-4.3 a 12.39,12.39 0 0 1 6.4,1.3 18.213,18.213 0 0 0 10,1.7 z"
         style="fill:url(#linearGradient188)" />
      <path
         id="Path_1325"
         data-name="Path 1325"
         class="cls-10"
         d="m 1323.3,677.9 c 0.9,0.3 0.7,8.1 -0.2,8.2 -0.8,0.1 -2.4,-0.2 -2.3,-3.5 0,-3.3 1.6,-5 2.5,-4.7 z" />
      <path
         id="Path_1359"
         data-name="Path 1359"
         class="cls-21"
         d="m 1316,711.2 -0.3,-0.5 c 0.1,0.1 0.1,0.2 0.3,0.5 z"
         style="fill:url(#linear-gradient-16)" />
      <g
         id="koja-kaire">
        <path
           id="Path_1326"
           data-name="Path 1326"
           class="cls-22"
           d="m 1315,767.6 c -5.2,0.1 -26.8,-47.6 -21.6,-51.4 8.8,-6.4 20.9,6.4 25.4,13.7 a 13.461,13.461 0 0 1 1.8,3.9 c 0.5,4.2 -0.4,33.7 -5.6,33.8 z"
           style="fill:url(#linear-gradient-17)" />
        <path
           id="Path_1360"
           data-name="Path 1360"
           class="cls-23"
           d="m 1315,767.6 c -5.2,0.1 -26.8,-47.6 -21.6,-51.4 0,0 6.5,29.9 14.3,37.7 7.9,7.7 13,-12.6 11.6,-21.4 a 19.975,19.975 0 0 0 -0.5,-2.6 13.462,13.462 0 0 1 1.8,3.9 c 0.5,4.2 -0.4,33.7 -5.6,33.8 z"
           style="fill:url(#linear-gradient-18)" />
        <path
           id="Path_1361"
           data-name="Path 1361"
           class="cls-10"
           d="m 1302.7,724.4 c -0.8,1.3 1.2,9.1 2.3,9 1.1,-0.2 1.3,-4.3 0.8,-5.6 -0.6,-1.3 -3,-3.6 -3.1,-3.4 z" />
        <path
           id="Path_1362"
           data-name="Path 1362"
           class="cls-10"
           d="m 1305.2,734.7 c -0.9,0.5 0.2,2.8 0.8,2.8 0.7,-0.1 0,-3.2 -0.8,-2.8 z" />
      </g>
      <g
         id="galva">
        <path
           id="Path_1328"
           data-name="Path 1328"
           class="cls-24"
           d="m 1301.7,668.1 a 43.935,43.935 0 0 0 27.7,8 c 16.5,-0.9 17.7,-6.2 17.7,-6.2 0,0 -5.4,-8 -9.8,-9.4 -1.7,-0.5 -19.9,-3.8 -25.8,7 -3.9,0 -9.8,0.6 -9.8,0.6 z"
           style="fill:url(#linear-gradient-19)" />
        <path
           id="Path_1329"
           data-name="Path 1329"
           class="cls-25"
           d="m 1341.2,581.1 c 0,0 8.4,5.6 12.1,18.7 3.7,13 -15.9,-2.6 -15.9,-2.6 z"
           style="fill:url(#radial-gradient-3)" />
        <path
           id="Path_1330"
           data-name="Path 1330"
           class="cls-26"
           d="m 1347.1,597 c 0,0 -2.3,-17.4 -8.1,-19.7 -5.8,-2.3 -13.4,6.2 -13.4,6.2 z"
           style="fill:url(#linearGradient190)" />
        <path
           id="Path_1331"
           data-name="Path 1331"
           class="cls-27"
           d="m 1300.5,587.3 c -26.1,15.9 -24.7,55.5 -14.7,69.9 11.7,16.7 72.9,6.2 81.5,-21.3 8.7,-27.7 -34.4,-68.3 -66.8,-48.6 z"
           style="fill:url(#linear-gradient-21)" />
        <path
           id="Path_1332"
           data-name="Path 1332"
           class="cls-28"
           d="m 1292.5,628.9 c 0,0 -3.2,14.3 -11.4,17.9 0,0 -1.9,-7 -1.9,-11.4 0,-4.4 13.3,-6.5 13.3,-6.5 z"
           style="fill:url(#linear-gradient-22)" />
        <path
           id="Path_1333"
           data-name="Path 1333"
           class="cls-29"
           d="m 1315.8,591.1 c -20.2,10.1 -23.3,50.8 -9.9,64.4 13.4,13.5 59,-0.8 62.2,-25 2.9,-21.5 -28.1,-51.4 -52.3,-39.4 z"
           style="fill:url(#linear-gradient-23)" />
        <path
           id="Path_1334"
           data-name="Path 1334"
           class="cls-30"
           d="m 1320.1,656.2 c 0,0 -9.6,1.5 -13.8,-4.1 -4.2,-5.6 -2.3,-10 -0.9,-10.3 1.4,-0.3 5.6,8.1 9,11.1 3.4,3 5.7,3.3 5.7,3.3 z"
           style="fill:url(#linearGradient192)" />
        <path
           id="Path_1335"
           data-name="Path 1335"
           class="cls-31"
           d="m 1297.4,603.1 c 0,0 2.7,24.6 -12.5,33.4 0,0 -7.5,0.8 -11.8,-3.7 0,0 6.8,6.3 13.9,-0.3 7.1,-6.6 5.4,-24.8 0,-30.8 -5.4,-5.9 -13.2,-4.4 -13.2,-4.4 l 3.1,-2.8 c 0,0 11.5,-2.3 20.5,8.6 z"
           style="fill:url(#linear-gradient-25)" />
        <path
           id="Path_1336"
           data-name="Path 1336"
           class="cls-32"
           d="m 1276.9,594.5 c 0,0 8.5,-0.8 14.4,9 6.3,10.4 1.7,28.4 -5.9,31.2 -7.6,2.7 -15.3,-26.4 -15.3,-26.4 l 4.4,-11.6 a 4.449,4.449 0 0 1 2.4,-2.2 z"
           style="fill:url(#linear-gradient-26)" />
        <path
           id="Path_1337"
           data-name="Path 1337"
           class="cls-33"
           d="m 1265.9,619.4 c 1.1,5.6 3.4,10.2 6.4,13.1 v 0 l 0.9,0.8 v 0 a 11.232,11.232 0 0 0 8.6,2.6 c 10.3,-1.3 11.7,-16.2 10.5,-24.7 -1.4,-9.8 -9.8,-15.6 -16.4,-14.8 -7.9,1 -12.1,12 -10,23 z"
           style="fill:url(#radial-gradient-4)" />
        <path
           id="Path_1338"
           data-name="Path 1338"
           class="cls-34"
           d="m 1290.6,623.1 c 0,0 -1.1,9.1 -7.8,11.1 -6.7,2 -12.2,-2.9 -13.9,-9.7 0,0 2.1,5.9 10.9,4.4 8.7,-1.5 10.8,-5.8 10.8,-5.8 z"
           style="fill:url(#linear-gradient-27)" />
        <path
           id="Path_1339"
           data-name="Path 1339"
           class="cls-35"
           d="m 1289.4,605.8 c -0.1,1.7 -12.4,-1.8 -16.3,-1.3 -3.9,0.5 -5.6,5.3 -6.2,5.2 -0.6,-0.1 1,-11.4 8.3,-12.2 7.3,-0.8 14.3,7.1 14.2,8.3 z"
           style="fill:url(#linear-gradient-28)" />
        <path
           id="Path_1340"
           data-name="Path 1340"
           class="cls-36"
           d="m 1352.1,622.5 c 4.2,2.3 10.3,-2.8 8.8,-9 -1.5,-6.2 -8.7,-11.2 -12.3,-9.2 -3.6,1.9 -3.5,14.3 3.5,18.2 z"
           style="fill:url(#radial-gradient-5)" />
        <path
           id="Path_1341"
           data-name="Path 1341"
           class="cls-37"
           d="m 1314.2,636.3 c 6.6,4.6 13.7,-2.9 13.7,-9.6 -0.1,-6.7 -6.2,-13.2 -12.3,-11.6 -6.7,1.9 -8.1,16.5 -1.4,21.2 z"
           style="fill:url(#radial-gradient-6)" />
        <path
           id="Path_1342"
           data-name="Path 1342"
           class="cls-38"
           d="m 1334.4,638.6 c -0.6,1.1 7.4,6.5 11.2,4.9 4.5,-1.8 3.8,-11.4 3,-12 -0.9,-0.6 -13.2,5.2 -14.2,7.1 z" />
        <path
           id="Path_1343"
           data-name="Path 1343"
           class="cls-39"
           d="m 1301.7,626.3 c 3.6,4.9 13.8,-11.9 24.9,-17.6 12.6,-6.5 30.9,0.4 32.1,-1.6 1.2,-2 -14.4,-19.6 -34.6,-16.5 -20.1,3.1 -25.7,31.2 -22.4,35.7 z"
           style="fill:url(#linear-gradient-29)" />
        <path
           id="Path_1357"
           data-name="Path 1357"
           class="cls-40"
           d="m 1334.4,656.1 a 27.025,27.025 0 0 0 14.3,-9.3 15.324,15.324 0 0 1 13.6,-6.2 c 0,0 -11,15.5 -27.9,15.5 z"
           style="fill:url(#linear-gradient-30)" />
        <path
           id="Path_1358"
           data-name="Path 1358"
           class="cls-10"
           d="m 1297.8,595.5 c 0,1.6 10,-6.5 8.7,-7.1 -1.2,-0.7 -8.6,5.2 -8.7,7.1 z" />
        <path
           id="Path_1363"
           data-name="Path 1363"
           class="cls-10"
           d="m 1331.2,581.1 c 0.6,1.3 4.8,-1.4 4.2,-2.6 -0.7,-1.1 -4.9,1.3 -4.2,2.6 z" />
      </g>
      <g
         id="ranka-kaire">
        <path
           id="Path_1327"
           data-name="Path 1327"
           class="cls-41"
           d="m 1313.5,668.5 c 2.9,2.9 -5.5,19.1 -12.7,21.8 -7.3,2.7 -23,-0.6 -25.5,-1.6 -2.5,-1 -3.4,-9.4 -1.1,-12.6 2.4,-3.3 35.3,-11.6 39.3,-7.6 z"
           style="fill:url(#linear-gradient-31)" />
        <path
           id="Path_1757"
           data-name="Path 1757"
           class="cls-4"
           d="m 1354.6,711.526 c 0,0 3.5,-11.394 7.8,-11.226 4.3,0.168 4.9,10.64 2.1,12.818 -2.7,2.094 -8.3,-0.335 -9.9,-1.592 z"
           transform="rotate(177,1319.6971,693.54455)"
           style="fill:url(#linearGradient194)" />
        <path
           id="Path_692"
           data-name="Path 692"
           class="cls-42"
           d="m 1035.6,721.9 c 0,0 3.3,-4.7 8.1,-5.3 4.8,-0.6 6.5,0.7 7.4,4 0.9,3.3 -5.9,15.5 -14.3,24.7 -3.6,0.3 -4.7,-4.2 -5.2,-7 -0.1,-2.4 2.3,-12.5 4,-16.4 z"
           transform="rotate(65,1190.1221,881.18986)"
           style="fill:url(#linear-gradient-33)" />
        <path
           id="Path_693"
           data-name="Path 693"
           class="cls-43"
           d="m 1047.2,716.6 c 0,0 -9,12.4 -11.8,19.6 -1.5,3.9 -2.4,6.4 -2.4,6.4 0,0 2.3,5.9 6.2,1 5.5,-7 12.8,-17.5 11.5,-22.5 -1.2,-4.4 -2,-5.2 -3.5,-4.5 z"
           transform="rotate(65,1190.1221,881.18986)"
           style="fill:url(#linear-gradient-34)" />
        <path
           id="Path_706"
           data-name="Path 706"
           class="cls-44"
           d="m 1039.6,728 c 0,0 1.2,6.6 5.3,7.6 l 0.6,-15.9 c 0,0 -4.7,6.3 -5.9,8.3 z"
           transform="rotate(65,1190.1221,881.18986)"
           style="fill:url(#linear-gradient-35)" />
        <path
           id="Path_707"
           data-name="Path 707"
           class="cls-45"
           d="m 1043.5,723.5 c -0.6,1.5 0.6,11.6 1.7,12.7 1.1,1.1 3.6,-0.8 4.3,-2.8 0.7,-2 3.8,-13.1 -0.2,-16.6 0,0 -3.3,0.3 -5.8,6.7 z"
           transform="rotate(65,1190.1221,881.18986)"
           style="fill:url(#linear-gradient-36)" />
        <path
           id="Path_708"
           data-name="Path 708"
           class="cls-10"
           d="m 1045.4,724.9 c -0.4,0.1 -0.9,3.5 -0.6,4.1 0.4,0.6 1.1,0.5 1.5,-0.2 0.3,-0.8 -0.3,-4.1 -0.9,-3.9 z"
           transform="rotate(-90.974,1131.3747,592.84125)" />
      </g>
    </g>
  </g>
</svg>
