<?xml version="1.0" encoding="UTF-8" standalone="no"?>
<svg
   xmlns:dc="http://purl.org/dc/elements/1.1/"
   xmlns:cc="http://creativecommons.org/ns#"
   xmlns:rdf="http://www.w3.org/1999/02/22-rdf-syntax-ns#"
   xmlns:svg="http://www.w3.org/2000/svg"
   xmlns="http://www.w3.org/2000/svg"
   xmlns:xlink="http://www.w3.org/1999/xlink"
   xmlns:sodipodi="http://sodipodi.sourceforge.net/DTD/sodipodi-0.dtd"
   xmlns:inkscape="http://www.inkscape.org/namespaces/inkscape"
   width="192.72278"
   height="218.41928"
   viewBox="0 0 192.72277 218.41928"
   version="1.1"
   id="svg211"
   sodipodi:docname="robo-9.svg"
   inkscape:version="1.0.1 (3bc2e813f5, 2020-09-07)">
  <metadata
     id="metadata215">
    <rdf:RDF>
      <cc:Work
         rdf:about="">
        <dc:format>image/svg+xml</dc:format>
        <dc:type
           rdf:resource="http://purl.org/dc/dcmitype/StillImage" />
        <dc:title></dc:title>
      </cc:Work>
    </rdf:RDF>
  </metadata>
  <sodipodi:namedview
     pagecolor="#ffffff"
     bordercolor="#666666"
     borderopacity="1"
     objecttolerance="10"
     gridtolerance="10"
     guidetolerance="10"
     inkscape:pageopacity="0"
     inkscape:pageshadow="2"
     inkscape:window-width="2560"
     inkscape:window-height="1361"
     id="namedview213"
     showgrid="false"
     fit-margin-top="0"
     fit-margin-left="0"
     fit-margin-right="0"
     fit-margin-bottom="0"
     inkscape:zoom="3.3652674"
     inkscape:cx="-0.57019879"
     inkscape:cy="127.83511"
     inkscape:window-x="-9"
     inkscape:window-y="-9"
     inkscape:window-maximized="1"
     inkscape:current-layer="svg211" />
  <defs
     id="defs134">
    <style
       id="style2">
ellipse#Ellipse_62 {
	transition: all 100ms linear;
}

g#ranka-kaire {
  transition: all 100ms linear;
  transform-box: fill-box;
}

g#ranka-desine {
  transition: all 100ms linear;
  transform-box: fill-box;
}

g#robo{
	transition: all 100ms linear;
}

g#robotukas5:hover g#ranka-kaire {
	transition: all 100ms linear;
  transform-box: fill-box;
	transform: translate(12px, -35px) rotate(22deg);
}

g#robotukas5:hover g#ranka-desine {
	transition: all 100ms linear;
  transform-box: fill-box;
	transform: translate(-1px, 4px) rotate(-14deg);
}

g#robotukas5:hover ellipse#Ellipse_62 {
ry: 7.6px;
	rx: 28.8px;
                transition:all 100ms linear;
}

g#robotukas5:hover g#robo{
	transition: all 100ms linear;
	transform: translateY(-14px);
}

      .cls-1 {
        fill: #1a75fa;
      }

      .cls-2 {
        fill: #e5f6ff;
      }

      .cls-20, .cls-22, .cls-27, .cls-3, .cls-44, .cls-45, .cls-46, .cls-49, .cls-58 {
        opacity: 0.5;
      }

      .cls-3 {
        fill: url(#radial-gradient);
      }

      .cls-4 {
        fill: url(#linear-gradient);
      }

      .cls-5 {
        fill: url(#linear-gradient-2);
      }

      .cls-11, .cls-13, .cls-24, .cls-33, .cls-52, .cls-55, .cls-6 {
        opacity: 0.3;
      }

      .cls-6 {
        fill: url(#linear-gradient-3);
      }

      .cls-7 {
        fill: #3de7ff;
      }

      .cls-8 {
        fill: url(#linear-gradient-4);
      }

      .cls-9 {
        fill: url(#linear-gradient-5);
      }

      .cls-10 {
        fill: url(#linear-gradient-6);
      }

      .cls-11 {
        fill: url(#linear-gradient-7);
      }

      .cls-12 {
        fill: url(#linear-gradient-8);
      }

      .cls-13 {
        fill: url(#linear-gradient-9);
      }

      .cls-14 {
        fill: #fff;
      }

      .cls-15 {
        fill: url(#linear-gradient-10);
      }

      .cls-16 {
        fill: url(#linear-gradient-11);
      }

      .cls-17 {
        fill: url(#linear-gradient-12);
      }

      .cls-18 {
        fill: url(#linear-gradient-13);
      }

      .cls-19 {
        fill: url(#linear-gradient-14);
      }

      .cls-20 {
        fill: url(#linear-gradient-15);
      }

      .cls-21 {
        fill: url(#radial-gradient-2);
      }

      .cls-22 {
        fill: url(#linear-gradient-16);
      }

      .cls-23 {
        fill: url(#radial-gradient-3);
      }

      .cls-24 {
        fill: url(#linear-gradient-17);
      }

      .cls-25 {
        fill: url(#linear-gradient-18);
      }

      .cls-26 {
        fill: url(#linear-gradient-19);
      }

      .cls-27 {
        fill: url(#linear-gradient-20);
      }

      .cls-28 {
        fill: url(#linear-gradient-21);
      }

      .cls-29 {
        fill: #dfe3fb;
      }

      .cls-30 {
        fill: url(#linear-gradient-22);
      }

      .cls-31 {
        fill: url(#linear-gradient-23);
      }

      .cls-32 {
        fill: url(#linear-gradient-24);
      }

      .cls-33 {
        fill: url(#linear-gradient-25);
      }

      .cls-34 {
        fill: url(#linear-gradient-26);
      }

      .cls-35 {
        fill: url(#radial-gradient-4);
      }

      .cls-36 {
        fill: url(#linear-gradient-27);
      }

      .cls-37 {
        fill: url(#radial-gradient-5);
      }

      .cls-38 {
        fill: url(#linear-gradient-28);
      }

      .cls-39 {
        fill: #6340a2;
      }

      .cls-40 {
        fill: url(#linear-gradient-29);
      }

      .cls-41 {
        fill: url(#radial-gradient-6);
      }

      .cls-42 {
        fill: url(#radial-gradient-7);
      }

      .cls-43 {
        fill: #2f95cd;
      }

      .cls-44 {
        fill: url(#linear-gradient-30);
      }

      .cls-45 {
        fill: url(#linear-gradient-31);
      }

      .cls-46 {
        fill: url(#linear-gradient-32);
      }

      .cls-47, .cls-48, .cls-50, .cls-51 {
        opacity: 0.72;
      }

      .cls-47 {
        fill: url(#linear-gradient-33);
      }

      .cls-48 {
        fill: url(#linear-gradient-34);
      }

      .cls-49 {
        fill: url(#linear-gradient-35);
      }

      .cls-50 {
        fill: url(#linear-gradient-36);
      }

      .cls-51 {
        fill: url(#linear-gradient-37);
      }

      .cls-52 {
        fill: url(#linear-gradient-38);
      }

      .cls-53 {
        fill: url(#linear-gradient-39);
      }

      .cls-54 {
        fill: url(#linear-gradient-40);
      }

      .cls-55 {
        fill: url(#linear-gradient-41);
      }

      .cls-56 {
        fill: url(#linear-gradient-42);
      }

      .cls-57 {
        fill: url(#linear-gradient-43);
      }

      .cls-58 {
        fill: url(#linear-gradient-44);
      }

      .cls-59 {
        fill: url(#linear-gradient-45);
      }
    </style>
    <radialGradient
       id="radial-gradient"
       cx="19.268627"
       cy="19.114477"
       r="19.191553"
       gradientTransform="matrix(2.1174315,0,0,0.47227029,919.98634,634.71926)"
       gradientUnits="userSpaceOnUse"
       fx="19.268627"
       fy="19.114477">
      <stop
         offset="0"
         stop-color="#559dea"
         id="stop4" />
      <stop
         offset="0.431"
         stop-color="#5ea9f5"
         id="stop6" />
      <stop
         offset="1"
         stop-color="#fff"
         stop-opacity="0"
         id="stop8" />
    </radialGradient>
    <linearGradient
       id="linear-gradient"
       x1="0.38600001"
       y1="0.31400001"
       x2="1"
       y2="0.87900001"
       gradientUnits="objectBoundingBox">
      <stop
         offset="0"
         stop-color="#cbc1f7"
         id="stop11" />
      <stop
         offset="1"
         stop-color="#e8dcf7"
         id="stop13" />
    </linearGradient>
    <linearGradient
       id="linear-gradient-2"
       x1="0.003"
       y1="-5.9580002"
       x2="1"
       y2="-5.9580002"
       gradientUnits="objectBoundingBox">
      <stop
         offset="0"
         stop-color="#8879ea"
         id="stop16" />
      <stop
         offset="1"
         stop-color="#9e8cef"
         id="stop18" />
    </linearGradient>
    <linearGradient
       id="linear-gradient-3"
       x1="0.71399999"
       y1="1"
       x2="0.49900001"
       y2="-2.484"
       gradientUnits="objectBoundingBox">
      <stop
         offset="0"
         stop-color="#9d68c2"
         id="stop21" />
      <stop
         offset="1"
         stop-color="#ccedff"
         id="stop23" />
    </linearGradient>
    <linearGradient
       id="linear-gradient-4"
       x1="0.49900001"
       y1="7.2950001"
       x2="0.49900001"
       y2="8.2980003"
       gradientUnits="objectBoundingBox">
      <stop
         offset="0"
         stop-color="#b9acf4"
         id="stop26" />
      <stop
         offset="1"
         stop-color="#e1d1f5"
         id="stop28" />
    </linearGradient>
    <linearGradient
       id="linear-gradient-5"
       x1="894.49677"
       y1="588.92059"
       x2="904.16772"
       y2="676.90936"
       xlink:href="#linear-gradient"
       gradientTransform="scale(1.0676224,0.93666077)"
       gradientUnits="userSpaceOnUse" />
    <linearGradient
       id="linear-gradient-6"
       x1="463.56686"
       y1="1127.1913"
       y2="1127.1913"
       xlink:href="#linear-gradient-2"
       gradientTransform="scale(2.0061831,0.498459)"
       x2="497.26068"
       gradientUnits="userSpaceOnUse" />
    <linearGradient
       id="linear-gradient-7"
       x1="736.54254"
       y1="720.93744"
       x2="736.54254"
       y2="790.97571"
       xlink:href="#linear-gradient-3"
       gradientTransform="scale(1.3025937,0.76769908)"
       gradientUnits="userSpaceOnUse" />
    <linearGradient
       id="linear-gradient-8"
       x1="965.49097"
       x2="972.30933"
       y2="568.59326"
       gradientUnits="userSpaceOnUse"
       gradientTransform="scale(0.96376986,1.0375921)"
       y1="511.6835">
      <stop
         offset="0"
         stop-color="#cbc1f7"
         id="stop34" />
      <stop
         offset="1"
         stop-color="#d4bef1"
         id="stop36" />
    </linearGradient>
    <linearGradient
       id="linear-gradient-9"
       x1="964.51904"
       y1="530.34625"
       x2="966.69122"
       y2="580.03455"
       xlink:href="#linear-gradient-3"
       gradientTransform="scale(0.96257328,1.0388819)"
       gradientUnits="userSpaceOnUse" />
    <linearGradient
       id="linear-gradient-10"
       x1="0.57700002"
       y1="-3.8800001"
       x2="0.42899999"
       y2="-2.891"
       gradientUnits="objectBoundingBox">
      <stop
         offset="0"
         stop-color="#be9dea"
         id="stop40" />
      <stop
         offset="1"
         stop-color="#9e8cef"
         id="stop42" />
    </linearGradient>
    <linearGradient
       id="linear-gradient-11"
       x1="727.17969"
       y1="694.29572"
       x2="719.03693"
       y2="714.87396"
       xlink:href="#linear-gradient"
       gradientTransform="scale(1.2428152,0.80462485)"
       gradientUnits="userSpaceOnUse" />
    <linearGradient
       id="linear-gradient-12"
       x1="652.82373"
       y1="712.76758"
       x2="652.43982"
       y2="720.07458"
       xlink:href="#linear-gradient-10"
       gradientTransform="scale(1.3909646,0.71892554)"
       gradientUnits="userSpaceOnUse" />
    <linearGradient
       id="linear-gradient-13"
       x1="813.22485"
       y1="663.59381"
       x2="821.50958"
       y2="613.98834"
       gradientUnits="userSpaceOnUse"
       gradientTransform="scale(1.0902107,0.9172539)">
      <stop
         offset="0"
         stop-color="#ff2a30"
         id="stop47" />
      <stop
         offset="1"
         stop-color="#ff7f7f"
         id="stop49" />
    </linearGradient>
    <linearGradient
       id="linear-gradient-14"
       x1="952.29126"
       y1="556.66357"
       x2="961.87531"
       y2="515.69373"
       gradientUnits="userSpaceOnUse"
       gradientTransform="scale(0.92141591,1.0852862)">
      <stop
         offset="0"
         stop-color="#d4000b"
         id="stop52" />
      <stop
         offset="1"
         stop-color="#fe1100"
         id="stop54" />
    </linearGradient>
    <linearGradient
       id="linear-gradient-15"
       x1="0.472"
       y1="1.017"
       x2="0.51499999"
       y2="0.122"
       gradientUnits="objectBoundingBox">
      <stop
         offset="0"
         stop-color="#8da4e5"
         id="stop57" />
      <stop
         offset="1"
         stop-color="#755cbb"
         id="stop59" />
    </linearGradient>
    <radialGradient
       id="radial-gradient-2"
       cx="0.51899999"
       cy="0.43900001"
       r="0.56"
       gradientTransform="matrix(0.713,0.527,-0.442,0.85,-2.116,0.019)"
       gradientUnits="objectBoundingBox">
      <stop
         offset="0"
         stop-color="#45ffcd"
         id="stop62" />
      <stop
         offset="1"
         stop-color="#22e0ff"
         id="stop64" />
    </radialGradient>
    <linearGradient
       id="linear-gradient-16"
       x1="783.38135"
       y1="669.38751"
       x2="784.19977"
       y2="660.93585"
       xlink:href="#linear-gradient-15"
       gradientTransform="scale(1.1405668,0.87675709)"
       gradientUnits="userSpaceOnUse" />
    <radialGradient
       id="radial-gradient-3"
       cx="808.58899"
       cy="646.58191"
       r="3.6702709"
       gradientTransform="scale(1.106978,0.90336034)"
       xlink:href="#radial-gradient-2"
       fx="808.58899"
       fy="646.58191"
       gradientUnits="userSpaceOnUse" />
    <linearGradient
       id="linear-gradient-17"
       x1="744.62219"
       y1="728.97052"
       x2="749.0376"
       y2="679.22687"
       xlink:href="#linear-gradient-3"
       gradientTransform="scale(1.1921912,0.83879165)"
       gradientUnits="userSpaceOnUse" />
    <linearGradient
       id="linear-gradient-18"
       x1="588.94165"
       y1="840.51605"
       x2="589.93433"
       y2="881.88293"
       xlink:href="#linear-gradient"
       gradientTransform="scale(1.5366675,0.65075887)"
       gradientUnits="userSpaceOnUse" />
    <linearGradient
       id="linear-gradient-19"
       x1="826.71021"
       y1="569.56805"
       x2="826.20557"
       y2="575.56891"
       xlink:href="#linear-gradient-10"
       gradientTransform="scale(1.0998534,0.90921211)"
       gradientUnits="userSpaceOnUse" />
    <linearGradient
       id="linear-gradient-20"
       x1="462.87173"
       y1="1154.9135"
       x2="462.87173"
       y2="1187.4774"
       xlink:href="#linear-gradient-15"
       gradientTransform="scale(2.0822964,0.48023904)"
       gradientUnits="userSpaceOnUse" />
    <linearGradient
       id="linear-gradient-21"
       x1="423.12039"
       y1="1254.5249"
       x2="423.67209"
       y2="1277.7198"
       gradientUnits="userSpaceOnUse"
       gradientTransform="scale(2.2762685,0.43931549)">
      <stop
         offset="0"
         stop-color="#5e36cc"
         id="stop73" />
      <stop
         offset="1"
         stop-color="#6c4a96"
         id="stop75" />
    </linearGradient>
    <linearGradient
       id="linear-gradient-22"
       x1="899.0246"
       y1="477.6254"
       x2="899.0246"
       y2="536.31024"
       gradientUnits="userSpaceOnUse"
       gradientTransform="scale(1.0532951,0.94940158)">
      <stop
         offset="0"
         stop-color="#0665bd"
         id="stop78" />
      <stop
         offset="1"
         stop-color="#1a1f77"
         id="stop80" />
    </linearGradient>
    <linearGradient
       id="linear-gradient-23"
       x1="1171.7393"
       y1="446.88412"
       x2="1185.208"
       y2="487.6734"
       xlink:href="#linear-gradient"
       gradientTransform="scale(0.82061058,1.2186048)"
       gradientUnits="userSpaceOnUse" />
    <linearGradient
       id="linear-gradient-24"
       x1="1304.4496"
       y1="451.95007"
       x2="1304.4496"
       y2="484.09186"
       xlink:href="#linear-gradient-4"
       gradientTransform="scale(0.76103571,1.3139988)"
       gradientUnits="userSpaceOnUse" />
    <linearGradient
       id="linear-gradient-25"
       x1="1628.3632"
       x2="1643.8948"
       y2="367.55225"
       xlink:href="#linear-gradient-3"
       gradientTransform="scale(0.5966728,1.6759604)"
       y1="327.1557"
       gradientUnits="userSpaceOnUse" />
    <linearGradient
       id="linear-gradient-26"
       x1="1287.7065"
       y1="460.53317"
       x2="1287.7065"
       y2="491.77234"
       xlink:href="#linear-gradient-10"
       gradientTransform="scale(0.77338724,1.2930133)"
       gradientUnits="userSpaceOnUse" />
    <radialGradient
       id="radial-gradient-4"
       cx="0.49900001"
       cy="0.49900001"
       r="0.42899999"
       gradientTransform="matrix(1.453,0,0,-1,-0.226,8.389)"
       gradientUnits="objectBoundingBox">
      <stop
         offset="0"
         stop-color="#94fdff"
         id="stop87" />
      <stop
         offset="1"
         stop-color="#22e0ff"
         id="stop89" />
    </radialGradient>
    <linearGradient
       id="linear-gradient-27"
       x1="1028.9052"
       y1="458.44122"
       x2="1071.0413"
       y2="458.44122"
       xlink:href="#linear-gradient-10"
       gradientTransform="scale(0.90719934,1.1022936)"
       gradientUnits="userSpaceOnUse" />
    <radialGradient
       id="radial-gradient-5"
       cx="1050.6677"
       cy="538.7995"
       r="26.224594"
       gradientTransform="scale(0.90719934,1.1022936)"
       xlink:href="#radial-gradient-4"
       fx="1050.6677"
       fy="538.7995"
       gradientUnits="userSpaceOnUse" />
    <linearGradient
       id="linear-gradient-28"
       x1="1615.8445"
       y1="321.97314"
       x2="1632.1709"
       y2="321.97314"
       xlink:href="#linear-gradient-2"
       gradientTransform="scale(0.60324401,1.657704)"
       gradientUnits="userSpaceOnUse" />
    <linearGradient
       id="linear-gradient-29"
       x1="1329.6576"
       y1="425.7587"
       x2="1340.4924"
       y2="444.47333"
       xlink:href="#linear-gradient"
       gradientTransform="scale(0.72997765,1.369905)"
       gradientUnits="userSpaceOnUse" />
    <radialGradient
       id="radial-gradient-6"
       cx="1152.1964"
       cy="390.21948"
       r="6.5943933"
       gradientTransform="scale(0.80318789,1.2450387)"
       xlink:href="#radial-gradient-4"
       fx="1152.1964"
       fy="390.21948"
       gradientUnits="userSpaceOnUse" />
    <radialGradient
       id="radial-gradient-7"
       cx="549.98651"
       cy="834.09155"
       r="11.271767"
       gradientTransform="scale(1.7464829,0.57257932)"
       xlink:href="#radial-gradient-4"
       fx="549.98651"
       fy="834.09155"
       gradientUnits="userSpaceOnUse" />
    <linearGradient
       id="linear-gradient-30"
       x1="636.7063"
       y1="894.06659"
       x2="673.70746"
       y2="894.06659"
       gradientUnits="userSpaceOnUse"
       gradientTransform="scale(1.447187,0.69099571)">
      <stop
         offset="0"
         stop-color="#0d49a1"
         id="stop98" />
      <stop
         offset="1"
         stop-color="#fff"
         stop-opacity="0"
         id="stop100" />
    </linearGradient>
    <linearGradient
       id="linear-gradient-31"
       x1="-0.001"
       y1="8.3140001"
       x2="0.99900001"
       y2="8.3140001"
       gradientUnits="objectBoundingBox">
      <stop
         offset="0"
         stop-color="#0b52aa"
         id="stop103" />
      <stop
         offset="1"
         stop-color="#6a9bff"
         id="stop105" />
    </linearGradient>
    <linearGradient
       id="linear-gradient-32"
       x1="1889.7635"
       y1="278.48444"
       x2="1889.7635"
       y2="290.89069"
       xlink:href="#linear-gradient-31"
       gradientTransform="scale(0.48468972,2.0631756)"
       gradientUnits="userSpaceOnUse" />
    <linearGradient
       id="linear-gradient-33"
       x1="728.383"
       y1="816.56726"
       x2="728.383"
       y2="832.43127"
       gradientUnits="userSpaceOnUse"
       gradientTransform="scale(1.370609,0.72960268)">
      <stop
         offset="0"
         stop-color="#d4e2ff"
         id="stop109" />
      <stop
         offset="1"
         id="stop111" />
    </linearGradient>
    <linearGradient
       id="linear-gradient-34"
       x1="-0.001"
       y1="14.507"
       x2="1.001"
       y2="14.507"
       gradientUnits="objectBoundingBox">
      <stop
         offset="0"
         stop-color="#59eeff"
         id="stop114" />
      <stop
         offset="1"
         stop-color="#eff4ff"
         id="stop116" />
    </linearGradient>
    <linearGradient
       id="linear-gradient-35"
       x1="637.63177"
       y1="778.80164"
       x2="640.6709"
       y2="807.83997"
       xlink:href="#linear-gradient-15"
       gradientTransform="scale(1.501839,0.66585032)"
       gradientUnits="userSpaceOnUse" />
    <linearGradient
       id="linear-gradient-36"
       x1="621.8468"
       y1="780.34967"
       x2="642.94666"
       y2="780.34967"
       xlink:href="#linear-gradient-34"
       gradientTransform="scale(1.5042506,0.66478287)"
       gradientUnits="userSpaceOnUse" />
    <linearGradient
       id="linear-gradient-37"
       x1="450.45755"
       y1="1020.1092"
       x2="450.45755"
       y2="1027.8555"
       gradientUnits="userSpaceOnUse"
       gradientTransform="scale(2.115109,0.47278888)">
      <stop
         offset="0"
         stop-color="#fff"
         stop-opacity="0.969"
         id="stop121" />
      <stop
         offset="1"
         stop-color="#fff"
         stop-opacity="0"
         id="stop123" />
    </linearGradient>
    <linearGradient
       id="linear-gradient-38"
       x1="1819.4193"
       y1="321.05573"
       x2="1819.4193"
       y2="344.53677"
       xlink:href="#linear-gradient-3"
       gradientTransform="scale(0.53629959,1.8646294)"
       gradientUnits="userSpaceOnUse" />
    <linearGradient
       id="linear-gradient-39"
       x1="1401.9785"
       y1="376.26813"
       x2="1412.6578"
       y2="406.80548"
       xlink:href="#linear-gradient"
       gradientTransform="scale(0.7094372,1.409568)"
       gradientUnits="userSpaceOnUse" />
    <linearGradient
       id="linear-gradient-40"
       x1="882.41687"
       y1="559.42371"
       x2="882.41687"
       y2="572.30566"
       xlink:href="#linear-gradient-10"
       gradientTransform="scale(1.136561,0.87984719)"
       gradientUnits="userSpaceOnUse" />
    <linearGradient
       id="linear-gradient-41"
       x1="1475.4443"
       y1="370.80856"
       x2="1487.7725"
       y2="421.64096"
       xlink:href="#linear-gradient-3"
       gradientTransform="scale(0.67904818,1.4726496)"
       gradientUnits="userSpaceOnUse" />
    <linearGradient
       id="linear-gradient-42"
       x1="1450.5031"
       y1="446.12354"
       x2="1438.1718"
       y2="404.55896"
       xlink:href="#linear-gradient"
       gradientTransform="scale(0.69761672,1.4334519)"
       gradientUnits="userSpaceOnUse" />
    <linearGradient
       id="linear-gradient-43"
       x1="1753.045"
       y1="250.17751"
       x2="1753.045"
       y2="266.05881"
       xlink:href="#linear-gradient-10"
       gradientTransform="scale(0.54227575,1.8440803)"
       gradientUnits="userSpaceOnUse" />
    <linearGradient
       id="linear-gradient-44"
       x1="1260.0602"
       y1="355.10187"
       x2="1260.0602"
       y2="363.65738"
       xlink:href="#linear-gradient-15"
       gradientTransform="scale(0.75492793,1.3246298)"
       gradientUnits="userSpaceOnUse" />
    <linearGradient
       id="linear-gradient-45"
       x1="1468.9413"
       y1="305.21744"
       x2="1472.6418"
       y2="317.61523"
       xlink:href="#linear-gradient"
       gradientTransform="scale(0.64810769,1.5429535)"
       gradientUnits="userSpaceOnUse" />
    <linearGradient
       inkscape:collect="always"
       xlink:href="#linear-gradient"
       id="linearGradient217"
       gradientUnits="userSpaceOnUse"
       x1="1232.1724"
       y1="456.85663"
       x2="1249.5417"
       y2="472.83984"
       gradientTransform="scale(0.76468562,1.307727)" />
    <linearGradient
       inkscape:collect="always"
       xlink:href="#linear-gradient-2"
       id="linearGradient219"
       gradientUnits="userSpaceOnUse"
       x1="815.85364"
       y1="559.02142"
       x2="834.55072"
       y2="559.02142"
       gradientTransform="scale(1.1451945,0.87321412)" />
    <linearGradient
       inkscape:collect="always"
       xlink:href="#linear-gradient-3"
       id="linearGradient221"
       gradientUnits="userSpaceOnUse"
       x1="1225.8885"
       y1="481.59518"
       x2="1219.8826"
       y2="384.27231"
       gradientTransform="scale(0.77439329,1.2913335)" />
    <linearGradient
       inkscape:collect="always"
       xlink:href="#linear-gradient-4"
       id="linearGradient223"
       gradientUnits="userSpaceOnUse"
       x1="913.0686"
       y1="623.0614"
       x2="913.0686"
       y2="645.44183"
       gradientTransform="scale(1.0218041,0.97866121)" />
    <linearGradient
       inkscape:collect="always"
       xlink:href="#linear-gradient-10"
       id="linearGradient225"
       gradientUnits="userSpaceOnUse"
       x1="1107.8629"
       y1="422.57358"
       x2="1106.3539"
       y2="432.65704"
       gradientTransform="scale(0.82689178,1.2093481)" />
    <linearGradient
       inkscape:collect="always"
       xlink:href="#linear-gradient-15"
       id="linearGradient227"
       gradientUnits="userSpaceOnUse"
       x1="552.09351"
       y1="929.07166"
       x2="552.59033"
       y2="918.7301"
       gradientTransform="scale(1.6270316,0.6146162)" />
    <radialGradient
       inkscape:collect="always"
       xlink:href="#radial-gradient-2"
       id="radialGradient229"
       gradientUnits="userSpaceOnUse"
       gradientTransform="scale(1.0915631,0.91611746)"
       cx="819.58313"
       cy="636.53064"
       r="6.0561404"
       fx="819.58313"
       fy="636.53064" />
    <radialGradient
       inkscape:collect="always"
       xlink:href="#radial-gradient-4"
       id="radialGradient231"
       gradientUnits="userSpaceOnUse"
       gradientTransform="scale(0.82971451,1.2052338)"
       cx="1204.1031"
       cy="388.06799"
       r="14.113765"
       fx="1204.1031"
       fy="388.06799" />
    <linearGradient
       inkscape:collect="always"
       xlink:href="#linear-gradient-31"
       id="linearGradient233"
       gradientUnits="userSpaceOnUse"
       x1="431.9838"
       y1="1229.9064"
       x2="450.34204"
       y2="1229.9064"
       gradientTransform="scale(2.14073,0.46713036)" />
    <linearGradient
       inkscape:collect="always"
       xlink:href="#linear-gradient-34"
       id="linearGradient235"
       gradientUnits="userSpaceOnUse"
       x1="727.88123"
       y1="851.47955"
       x2="744.56494"
       y2="851.47955"
       gradientTransform="scale(1.3582935,0.73621793)" />
  </defs>
  <g
     id="robotukas5"
     transform="translate(-862.28522,-434.5)">
    <g
       id="Group_744"
       data-name="Group 744">
      <path
         id="Path_1570"
         data-name="Path 1570"
         class="cls-1"
         d="m 871,529.6 c -7.7,25.6 26.7,75.7 78.3,75 57.5,-0.8 103.2,-50 105.6,-91.5 2.5,-41.4 -38.9,-70.6 -72.7,-63.2 -33.8,7.4 -46.1,30.2 -62,44.8 -9.2,8.6 -39,1.1 -49.2,34.9 z" />
      <g
         id="Group_743"
         data-name="Group 743">
        <path
           id="Path_1571"
           data-name="Path 1571"
           class="cls-1"
           d="m 864.7,565.2 a 22.811,22.811 0 0 0 -2.4,10.2 3.232,3.232 0 0 0 0.3,1.7 3.59,3.59 0 0 0 2.7,1.7 6.992,6.992 0 0 0 6.7,-3.7 8.3,8.3 0 0 0 -0.3,-7.8 5.681,5.681 0 0 0 -3.2,-2.9 3.246,3.246 0 0 0 -3.8,1.6 0.749,0.749 0 0 0 1.2,0 z" />
        <path
           id="Path_1572"
           data-name="Path 1572"
           class="cls-2"
           d="m 1043.5,434.8 a 0.319,0.319 0 0 1 0.3,-0.3 0.52,0.52 0 0 1 0.4,0.2 c 0.1,0.1 0.2,0.2 0.2,0.3 a 0.585,0.585 0 0 1 -0.3,0.7 0.854,0.854 0 0 1 -0.7,0 c -0.1,-0.1 -0.2,-0.2 -0.2,-0.3 0,-0.1 0,-0.3 0.2,-0.3 z" />
      </g>
    </g>
    <ellipse
       id="Ellipse_62"
       data-name="Ellipse 62"
       class="cls-3"
       cx="960.78632"
       cy="643.81927"
       rx="40.799999"
       ry="9.1000004"
       style="fill:url(#radial-gradient)" />
    <g
       id="robo">
      <path
         id="Path_1573"
         data-name="Path 1573"
         class="cls-4"
         d="m 955.5,599.7 c -0.4,4.4 -7.3,18.4 -12.7,22.2 v 0 a 3.832,3.832 0 0 1 -2.9,0.9 c -3.9,-0.8 -5.8,-19.4 -6,-29.9 -0.1,-4.1 0.1,-6.9 0.5,-7 3.6,-1 21.5,8.6 21.1,13.8 z"
         style="fill:url(#linearGradient217)" />
      <path
         id="Path_1574"
         data-name="Path 1574"
         class="cls-5"
         d="m 955.5,601.2 c 0,0 -4.8,2.6 -12.3,-1.1 -5.8,-2.9 -9.8,-12.5 -8.8,-14.2 1.1,-1.7 23.8,8.5 21.1,15.3 z"
         style="fill:url(#linearGradient219)" />
      <path
         id="Path_1575"
         data-name="Path 1575"
         class="cls-6"
         d="m 955.5,599.7 c -0.4,4.4 -7.3,18.4 -12.7,22.2 4.1,-4.7 4.2,-14.2 1.6,-18.6 -2,-3.3 -7.8,-8.2 -10.5,-10.4 -0.1,-4.1 0.1,-6.9 0.5,-7 3.6,-1 21.5,8.6 21.1,13.8 z"
         style="fill:url(#linearGradient221)" />
      <path
         id="Path_1579"
         data-name="Path 1579"
         class="cls-7"
         d="m 926.1,457.4 c 0,0 -6.9,7.3 -7.7,20.9 -0.8,13.5 14.9,-6 14.9,-6 z" />
      <path
         id="Path_1580"
         data-name="Path 1580"
         class="cls-8"
         d="m 921.6,472.3 c 0,0 3.1,-16.7 8.3,-20.2 5.2,-3.5 14.5,-0.3 14.5,-0.3 z"
         style="fill:url(#linearGradient223)" />
      <path
         id="Path_1581"
         data-name="Path 1581"
         class="cls-9"
         d="m 1001.6,511.3 c -11.8,18.5 -70,21.4 -80,12.2 a 27.07,27.07 0 0 1 -7.8,-14 v 0 c -5.4,-23.4 12.8,-58.2 43,-61.6 20.4,-2.3 37.5,14.6 44.7,32.7 4.4,11.2 5,22.9 0.1,30.7 z"
         style="fill:url(#linear-gradient-5)" />
      <path
         id="Path_1582"
         data-name="Path 1582"
         class="cls-10"
         d="m 990.2,520.2 a 112.7,112.7 0 0 1 -25.3,7.1 c -13.5,1.8 -23.5,1.6 -29.2,0.1 v 0 q -5.7,-1.5 -5.7,-4.2 c 0,-1.1 2.5,-2.4 6.6,-3.7 12,-3.9 37.3,-7.9 51.3,-7.7 a 32.534,32.534 0 0 1 3.3,0.2 1.268,1.268 0 0 1 0.6,0.1 h 0.1 c 2.4,0.3 4.2,0.8 5.1,1.5 a 2.655,2.655 0 0 1 0.5,0.6 c 0.7,1.6 -2.5,3.8 -7.3,6 z"
         style="fill:url(#linear-gradient-6)" />
      <path
         id="Path_1583"
         data-name="Path 1583"
         class="cls-11"
         d="m 1001.6,511.3 c -11.8,18.5 -70,21.4 -80,12.2 a 27.07,27.07 0 0 1 -7.8,-14 v 0 c 0,0 4.9,7 16.7,6.9 11.9,-0.1 45.7,-6.4 52,-12.5 6.2,-6 0.4,-29.1 0.4,-29.1 l 18.5,5.8 c 4.5,11.2 5.1,22.9 0.2,30.7 z"
         style="fill:url(#linear-gradient-7)" />
      <g
         id="ranka-kaire">
        <path
           id="Path_1576"
           data-name="Path 1576"
           class="cls-12"
           d="m 940.4,559.9 c 0,0 -20.6,11.7 -25.4,11.2 -4.8,-0.5 -2.7,-11.5 -2.7,-11.5 0.6,-0.8 1.4,-1.5 2.1,-2.3 v 0 c 7.7,-8.2 20.9,-18.6 28.5,-23.5 v 0 c 3.2,-2.1 5.4,-3.2 5.8,-2.8 2.9,3.1 -8.3,28.9 -8.3,28.9 z"
           style="fill:url(#linear-gradient-8)" />
        <path
           id="Path_1578"
           data-name="Path 1578"
           class="cls-13"
           d="m 940.4,559.9 c 0,0 -20.6,11.7 -25.4,11.2 -4.8,-0.5 -2.7,-11.5 -2.7,-11.5 0.6,-0.8 1.4,-1.5 2.1,-2.3 v 0 c 0,0 5,3 14.3,1.5 9.3,-1.4 14.2,-25.1 14.2,-25.1 v 0 c 3.2,-2.1 5.4,-3.2 5.8,-2.8 2.9,3.2 -8.3,29 -8.3,29 z"
           style="fill:url(#linear-gradient-9)" />
        <path
           id="Path_1623"
           data-name="Path 1623"
           class="cls-14"
           d="m 921.8,551.9 c 0.2,0.7 5.1,-1.5 5.1,-3.6 0,-2.1 -5.4,2.6 -5.1,3.6 z" />
        <path
           id="Path_1577"
           data-name="Path 1577"
           class="cls-15"
           d="m 912.3,559.7 c 0,0 2.7,-2.3 6,0.8 3.3,3 -0.1,10.3 -3.3,10.7 -3.2,0.3 -5.1,-6.8 -2.7,-11.5 z"
           style="fill:url(#linearGradient225)" />
        <path
           id="Path_1600"
           data-name="Path 1600"
           class="cls-16"
           d="m 917.5,566.6 c 0,0 -4.1,6.4 -8.4,9.5 -4.4,3.1 -13,4.5 -13,4.5 0,0 -6.1,-2.8 -6.1,-7 0,0 6.6,-3.3 9.1,-8.6 0,0 8.5,-3 12.2,-2 a 13.824,13.824 0 0 1 6.2,3.6 z"
           style="fill:url(#linear-gradient-11)" />
        <path
           id="Path_1601"
           data-name="Path 1601"
           class="cls-17"
           d="m 905.3,564.6 7,4.6 -8.9,-3.8 z"
           style="fill:url(#linear-gradient-12)" />
        <g
           id="Group_745"
           data-name="Group 745">
          <path
             id="Path_1627"
             data-name="Path 1627"
             class="cls-18"
             d="m 918.9,572.9 v 0 c -1,1.1 -17.2,18.6 -24.7,37.2 l -31.4,-8.5 a 119.15,119.15 0 0 1 12.7,-19.9 v 0 a 109.583,109.583 0 0 1 18.6,-18.8 68.487,68.487 0 0 1 24.8,10 z"
             style="fill:url(#linear-gradient-13)" />
          <path
             id="Path_1628"
             data-name="Path 1628"
             class="cls-19"
             d="m 896.3,561.7 c 0,0 1.1,14.7 -1.6,23.3 0,0 -21.4,8 -31.4,16.4 l 32.5,-16 c 0.1,-0.1 2.3,-14.8 0.5,-23.7 z"
             style="fill:url(#linear-gradient-14)" />
          <path
             id="Path_1629"
             data-name="Path 1629"
             class="cls-20"
             d="m 889.4,566.8 c 0,0 2.4,4.2 9.6,4.1 7.1,-0.1 9.2,-3.6 9.2,-3.6 l -4.2,-1.8 -11.1,-1.7 c -0.1,0.1 -3.3,2.8 -3.5,3 z"
             style="fill:url(#linearGradient227)" />
          <path
             id="Path_1630"
             data-name="Path 1630"
             class="cls-21"
             d="m 888.5,583.2 c 0,2.6 3.9,6.4 7.7,5.3 4.8,-1.3 5.1,-8.2 2.4,-9.3 -2.8,-1.2 -3.5,0.6 -5,0.6 -1.4,0.2 -5.1,0.3 -5.1,3.4 z"
             style="fill:url(#radialGradient229)" />
          <path
             id="Path_1631"
             data-name="Path 1631"
             class="cls-22"
             d="m 894.8,587 a 5.02,5.02 0 0 1 -1.2,-0.2 6.791,6.791 0 0 1 -3.2,-2.3 c -1.2,-1.2 -1.5,-2.2 -0.5,-3.1 1.5,-1.3 5.2,-1.5 6.5,-1.7 0.9,-0.1 1.4,0.3 1.9,1.4 a 12.192,12.192 0 0 1 0.5,1.7 3.787,3.787 0 0 1 -4,4.2 z"
             style="fill:url(#linear-gradient-16)" />
          <path
             id="Path_1632"
             data-name="Path 1632"
             class="cls-23"
             d="m 894.8,587 a 5.02,5.02 0 0 1 -1.2,-0.2 9.416,9.416 0 0 1 -1,-1 c -1.2,-1.3 -1.5,-2.2 -0.5,-3.1 1.4,-1.2 4.6,-1.5 6.1,-1.6 a 12.205,12.205 0 0 1 0.5,1.7 3.668,3.668 0 0 1 -3.9,4.2 z"
             style="fill:url(#radial-gradient-3)" />
          <path
             id="Path_1633"
             data-name="Path 1633"
             class="cls-24"
             d="m 862.7,601.6 a 119.147,119.147 0 0 1 12.7,-19.9 c -0.5,0.8 -7.9,12.4 -9.6,15.8 l 3.9,0.5 26.3,3.3 c 0,0 13.4,-19.6 22.7,-28.3 -13,14.9 -23.9,39.4 -23.9,39.4 z"
             style="fill:url(#linear-gradient-17)" />
        </g>
        <path
           id="Path_1634"
           data-name="Path 1634"
           class="cls-25"
           d="m 915,561.1 c 0,0 -4.4,-4.6 -8,-4.9 -3.7,-0.3 -13,3.7 -15.8,9 0,0 0.4,1.3 3.6,2 3.2,0.8 10.5,-2.6 10.5,-2.6 l 12.2,2.1 a 9.2,9.2 0 0 0 -2.5,-5.6 z"
           style="fill:url(#linear-gradient-18)" />
        <path
           id="Path_1635"
           data-name="Path 1635"
           class="cls-26"
           d="m 905.3,564.6 c 0,0 5.9,-1.8 6.6,-6.2 l 0.9,0.7 c 0,0 -0.8,4.6 -7.5,5.5 z"
           style="fill:url(#linear-gradient-19)" />
        <path
           id="Path_1636"
           data-name="Path 1636"
           class="cls-14"
           d="m 894.9,562.7 c 0.1,0.9 6.6,-2.1 6.6,-3.2 0,-1.1 -6.7,1.7 -6.6,3.2 z" />
      </g>
      <path
         id="Path_1584"
         data-name="Path 1584"
         class="cls-27"
         d="m 990.2,520.2 c -6.2,-1.8 -24.1,-6 -37.3,-1.2 -16.2,6 -17.2,8.4 -17.2,8.4 v 0 q -5.7,-1.5 -5.7,-4.2 c 0,-1.1 2.5,-2.4 6.6,-3.7 12,-3.9 37.3,-7.9 51.3,-7.7 1.5,0.1 2.8,0.1 4,0.2 h 0.1 c 2.4,0.3 4.2,0.8 5.1,1.5 a 2.653,2.653 0 0 1 0.5,0.6 c 0.6,1.7 -2.6,3.9 -7.4,6.1 z"
         style="fill:url(#linear-gradient-20)" />
      <path
         id="Path_1585"
         data-name="Path 1585"
         class="cls-28"
         d="m 991.2,511.9 c -2.8,3.5 -17.8,8.2 -26.5,9.3 -15.7,2.1 -25.5,0.9 -28.1,-1.8 13,-4.1 41.7,-8.6 54.6,-7.5 z"
         style="fill:url(#linear-gradient-21)" />
      <path
         id="Path_1586"
         data-name="Path 1586"
         class="cls-29"
         d="m 913.8,510.6 c 3.4,6.8 53.4,2.8 64.4,-11.4 11,-14.2 -6.5,-54.1 -32.2,-46.9 -24.5,7 -38.4,45.9 -32.2,58.3 z" />
      <path
         id="Path_1587"
         data-name="Path 1587"
         class="cls-30"
         d="m 913.8,509.5 c 3.4,6.8 53.4,2.8 64.4,-11.4 11,-14.2 -6.5,-54.1 -32.2,-46.9 -24.5,7 -38.4,45.9 -32.2,58.3 z"
         style="fill:url(#linear-gradient-22)" />
      <path
         id="Path_1588"
         data-name="Path 1588"
         class="cls-31"
         d="m 984.7,578.5 c -3.5,16 -12.7,22.9 -29.2,22.7 -16.1,-0.2 -26,-17.7 -20.8,-38.2 3.3,-13.1 7.2,-24.7 14,-32 v 0 a 23.541,23.541 0 0 1 15,-7.5 c 4.9,-0.6 9,2.1 12.3,6.6 8.6,11.7 11.4,36 8.7,48.4 z"
         style="fill:url(#linear-gradient-23)" />
      <path
         id="Path_1589"
         data-name="Path 1589"
         class="cls-32"
         d="m 980.7,454.8 c 0,0 -2.7,24.6 12.5,33.4 0,0 7.5,0.8 11.8,-3.7 0,0 -6.8,6.3 -13.9,-0.3 -7.1,-6.6 -5.4,-24.8 0,-30.8 5.4,-5.9 13.2,-4.4 13.2,-4.4 l -3.1,-2.8 c 0,0 -11.5,-2.4 -20.5,8.6 z"
         style="fill:url(#linear-gradient-24)" />
      <path
         id="Path_1590"
         data-name="Path 1590"
         class="cls-33"
         d="m 976,548.3 a 196.067,196.067 0 0 1 1.7,20.9 c 0,9.9 -6.1,18.6 -6.1,18.6 l 12.3,-6.6 a 35.2,35.2 0 0 0 1.7,-13.1 c -0.6,-6.6 -1.1,-9.6 -1.1,-9.6 z"
         style="fill:url(#linear-gradient-25)" />
      <path
         id="Path_1591"
         data-name="Path 1591"
         class="cls-34"
         d="m 1001.2,446.2 c 0,0 -8.5,-0.8 -14.4,9 -6.3,10.4 -1.7,28.4 5.9,31.2 7.6,2.7 15.3,-26.4 15.3,-26.4 l -4.4,-11.6 a 4.11,4.11 0 0 0 -2.4,-2.2 z"
         style="fill:url(#linear-gradient-26)" />
      <path
         id="Path_1592"
         data-name="Path 1592"
         class="cls-35"
         d="m 1012.2,471 c -1.1,5.6 -3.4,10.2 -6.4,13.1 v 0 l -0.9,0.8 v 0 a 11.232,11.232 0 0 1 -8.6,2.6 c -10.3,-1.3 -11.7,-16.2 -10.5,-24.7 1.4,-9.8 9.8,-15.6 16.4,-14.8 7.9,1.1 12.1,12 10,23 z"
         style="fill:url(#radialGradient231)" />
      <path
         id="Path_1593"
         data-name="Path 1593"
         class="cls-36"
         d="m 933.9,565.6 c 0,0 3.7,-12.1 15.3,-12.1 13.9,0 23.2,15.4 22.4,25.8 -0.8,10.4 -4,20.2 -17.1,20.6 0,-0.1 -24.6,-0.6 -20.6,-34.3 z"
         style="fill:url(#linear-gradient-27)" />
      <path
         id="Path_1594"
         data-name="Path 1594"
         class="cls-37"
         d="m 933.9,566.9 c 0,0 3.7,-12.1 15.3,-12.1 13.9,0 23.2,15.4 22.4,25.8 -0.8,10.4 -4,20.2 -17.1,20.6 0,0 -24.6,-0.6 -20.6,-34.3 z"
         style="fill:url(#radial-gradient-5)" />
      <path
         id="Path_1595"
         data-name="Path 1595"
         class="cls-38"
         d="m 982.6,561.8 c -0.6,0 -1.2,-0.5 -1.9,-1.4 -2.9,-3.9 -6,-15.1 -5.9,-21.3 0,-2.4 0.5,-4.1 1.6,-4.3 1.9,-0.3 5.6,5.9 7.5,14.7 1,5.2 1.3,12.3 -1.3,12.3 z"
         style="fill:url(#linear-gradient-28)" />
      <path
         id="Path_1596"
         data-name="Path 1596"
         class="cls-39"
         d="m 980.7,560.4 c -2.9,-3.9 -6,-15.1 -5.9,-21.3 1.8,2.4 4,7.2 5.2,13.1 a 33.69,33.69 0 0 1 0.7,8.2 z" />
      <path
         id="Path_1598"
         data-name="Path 1598"
         class="cls-40"
         d="m 984.2,627.4 c -1.1,0.5 -2.6,0 -4.3,-1.3 a 35.937,35.937 0 0 1 -6.1,-6.2 v 0 c -5.9,-7.3 -11.7,-17.4 -11.4,-19.6 1,-7.8 11.6,-14.6 17.9,-17.6 2.5,-1.2 4.3,-1.8 4.6,-1.6 1.1,0.5 4.9,43.6 -0.7,46.3 z"
         style="fill:url(#linear-gradient-29)" />
      <path
         id="Path_1602"
         data-name="Path 1602"
         class="cls-41"
         d="m 919.7,493.4 c 1.2,3.8 9.1,2.8 11.2,-3.2 2.1,-6 -0.2,-13.7 -4.2,-14 -4,-0.4 -9.3,9.6 -7,17.2 z"
         style="fill:url(#radial-gradient-6)" />
      <path
         id="Path_1603"
         data-name="Path 1603"
         class="cls-42"
         d="m 951.9,480.4 c -0.3,0.5 5.7,-5.1 17.3,-3 1.1,0.2 -12.2,-7.8 -17.3,3 z"
         style="fill:url(#radial-gradient-7)" />
      <path
         id="Path_1604"
         data-name="Path 1604"
         class="cls-43"
         d="m 940.2,501.5 c 0,0 11.1,-2.9 16,-11.8 0.1,0 -1.8,12 -16,11.8 z" />
      <path
         id="Path_1605"
         data-name="Path 1605"
         class="cls-44"
         d="m 921.6,476.8 c 1.4,1.5 9.8,-5.1 20.2,-6.1 10.4,-0.9 23.5,6.9 31.6,4.1 6.4,-2.3 -6.9,-24.5 -24.2,-23.3 -17.3,1.1 -29,23.8 -27.6,25.3 z"
         style="fill:url(#linear-gradient-30)" />
      <path
         id="Path_1606"
         data-name="Path 1606"
         class="cls-45"
         d="m 924.8,509.6 a 71.6,71.6 0 0 1 23.5,-5.9 c 13.4,-1.1 15.8,-0.1 15.8,1.2 0,1.3 -9.1,5.7 -21.3,6.7 -12.3,1 -18,-2 -18,-2 z"
         style="fill:url(#linearGradient233)" />
      <path
         id="Path_1607"
         data-name="Path 1607"
         class="cls-46"
         d="m 913.8,507.5 c 0,0 -3.1,-9 2.7,-23.7 0,0 1.4,-2.4 2.4,-1.8 0.9,0.6 -5.6,11.7 -5.1,25.5 z"
         style="fill:url(#linear-gradient-32)" />
      <path
         id="Path_1608"
         data-name="Path 1608"
         class="cls-47"
         d="m 987.5,474.7 c 0,0 1.1,9.1 7.8,11.1 6.7,2 12.2,-2.9 13.9,-9.7 0,0 -2.1,5.9 -10.9,4.4 -8.7,-1.5 -10.8,-5.8 -10.8,-5.8 z"
         style="fill:url(#linear-gradient-33)" />
      <path
         id="Path_1609"
         data-name="Path 1609"
         class="cls-48"
         d="m 988.7,457.4 c 0.1,1.7 12.4,-1.8 16.3,-1.3 3.9,0.5 5.6,5.3 6.2,5.2 0.6,-0.1 -1,-11.4 -8.3,-12.2 -7.3,-0.8 -14.3,7.1 -14.2,8.3 z"
         style="fill:url(#linearGradient235)" />
      <path
         id="Path_1610"
         data-name="Path 1610"
         class="cls-49"
         d="m 976.1,530 c 0,0 -17,6.4 -23.5,5.7 -6.3,-0.7 -3.9,-4.5 -3.8,-4.7 v 0 a 23.541,23.541 0 0 1 15,-7.5 c 4.9,-0.6 9,2 12.3,6.5 z"
         style="fill:url(#linear-gradient-35)" />
      <path
         id="Path_1617"
         data-name="Path 1617"
         class="cls-50"
         d="m 935.5,566 c 1.7,3.3 8.3,-0.9 16.4,0 8.1,0.9 12.5,5.2 14.8,4.1 2.3,-1.2 -5,-13.3 -17.5,-13.8 -10,-0.5 -14.3,8.5 -13.7,9.7 z"
         style="fill:url(#linear-gradient-36)" />
      <path
         id="Path_1618"
         data-name="Path 1618"
         class="cls-51"
         d="m 944.5,596.1 a 14.166,14.166 0 0 0 9.1,3.7 c 5.6,0.2 7.5,-2.5 7.5,-2.5 a 11.641,11.641 0 0 0 -6.5,-0.3 18.815,18.815 0 0 1 -10.1,-0.9 z"
         style="fill:url(#linear-gradient-37)" />
      <path
         id="Path_1619"
         data-name="Path 1619"
         class="cls-52"
         d="m 984.2,627.4 c -1.1,0.5 -2.6,0 -4.3,-1.3 l -6.1,-6.2 c 0.6,0.5 7.4,6.5 8.7,-5.9 1.4,-13 -2.8,-30.5 -2.8,-30.5 l 0.6,-0.8 c 2.5,-1.2 4.3,-1.8 4.6,-1.6 1.1,0.5 4.9,43.6 -0.7,46.3 z"
         style="fill:url(#linear-gradient-38)" />
      <g
         id="ranka-desine">
        <path
           id="Path_1597"
           data-name="Path 1597"
           class="cls-53"
           d="m 1010.1,584.9 c -1.9,6 -9,6.7 -11,5.2 -1.8,-1.3 -6.8,-7.1 -11.6,-17.8 v 0 c -0.7,-1.6 -1.4,-3.3 -2.1,-5 -5.3,-14 -9.3,-39.7 -3.8,-38.7 v 0 c 16,2.9 30.4,50.3 28.5,56.3 z"
           style="fill:url(#linear-gradient-39)" />
        <path
           id="Path_1599"
           data-name="Path 1599"
           class="cls-54"
           d="m 995.6,586.4 c 0,0 0.1,-5.6 5,-7.5 4.9,-2 9.7,4.6 9.7,4.6 a 6.428,6.428 0 0 1 -6.6,6.4 c -6.7,0 -8.1,-3.5 -8.1,-3.5 z"
           style="fill:url(#linear-gradient-40)" />
        <path
           id="Path_1611"
           data-name="Path 1611"
           class="cls-55"
           d="m 1010.1,584.9 c -1.9,6 -9,6.7 -11,5.2 -1.8,-1.3 -6.8,-7.1 -11.6,-17.8 0.5,0.9 4,7.4 7.1,7.4 3.4,0 9.9,-9.4 3.3,-29 -6.4,-19 -15.7,-22 -16.3,-22.1 16,2.9 30.4,50.3 28.5,56.3 z"
           style="fill:url(#linear-gradient-41)" />
        <path
           id="Path_1612"
           data-name="Path 1612"
           class="cls-56"
           d="m 1001.5,581.7 c 2.8,-0.8 7.2,1.5 8.7,3.7 1.5,2.3 5.4,11.8 3.2,24.1 0,0 -4.2,5.5 -8.8,4.3 -3.6,-0.9 -4.4,-11.5 -5.4,-19 -0.9,-7.6 -2.3,-11.9 2.3,-13.1 z"
           style="fill:url(#linear-gradient-42)" />
        <path
           id="Path_1613"
           data-name="Path 1613"
           class="cls-57"
           d="m 1005.3,614.1 c 0,0 1.7,-24.6 -8.3,-28.6 0,0 -0.1,4 2,13.2 1.9,9.3 4,14.8 6.3,15.4 z"
           style="fill:url(#linear-gradient-43)" />
        <path
           id="Path_1614"
           data-name="Path 1614"
           class="cls-58"
           d="m 1004.6,600.6 c 0,0 -2.1,3.8 -3.7,4.6 a 4.1,4.1 0 0 1 -3,0.3 l 5.1,-11.6 a 30.486,30.486 0 0 1 1.6,6.7 z"
           style="fill:url(#linear-gradient-44)" />
        <path
           id="Path_1615"
           data-name="Path 1615"
           class="cls-59"
           d="m 1003,593.9 c 0,0 -2,-6.6 -6.3,-7.8 0,0 -3.4,4.1 -1,18.4 0,0 2.4,2.6 5.1,-0.5 a 37.069,37.069 0 0 0 2.2,-10.1 z"
           style="fill:url(#linear-gradient-45)" />
        <path
           id="Path_1616"
           data-name="Path 1616"
           class="cls-14"
           d="m 1000.4,591.7 c 1.4,-0.1 -0.1,6.2 -0.8,6.1 -0.7,-0.1 -0.3,-6 0.8,-6.1 z" />
        <path
           id="Path_1620"
           data-name="Path 1620"
           class="cls-14"
           d="m 984.6,551 c -2.4,1.4 2.6,11.5 3.7,11.7 1.2,0.3 -2,-12.7 -3.7,-11.7 z" />
        <path
           id="Path_1621"
           data-name="Path 1621"
           class="cls-14"
           d="m 989.1,564.4 c -0.5,0.1 0.1,2.4 0.4,2.7 0.4,0.3 1.2,0.4 1.4,0.2 0.2,-0.2 -1.2,-3 -1.8,-2.9 z" />
      </g>
      <path
         id="Path_1622"
         data-name="Path 1622"
         class="cls-14"
         d="m 965.1,540 c -1,0 -2.7,9.6 -1.9,9.9 0.8,0.3 1.9,-1.7 2.6,-4.9 0.9,-3.1 0.3,-5.1 -0.7,-5 z" />
      <path
         id="Path_1624"
         data-name="Path 1624"
         class="cls-14"
         d="m 969.1,599.8 c -2.1,0.5 1,5.7 1.5,5.9 0.5,0.2 0.9,-2 0.5,-3.6 -0.4,-1.3 -1.3,-2.4 -2,-2.3 z" />
      <path
         id="Path_1625"
         data-name="Path 1625"
         class="cls-14"
         d="m 939.6,604 c -1.2,-0.3 -0.9,3.1 -0.7,3.3 0.2,0.2 0.9,-0.8 1.1,-1.7 0.2,-0.8 0,-1.5 -0.4,-1.6 z" />
      <path
         id="Path_1626"
         data-name="Path 1626"
         class="cls-14"
         d="m 971,606.4 c -0.4,0.3 0.6,2 0.9,1.6 a 1.363,1.363 0 0 0 0,-1.5 0.642,0.642 0 0 0 -0.9,-0.1 z" />
    </g>
  </g>
</svg>
