<svg xmlns="http://www.w3.org/2000/svg" xmlns:xlink="http://www.w3.org/1999/xlink" width="192.723" height="211.8" viewBox="0 0 192.723 211.8">
  <defs>
    <style>
ellipse#Ellipse_62 {
	transition: all 100ms linear;
}

g#ranka-kaire {
  transition: all 100ms linear;
  transform-box: fill-box;
}

g#ranka-desine {
  transition: all 100ms linear;
  transform-box: fill-box;
}

g#robo{
	transition: all 100ms linear;
}

g#robotukas5:hover g#ranka-kaire {
	transition: all 100ms linear;
  transform-box: fill-box;
	transform: translate(12px, -35px) rotate(22deg);
}

g#robotukas5:hover g#ranka-desine {
	transition: all 100ms linear;
  transform-box: fill-box;
	transform: translate(-1px, 4px) rotate(-14deg);
}

g#robotukas5:hover ellipse#Ellipse_62 {
	transition: all 100ms linear;
	ry: 7.6px;
	rx: 35.8px;
}

g#robotukas5:hover g#robo{
	transition: all 100ms linear;
	transform:translate(-862.3px, -444.5px);
}

      .cls-1 {
        fill: #1a75fa;
      }

      .cls-2 {
        fill: #e5f6ff;
      }

      .cls-20, .cls-22, .cls-27, .cls-3, .cls-44, .cls-45, .cls-46, .cls-49, .cls-58 {
        opacity: 0.5;
      }

      .cls-3 {
        fill: url(#radial-gradient);
      }

      .cls-4 {
        fill: url(#linear-gradient);
      }

      .cls-5 {
        fill: url(#linear-gradient-2);
      }

      .cls-11, .cls-13, .cls-24, .cls-33, .cls-52, .cls-55, .cls-6 {
        opacity: 0.3;
      }

      .cls-6 {
        fill: url(#linear-gradient-3);
      }

      .cls-7 {
        fill: #3de7ff;
      }

      .cls-8 {
        fill: url(#linear-gradient-4);
      }

      .cls-9 {
        fill: url(#linear-gradient-5);
      }

      .cls-10 {
        fill: url(#linear-gradient-6);
      }

      .cls-11 {
        fill: url(#linear-gradient-7);
      }

      .cls-12 {
        fill: url(#linear-gradient-8);
      }

      .cls-13 {
        fill: url(#linear-gradient-9);
      }

      .cls-14 {
        fill: #fff;
      }

      .cls-15 {
        fill: url(#linear-gradient-10);
      }

      .cls-16 {
        fill: url(#linear-gradient-11);
      }

      .cls-17 {
        fill: url(#linear-gradient-12);
      }

      .cls-18 {
        fill: url(#linear-gradient-13);
      }

      .cls-19 {
        fill: url(#linear-gradient-14);
      }

      .cls-20 {
        fill: url(#linear-gradient-15);
      }

      .cls-21 {
        fill: url(#radial-gradient-2);
      }

      .cls-22 {
        fill: url(#linear-gradient-16);
      }

      .cls-23 {
        fill: url(#radial-gradient-3);
      }

      .cls-24 {
        fill: url(#linear-gradient-17);
      }

      .cls-25 {
        fill: url(#linear-gradient-18);
      }

      .cls-26 {
        fill: url(#linear-gradient-19);
      }

      .cls-27 {
        fill: url(#linear-gradient-20);
      }

      .cls-28 {
        fill: url(#linear-gradient-21);
      }

      .cls-29 {
        fill: #dfe3fb;
      }

      .cls-30 {
        fill: url(#linear-gradient-22);
      }

      .cls-31 {
        fill: url(#linear-gradient-23);
      }

      .cls-32 {
        fill: url(#linear-gradient-24);
      }

      .cls-33 {
        fill: url(#linear-gradient-25);
      }

      .cls-34 {
        fill: url(#linear-gradient-26);
      }

      .cls-35 {
        fill: url(#radial-gradient-4);
      }

      .cls-36 {
        fill: url(#linear-gradient-27);
      }

      .cls-37 {
        fill: url(#radial-gradient-5);
      }

      .cls-38 {
        fill: url(#linear-gradient-28);
      }

      .cls-39 {
        fill: #6340a2;
      }

      .cls-40 {
        fill: url(#linear-gradient-29);
      }

      .cls-41 {
        fill: url(#radial-gradient-6);
      }

      .cls-42 {
        fill: url(#radial-gradient-7);
      }

      .cls-43 {
        fill: #2f95cd;
      }

      .cls-44 {
        fill: url(#linear-gradient-30);
      }

      .cls-45 {
        fill: url(#linear-gradient-31);
      }

      .cls-46 {
        fill: url(#linear-gradient-32);
      }

      .cls-47, .cls-48, .cls-50, .cls-51 {
        opacity: 0.72;
      }

      .cls-47 {
        fill: url(#linear-gradient-33);
      }

      .cls-48 {
        fill: url(#linear-gradient-34);
      }

      .cls-49 {
        fill: url(#linear-gradient-35);
      }

      .cls-50 {
        fill: url(#linear-gradient-36);
      }

      .cls-51 {
        fill: url(#linear-gradient-37);
      }

      .cls-52 {
        fill: url(#linear-gradient-38);
      }

      .cls-53 {
        fill: url(#linear-gradient-39);
      }

      .cls-54 {
        fill: url(#linear-gradient-40);
      }

      .cls-55 {
        fill: url(#linear-gradient-41);
      }

      .cls-56 {
        fill: url(#linear-gradient-42);
      }

      .cls-57 {
        fill: url(#linear-gradient-43);
      }

      .cls-58 {
        fill: url(#linear-gradient-44);
      }

      .cls-59 {
        fill: url(#linear-gradient-45);
      }
    </style>
    <radialGradient id="radial-gradient" cx="0.5" cy="0.496" r="0.498" gradientTransform="matrix(1, 0, 0, -1, 0, 0.992)" gradientUnits="objectBoundingBox">
      <stop offset="0" stop-color="#559dea"/>
      <stop offset="0.431" stop-color="#5ea9f5"/>
      <stop offset="1" stop-color="#fff" stop-opacity="0"/>
    </radialGradient>
    <linearGradient id="linear-gradient" x1="0.386" y1="0.314" x2="1" y2="0.879" gradientUnits="objectBoundingBox">
      <stop offset="0" stop-color="#cbc1f7"/>
      <stop offset="1" stop-color="#e8dcf7"/>
    </linearGradient>
    <linearGradient id="linear-gradient-2" x1="0.003" y1="-5.958" x2="1" y2="-5.958" gradientUnits="objectBoundingBox">
      <stop offset="0" stop-color="#8879ea"/>
      <stop offset="1" stop-color="#9e8cef"/>
    </linearGradient>
    <linearGradient id="linear-gradient-3" x1="0.714" y1="1" x2="0.499" y2="-2.484" gradientUnits="objectBoundingBox">
      <stop offset="0" stop-color="#9d68c2"/>
      <stop offset="1" stop-color="#ccedff"/>
    </linearGradient>
    <linearGradient id="linear-gradient-4" x1="0.499" y1="7.295" x2="0.499" y2="8.298" gradientUnits="objectBoundingBox">
      <stop offset="0" stop-color="#b9acf4"/>
      <stop offset="1" stop-color="#e1d1f5"/>
    </linearGradient>
    <linearGradient id="linear-gradient-5" x1="0.457" y1="1.285" x2="0.569" y2="2.304" xlink:href="#linear-gradient"/>
    <linearGradient id="linear-gradient-6" x1="0" y1="2.981" y2="2.981" xlink:href="#linear-gradient-2"/>
    <linearGradient id="linear-gradient-7" x1="0.5" y1="1.463" x2="0.5" y2="2.463" xlink:href="#linear-gradient-3"/>
    <linearGradient id="linear-gradient-8" x1="0.5" x2="0.676" y2="1.469" gradientUnits="objectBoundingBox">
      <stop offset="0" stop-color="#cbc1f7"/>
      <stop offset="1" stop-color="#d4bef1"/>
    </linearGradient>
    <linearGradient id="linear-gradient-9" x1="0.444" y1="0.5" x2="0.5" y2="1.781" xlink:href="#linear-gradient-3"/>
    <linearGradient id="linear-gradient-10" x1="0.577" y1="-3.88" x2="0.429" y2="-2.891" gradientUnits="objectBoundingBox">
      <stop offset="0" stop-color="#be9dea"/>
      <stop offset="1" stop-color="#9e8cef"/>
    </linearGradient>
    <linearGradient id="linear-gradient-11" x1="0.5" y1="-0.233" x2="0.132" y2="0.697" xlink:href="#linear-gradient"/>
    <linearGradient id="linear-gradient-12" x1="0.523" y1="-11.342" x2="0.463" y2="-10.2" xlink:href="#linear-gradient-10"/>
    <linearGradient id="linear-gradient-13" x1="0.424" y1="0.97" x2="0.585" y2="0.006" gradientUnits="objectBoundingBox">
      <stop offset="0" stop-color="#ff2a30"/>
      <stop offset="1" stop-color="#ff7f7f"/>
    </linearGradient>
    <linearGradient id="linear-gradient-14" x1="0.42" y1="1.069" x2="0.682" y2="-0.051" gradientUnits="objectBoundingBox">
      <stop offset="0" stop-color="#d4000b"/>
      <stop offset="1" stop-color="#fe1100"/>
    </linearGradient>
    <linearGradient id="linear-gradient-15" x1="0.472" y1="1.017" x2="0.515" y2="0.122" gradientUnits="objectBoundingBox">
      <stop offset="0" stop-color="#8da4e5"/>
      <stop offset="1" stop-color="#755cbb"/>
    </linearGradient>
    <radialGradient id="radial-gradient-2" cx="0.519" cy="0.439" r="0.56" gradientTransform="matrix(0.713, 0.527, -0.442, 0.85, -2.116, 0.019)" gradientUnits="objectBoundingBox">
      <stop offset="0" stop-color="#45ffcd"/>
      <stop offset="1" stop-color="#22e0ff"/>
    </radialGradient>
    <linearGradient id="linear-gradient-16" x1="0.441" y1="0.984" x2="0.539" y2="-0.028" xlink:href="#linear-gradient-15"/>
    <radialGradient id="radial-gradient-3" cx="0.496" cy="0.507" r="0.561" gradientTransform="translate(0.093) scale(0.813 1)" xlink:href="#radial-gradient-2"/>
    <linearGradient id="linear-gradient-17" x1="0.447" y1="0.976" x2="0.541" y2="-0.083" xlink:href="#linear-gradient-3"/>
    <linearGradient id="linear-gradient-18" x1="0.525" y1="-0.827" x2="0.583" y2="1.59" xlink:href="#linear-gradient"/>
    <linearGradient id="linear-gradient-19" x1="0.528" y1="-6.539" x2="0.454" y2="-5.659" xlink:href="#linear-gradient-10"/>
    <linearGradient id="linear-gradient-20" x1="0.5" y1="2.745" x2="0.5" y2="3.747" xlink:href="#linear-gradient-15"/>
    <linearGradient id="linear-gradient-21" x1="0.486" y1="3.739" x2="0.509" y2="4.706" gradientUnits="objectBoundingBox">
      <stop offset="0" stop-color="#5e36cc"/>
      <stop offset="1" stop-color="#6c4a96"/>
    </linearGradient>
    <linearGradient id="linear-gradient-22" x1="0.5" y1="0.05" x2="0.5" y2="0.943" gradientUnits="objectBoundingBox">
      <stop offset="0" stop-color="#0665bd"/>
      <stop offset="1" stop-color="#1a1f77"/>
    </linearGradient>
    <linearGradient id="linear-gradient-23" x1="0.539" y1="0.272" x2="0.75" y2="0.911" xlink:href="#linear-gradient"/>
    <linearGradient id="linear-gradient-24" x1="0.499" y1="3.498" x2="0.499" y2="4.497" xlink:href="#linear-gradient-4"/>
    <linearGradient id="linear-gradient-25" x1="0" x2="0.659" y2="1.714" xlink:href="#linear-gradient-3"/>
    <linearGradient id="linear-gradient-26" x1="0.499" y1="3.696" x2="0.499" y2="4.696" xlink:href="#linear-gradient-10"/>
    <radialGradient id="radial-gradient-4" cx="0.499" cy="0.499" r="0.429" gradientTransform="matrix(1.453, 0, 0, -1, -0.226, 8.389)" gradientUnits="objectBoundingBox">
      <stop offset="0" stop-color="#94fdff"/>
      <stop offset="1" stop-color="#22e0ff"/>
    </radialGradient>
    <linearGradient id="linear-gradient-27" x1="-0.001" y1="-1.038" x2="1" y2="-1.038" xlink:href="#linear-gradient-10"/>
    <radialGradient id="radial-gradient-5" cx="0.516" cy="0.843" r="0.623" gradientTransform="matrix(1.215, 0, 0, -1, -0.111, -2.876)" xlink:href="#radial-gradient-4"/>
    <linearGradient id="linear-gradient-28" x1="-0.005" y1="-0.039" x2="0.997" y2="-0.039" xlink:href="#linear-gradient-2"/>
    <linearGradient id="linear-gradient-29" x1="0.332" y1="0.047" x2="0.651" y2="0.598" xlink:href="#linear-gradient"/>
    <radialGradient id="radial-gradient-6" cx="0.501" cy="0.496" r="0.422" gradientTransform="matrix(1.55, 0, 0, -1, -0.275, 12.332)" xlink:href="#radial-gradient-4"/>
    <radialGradient id="radial-gradient-7" cx="0.498" cy="0.5" r="1.133" gradientTransform="matrix(0.328, 0, 0, -1, 0.335, 45.531)" xlink:href="#radial-gradient-4"/>
    <linearGradient id="linear-gradient-30" x1="-0.001" y1="6.506" x2="0.999" y2="6.506" gradientUnits="objectBoundingBox">
      <stop offset="0" stop-color="#0d49a1"/>
      <stop offset="1" stop-color="#fff" stop-opacity="0"/>
    </linearGradient>
    <linearGradient id="linear-gradient-31" x1="-0.001" y1="8.314" x2="0.999" y2="8.314" gradientUnits="objectBoundingBox">
      <stop offset="0" stop-color="#0b52aa"/>
      <stop offset="1" stop-color="#6a9bff"/>
    </linearGradient>
    <linearGradient id="linear-gradient-32" x1="0.495" y1="3.62" x2="0.495" y2="4.62" xlink:href="#linear-gradient-31"/>
    <linearGradient id="linear-gradient-33" x1="0.499" y1="10.481" x2="0.499" y2="11.483" gradientUnits="objectBoundingBox">
      <stop offset="0" stop-color="#d4e2ff"/>
      <stop offset="1"/>
    </linearGradient>
    <linearGradient id="linear-gradient-34" x1="-0.001" y1="14.507" x2="1.001" y2="14.507" gradientUnits="objectBoundingBox">
      <stop offset="0" stop-color="#59eeff"/>
      <stop offset="1" stop-color="#eff4ff"/>
    </linearGradient>
    <linearGradient id="linear-gradient-35" x1="0.336" y1="-0.393" x2="0.5" y2="1.174" xlink:href="#linear-gradient-15"/>
    <linearGradient id="linear-gradient-36" x1="-0.001" y1="-2.68" x2="1.001" y2="-2.68" xlink:href="#linear-gradient-34"/>
    <linearGradient id="linear-gradient-37" x1="0.498" y1="-30.67" x2="0.498" y2="-29.683" gradientUnits="objectBoundingBox">
      <stop offset="0" stop-color="#fff" stop-opacity="0.969"/>
      <stop offset="1" stop-color="#fff" stop-opacity="0"/>
    </linearGradient>
    <linearGradient id="linear-gradient-38" x1="0.146" y1="0.378" x2="0.146" y2="1.319" xlink:href="#linear-gradient-3"/>
    <linearGradient id="linear-gradient-39" x1="0.5" y1="0.029" x2="0.742" y2="0.721" xlink:href="#linear-gradient"/>
    <linearGradient id="linear-gradient-40" x1="0.498" y1="-7.585" x2="0.498" y2="-6.589" xlink:href="#linear-gradient-10"/>
    <linearGradient id="linear-gradient-41" x1="0.708" y1="0.281" x2="1" y2="1.485" xlink:href="#linear-gradient-3"/>
    <linearGradient id="linear-gradient-42" x1="0.863" y1="1.787" x2="0.318" y2="-0.05" xlink:href="#linear-gradient"/>
    <linearGradient id="linear-gradient-43" x1="-5.513" y1="-4.341" x2="-5.513" y2="-3.317" xlink:href="#linear-gradient-10"/>
    <linearGradient id="linear-gradient-44" x1="-6.962" y1="-10.507" x2="-6.962" y2="-9.543" xlink:href="#linear-gradient-15"/>
    <linearGradient id="linear-gradient-45" x1="-5.248" y1="-5.93" x2="-4.954" y2="-4.945" xlink:href="#linear-gradient"/>
  </defs>
  <g id="robotukas5" transform="translate(0.015)">
    <g id="Group_744" data-name="Group 744" transform="translate(-862.3 -434.5)">
      <path id="Path_1570" data-name="Path 1570" class="cls-1" d="M871,529.6c-7.7,25.6,26.7,75.7,78.3,75,57.5-.8,103.2-50,105.6-91.5,2.5-41.4-38.9-70.6-72.7-63.2s-46.1,30.2-62,44.8C911,503.3,881.2,495.8,871,529.6Z"/>
      <g id="Group_743" data-name="Group 743">
        <path id="Path_1571" data-name="Path 1571" class="cls-1" d="M864.7,565.2a22.811,22.811,0,0,0-2.4,10.2,3.232,3.232,0,0,0,.3,1.7,3.59,3.59,0,0,0,2.7,1.7,6.992,6.992,0,0,0,6.7-3.7,8.3,8.3,0,0,0-.3-7.8,5.681,5.681,0,0,0-3.2-2.9,3.246,3.246,0,0,0-3.8,1.6.749.749,0,0,0,1.2,0Z"/>
        <path id="Path_1572" data-name="Path 1572" class="cls-2" d="M1043.5,434.8a.319.319,0,0,1,.3-.3.52.52,0,0,1,.4.2c.1.1.2.2.2.3a.585.585,0,0,1-.3.7.854.854,0,0,1-.7,0c-.1-.1-.2-.2-.2-.3s0-.3.2-.3Z"/>
      </g>
    </g>
    <ellipse id="Ellipse_62" data-name="Ellipse 62" class="cls-3" cx="40.8" cy="9.1" rx="40.8" ry="9.1" transform="translate(55.8 193.6)"/>
    <g id="robo" transform="translate(-862.3 -434.5)">
      <path id="Path_1573" data-name="Path 1573" class="cls-4" d="M955.5,599.7c-.4,4.4-7.3,18.4-12.7,22.2h0a3.832,3.832,0,0,1-2.9.9c-3.9-.8-5.8-19.4-6-29.9-.1-4.1.1-6.9.5-7C938,584.9,955.9,594.5,955.5,599.7Z"/>
      <path id="Path_1574" data-name="Path 1574" class="cls-5" d="M955.5,601.2s-4.8,2.6-12.3-1.1c-5.8-2.9-9.8-12.5-8.8-14.2C935.5,584.2,958.2,594.4,955.5,601.2Z"/>
      <path id="Path_1575" data-name="Path 1575" class="cls-6" d="M955.5,599.7c-.4,4.4-7.3,18.4-12.7,22.2,4.1-4.7,4.2-14.2,1.6-18.6-2-3.3-7.8-8.2-10.5-10.4-.1-4.1.1-6.9.5-7C938,584.9,955.9,594.5,955.5,599.7Z"/>
      <path id="Path_1579" data-name="Path 1579" class="cls-7" d="M926.1,457.4s-6.9,7.3-7.7,20.9c-.8,13.5,14.9-6,14.9-6Z"/>
      <path id="Path_1580" data-name="Path 1580" class="cls-8" d="M921.6,472.3s3.1-16.7,8.3-20.2,14.5-.3,14.5-.3Z"/>
      <path id="Path_1581" data-name="Path 1581" class="cls-9" d="M1001.6,511.3c-11.8,18.5-70,21.4-80,12.2a27.07,27.07,0,0,1-7.8-14h0c-5.4-23.4,12.8-58.2,43-61.6,20.4-2.3,37.5,14.6,44.7,32.7C1005.9,491.8,1006.5,503.5,1001.6,511.3Z"/>
      <path id="Path_1582" data-name="Path 1582" class="cls-10" d="M990.2,520.2a112.7,112.7,0,0,1-25.3,7.1c-13.5,1.8-23.5,1.6-29.2.1h0q-5.7-1.5-5.7-4.2c0-1.1,2.5-2.4,6.6-3.7,12-3.9,37.3-7.9,51.3-7.7a32.534,32.534,0,0,1,3.3.2,1.268,1.268,0,0,1,.6.1h.1c2.4.3,4.2.8,5.1,1.5a2.655,2.655,0,0,1,.5.6C998.2,515.8,995,518,990.2,520.2Z"/>
      <path id="Path_1583" data-name="Path 1583" class="cls-11" d="M1001.6,511.3c-11.8,18.5-70,21.4-80,12.2a27.07,27.07,0,0,1-7.8-14h0s4.9,7,16.7,6.9c11.9-.1,45.7-6.4,52-12.5,6.2-6,.4-29.1.4-29.1l18.5,5.8C1005.9,491.8,1006.5,503.5,1001.6,511.3Z"/>
      <g id="ranka-kaire">
        <path id="Path_1576" data-name="Path 1576" class="cls-12" d="M940.4,559.9s-20.6,11.7-25.4,11.2-2.7-11.5-2.7-11.5c.6-.8,1.4-1.5,2.1-2.3h0c7.7-8.2,20.9-18.6,28.5-23.5h0c3.2-2.1,5.4-3.2,5.8-2.8C951.6,534.1,940.4,559.9,940.4,559.9Z"/>
        <path id="Path_1578" data-name="Path 1578" class="cls-13" d="M940.4,559.9s-20.6,11.7-25.4,11.2-2.7-11.5-2.7-11.5c.6-.8,1.4-1.5,2.1-2.3h0s5,3,14.3,1.5c9.3-1.4,14.2-25.1,14.2-25.1h0c3.2-2.1,5.4-3.2,5.8-2.8C951.6,534.1,940.4,559.9,940.4,559.9Z"/>
        <path id="Path_1623" data-name="Path 1623" class="cls-14" d="M921.8,551.9c.2.7,5.1-1.5,5.1-3.6S921.5,550.9,921.8,551.9Z"/>
        <path id="Path_1577" data-name="Path 1577" class="cls-15" d="M912.3,559.7s2.7-2.3,6,.8c3.3,3-.1,10.3-3.3,10.7C911.8,571.5,909.9,564.4,912.3,559.7Z"/>
        <path id="Path_1600" data-name="Path 1600" class="cls-16" d="M917.5,566.6s-4.1,6.4-8.4,9.5c-4.4,3.1-13,4.5-13,4.5s-6.1-2.8-6.1-7c0,0,6.6-3.3,9.1-8.6,0,0,8.5-3,12.2-2a13.824,13.824,0,0,1,6.2,3.6Z"/>
        <path id="Path_1601" data-name="Path 1601" class="cls-17" d="M905.3,564.6l7,4.6-8.9-3.8Z"/>
        <g id="Group_745" data-name="Group 745">
          <path id="Path_1627" data-name="Path 1627" class="cls-18" d="M918.9,572.9h0c-1,1.1-17.2,18.6-24.7,37.2l-31.4-8.5a119.15,119.15,0,0,1,12.7-19.9h0a109.583,109.583,0,0,1,18.6-18.8,68.487,68.487,0,0,1,24.8,10Z"/>
          <path id="Path_1628" data-name="Path 1628" class="cls-19" d="M896.3,561.7s1.1,14.7-1.6,23.3c0,0-21.4,8-31.4,16.4l32.5-16C895.9,585.3,898.1,570.6,896.3,561.7Z"/>
          <path id="Path_1629" data-name="Path 1629" class="cls-20" d="M889.4,566.8s2.4,4.2,9.6,4.1c7.1-.1,9.2-3.6,9.2-3.6l-4.2-1.8-11.1-1.7C892.8,563.9,889.6,566.6,889.4,566.8Z"/>
          <path id="Path_1630" data-name="Path 1630" class="cls-21" d="M888.5,583.2c0,2.6,3.9,6.4,7.7,5.3,4.8-1.3,5.1-8.2,2.4-9.3-2.8-1.2-3.5.6-5,.6C892.2,580,888.5,580.1,888.5,583.2Z"/>
          <path id="Path_1631" data-name="Path 1631" class="cls-22" d="M894.8,587a5.02,5.02,0,0,1-1.2-.2,6.791,6.791,0,0,1-3.2-2.3c-1.2-1.2-1.5-2.2-.5-3.1,1.5-1.3,5.2-1.5,6.5-1.7.9-.1,1.4.3,1.9,1.4a12.192,12.192,0,0,1,.5,1.7,3.787,3.787,0,0,1-4,4.2Z"/>
          <path id="Path_1632" data-name="Path 1632" class="cls-23" d="M894.8,587a5.02,5.02,0,0,1-1.2-.2,9.416,9.416,0,0,1-1-1c-1.2-1.3-1.5-2.2-.5-3.1,1.4-1.2,4.6-1.5,6.1-1.6a12.205,12.205,0,0,1,.5,1.7,3.668,3.668,0,0,1-3.9,4.2Z"/>
          <path id="Path_1633" data-name="Path 1633" class="cls-24" d="M862.7,601.6a119.147,119.147,0,0,1,12.7-19.9c-.5.8-7.9,12.4-9.6,15.8l3.9.5,26.3,3.3s13.4-19.6,22.7-28.3c-13,14.9-23.9,39.4-23.9,39.4Z"/>
        </g>
        <path id="Path_1634" data-name="Path 1634" class="cls-25" d="M915,561.1s-4.4-4.6-8-4.9c-3.7-.3-13,3.7-15.8,9,0,0,.4,1.3,3.6,2,3.2.8,10.5-2.6,10.5-2.6l12.2,2.1a9.2,9.2,0,0,0-2.5-5.6Z"/>
        <path id="Path_1635" data-name="Path 1635" class="cls-26" d="M905.3,564.6s5.9-1.8,6.6-6.2l.9.7S912,563.7,905.3,564.6Z"/>
        <path id="Path_1636" data-name="Path 1636" class="cls-14" d="M894.9,562.7c.1.9,6.6-2.1,6.6-3.2S894.8,561.2,894.9,562.7Z"/>
      </g>
      <path id="Path_1584" data-name="Path 1584" class="cls-27" d="M990.2,520.2c-6.2-1.8-24.1-6-37.3-1.2-16.2,6-17.2,8.4-17.2,8.4h0q-5.7-1.5-5.7-4.2c0-1.1,2.5-2.4,6.6-3.7,12-3.9,37.3-7.9,51.3-7.7,1.5.1,2.8.1,4,.2h.1c2.4.3,4.2.8,5.1,1.5a2.653,2.653,0,0,1,.5.6C998.2,515.8,995,518,990.2,520.2Z"/>
      <path id="Path_1585" data-name="Path 1585" class="cls-28" d="M991.2,511.9c-2.8,3.5-17.8,8.2-26.5,9.3-15.7,2.1-25.5.9-28.1-1.8C949.6,515.3,978.3,510.8,991.2,511.9Z"/>
      <path id="Path_1586" data-name="Path 1586" class="cls-29" d="M913.8,510.6c3.4,6.8,53.4,2.8,64.4-11.4s-6.5-54.1-32.2-46.9C921.5,459.3,907.6,498.2,913.8,510.6Z"/>
      <path id="Path_1587" data-name="Path 1587" class="cls-30" d="M913.8,509.5c3.4,6.8,53.4,2.8,64.4-11.4S971.7,444,946,451.2C921.5,458.2,907.6,497.1,913.8,509.5Z"/>
      <path id="Path_1588" data-name="Path 1588" class="cls-31" d="M984.7,578.5c-3.5,16-12.7,22.9-29.2,22.7-16.1-.2-26-17.7-20.8-38.2,3.3-13.1,7.2-24.7,14-32h0a23.541,23.541,0,0,1,15-7.5c4.9-.6,9,2.1,12.3,6.6C984.6,541.8,987.4,566.1,984.7,578.5Z"/>
      <path id="Path_1589" data-name="Path 1589" class="cls-32" d="M980.7,454.8s-2.7,24.6,12.5,33.4c0,0,7.5.8,11.8-3.7,0,0-6.8,6.3-13.9-.3s-5.4-24.8,0-30.8c5.4-5.9,13.2-4.4,13.2-4.4l-3.1-2.8S989.7,443.8,980.7,454.8Z"/>
      <path id="Path_1590" data-name="Path 1590" class="cls-33" d="M976,548.3a196.067,196.067,0,0,1,1.7,20.9c0,9.9-6.1,18.6-6.1,18.6l12.3-6.6a35.2,35.2,0,0,0,1.7-13.1c-.6-6.6-1.1-9.6-1.1-9.6Z"/>
      <path id="Path_1591" data-name="Path 1591" class="cls-34" d="M1001.2,446.2s-8.5-.8-14.4,9c-6.3,10.4-1.7,28.4,5.9,31.2,7.6,2.7,15.3-26.4,15.3-26.4l-4.4-11.6a4.11,4.11,0,0,0-2.4-2.2Z"/>
      <path id="Path_1592" data-name="Path 1592" class="cls-35" d="M1012.2,471c-1.1,5.6-3.4,10.2-6.4,13.1h0l-.9.8h0a11.232,11.232,0,0,1-8.6,2.6c-10.3-1.3-11.7-16.2-10.5-24.7,1.4-9.8,9.8-15.6,16.4-14.8C1010.1,449.1,1014.3,460,1012.2,471Z"/>
      <path id="Path_1593" data-name="Path 1593" class="cls-36" d="M933.9,565.6s3.7-12.1,15.3-12.1c13.9,0,23.2,15.4,22.4,25.8s-4,20.2-17.1,20.6C954.5,599.8,929.9,599.3,933.9,565.6Z"/>
      <path id="Path_1594" data-name="Path 1594" class="cls-37" d="M933.9,566.9s3.7-12.1,15.3-12.1c13.9,0,23.2,15.4,22.4,25.8s-4,20.2-17.1,20.6C954.5,601.2,929.9,600.6,933.9,566.9Z"/>
      <path id="Path_1595" data-name="Path 1595" class="cls-38" d="M982.6,561.8c-.6,0-1.2-.5-1.9-1.4-2.9-3.9-6-15.1-5.9-21.3,0-2.4.5-4.1,1.6-4.3,1.9-.3,5.6,5.9,7.5,14.7C984.9,554.7,985.2,561.8,982.6,561.8Z"/>
      <path id="Path_1596" data-name="Path 1596" class="cls-39" d="M980.7,560.4c-2.9-3.9-6-15.1-5.9-21.3,1.8,2.4,4,7.2,5.2,13.1a33.69,33.69,0,0,1,.7,8.2Z"/>
      <path id="Path_1598" data-name="Path 1598" class="cls-40" d="M984.2,627.4c-1.1.5-2.6,0-4.3-1.3a35.937,35.937,0,0,1-6.1-6.2h0c-5.9-7.3-11.7-17.4-11.4-19.6,1-7.8,11.6-14.6,17.9-17.6,2.5-1.2,4.3-1.8,4.6-1.6C986,581.6,989.8,624.7,984.2,627.4Z"/>
      <path id="Path_1602" data-name="Path 1602" class="cls-41" d="M919.7,493.4c1.2,3.8,9.1,2.8,11.2-3.2s-.2-13.7-4.2-14C922.7,475.8,917.4,485.8,919.7,493.4Z"/>
      <path id="Path_1603" data-name="Path 1603" class="cls-42" d="M951.9,480.4c-.3.5,5.7-5.1,17.3-3C970.3,477.6,957,469.6,951.9,480.4Z"/>
      <path id="Path_1604" data-name="Path 1604" class="cls-43" d="M940.2,501.5s11.1-2.9,16-11.8C956.3,489.7,954.4,501.7,940.2,501.5Z"/>
      <path id="Path_1605" data-name="Path 1605" class="cls-44" d="M921.6,476.8c1.4,1.5,9.8-5.1,20.2-6.1,10.4-.9,23.5,6.9,31.6,4.1,6.4-2.3-6.9-24.5-24.2-23.3C931.9,452.6,920.2,475.3,921.6,476.8Z"/>
      <path id="Path_1606" data-name="Path 1606" class="cls-45" d="M924.8,509.6a71.6,71.6,0,0,1,23.5-5.9c13.4-1.1,15.8-.1,15.8,1.2s-9.1,5.7-21.3,6.7C930.5,512.6,924.8,509.6,924.8,509.6Z"/>
      <path id="Path_1607" data-name="Path 1607" class="cls-46" d="M913.8,507.5s-3.1-9,2.7-23.7c0,0,1.4-2.4,2.4-1.8C919.8,482.6,913.3,493.7,913.8,507.5Z"/>
      <path id="Path_1608" data-name="Path 1608" class="cls-47" d="M987.5,474.7s1.1,9.1,7.8,11.1,12.2-2.9,13.9-9.7c0,0-2.1,5.9-10.9,4.4C989.6,479,987.5,474.7,987.5,474.7Z"/>
      <path id="Path_1609" data-name="Path 1609" class="cls-48" d="M988.7,457.4c.1,1.7,12.4-1.8,16.3-1.3s5.6,5.3,6.2,5.2-1-11.4-8.3-12.2S988.6,456.2,988.7,457.4Z"/>
      <path id="Path_1610" data-name="Path 1610" class="cls-49" d="M976.1,530s-17,6.4-23.5,5.7c-6.3-.7-3.9-4.5-3.8-4.7h0a23.541,23.541,0,0,1,15-7.5C968.7,522.9,972.8,525.5,976.1,530Z"/>
      <path id="Path_1617" data-name="Path 1617" class="cls-50" d="M935.5,566c1.7,3.3,8.3-.9,16.4,0s12.5,5.2,14.8,4.1c2.3-1.2-5-13.3-17.5-13.8C939.2,555.8,934.9,564.8,935.5,566Z"/>
      <path id="Path_1618" data-name="Path 1618" class="cls-51" d="M944.5,596.1a14.166,14.166,0,0,0,9.1,3.7c5.6.2,7.5-2.5,7.5-2.5a11.641,11.641,0,0,0-6.5-.3,18.815,18.815,0,0,1-10.1-.9Z"/>
      <path id="Path_1619" data-name="Path 1619" class="cls-52" d="M984.2,627.4c-1.1.5-2.6,0-4.3-1.3l-6.1-6.2c.6.5,7.4,6.5,8.7-5.9,1.4-13-2.8-30.5-2.8-30.5l.6-.8c2.5-1.2,4.3-1.8,4.6-1.6C986,581.6,989.8,624.7,984.2,627.4Z"/>
      <g id="ranka-desine">
        <path id="Path_1597" data-name="Path 1597" class="cls-53" d="M1010.1,584.9c-1.9,6-9,6.7-11,5.2-1.8-1.3-6.8-7.1-11.6-17.8h0c-.7-1.6-1.4-3.3-2.1-5-5.3-14-9.3-39.7-3.8-38.7h0C997.6,531.5,1012,578.9,1010.1,584.9Z"/>
        <path id="Path_1599" data-name="Path 1599" class="cls-54" d="M995.6,586.4s.1-5.6,5-7.5c4.9-2,9.7,4.6,9.7,4.6a6.428,6.428,0,0,1-6.6,6.4C997,589.9,995.6,586.4,995.6,586.4Z"/>
        <path id="Path_1611" data-name="Path 1611" class="cls-55" d="M1010.1,584.9c-1.9,6-9,6.7-11,5.2-1.8-1.3-6.8-7.1-11.6-17.8.5.9,4,7.4,7.1,7.4,3.4,0,9.9-9.4,3.3-29-6.4-19-15.7-22-16.3-22.1C997.6,531.5,1012,578.9,1010.1,584.9Z"/>
        <path id="Path_1612" data-name="Path 1612" class="cls-56" d="M1001.5,581.7c2.8-.8,7.2,1.5,8.7,3.7,1.5,2.3,5.4,11.8,3.2,24.1,0,0-4.2,5.5-8.8,4.3-3.6-.9-4.4-11.5-5.4-19C998.3,587.2,996.9,582.9,1001.5,581.7Z"/>
        <path id="Path_1613" data-name="Path 1613" class="cls-57" d="M1005.3,614.1s1.7-24.6-8.3-28.6c0,0-.1,4,2,13.2C1000.9,608,1003,613.5,1005.3,614.1Z"/>
        <path id="Path_1614" data-name="Path 1614" class="cls-58" d="M1004.6,600.6s-2.1,3.8-3.7,4.6a4.1,4.1,0,0,1-3,.3l5.1-11.6a30.486,30.486,0,0,1,1.6,6.7Z"/>
        <path id="Path_1615" data-name="Path 1615" class="cls-59" d="M1003,593.9s-2-6.6-6.3-7.8c0,0-3.4,4.1-1,18.4,0,0,2.4,2.6,5.1-.5a37.069,37.069,0,0,0,2.2-10.1Z"/>
        <path id="Path_1616" data-name="Path 1616" class="cls-14" d="M1000.4,591.7c1.4-.1-.1,6.2-.8,6.1S999.3,591.8,1000.4,591.7Z"/>
        <path id="Path_1620" data-name="Path 1620" class="cls-14" d="M984.6,551c-2.4,1.4,2.6,11.5,3.7,11.7C989.5,563,986.3,550,984.6,551Z"/>
        <path id="Path_1621" data-name="Path 1621" class="cls-14" d="M989.1,564.4c-.5.1.1,2.4.4,2.7.4.3,1.2.4,1.4.2S989.7,564.3,989.1,564.4Z"/>
      </g>
      <path id="Path_1622" data-name="Path 1622" class="cls-14" d="M965.1,540c-1,0-2.7,9.6-1.9,9.9s1.9-1.7,2.6-4.9C966.7,541.9,966.1,539.9,965.1,540Z"/>
      <path id="Path_1624" data-name="Path 1624" class="cls-14" d="M969.1,599.8c-2.1.5,1,5.7,1.5,5.9s.9-2,.5-3.6C970.7,600.8,969.8,599.7,969.1,599.8Z"/>
      <path id="Path_1625" data-name="Path 1625" class="cls-14" d="M939.6,604c-1.2-.3-.9,3.1-.7,3.3s.9-.8,1.1-1.7C940.2,604.8,940,604.1,939.6,604Z"/>
      <path id="Path_1626" data-name="Path 1626" class="cls-14" d="M971,606.4c-.4.3.6,2,.9,1.6a1.363,1.363,0,0,0,0-1.5.642.642,0,0,0-.9-.1Z"/>
    </g>
  </g>
</svg>
